<svg width="200" height="200" viewBox="0 0 200 200" fill="none" xmlns="http://www.w3.org/2000/svg">
<path fill-rule="evenodd" clip-rule="evenodd" d="M49.7525 49.6529C49.7527 53.4443 48.6286 57.1505 46.5225 60.303C44.4164 63.4555 41.4228 65.9127 37.9202 67.3638C34.4176 68.8149 30.5633 69.1949 26.8447 68.4556C23.1262 67.7163 19.7104 65.8909 17.0292 63.2103C14.3481 60.5298 12.5221 57.1143 11.782 53.3959C11.0419 49.6776 11.421 45.8233 12.8714 42.3203C14.3218 38.8174 16.7784 35.8232 19.9305 33.7164C23.0825 31.6097 26.7886 30.4849 30.5798 30.4843C33.0974 30.4839 35.5905 30.9794 37.9165 31.9425C40.2425 32.9057 42.3561 34.3175 44.1364 36.0975C45.9169 37.8775 47.3292 39.9908 48.2927 42.3166C49.2564 44.6425 49.7524 47.1354 49.7525 49.6529ZM34.1221 60.7132H26.995V57.0268H34.1221V60.7132ZM26.995 54.6069H34.141C34.4435 50.41 34.6704 49.8807 36.6385 45.6649C36.9458 44.7216 37.0215 43.7182 36.8593 42.7396C36.697 41.7609 36.3015 40.8356 35.7062 40.042C35.1109 39.2485 34.3333 38.6098 33.4392 38.1802C32.545 37.7505 31.5605 37.5425 30.569 37.5735C29.5737 37.5539 28.5882 37.7724 27.6943 38.2107C26.8005 38.6491 26.0244 39.2947 25.4306 40.0937C24.8369 40.8926 24.4426 41.822 24.2806 42.8042C24.1186 43.7864 24.1936 44.7931 24.4995 45.7405C24.584 45.9208 24.665 46.0935 24.7429 46.2594C26.4774 49.9553 26.6141 50.2465 26.995 54.6069Z" fill="#E5DFD5"/>
<path fill-rule="evenodd" clip-rule="evenodd" d="M115.94 60.3033C118.045 57.1507 119.17 53.4444 119.17 49.6529C119.17 44.569 117.15 39.6934 113.555 36.0985C109.96 32.5038 105.084 30.4843 100 30.4843C96.2085 30.4843 92.5023 31.6086 89.3498 33.715C86.1973 35.8214 83.7403 38.8154 82.2895 42.3183C80.8386 45.8211 80.459 49.6755 81.1988 53.3941C81.9384 57.1127 83.7644 60.5284 86.4454 63.2093C89.1264 65.8901 92.5422 67.7159 96.2608 68.4553C99.9794 69.1949 103.834 68.8151 107.336 67.3641C110.84 65.913 113.833 63.4559 115.94 60.3033ZM108.587 47.0947C108.929 47.1327 109.359 47.1805 109.831 47.6521C110.009 47.8275 110.151 48.0364 110.248 48.2667C110.345 48.497 110.397 48.7443 110.398 48.9943V50.2958C110.399 50.5467 110.35 50.7953 110.253 51.0272C110.158 51.2593 110.018 51.47 109.841 51.6474C109.662 51.8248 109.451 51.9655 109.22 52.0612C108.988 52.1569 108.739 52.2059 108.488 52.2052C108.362 52.2028 108.238 52.2398 108.132 52.3112C108.028 52.3824 107.947 52.4844 107.902 52.6032C107.87 52.6872 107.834 52.7693 107.799 52.8498C107.643 53.2029 107.5 53.5241 107.808 53.832C107.986 54.0095 108.126 54.2203 108.223 54.4522C108.318 54.6841 108.368 54.9327 108.368 55.1837C108.368 55.4348 108.318 55.6833 108.223 55.9153C108.126 56.1472 107.986 56.3579 107.808 56.5354L106.881 57.4618C106.704 57.6393 106.493 57.7802 106.262 57.8762C106.03 57.9723 105.781 58.0218 105.53 58.0218C105.278 58.0218 105.03 57.9723 104.798 57.8762C104.566 57.7802 104.355 57.6393 104.178 57.4618C104.09 57.3701 103.976 57.3082 103.851 57.2845C103.726 57.2608 103.597 57.2765 103.481 57.3295C103.405 57.3631 103.327 57.3931 103.25 57.4227C102.889 57.5612 102.555 57.6892 102.555 58.1255C102.556 58.3764 102.507 58.6249 102.411 58.8569C102.315 59.0889 102.175 59.2997 101.998 59.4771C101.82 59.6545 101.609 59.7952 101.377 59.8909C101.145 59.9866 100.896 60.0355 100.646 60.0349H99.3414C99.0905 60.0355 98.8419 59.9866 98.61 59.8909C98.3779 59.7952 98.1672 59.6545 97.9898 59.4771C97.8124 59.2997 97.6717 59.0889 97.576 58.8569C97.4802 58.6249 97.4313 58.3764 97.432 58.1255C97.4341 57.9987 97.3969 57.8743 97.3257 57.7694C97.2545 57.6646 97.1526 57.5843 97.034 57.5394C96.9526 57.508 96.8725 57.4717 96.7936 57.436C96.4502 57.2807 96.1299 57.1357 95.8241 57.4449C95.4652 57.8027 94.9791 58.0036 94.4724 58.0036C93.9656 58.0036 93.4795 57.8027 93.1207 57.4449L92.1943 56.5185C92.0168 56.341 91.8759 56.1303 91.7799 55.8983C91.6838 55.6664 91.6343 55.4179 91.6343 55.1668C91.6343 54.9158 91.6838 54.6672 91.7799 54.4353C91.8759 54.2034 92.0168 53.9926 92.1943 53.8151C92.2861 53.7272 92.3481 53.6128 92.3718 53.4881C92.3956 53.3632 92.3798 53.234 92.3266 53.1186C92.288 53.0353 92.2543 52.9495 92.2213 52.8652C92.084 52.5153 91.9572 52.1923 91.5306 52.1923C91.2797 52.193 91.0312 52.144 90.7992 52.0483C90.5672 51.9526 90.3564 51.8119 90.179 51.6345C90.0016 51.4571 89.8609 51.2463 89.7652 51.0143C89.6695 50.7824 89.6205 50.5338 89.6212 50.2829V48.9784C89.6205 48.7275 89.6695 48.4789 89.7652 48.2469C89.8609 48.015 90.0016 47.8042 90.179 47.6268C90.3564 47.4494 90.5672 47.3087 90.7992 47.213C91.0312 47.1173 91.2797 47.0683 91.5306 47.069C91.6575 47.0715 91.782 47.0345 91.887 46.9632C91.9919 46.892 92.0722 46.7898 92.1167 46.671C92.1486 46.587 92.185 46.5048 92.2206 46.4244C92.377 46.0712 92.5192 45.7501 92.2112 45.4422C92.0337 45.2647 91.8928 45.0539 91.7968 44.822C91.7007 44.5901 91.6512 44.3415 91.6512 44.0905C91.6512 43.8394 91.7007 43.5909 91.7968 43.359C91.8928 43.127 92.0337 42.9163 92.2112 42.7388L93.1376 41.8124C93.3151 41.6349 93.5258 41.494 93.7578 41.398C93.9897 41.3019 94.2382 41.2524 94.4893 41.2524C94.7403 41.2524 94.9889 41.3019 95.2208 41.398C95.4527 41.494 95.6635 41.6349 95.841 41.8124C95.9271 41.9016 96.0387 41.9621 96.1605 41.9858C96.2822 42.0094 96.4082 41.9951 96.5216 41.9448C96.5947 41.9133 96.6693 41.885 96.7429 41.857C97.1082 41.7183 97.4479 41.5892 97.4479 41.1488C97.4472 40.8978 97.4962 40.6493 97.5919 40.4172C97.6876 40.1853 97.8283 39.9746 98.0057 39.7972C98.1831 39.6197 98.3939 39.4791 98.6258 39.3833C98.8578 39.2876 99.1064 39.2387 99.3573 39.2394H100.661C100.911 39.2387 101.16 39.2876 101.392 39.3833C101.624 39.4791 101.835 39.6197 102.013 39.7972C102.19 39.9746 102.33 40.1853 102.426 40.4172C102.522 40.6493 102.571 40.8978 102.57 41.1488C102.568 41.2755 102.605 41.3998 102.677 41.5048C102.748 41.6096 102.85 41.6899 102.968 41.7348C103.049 41.7662 103.128 41.8024 103.207 41.8379C103.551 41.994 103.872 42.1397 104.178 41.8293C104.537 41.4717 105.023 41.2709 105.53 41.2709C106.037 41.2709 106.522 41.4717 106.881 41.8293L107.808 42.7557C108.164 43.1152 108.365 43.601 108.365 44.1074C108.365 44.6138 108.164 45.0996 107.808 45.4591C107.5 45.7738 107.639 46.0828 107.793 46.427C107.831 46.5117 107.869 46.5985 107.902 46.6879C108.031 47.0329 108.271 47.0597 108.587 47.0947ZM97.2914 53.6959C98.0932 54.2316 99.0358 54.5176 100 54.5176V54.5146C100.641 54.5164 101.276 54.3917 101.868 54.1474C102.46 53.9033 102.998 53.5445 103.451 53.0917C103.903 52.6389 104.263 52.1011 104.507 51.5091C104.752 50.9171 104.877 50.2826 104.875 49.6421C104.875 48.6778 104.59 47.7352 104.054 46.9334C103.518 46.1316 102.757 45.5067 101.866 45.1377C100.975 44.7687 99.9947 44.6722 99.049 44.8602C98.1032 45.0484 97.2345 45.5127 96.5526 46.1946C95.8707 46.8764 95.4064 47.7451 95.2183 48.6909C95.0302 49.6367 95.1267 50.617 95.4957 51.5078C95.8648 52.3987 96.4896 53.1602 97.2914 53.6959Z" fill="#E5DFD5"/>
<path d="M188.59 49.6528C188.59 53.4443 187.465 57.1504 185.359 60.3029C183.253 63.4554 180.259 65.9124 176.756 67.3633C173.253 68.8142 169.399 69.1938 165.68 68.4541C161.962 67.7145 158.546 65.8887 155.865 63.2078C153.185 60.5269 151.359 57.1112 150.619 53.3926C149.879 49.6741 150.258 45.8197 151.71 42.3169C153.161 38.8141 155.617 35.8202 158.77 33.7138C161.923 31.6074 165.629 30.4832 169.42 30.4832C174.505 30.4832 179.38 32.5028 182.975 36.0978C186.57 39.6929 188.59 44.5688 188.59 49.6528Z" fill="#E5DFD5"/>
<path d="M127.79 89.1098C125.408 85.3477 120.096 84.4592 115.937 87.1059C111.758 89.7327 108.375 95.6132 110.757 99.3563C113.139 103.099 120.398 103.326 124.558 100.699C128.717 98.0519 130.172 92.853 127.79 89.1098Z" fill="#008765"/>
<path d="M96.6727 113.743L99.2816 111.361L97.2777 111.304L96.6727 113.743Z" fill="#008765"/>
<path d="M52.0569 122.231C50.8037 121.514 49.6683 120.607 48.6908 119.545L50.8649 124.366C50.9839 124.6 51.19 124.779 51.4392 124.864C51.6883 124.949 51.9607 124.932 52.198 124.818C52.4353 124.705 52.6188 124.503 52.7089 124.256C52.7992 124.008 52.7891 123.736 52.6807 123.496L52.0569 122.231Z" fill="#008765"/>
<path d="M48.9177 117.902C49.2953 117.936 49.6688 118.006 50.0331 118.11L33.4534 84.1377C33.433 84.0961 33.4044 84.0591 33.3693 84.0288C33.3343 83.9986 33.2934 83.9757 33.2493 83.9616C33.2051 83.9475 33.1587 83.9424 33.1125 83.9467C33.0663 83.9509 33.0216 83.9645 32.9808 83.9865C32.8973 84.0335 32.8338 84.1094 32.8025 84.2C32.7711 84.2905 32.774 84.3894 32.8106 84.4781L48.048 118.208C48.0859 118.186 48.0669 117.826 48.9177 117.902Z" fill="#008765"/>
<path d="M110.833 99.8101C109.415 94.7813 102.972 93.9495 99.5464 96.0669C101.342 95.0271 102.76 95.6689 103.554 97.6589C104.161 99.3301 104.285 101.138 103.913 102.877C103.838 103.311 103.97 103.673 104.443 103.614C104.991 103.557 105.974 102.858 106.541 102.952C108.413 103.028 108.621 106.582 104.386 107.716C103.705 107.905 102.25 110.193 102.136 113.255C102.42 108.544 113.026 107.562 110.833 99.8101Z" fill="#008765"/>
<path d="M109.604 135.862L111.494 140.737C111.986 138.828 112.402 137.411 112.515 136.881L109.604 135.862Z" fill="#008765"/>
<path d="M38.3687 166.451C38.3687 166.795 38.2667 167.132 38.0756 167.417C37.8845 167.704 37.6129 167.927 37.2951 168.058C36.9773 168.189 36.6275 168.224 36.2901 168.156C35.9528 168.09 35.6429 167.924 35.3996 167.681C35.1564 167.438 34.9908 167.128 34.9236 166.79C34.8565 166.453 34.891 166.103 35.0226 165.785C35.1542 165.468 35.3772 165.196 35.6632 165.005C35.9492 164.814 36.2854 164.712 36.6294 164.712C36.8581 164.711 37.0845 164.756 37.2959 164.843C37.5071 164.93 37.6991 165.058 37.8607 165.219C38.0224 165.381 38.1505 165.573 38.2376 165.784C38.3248 165.996 38.3694 166.222 38.3687 166.451Z" stroke="#303030" stroke-linecap="round" stroke-linejoin="round"/>
<path d="M132.97 138.225C132.97 138.225 128.736 140.134 127.639 142.119L119.434 159.456C118.773 160.591 130.102 167.088 130.815 165.978L141.516 144.35C142.246 142.962 142.666 141.432 142.749 139.866C142.832 138.299 142.576 136.734 141.997 135.277C141.419 133.819 140.533 132.503 139.399 131.42C138.265 130.336 136.91 129.511 135.428 128.999C127.982 126.438 119.094 123.405 115.218 121.929C108.279 119.285 103.875 120.229 102.892 117.675C102.34 116.268 102.083 114.762 102.136 113.251" stroke="#303030" stroke-linecap="round" stroke-linejoin="round"/>
<path d="M97.2617 111.304C97.2418 111.341 97.0558 112.415 96.6727 113.724C95.9762 116.125 96.3125 118.369 90.9634 118.904C77.501 120.251 74.327 135.484 70.3002 147.677C65.0267 138.395 64.7879 138.438 60.7343 129.661C60.1841 128.467 46.8948 134.576 47.4431 135.767C47.4431 135.767 49.6938 139.946 54.5325 149.152C59.0328 157.716 62.1522 163.256 69.5818 163.256C77.3329 163.256 82.0591 154.446 83.4392 148.906" stroke="#303030" stroke-linecap="round" stroke-linejoin="round"/>
<path d="M99.5463 96.0856C98.828 96.5254 98.1729 97.061 97.5991 97.6776C96.9569 98.359 96.3628 99.084 95.821 99.8477C89.1127 109.086 94.1394 110.978 97.2608 111.304C97.9317 111.376 98.6075 111.389 99.2806 111.342L96.6717 113.743" stroke="#303030" stroke-linecap="round" stroke-linejoin="round"/>
<path d="M83.1368 130.455C81.0761 134.898 79.9916 138.657 83.5716 148.925C84.3367 151.122 85.3865 153.785 86.5019 156.602C87.069 160.458 110.171 156.734 109.604 152.876C109.717 146.146 112.191 138.319 112.515 136.883" stroke="#303030" stroke-linecap="round" stroke-linejoin="round"/>
<path d="M59.7323 129.585C58.5791 126.617 57.4219 123.48 56.8578 121.834C56.7123 121.403 56.4745 121.009 56.1611 120.679C55.8477 120.35 55.4661 120.092 55.043 119.925C53.3804 119.261 50.3734 118.017 48.9366 117.902C47.5376 117.791 48.084 118.811 48.5964 119.452C49.9941 120.881 51.6083 122.08 53.3793 123.006C53.3793 123.006 50.0709 128.224 51.9992 131.663" stroke="#303030" stroke-linecap="round" stroke-linejoin="round"/>
<path d="M44.5696 123.763C43.2347 122.828 41.8097 122.03 40.3159 121.38C35.8474 119.127 35.527 120.329 38.8035 123.233C40.607 124.825 42.2822 126.557 43.8134 128.413C45.355 130.511 46.7752 132.695 48.067 134.954" stroke="#303030" stroke-linecap="round" stroke-linejoin="round"/>
<path d="M47.1406 120.511C46.0252 119.358 42.5119 117.351 41.1856 116.431C37.0712 113.567 36.5936 114.728 39.4463 118.057C40.7483 119.554 41.9603 121.125 43.0761 122.765" stroke="#303030" stroke-linecap="round" stroke-linejoin="round"/>
<path d="M48.6341 117.297C47.3864 115.558 44.5318 111.89 43.5109 110.869C39.9567 107.315 39.2911 108.396 41.5259 112.174C42.608 114.211 43.5615 116.313 44.3805 118.469" stroke="#303030" stroke-linecap="round" stroke-linejoin="round"/>
<path d="M52.8131 119.056C51.9309 116.441 50.901 113.878 49.7286 111.38C47.3834 106.919 46.4302 107.733 47.46 112.042C47.7773 113.531 47.9921 115.04 48.1028 116.56" stroke="#303030" stroke-linecap="round" stroke-linejoin="round"/>
<path d="M43.7188 125.502C43.7944 125.313 46.0819 120.908 48.5943 119.471" stroke="#303030" stroke-linecap="round" stroke-linejoin="round"/>
<path d="M48.6719 119.547L50.8271 124.368C50.8793 124.489 50.9556 124.598 51.0512 124.689C51.1469 124.779 51.2599 124.85 51.3837 124.896C51.5074 124.943 51.6391 124.963 51.7709 124.957C51.9027 124.95 52.0318 124.917 52.1505 124.859C52.2732 124.801 52.3834 124.72 52.4744 124.618C52.5655 124.518 52.6357 124.4 52.6811 124.272C52.7264 124.144 52.746 124.008 52.7385 123.873C52.7311 123.737 52.697 123.604 52.638 123.482L52.033 122.234" stroke="#303030" stroke-linecap="round" stroke-linejoin="round"/>
<path d="M50.0331 118.129L33.4723 84.1565C33.2932 83.7525 32.6345 84.0391 32.8295 84.4779L48.067 118.209" stroke="#303030" stroke-linecap="round" stroke-linejoin="round"/>
<path d="M103.935 102.794C104.644 99.5443 103.364 93.8957 99.5464 96.0857C102.968 93.9683 109.411 94.8012 110.833 99.8289C113.022 107.563 102.42 108.563 102.136 113.251C102.25 110.189 103.704 107.898 104.386 107.712C108.616 106.558 108.413 103.024 106.541 102.948C105.974 102.854 104.992 103.558 104.443 103.61C103.959 103.655 103.838 103.244 103.935 102.794Z" stroke="#303030" stroke-linecap="round" stroke-linejoin="round"/>
<path d="M110.757 99.3561C108.375 95.6129 111.766 89.7444 115.937 87.1057C120.108 84.4669 125.404 85.3495 127.79 89.1096C130.168 92.8548 128.722 98.0586 124.558 100.698C120.394 103.338 113.139 103.099 110.757 99.3561Z" stroke="#303030" stroke-linecap="round" stroke-linejoin="round"/>
<path d="M120.966 169.495C124.709 175.374 127.715 183.22 126.807 194.525" stroke="#303030" stroke-linecap="round" stroke-linejoin="round"/>
<path d="M109.604 152.895C109.717 155.24 111.475 157.547 113.838 160.345" stroke="#303030" stroke-linecap="round" stroke-linejoin="round"/>
<path d="M86.5019 156.62C89.4322 166.64 86.0482 186.415 82.6264 194.53" stroke="#303030" stroke-linecap="round" stroke-linejoin="round"/>
<path d="M127.639 142.119L109.604 135.881L111.494 140.758" stroke="#303030" stroke-linecap="round" stroke-linejoin="round"/>
<path d="M70.3002 147.677L71.3589 149.814" stroke="#303030" stroke-linecap="round" stroke-linejoin="round"/>
<path d="M106.938 194.525C105.751 189.373 104.177 184.317 102.231 179.401L99.7731 178.456" stroke="#303030" stroke-linecap="round" stroke-linejoin="round"/>
<path d="M49.7525 49.6529C49.7527 53.4443 48.6286 57.1505 46.5225 60.303C44.4164 63.4555 41.4228 65.9127 37.9202 67.3638C34.4176 68.8149 30.5633 69.1949 26.8447 68.4556C23.1262 67.7163 19.7104 65.8909 17.0292 63.2103C14.3481 60.5298 12.5221 57.1143 11.782 53.3959C11.0419 49.6776 11.421 45.8233 12.8714 42.3203C14.3218 38.8174 16.7784 35.8232 19.9305 33.7164C23.0825 31.6097 26.7886 30.4849 30.5798 30.4843C33.0974 30.4839 35.5905 30.9794 37.9165 31.9425C40.2425 32.9057 42.3561 34.3175 44.1364 36.0975C45.9169 37.8775 47.3292 39.9908 48.2927 42.3166C49.2564 44.6425 49.7524 47.1354 49.7525 49.6529Z" stroke="#303030" stroke-linecap="round" stroke-linejoin="round"/>
<path d="M119.17 49.6529C119.17 53.4444 118.045 57.1507 115.94 60.3033C113.833 63.4559 110.84 65.913 107.336 67.3641C103.834 68.8151 99.9794 69.1949 96.2608 68.4553C92.5422 67.7159 89.1264 65.8901 86.4454 63.2093C83.7644 60.5284 81.9384 57.1127 81.1988 53.3941C80.459 49.6755 80.8386 45.8211 82.2895 42.3183C83.7403 38.8154 86.1973 35.8214 89.3498 33.715C92.5023 31.6086 96.2085 30.4843 100 30.4843C105.084 30.4843 109.96 32.5038 113.555 36.0985C117.15 39.6934 119.17 44.569 119.17 49.6529Z" stroke="#303030" stroke-linecap="round" stroke-linejoin="round"/>
<path d="M188.59 49.6528C188.59 53.4443 187.465 57.1504 185.359 60.3029C183.253 63.4554 180.259 65.9124 176.756 67.3633C173.253 68.8142 169.399 69.1938 165.68 68.4541C161.962 67.7145 158.546 65.8887 155.865 63.2078C153.185 60.5269 151.359 57.1112 150.619 53.3926C149.879 49.6741 150.258 45.8197 151.71 42.3169C153.161 38.8141 155.617 35.8202 158.77 33.7138C161.923 31.6074 165.629 30.4832 169.42 30.4832C174.505 30.4832 179.38 32.5028 182.975 36.0978C186.57 39.6929 188.59 44.5688 188.59 49.6528Z" stroke="#303030" stroke-linecap="round" stroke-linejoin="round"/>
<path d="M34.1529 54.6071H27.0068C26.6088 50.051 26.4774 49.9376 24.5113 45.7407C24.2055 44.7933 24.1305 43.7866 24.2925 42.8044C24.4544 41.8222 24.8487 40.8928 25.4425 40.0938C26.0364 39.2949 26.8125 38.6493 27.7063 38.2109C28.6 37.7726 29.5855 37.5541 30.5808 37.5737C31.5724 37.5427 32.5569 37.7507 33.451 38.1804C34.3452 38.6101 35.1228 39.2487 35.7181 40.0423C36.3134 40.8358 36.7088 41.7611 36.8711 42.7397C37.0334 43.7184 36.9577 44.7218 36.6503 45.665C34.6822 49.8809 34.4553 50.4102 34.1529 54.6071Z" stroke="#303030" stroke-linecap="round" stroke-linejoin="round"/>
<path d="M30.5799 54.6069V44.1336C30.5896 43.7407 30.7538 43.3675 31.0369 43.095C31.3201 42.8223 31.6993 42.6725 32.0923 42.6779H32.7729C32.9668 42.6717 33.1601 42.704 33.3415 42.7731C33.5228 42.8421 33.6886 42.9465 33.8294 43.0801C33.9701 43.2139 34.0828 43.3741 34.161 43.5517C34.2393 43.7293 34.2815 43.9206 34.2853 44.1146C34.2762 44.5095 34.1127 44.8849 33.83 45.1606C33.5472 45.4362 33.1677 45.5901 32.7729 45.5892H28.368C28.1725 45.5981 27.9773 45.5673 27.7941 45.4986C27.611 45.4299 27.4435 45.3249 27.3021 45.1897C27.1606 45.0545 27.0481 44.892 26.9712 44.7121C26.8943 44.5322 26.8546 44.3387 26.8546 44.143C26.8546 43.9474 26.8943 43.7538 26.9712 43.5739C27.0481 43.394 27.1606 43.2315 27.3021 43.0964C27.4435 42.9611 27.611 42.8561 27.7941 42.7874C27.9773 42.7188 28.1725 42.6879 28.368 42.6968H29.8994" stroke="#303030" stroke-linecap="round" stroke-linejoin="round"/>
<path d="M34.134 60.7133H27.0068V57.0269H34.134V60.7133Z" stroke="#303030" stroke-linecap="round" stroke-linejoin="round"/>
<path d="M108.557 47.0897C108.259 47.0559 108.028 47.0201 107.904 46.6858C107.734 46.2321 107.432 45.854 107.81 45.4569C107.987 45.2794 108.128 45.0688 108.225 44.8369C108.32 44.6049 108.37 44.3563 108.37 44.1052C108.37 43.8542 108.32 43.6057 108.225 43.3737C108.128 43.1418 107.987 42.931 107.81 42.7535L106.883 41.8461C106.706 41.6686 106.495 41.5278 106.264 41.4317C106.032 41.3356 105.783 41.2861 105.532 41.2861C105.28 41.2861 105.032 41.3356 104.8 41.4317C104.568 41.5278 104.357 41.6686 104.18 41.8461C103.802 42.2242 103.405 41.9217 102.97 41.7516C102.852 41.7069 102.749 41.6266 102.679 41.5216C102.607 41.4168 102.57 41.2924 102.572 41.1655C102.573 40.9146 102.524 40.666 102.428 40.4341C102.332 40.2022 102.192 39.9914 102.014 39.8139C101.837 39.6365 101.626 39.4959 101.394 39.4002C101.162 39.3045 100.913 39.2555 100.663 39.2561H99.3572C99.1064 39.2555 98.8578 39.3045 98.6258 39.4002C98.3939 39.4959 98.1831 39.6365 98.0056 39.8139C97.8282 39.9914 97.6876 40.2022 97.5919 40.4341C97.4962 40.666 97.4472 40.9146 97.4479 41.1655C97.4479 41.6949 96.9564 41.7705 96.5216 41.9615C96.4082 42.0115 96.2822 42.0256 96.1605 42.0019C96.0389 41.9782 95.9274 41.918 95.841 41.8292C95.6635 41.6517 95.4528 41.5109 95.2208 41.4148C94.9889 41.3186 94.7403 41.2692 94.4893 41.2692C94.2383 41.2692 93.9896 41.3186 93.7577 41.4148C93.5257 41.5109 93.315 41.6517 93.1375 41.8292L92.1924 42.7555C92.0147 42.933 91.8739 43.1438 91.7778 43.3757C91.6818 43.6076 91.6324 43.8562 91.6324 44.1072C91.6324 44.3583 91.6818 44.6069 91.7778 44.8389C91.8739 45.0708 92.0147 45.2814 92.1924 45.4589C92.5705 45.837 92.268 46.234 92.0978 46.6878C92.053 46.8065 91.9728 46.9085 91.8678 46.9797C91.7629 47.0509 91.6385 47.088 91.5118 47.0858C91.2608 47.0852 91.0122 47.1341 90.7802 47.2298C90.5483 47.3256 90.3376 47.4662 90.1601 47.6436C89.9827 47.8211 89.8421 48.0318 89.7463 48.2637C89.6506 48.4957 89.6017 48.7442 89.6024 48.9952L89.6213 50.2996C89.6206 50.5506 89.6695 50.7992 89.7652 51.0311C89.861 51.2631 90.0016 51.4738 90.179 51.6512C90.3565 51.8287 90.5672 51.9693 90.7991 52.065C91.0311 52.1608 91.2797 52.2097 91.5307 52.209C92.06 52.209 92.1356 52.7005 92.3267 53.1354C92.3803 53.2507 92.3964 53.38 92.3727 53.505C92.349 53.63 92.2866 53.7443 92.1943 53.8319C92.0167 54.0094 91.8759 54.2201 91.7798 54.452C91.6838 54.684 91.6344 54.9325 91.6344 55.1836C91.6344 55.4346 91.6838 55.6833 91.7798 55.9152C91.8759 56.1471 92.0167 56.3578 92.1943 56.5353L93.1207 57.4616C93.2981 57.6392 93.5088 57.78 93.7408 57.8761C93.9727 57.9722 94.2214 58.0216 94.4724 58.0216C94.7234 58.0216 94.972 57.9722 95.2039 57.8761C95.4359 57.78 95.6466 57.6392 95.8241 57.4616C96.2022 57.0845 96.5991 57.386 97.0339 57.5611C97.1528 57.6059 97.2549 57.6864 97.3261 57.7916C97.3974 57.8966 97.4344 58.0212 97.432 58.1482C97.4313 58.3991 97.4803 58.6477 97.576 58.8795C97.6717 59.1114 97.8124 59.3221 97.9898 59.4995C98.1672 59.6768 98.3781 59.8174 98.61 59.913C98.8419 60.0086 99.0905 60.0574 99.3413 60.0566L100.665 60.0377C100.915 60.0384 101.164 59.9894 101.396 59.8937C101.628 59.798 101.839 59.6574 102.016 59.4799C102.194 59.3025 102.334 59.0917 102.43 58.8598C102.526 58.6279 102.575 58.3792 102.574 58.1283C102.574 57.5989 103.066 57.5243 103.5 57.3323C103.616 57.2793 103.745 57.2636 103.87 57.2873C103.995 57.3111 104.109 57.373 104.197 57.4646C104.374 57.6422 104.585 57.783 104.817 57.8791C105.049 57.9751 105.297 58.0246 105.549 58.0246C105.8 58.0246 106.049 57.9751 106.28 57.8791C106.512 57.783 106.723 57.6422 106.9 57.4646L107.808 56.5383C107.985 56.3608 108.126 56.1501 108.223 55.9182C108.318 55.6862 108.368 55.4376 108.368 55.1866C108.368 54.9355 108.318 54.687 108.223 54.455C108.126 54.2231 107.985 54.0124 107.808 53.8348C107.43 53.4567 107.732 53.0597 107.902 52.606C107.947 52.4874 108.028 52.3854 108.132 52.3142C108.238 52.2429 108.362 52.2058 108.488 52.208C108.739 52.2087 108.988 52.1598 109.22 52.064C109.452 51.9683 109.662 51.8277 109.84 51.6502C110.018 51.4728 110.158 51.2621 110.253 51.0301C110.35 50.7982 110.399 50.5496 110.398 50.2986V48.9922C110.398 48.4983 110.206 48.0237 109.862 47.6686C109.519 47.3136 109.051 47.1061 108.557 47.0897Z" stroke="#303030" stroke-linecap="round" stroke-linejoin="round"/>
<path d="M100 54.5126C99.0357 54.5126 98.0931 54.2266 97.2913 53.6909C96.4896 53.1552 95.8646 52.3937 95.4957 51.5029C95.1266 50.612 95.0301 49.6317 95.2182 48.686C95.4063 47.7402 95.8707 46.8715 96.5525 46.1896C97.2343 45.5077 98.1031 45.0434 99.0488 44.8553C99.9946 44.6672 100.975 44.7637 101.866 45.1327C102.756 45.5018 103.518 46.1266 104.054 46.9284C104.59 47.7302 104.876 48.6728 104.876 49.6371C104.878 50.2779 104.752 50.9127 104.508 51.505C104.264 52.0974 103.904 52.6356 103.452 53.0887C102.999 53.5418 102.461 53.9009 101.868 54.1452C101.276 54.3896 100.641 54.5145 100 54.5126Z" stroke="#303030" stroke-linecap="round" stroke-linejoin="round"/>
<path d="M174.354 43.5834H167.511C163.485 43.5834 163.482 49.6429 167.511 49.6429H171.348C175.374 49.6429 175.377 55.7015 171.348 55.7015H164.483" stroke="#303030" stroke-linecap="round" stroke-linejoin="round"/>
<path d="M169.429 41.3169V57.9722" stroke="#303030" stroke-linecap="round" stroke-linejoin="round"/>
<path d="M30.5798 22.4119C76.5389 -0.274183 122.816 -0.0662289 169.42 22.4119" stroke="#303030" stroke-linecap="round" stroke-linejoin="round"/>
<path d="M55.0429 48.6331H75.6125" stroke="#303030" stroke-linecap="round" stroke-linejoin="round"/>
<path d="M124.425 48.6331H144.995" stroke="#303030" stroke-linecap="round" stroke-linejoin="round"/>
<path d="M104.878 13.6588L95.1415 23.376" stroke="#303030" stroke-linecap="round" stroke-linejoin="round"/>
<path d="M104.859 23.3949L95.1415 13.6588" stroke="#303030" stroke-linecap="round" stroke-linejoin="round"/>
<path d="M95.1415 78.1447L100.416 85.5743L106.579 74.8174" stroke="#303030" stroke-linecap="round" stroke-linejoin="round"/>
<path d="M69.2416 45.1924L75.6126 48.6331L69.2416 52.0927" stroke="#303030" stroke-linecap="round" stroke-linejoin="round"/>
<path d="M138.642 45.1924L145.014 48.6331L138.642 52.0927" stroke="#303030" stroke-linecap="round" stroke-linejoin="round"/>
<path d="M163.579 14.2258L169.42 22.4306L159.344 22.8087" stroke="#303030" stroke-linecap="round" stroke-linejoin="round"/>
<path d="M164.476 115.444V125.162" stroke="#303030" stroke-linecap="round" stroke-linejoin="round"/>
<path d="M169.345 120.313H159.627" stroke="#303030" stroke-linecap="round" stroke-linejoin="round"/>
<path d="M83.874 121.38C85.859 124.122 104.31 125.672 113.838 121.437" stroke="#303030" stroke-linecap="round" stroke-linejoin="round"/>
<path d="M81.8323 122.95C85.3486 126.995 104.235 128.753 117.317 122.704" stroke="#303030" stroke-linecap="round" stroke-linejoin="round"/>
<path d="M129.114 165.789C127.563 167.793 125.353 169.526 123.48 169.457C121.231 169.373 119.733 169.324 119.359 170.856C117.296 179.301 115.199 178.947 115.332 177.416C115.538 175.053 115.578 173.37 115.578 171.839C111.116 179.666 109.005 179.215 109.66 177.756C110.729 175.378 111.91 172.881 112.836 170.686C107.089 178.512 104.976 177.587 105.898 176.244C107.356 174.127 109.112 171.442 110.454 169.211C104.197 175.579 103.221 173.788 104.273 172.576C106.536 169.96 111.305 164.239 111.797 163.861C112.891 163.019 117.249 161.735 119.312 161.122C119.625 161.028 119.912 160.861 120.147 160.634" stroke="#303030" stroke-linecap="round" stroke-linejoin="round"/>
<path d="M111.759 166.943C111.4 167.585 110.963 168.361 110.454 169.211" stroke="#303030" stroke-linecap="round" stroke-linejoin="round"/>
<path d="M113.649 168.625C113.423 169.268 113.139 169.948 112.836 170.686" stroke="#303030" stroke-linecap="round" stroke-linejoin="round"/>
<path d="M115.616 170.048C115.616 170.653 115.616 171.242 115.597 171.839" stroke="#303030" stroke-linecap="round" stroke-linejoin="round"/>
<path d="M119.491 161.063C117.26 161.744 114.783 162.481 113.195 163.143C107.579 160.08 108.604 158.658 110.21 159.305C113.203 160.335 116.329 160.927 119.491 161.063Z" stroke="#303030" stroke-linecap="round" stroke-linejoin="round"/>
</svg>
