<svg width="200" height="200" viewBox="0 0 200 200" fill="none" xmlns="http://www.w3.org/2000/svg">
<path d="M33.8208 113.39C32.8331 111.57 31.3751 110.048 29.5988 108.983C29.8519 108.068 29.8901 107.106 29.7104 106.173C29.5307 105.241 29.1379 104.362 28.5627 103.606C27.9875 102.851 27.2455 102.238 26.3945 101.816C25.5435 101.394 24.6066 101.175 23.6568 101.175C22.707 101.175 21.77 101.394 20.919 101.816C20.068 102.238 19.326 102.851 18.7508 103.606C18.1756 104.362 17.7828 105.241 17.6031 106.173C17.4234 107.106 17.4616 108.068 17.7148 108.983C15.6562 110.216 14.0323 112.059 13.0679 114.256C12.1036 116.453 11.8467 118.896 12.3328 121.246C8.49802 124.174 5.94709 128.475 5.21565 133.244C4.48422 138.014 5.62917 142.881 8.41009 146.824C11.191 150.767 15.3915 153.479 20.1297 154.391C24.8679 155.303 29.775 154.343 33.8208 151.714V113.39Z" fill="#E5DFD5"/>
<path d="M33.8208 113.39C32.8331 111.57 31.3751 110.048 29.5988 108.983C29.8519 108.068 29.8901 107.106 29.7104 106.173C29.5307 105.241 29.1379 104.362 28.5627 103.606C27.9875 102.851 27.2455 102.238 26.3945 101.816C25.5435 101.394 24.6066 101.175 23.6568 101.175C22.707 101.175 21.77 101.394 20.919 101.816C20.068 102.238 19.326 102.851 18.7508 103.606C18.1756 104.362 17.7828 105.241 17.6031 106.173C17.4234 107.106 17.4616 108.068 17.7148 108.983C15.6562 110.216 14.0323 112.059 13.0679 114.256C12.1036 116.453 11.8467 118.896 12.3328 121.246C8.49802 124.174 5.94709 128.475 5.21565 133.244C4.48422 138.014 5.62917 142.881 8.41009 146.824C11.191 150.767 15.3915 153.479 20.1297 154.391C24.8679 155.303 29.775 154.343 33.8208 151.714" stroke="#303030" stroke-linecap="round" stroke-linejoin="round"/>
<path d="M23.6562 112.258V170.262" stroke="#303030" stroke-linecap="round" stroke-linejoin="round"/>
<path d="M16.3613 141.47L23.6563 150.77" stroke="#303030" stroke-linecap="round" stroke-linejoin="round"/>
<path d="M18.0527 118.068L23.6567 125.212" stroke="#303030" stroke-linecap="round" stroke-linejoin="round"/>
<path d="M30.3407 130.834L23.7227 140.043" stroke="#303030" stroke-linecap="round" stroke-linejoin="round"/>
<path d="M29.3363 140.412L23.6562 146.12" stroke="#303030" stroke-linecap="round" stroke-linejoin="round"/>
<path d="M40.8477 70.1763V76.3603" stroke="#303030" stroke-linecap="round" stroke-linejoin="round"/>
<path d="M43.9389 73.2681H37.7539" stroke="#303030" stroke-linecap="round" stroke-linejoin="round"/>
<path d="M186.297 127.741V133.926" stroke="#303030" stroke-linecap="round" stroke-linejoin="round"/>
<path d="M189.39 130.834H183.205" stroke="#303030" stroke-linecap="round" stroke-linejoin="round"/>
<path d="M191.75 111.163V114.951" stroke="#303030" stroke-linecap="round" stroke-linejoin="round"/>
<path d="M193.644 113.057H189.855" stroke="#303030" stroke-linecap="round" stroke-linejoin="round"/>
<path d="M145.05 71.831H182.839C184.789 71.8334 186.666 71.0834 188.077 69.737C189.488 68.3907 190.326 66.5518 190.415 64.6033C190.505 62.6549 189.839 60.747 188.557 59.277C187.275 57.807 185.476 56.8883 183.533 56.712C183.273 55.5 182.762 54.356 182.032 53.3541C181.302 52.3523 180.37 51.5148 179.296 50.896C178.222 50.2773 177.03 49.8909 175.798 49.7621C174.565 49.6332 173.319 49.7647 172.14 50.148C171.967 47.2687 170.807 44.5371 168.854 42.4135C166.902 40.29 164.278 38.9044 161.423 38.4903C158.568 38.0761 155.658 38.6588 153.183 40.14C150.708 41.6213 148.819 43.9106 147.835 46.622C146.287 45.9337 144.6 45.6157 142.908 45.6931C141.216 45.7705 139.565 46.2413 138.086 47.0681C136.608 47.8948 135.342 49.0548 134.39 50.456C133.438 51.8571 132.826 53.4609 132.602 55.14" stroke="#303030" stroke-linecap="round" stroke-linejoin="round"/>
<path d="M146.599 114.255H33.8223V170.262H146.599V114.255Z" stroke="#303030" stroke-linecap="round" stroke-linejoin="round"/>
<path d="M130.381 166.036H112.246V170.262H130.381V166.036Z" fill="#E5DFD5"/>
<path d="M132.024 161.81H113.889V166.036H132.024V161.81Z" fill="#E5DFD5"/>
<path d="M133.78 157.584H115.645V161.81H133.78V157.584Z" fill="#E5DFD5"/>
<path d="M45.8697 126.12H40.8477V170.262H45.8697V126.12Z" stroke="#303030" stroke-linecap="round" stroke-linejoin="round"/>
<path d="M107.208 114.255H102.186V170.262H107.208V114.255Z" stroke="#303030" stroke-linecap="round" stroke-linejoin="round"/>
<path d="M45.8691 126.12V170.262H95.1591V126.12H45.8691ZM60.6011 133.76H49.1781V128.953H60.6011V133.76ZM76.2851 133.76H64.8611V128.953H76.2861L76.2851 133.76ZM91.9681 133.76H80.5451V128.953H91.9691L91.9681 133.76Z" fill="#E5DFD5"/>
<path d="M45.8691 137.382H95.1591" stroke="#303030" stroke-linecap="round" stroke-linejoin="round"/>
<path d="M45.8691 145.323H95.1591" stroke="#303030" stroke-linecap="round" stroke-linejoin="round"/>
<path d="M45.8691 153.265H95.1591" stroke="#303030" stroke-linecap="round" stroke-linejoin="round"/>
<path d="M45.8691 161.206H95.1591" stroke="#303030" stroke-linecap="round" stroke-linejoin="round"/>
<path d="M51.1977 128.953H49.1777V133.76H51.1977V128.953Z" stroke="#303030" stroke-linecap="round" stroke-linejoin="round"/>
<path d="M60.6032 128.953H51.1992V133.76H60.6032V128.953Z" stroke="#303030" stroke-linecap="round" stroke-linejoin="round"/>
<path d="M66.8813 128.953H64.8613V133.76H66.8813V128.953Z" stroke="#303030" stroke-linecap="round" stroke-linejoin="round"/>
<path d="M76.2868 128.953H66.8828V133.76H76.2868V128.953Z" stroke="#303030" stroke-linecap="round" stroke-linejoin="round"/>
<path d="M82.5649 128.953H80.5449V133.76H82.5649V128.953Z" stroke="#303030" stroke-linecap="round" stroke-linejoin="round"/>
<path d="M91.9704 128.953H82.5664V133.76H91.9704V128.953Z" stroke="#303030" stroke-linecap="round" stroke-linejoin="round"/>
<path d="M137.177 166.036H130.381V170.262H137.177V166.036Z" stroke="#303030" stroke-linecap="round" stroke-linejoin="round"/>
<path d="M121.794 126.12H118.602V157.584H121.794V126.12Z" stroke="#303030" stroke-linecap="round" stroke-linejoin="round"/>
<path d="M137.178 161.81H132.023V166.036H137.178V161.81Z" stroke="#303030" stroke-linecap="round" stroke-linejoin="round"/>
<path d="M137.177 157.583H133.779V161.809H137.177V157.583Z" stroke="#303030" stroke-linecap="round" stroke-linejoin="round"/>
<path d="M137.177 126.12H121.793V157.584H137.177V126.12Z" stroke="#303030" stroke-linecap="round" stroke-linejoin="round"/>
<path d="M129.486 131.356V157.583" stroke="#303030" stroke-linecap="round" stroke-linejoin="round"/>
<path d="M121.793 131.356H137.177" stroke="#303030" stroke-linecap="round" stroke-linejoin="round"/>
<path d="M131.813 145.462C132.467 145.462 132.997 144.932 132.997 144.278C132.997 143.624 132.467 143.094 131.813 143.094C131.159 143.094 130.629 143.624 130.629 144.278C130.629 144.932 131.159 145.462 131.813 145.462Z" stroke="#303030" stroke-linecap="round" stroke-linejoin="round"/>
<path d="M126.938 145.462C127.592 145.462 128.122 144.932 128.122 144.278C128.122 143.624 127.592 143.094 126.938 143.094C126.284 143.094 125.754 143.624 125.754 144.278C125.754 144.932 126.284 145.462 126.938 145.462Z" stroke="#303030" stroke-linecap="round" stroke-linejoin="round"/>
<path d="M135.189 92.938L129.911 100.072H110.073L104.876 105.218H75.4871V100.072H63.7031V92.939H54.1591L28.4551 114.255H146.599L159.625 92.939L135.189 92.938Z" fill="#008765"/>
<path d="M145.05 92.938L159.625 92.939L146.599 114.255H28.4551L54.1591 92.939H63.7031" stroke="#303030" stroke-linecap="round" stroke-linejoin="round"/>
<path d="M172.65 170.262H146.598V114.255L159.624 92.939L172.65 114.255V170.262Z" stroke="#303030" stroke-linecap="round" stroke-linejoin="round"/>
<path d="M61.2578 67.5271L76.1948 55.1401H137.481L129.911 67.5271H61.2578Z" fill="#008765"/>
<path d="M61.2578 67.5271L76.1948 55.1401H137.481L129.911 67.5271H61.2578Z" stroke="#303030" stroke-linecap="round" stroke-linejoin="round"/>
<path d="M159.624 117.877C162.202 117.877 164.291 115.351 164.291 112.235C164.291 109.119 162.202 106.593 159.624 106.593C157.047 106.593 154.957 109.119 154.957 112.235C154.957 115.351 157.047 117.877 159.624 117.877Z" fill="#E5DFD5"/>
<path d="M159.625 106.592V117.877" stroke="#303030" stroke-linecap="round" stroke-linejoin="round"/>
<path d="M164.291 112.235H154.957" stroke="#303030" stroke-linecap="round" stroke-linejoin="round"/>
<path d="M168.512 125.859H165.727V156.933H168.512V125.859Z" fill="#E5DFD5"/>
<path d="M130.381 166.036H112.246V170.262H130.381V166.036Z" stroke="#303030" stroke-linecap="round" stroke-linejoin="round"/>
<path d="M132.024 161.81H113.889V166.036H132.024V161.81Z" stroke="#303030" stroke-linecap="round" stroke-linejoin="round"/>
<path d="M133.78 157.584H115.645V161.81H133.78V157.584Z" stroke="#303030" stroke-linecap="round" stroke-linejoin="round"/>
<path d="M95.1591 126.12H45.8691V170.262H95.1591V126.12Z" stroke="#303030" stroke-linecap="round" stroke-linejoin="round"/>
<path d="M159.624 117.877C162.202 117.877 164.291 115.351 164.291 112.235C164.291 109.119 162.202 106.593 159.624 106.593C157.047 106.593 154.957 109.119 154.957 112.235C154.957 115.351 157.047 117.877 159.624 117.877Z" stroke="#303030" stroke-linecap="round" stroke-linejoin="round"/>
<path d="M168.512 125.859H165.727V156.933H168.512V125.859Z" stroke="#303030" stroke-linecap="round" stroke-linejoin="round"/>
<path d="M165.728 125.859H150.738V156.933H165.728V125.859Z" stroke="#303030" stroke-linecap="round" stroke-linejoin="round"/>
<path d="M165.728 141.397H150.738" stroke="#303030" stroke-linecap="round" stroke-linejoin="round"/>
<path d="M150.738 133.667H165.728" stroke="#303030" stroke-linecap="round" stroke-linejoin="round"/>
<path d="M159.207 125.859V141.397" stroke="#303030" stroke-linecap="round" stroke-linejoin="round"/>
<path d="M137.48 55.1401L129.91 67.5271V100.072L135.188 92.9381H145.049V67.5271L137.48 55.1401Z" stroke="#303030" stroke-linecap="round" stroke-linejoin="round"/>
<path d="M75.4872 100.072H63.7031V67.5273H129.911V100.072H114.497" stroke="#303030" stroke-linecap="round" stroke-linejoin="round"/>
<path d="M119.51 73.2002H117.49V85.8082H119.51V73.2002Z" stroke="#303030" stroke-linecap="round" stroke-linejoin="round"/>
<path d="M125.794 73.2002H119.512V85.8082H125.794V73.2002Z" fill="#E5DFD5"/>
<path d="M125.794 73.2002H119.512V85.8082H125.794V73.2002Z" stroke="#303030" stroke-linecap="round" stroke-linejoin="round"/>
<path d="M125.793 79.5039H119.547" stroke="#303030" stroke-linecap="round" stroke-linejoin="round"/>
<path d="M141.86 73.2002H139.84V85.8082H141.86V73.2002Z" fill="#E5DFD5"/>
<path d="M141.86 73.2002H139.84V85.8082H141.86V73.2002Z" stroke="#303030" stroke-linecap="round" stroke-linejoin="round"/>
<path d="M139.841 73.2002H133.559V85.8082H139.841V73.2002Z" stroke="#303030" stroke-linecap="round" stroke-linejoin="round"/>
<path d="M133.559 79.5039H139.84" stroke="#303030" stroke-linecap="round" stroke-linejoin="round"/>
<path d="M68.9028 73.2002H66.8828V85.8082H68.9028V73.2002Z" stroke="#303030" stroke-linecap="round" stroke-linejoin="round"/>
<path d="M75.1843 73.2002H68.9023V85.8082H75.1843V73.2002Z" fill="#E5DFD5"/>
<path d="M75.1843 73.2002H68.9023V85.8082H75.1843V73.2002Z" stroke="#303030" stroke-linecap="round" stroke-linejoin="round"/>
<path d="M75.1835 79.5039H68.9375" stroke="#303030" stroke-linecap="round" stroke-linejoin="round"/>
<path d="M73.582 84.536L83.074 76.665H109.685L104.875 84.536H73.582Z" fill="#008765"/>
<path d="M73.582 84.536L83.074 76.665H109.685L104.875 84.536H73.582Z" stroke="#303030" stroke-linecap="round" stroke-linejoin="round"/>
<path d="M104.875 84.5361H75.4863V105.218H104.875V84.5361Z" stroke="#303030" stroke-linecap="round" stroke-linejoin="round"/>
<path d="M109.685 76.665L104.875 84.536V105.218L110.072 100.072H114.496V84.536L109.685 76.665Z" stroke="#303030" stroke-linecap="round" stroke-linejoin="round"/>
<path d="M82.5649 88.2061H80.5449V100.814H82.5649V88.2061Z" stroke="#303030" stroke-linecap="round" stroke-linejoin="round"/>
<path d="M99.3694 88.2061H82.5664V100.814H99.3694V88.2061Z" fill="#E5DFD5"/>
<path d="M99.3694 88.2061H82.5664V100.814H99.3694V88.2061Z" stroke="#303030" stroke-linecap="round" stroke-linejoin="round"/>
<path d="M99.3694 94.5103H82.5664" stroke="#303030" stroke-linecap="round" stroke-linejoin="round"/>
<path d="M90.9668 94.5101V88.2061" stroke="#303030" stroke-linecap="round" stroke-linejoin="round"/>
<path d="M195.002 170.262H11.3066V174.771H195.002V170.262Z" stroke="#303030" stroke-linecap="round" stroke-linejoin="round"/>
<path d="M189.39 167.549C189.39 166.513 189.067 165.503 188.465 164.661C187.862 163.818 187.012 163.184 186.032 162.849C186.08 161.977 185.898 161.108 185.503 160.33C185.108 159.551 184.515 158.89 183.783 158.414C183.051 157.938 182.206 157.664 181.334 157.619C180.463 157.574 179.594 157.759 178.817 158.157C178.491 156.513 177.552 155.054 176.189 154.078C174.826 153.102 173.143 152.681 171.481 152.901C169.82 153.122 168.304 153.967 167.243 155.265C166.182 156.562 165.656 158.216 165.77 159.888C165.039 159.364 164.18 159.048 163.284 158.974C162.387 158.901 161.488 159.072 160.681 159.469C159.875 159.867 159.191 160.476 158.704 161.232C158.216 161.987 157.943 162.861 157.914 163.76C157.22 163.172 156.379 162.786 155.481 162.644C154.583 162.501 153.663 162.608 152.822 162.952C151.98 163.296 151.249 163.864 150.708 164.594C150.167 165.325 149.837 166.19 149.753 167.095C149.721 167.499 149.773 167.906 149.906 168.289C150.039 168.672 150.251 169.024 150.527 169.321C150.803 169.618 151.137 169.855 151.509 170.016C151.882 170.178 152.283 170.26 152.689 170.258H186.625C187.35 170.264 188.049 169.982 188.567 169.475C189.085 168.967 189.381 168.274 189.39 167.549Z" fill="#E5DFD5"/>
<path d="M189.39 167.549C189.39 166.513 189.067 165.503 188.465 164.661C187.862 163.818 187.012 163.184 186.032 162.849C186.08 161.977 185.898 161.108 185.503 160.33C185.108 159.551 184.515 158.89 183.783 158.414C183.051 157.938 182.206 157.664 181.334 157.619C180.463 157.574 179.594 157.759 178.817 158.157C178.491 156.513 177.552 155.054 176.189 154.078C174.826 153.102 173.143 152.681 171.481 152.901C169.82 153.122 168.304 153.967 167.243 155.265C166.182 156.562 165.656 158.216 165.77 159.888C165.039 159.364 164.18 159.048 163.284 158.974C162.387 158.901 161.488 159.072 160.681 159.469C159.875 159.867 159.191 160.476 158.704 161.232C158.216 161.987 157.943 162.861 157.914 163.76C157.22 163.172 156.379 162.786 155.481 162.644C154.583 162.501 153.663 162.608 152.822 162.952C151.98 163.296 151.249 163.864 150.708 164.594C150.167 165.325 149.837 166.19 149.753 167.095C149.721 167.499 149.773 167.906 149.906 168.289C150.039 168.672 150.251 169.024 150.527 169.321C150.803 169.618 151.137 169.855 151.509 170.016C151.882 170.178 152.283 170.26 152.689 170.258H186.625C187.35 170.264 188.049 169.982 188.567 169.475C189.085 168.967 189.381 168.274 189.39 167.549Z" stroke="#303030" stroke-linecap="round" stroke-linejoin="round"/>
</svg>
