<svg width="150" height="90" viewBox="0 0 150 90" fill="none" xmlns="http://www.w3.org/2000/svg">
<path d="M41.8535 60.9956C37.8541 59.3971 34.9326 58.2801 34.0449 57.992C41.9772 49.1963 45.2877 32.2812 42.6825 21.3406C51.5502 24.6229 53.2771 25.4582 56.2863 24.5368C63.3543 22.3449 66.8543 18.4309 70.1773 20.2313C70.5233 20.4184 74.2479 22.4772 74.338 22.6064C69.7898 26.1244 64.4925 31.0671 60.0719 35.2457C55.9661 39.1426 63.8169 44.2559 77.1021 34.2523C80.7973 37.2127 85.1876 39.1797 89.8565 39.9669C100.538 48.8056 105.434 54.9672 105.476 59.286C105.519 61.7761 104.05 63.705 101.315 65.2886C101.834 67.1454 101.2 68.715 99.4006 70.3268C98.1199 71.4642 96.8235 71.9104 94.7506 70.917C91.3063 76.5314 87.7977 75.956 84.8754 73.8252C81.4209 79.3096 76.0946 75.956 73.0424 74.4874L72.6134 74.2784" stroke="#303030" stroke-linecap="round" stroke-linejoin="round"/>
<path d="M39.8465 14.8478C36.6792 13.5381 28.8197 10.6989 18.8146 7.18951C26.1997 17.5689 18.3684 49.2267 4.67773 56.1491C13.0008 58.0202 21.3313 59.858 29.6691 61.6625C42.9268 53.6879 47.4617 25.1277 39.8465 14.8478Z" stroke="#303030" stroke-linecap="round" stroke-linejoin="round"/>
<path d="M18.8146 7.17549C17.476 6.70032 16.1085 6.22515 14.7119 5.73511" stroke="#303030" stroke-linecap="round" stroke-linejoin="round"/>
<path d="M0.632812 55.2137C1.92837 55.5159 3.28186 55.8181 4.69249 56.1343" stroke="#303030" stroke-linecap="round" stroke-linejoin="round"/>
<path d="M94.7364 70.9225C92.6486 69.915 89.7843 67.4538 85.4209 62.7319" stroke="#303030" stroke-linecap="round" stroke-linejoin="round"/>
<path d="M91.5693 54.6234C97.2839 59.3304 100.538 62.5838 101.315 65.29" stroke="#303030" stroke-linecap="round" stroke-linejoin="round"/>
<path d="M79.4199 68.3995C80.7155 69.724 82.6154 72.229 84.8613 73.8416" stroke="#303030" stroke-linecap="round" stroke-linejoin="round"/>
<path d="M19.8223 52.7377C21.9257 50.2484 27.8493 51.8649 26.0269 54.4216C24.2045 56.9783 17.2907 55.7359 19.8223 52.7377Z" fill="#008765"/>
<path d="M19.8223 52.7377C21.9257 50.2484 27.8493 51.8649 26.0269 54.4216C24.2045 56.9783 17.2907 55.7359 19.8223 52.7377Z" stroke="#303030" stroke-linecap="round" stroke-linejoin="round"/>
<path d="M19.2751 79.0809C19.7703 79.0814 20.2544 79.2284 20.6662 79.5036C21.078 79.7787 21.3991 80.1696 21.5891 80.627C21.795 81.1236 21.8357 81.6733 21.7052 82.1949C21.5747 82.7165 21.2799 83.1823 20.8644 83.5234C20.4488 83.8646 19.9346 84.063 19.3976 84.0895C18.8606 84.1159 18.3293 83.9689 17.8823 83.6702C17.4352 83.3716 17.0961 82.937 16.915 82.4308C16.7339 81.9246 16.7204 81.3735 16.8765 80.859C17.0327 80.3445 17.3502 79.8939 17.7821 79.5737C18.214 79.2536 18.7374 79.0808 19.2751 79.0809Z" stroke="#303030" stroke-linecap="round" stroke-linejoin="round"/>
<path d="M118.792 79.2461V75.7555" stroke="#303030" stroke-linecap="round" stroke-linejoin="round"/>
<path d="M115.66 82.3773H112.17" stroke="#303030" stroke-linecap="round" stroke-linejoin="round"/>
<path d="M118.792 85.5086V88.9999" stroke="#303030" stroke-linecap="round" stroke-linejoin="round"/>
<path d="M121.923 82.3773H125.413" stroke="#303030" stroke-linecap="round" stroke-linejoin="round"/>
<path d="M118.792 85.5086C119.623 85.5086 120.419 85.1787 121.007 84.5914C121.594 84.0042 121.924 83.2078 121.924 82.3773C121.924 81.5469 121.594 80.7504 121.007 80.1632C120.419 79.576 119.623 79.2461 118.792 79.2461C117.962 79.2461 117.165 79.576 116.578 80.1632C115.991 80.7504 115.661 81.5469 115.661 82.3773C115.661 83.2078 115.991 84.0042 116.578 84.5914C117.165 85.1787 117.962 85.5086 118.792 85.5086Z" stroke="#303030" stroke-linecap="round" stroke-linejoin="round"/>
<path d="M66.9372 66.4996C69.115 60.6708 62.7797 57.4025 59.9984 62.7569C58.7684 65.1364 57.5877 67.5409 56.4569 69.969C53.9754 75.336 61.593 78.288 63.8154 73.8698C64.9882 71.4712 66.0304 69.0109 66.9372 66.4996Z" stroke="#303030" stroke-linecap="round" stroke-linejoin="round"/>
<path d="M53.0329 58.7976C51.7945 60.8995 50.0669 63.8507 49.2324 65.4343C46.4142 70.8358 53.5081 74.9784 56.1423 70.3144C57.639 67.6372 58.9925 64.7141 59.8849 62.9293C62.6921 57.2148 56.1564 53.4862 53.0329 58.7976Z" stroke="#303030" stroke-linecap="round" stroke-linejoin="round"/>
<path d="M46.0646 55.0118C45.0469 56.2933 43.3725 58.6394 41.8037 61.0724C38.5644 66.0675 45.4046 70.2571 48.3245 66.2695C49.4048 64.815 51.5341 61.2735 52.5713 59.4887C55.7096 54.1053 49.8221 50.2899 46.0646 55.0118Z" stroke="#303030" stroke-linecap="round" stroke-linejoin="round"/>
<path d="M74.1511 69.0908C75.6745 63.2745 69.5685 60.472 67.2553 65.8234C66.3097 68.0152 64.6321 72.5015 64.2329 73.7407C62.9256 77.7965 69.8754 80.7368 71.7902 76.3749C72.7664 74.0124 73.5558 71.5769 74.1511 69.0908Z" stroke="#303030" stroke-linecap="round" stroke-linejoin="round"/>
<path d="M114.732 32.3242C111.909 27.4404 108.652 22.8202 105.001 18.5193C96.7706 22.7778 95.8477 24.0992 92.7219 23.5293C85.437 22.2056 79.8235 18.6211 76.7423 20.809C71.3205 24.6487 65.3829 30.1777 60.0582 35.2332C55.8631 39.1926 63.9973 44.1674 77.0875 34.2539C80.7797 37.2171 85.1723 39.1804 89.8427 39.9551C89.8427 40.3465 105.283 51.5369 105.461 59.2906C109.505 56.6933 117.731 52.1255 122.391 49.5054C120.571 43.479 117.998 37.7063 114.732 32.3242Z" stroke="#303030" stroke-linecap="round" stroke-linejoin="round"/>
<path d="M97.5293 14.8049C102.712 11.8396 112.846 6.80144 124.291 1" stroke="#303030" stroke-linecap="round" stroke-linejoin="round"/>
<path d="M149.368 44.8197C139.536 49.9589 128.768 55.444 122.103 58.6105" stroke="#303030" stroke-linecap="round" stroke-linejoin="round"/>
<path d="M97.1406 39.9396C93.455 40.5682 89.671 40.2723 86.1279 39.0785" stroke="#303030" stroke-linecap="round" stroke-linejoin="round"/>
<path d="M77.0869 34.2531L79.9661 31.3457" stroke="#303030" stroke-linecap="round" stroke-linejoin="round"/>
<path d="M96.8089 15.237C95.1532 16.6774 95.7294 19.699 97.2261 22.6792C98.9671 21.7805 101.446 20.3464 104.971 18.5193C103.374 16.9224 99.2278 13.1508 96.8089 15.237Z" fill="#008765"/>
<path d="M96.8089 15.237C95.1532 16.6774 95.7294 19.699 97.2261 22.6792C98.9671 21.7805 101.446 20.3464 104.971 18.5193C103.374 16.9224 99.2278 13.1508 96.8089 15.237Z" stroke="#303030" stroke-linecap="round" stroke-linejoin="round"/>
<path d="M122.39 49.4986C118.82 51.4924 120.634 50.4709 114.185 54.1172C115.42 55.8128 117.288 57.7745 119.209 58.5652C121.368 59.4724 122.894 58.7812 123.268 56.4062C123.599 54.3066 122.951 51.4564 122.39 49.4986Z" fill="#008765"/>
<path d="M122.39 49.4986C118.82 51.4924 120.634 50.4709 114.185 54.1172C115.42 55.8128 117.288 57.7745 119.209 58.5652C121.368 59.4724 122.894 58.7812 123.268 56.4062C123.599 54.3066 122.951 51.4564 122.39 49.4986Z" stroke="#303030" stroke-linecap="round" stroke-linejoin="round"/>
</svg>
