<svg width="256" height="256" viewBox="0 0 256 256" fill="none" xmlns="http://www.w3.org/2000/svg">
<path d="M74.3626 142.294L74.3696 142.295C76.3292 142.661 78.2979 142.975 80.2735 143.236C77.2887 143.158 74.604 143.086 72.4221 143.008C67.5838 142.825 63.8386 144.384 61.2381 146.849C58.7573 149.199 57.3422 152.35 56.9961 155.529C47.2292 156.1 37.5215 153.63 29.2111 148.454C20.7803 143.203 14.2149 135.433 10.4442 126.244C6.67355 117.056 5.88875 106.914 8.2009 97.2542C10.5131 87.5948 15.805 78.9074 23.3276 72.422C30.8501 65.9365 40.2221 61.9816 50.1167 61.1172C60.0112 60.2527 69.9271 62.5225 78.4603 67.6052C86.9935 72.688 93.7118 80.326 97.6639 89.4381C101.56 98.4202 102.573 108.386 100.571 117.962C96.2702 117.73 91.58 117.456 86.4592 117.156C84.9079 117.066 83.3171 116.973 81.6857 116.878C72.5332 115.815 66.9007 121.38 65.4629 127.603C64.7459 130.706 65.0669 133.989 66.5266 136.699C67.9925 139.42 70.5927 141.534 74.3626 142.294Z" fill="#008765" stroke="#008765"/>
<path d="M72.4032 143.507C75.9539 143.635 80.8371 143.746 86.1683 143.891C86.3513 143.726 86.5318 143.562 86.7123 143.396C82.6024 143.092 78.5124 142.561 74.4614 141.804C59.9603 138.88 63.872 115.3 81.6422 117.376C88.8422 117.795 95.2537 118.178 100.97 118.485C103.113 108.679 102.117 98.4475 98.1226 89.2392C94.1287 80.0308 87.3395 72.3121 78.7161 67.1757C70.0928 62.0393 60.0722 59.7455 50.0732 60.6191C40.0741 61.4927 30.6031 65.4893 23.0011 72.0433C15.3991 78.5973 10.0512 87.3764 7.71463 97.1378C5.37806 106.899 6.17116 117.148 9.98164 126.434C13.7921 135.72 20.4269 143.572 28.9467 148.878C37.4665 154.185 47.4396 156.677 57.4541 156.002C57.9571 149.577 62.976 143.15 72.4032 143.507Z" fill="#008765" stroke="#008765" stroke-linecap="round" stroke-linejoin="round"/>
<path d="M35.0283 103.652L53.1544 123.183L76.9176 91.2568" stroke="#F9F3EB" stroke-width="2" stroke-linecap="round" stroke-linejoin="round"/>
<path d="M213.392 123.16C197.52 120.635 189.769 114.1 183.782 102.436C177.316 89.8463 173.969 53.9513 174.426 46.1868C174.883 38.4223 157.24 40.734 152.538 73.0834C150.847 84.7046 150.439 98.3686 147.345 109.196C142.55 121.521 128.377 120.095 81.6466 117.382C63.8712 115.3 59.9646 138.886 74.4658 141.8C82.7217 143.464 93.036 143.765 107.14 144.911C95.0942 144.232 80.7339 143.818 72.4075 143.503C54.5144 142.837 52.4805 166.604 67.1454 168.411C75.4834 169.435 100.003 169.191 79.4245 169.229C60.9234 169.265 59.989 193.988 75.2146 195.213C84.035 195.924 97.9986 194.676 85.2946 195.587C67.4437 196.867 68.131 220.58 82.9086 220.918C117.425 221.705 155.913 229.622 183.972 220.333C194.304 216.913 201.858 217.505 212.927 217.526C220.073 196.481 220.322 145.857 213.392 123.16ZM87.5128 169.217C91.9339 169.194 96.3768 169.194 101.195 169.24C96.5125 169.234 91.8866 169.234 87.5128 169.217ZM95.3477 195.015C93.7349 195.108 92.0965 195.179 90.4363 195.248C92.0734 195.149 93.7106 195.08 95.3477 195.01V195.015Z" stroke="#303030" stroke-linecap="round" stroke-linejoin="round"/>
<path d="M85.2901 195.618C67.4469 197.009 68.1227 220.843 82.9042 220.948C91.8386 221.01 93.3362 220.362 110.411 218.539C129.051 216.548 129.074 193.912 110.995 194.566C94.396 195.165 95.6632 194.809 85.2901 195.618Z" stroke="#303030" stroke-linecap="round" stroke-linejoin="round"/>
<path d="M115.065 121.71C101.753 119.621 92.281 118.625 81.6429 117.383C63.8662 115.306 59.9622 138.869 74.4621 141.801C83.2339 143.573 94.3571 143.891 109.896 145.145C128.651 146.658 132.865 124.501 115.065 121.71Z" stroke="#303030" stroke-linecap="round" stroke-linejoin="round"/>
<path d="M102.973 169.258C95.472 169.147 82.0794 169.229 79.4208 169.234C60.9197 169.27 59.9853 193.999 75.2109 195.218C84.3514 195.951 94.9127 194.86 111.978 194.259C131.343 193.578 132.935 170.204 114.223 169.537C110.521 169.402 106.818 169.309 103.114 169.257" stroke="#303030" stroke-linecap="round" stroke-linejoin="round"/>
<path d="M103.136 169.259C106.458 169.259 109.778 169.259 113.006 169.282C131.741 169.42 134.358 146.96 116.304 145.519C103.204 144.473 83.4077 143.922 72.3997 143.508C54.5066 142.836 52.4727 166.61 67.1376 168.417C74.6064 169.337 90.9456 169.235 102.969 169.235" stroke="#303030" stroke-linecap="round" stroke-linejoin="round"/>
<path d="M240.128 136.28C240.128 137.246 239.841 138.191 239.304 138.995C238.767 139.799 238.004 140.426 237.111 140.797C236.443 141.073 235.723 141.198 235.001 141.162C234.279 141.126 233.574 140.931 232.937 140.591C232.3 140.25 231.745 139.773 231.315 139.193C230.884 138.613 230.587 137.944 230.445 137.236C230.257 136.287 230.354 135.305 230.724 134.411C231.094 133.518 231.72 132.755 232.524 132.217C233.327 131.679 234.273 131.393 235.24 131.393C236.535 131.396 237.776 131.912 238.692 132.828C239.608 133.744 240.124 134.985 240.128 136.28Z" fill="#E5DFD5"/>
<path d="M240.128 136.28C240.128 137.246 239.841 138.191 239.304 138.995C238.767 139.799 238.004 140.426 237.111 140.797C236.443 141.073 235.723 141.198 235.001 141.162C234.279 141.126 233.574 140.931 232.937 140.591C232.3 140.25 231.745 139.773 231.315 139.193C230.884 138.613 230.587 137.944 230.445 137.236C230.257 136.287 230.354 135.305 230.724 134.411C231.094 133.518 231.72 132.755 232.524 132.217C233.327 131.679 234.273 131.393 235.24 131.393C236.535 131.396 237.776 131.912 238.692 132.828C239.608 133.744 240.124 134.985 240.128 136.28Z" stroke="#303030" stroke-linecap="round" stroke-linejoin="round"/>
<path d="M201.696 120.001C205.455 121.516 209.381 122.576 213.392 123.16C210.207 112.711 205.696 109.834 201.696 120.001Z" fill="#E5DFD5"/>
<path d="M201.696 120.002C205.455 121.516 209.381 122.577 213.392 123.16C210.208 112.711 205.696 109.837 201.696 120.002Z" stroke="#303030" stroke-linecap="round" stroke-linejoin="round"/>
<path d="M201.088 217.556C204.737 228.246 209.298 228.198 212.923 217.556C201.149 217.556 201.291 217.54 201.088 217.556Z" fill="#E5DFD5"/>
<path d="M201.088 217.556C204.737 228.246 209.298 228.198 212.923 217.556C201.149 217.556 201.291 217.54 201.088 217.556Z" stroke="#303030" stroke-linecap="round" stroke-linejoin="round"/>
<path d="M82.8818 220.947C92.4242 221.321 102.248 222.163 112.094 222.958C114.901 221.294 122.479 213.252 123.486 210.03C121.662 214.216 117.313 217.778 110.412 218.521C93.3126 220.355 91.8393 221.018 82.8818 220.947Z" fill="#E5DFD5"/>
<path d="M82.8818 220.947C92.4242 221.321 102.248 222.163 112.094 222.958C114.901 221.294 122.479 213.252 123.486 210.03C121.662 214.216 117.313 217.778 110.412 218.521C93.3126 220.355 91.8393 221.018 82.8818 220.947Z" stroke="#303030" stroke-linecap="round" stroke-linejoin="round"/>
<path d="M147.341 109.197C146.621 111.674 145.786 114.117 144.838 116.516C130.779 151.972 146.71 184.368 174.278 189.302" stroke="#303030" stroke-linecap="round" stroke-linejoin="round"/>
<path d="M207.006 113.665H240.265" stroke="#303030" stroke-linecap="round" stroke-linejoin="round"/>
<path d="M207.146 225.579H240.124" stroke="#303030" stroke-linecap="round" stroke-linejoin="round"/>
<path d="M19.4275 177.842L22.7952 184.671L30.3267 185.77L24.8765 191.08L26.1629 198.587L19.4275 195.032L12.6909 198.587L13.9773 191.08L8.52832 185.77L16.0598 184.671L19.4275 177.842Z" fill="#E5DFD5" stroke="#303030" stroke-linecap="round" stroke-linejoin="round"/>
<path d="M126.43 30.4219L126.407 44.0577" stroke="#303030" stroke-linecap="round" stroke-linejoin="round"/>
<path d="M133.237 37.2519L119.602 37.2275" stroke="#303030" stroke-linecap="round" stroke-linejoin="round"/>
</svg>
