<svg width="200" height="200" viewBox="0 0 200 200" fill="none" xmlns="http://www.w3.org/2000/svg">
<path d="M72.5499 140.472L63.8566 145.927C61.1194 147.649 55.7135 150.737 52.9654 153.501H88.4789L89.0759 153.056L84.8969 145.9C80.697 144.249 76.5727 142.453 72.5499 140.472Z" fill="#E5DFD5"/>
<path d="M147.035 153.501C144.286 150.737 138.881 147.65 136.143 145.927C132.68 143.747 128.698 141.251 128.698 141.251L120.73 136.261L110.925 153.054L111.522 153.499L147.035 153.501Z" fill="#E5DFD5"/>
<path fill-rule="evenodd" clip-rule="evenodd" d="M153.31 91.8977C154.919 83.999 154.751 75.8413 152.818 68.0156C150.884 60.1898 147.236 52.892 142.134 46.6507C137.033 40.4092 130.607 35.3806 123.323 31.9289C116.038 28.4772 108.077 26.6888 100.016 26.6934C91.9552 26.6978 83.9963 28.4951 76.7157 31.955C69.4351 35.4149 63.0151 40.4507 57.9208 46.6978C52.8265 52.945 49.1853 60.2469 47.2611 68.0747C45.337 75.9027 45.1779 84.0605 46.7954 91.9574L72.1276 77.3984C78.0503 74.1646 84.0701 72.177 89.8445 71.8851C79.1816 67.905 78.9161 58.3553 89.7047 54.1554C89.7831 52.5331 90.2416 50.9521 91.0432 49.5395C91.8448 48.127 92.9671 46.9225 94.3196 46.0233C95.6721 45.1242 97.217 44.5554 98.8297 44.3628C100.443 44.1702 102.078 44.3594 103.604 44.9148C105.515 45.6285 107.177 46.884 108.385 48.5276C109.594 50.1711 110.296 52.1314 110.408 54.1683C120.68 58.1622 121.403 67.6714 110.165 71.8863C110.138 71.8944 110.111 71.9025 110.084 71.9104C116.289 72.1976 122.493 74.3848 127.841 77.3984L153.31 91.8977Z" fill="#E5DFD5"/>
<path d="M110.408 54.1683C110.296 52.1314 109.594 50.1711 108.385 48.5275C107.176 46.884 105.515 45.6285 103.604 44.9148C102.078 44.3594 100.443 44.1702 98.8296 44.3628C97.217 44.5554 95.672 45.1241 94.3195 46.0233C92.967 46.9225 91.8448 48.1269 91.0431 49.5394C90.2415 50.952 89.783 52.5331 89.7047 54.1554C78.9159 58.3552 79.1816 67.9053 89.845 71.8853C93.833 69.0754 96.5583 64.8407 97.2369 57.4299C96.9954 57.1678 96.7823 56.8811 96.6011 56.5742C95.8784 55.3167 95.5311 53.8784 95.6002 52.4297C95.6693 50.981 96.1519 49.5823 96.9911 48.3993C97.4019 47.7623 98.0008 47.2689 98.7047 46.9874C99.4086 46.7058 100.182 46.6503 100.919 46.8282C102.81 47.3426 104.15 49.2848 104.421 51.8977C104.556 52.9043 104.479 53.9282 104.196 54.9035C103.912 55.8787 103.428 56.784 102.774 57.5612C102.965 60.6766 103.345 63.8387 105.009 66.5919C106.299 68.7283 108.063 70.5397 110.165 71.8863C121.403 67.6714 120.68 58.1622 110.408 54.1683Z" fill="#008765"/>
<path d="M82.3129 89.2798C81.8592 90.7514 80.5666 94.6856 80.0383 95.2239C80.005 95.2583 79.9851 95.3033 79.9823 95.3511C79.9795 95.3988 79.9939 95.446 80.0231 95.4839C80.0521 95.5218 80.0939 95.548 80.1408 95.5577C80.1877 95.5673 80.2363 95.5597 80.2781 95.5364L82.6004 94.2201C82.6308 94.2025 82.656 94.1773 82.6735 94.1468C82.6909 94.1164 82.7 94.082 82.6999 94.0468V89.3386C82.6984 89.292 82.6808 89.2475 82.6499 89.2126C82.619 89.1778 82.5768 89.1549 82.5309 89.1479C82.4848 89.1409 82.4378 89.1504 82.3979 89.1744C82.3581 89.1985 82.328 89.2358 82.3129 89.2798Z" fill="#008765"/>
<path d="M119.952 95.2081C119.423 94.6698 118.131 90.7306 117.677 89.264C117.663 89.2186 117.633 89.1797 117.593 89.1544C117.553 89.1292 117.504 89.1191 117.457 89.1263C117.411 89.1333 117.368 89.1571 117.337 89.1931C117.305 89.2292 117.288 89.2751 117.288 89.3227V94.03C117.288 94.0652 117.297 94.0996 117.315 94.13C117.332 94.1604 117.357 94.1857 117.388 94.2032L119.711 95.5195C119.753 95.5428 119.801 95.5505 119.848 95.5409C119.895 95.5314 119.937 95.5054 119.966 95.4676C119.995 95.4299 120.009 95.3829 120.006 95.3353C120.004 95.2877 119.985 95.2425 119.952 95.2081Z" fill="#008765"/>
<path d="M68.7759 142.84L72.7489 140.352C68.7261 138.563 64.9849 136.199 61.6427 133.333C61.6056 133.299 61.5571 133.28 61.5067 133.281C61.4565 133.281 61.4081 133.3 61.3716 133.335C61.335 133.369 61.3129 133.416 61.3097 133.467C61.3064 133.517 61.3224 133.566 61.3542 133.605L68.7759 142.84Z" fill="#008765"/>
<path d="M131.224 142.84L127.251 140.352C131.274 138.563 135.015 136.199 138.357 133.333C138.394 133.299 138.443 133.28 138.494 133.281C138.543 133.281 138.592 133.3 138.628 133.335C138.665 133.369 138.687 133.416 138.691 133.467C138.694 133.517 138.678 133.566 138.646 133.605L131.224 142.84Z" fill="#008765"/>
<path d="M49.9515 108.481C49.9814 108.447 49.9989 108.404 50.0008 108.359C50.0028 108.313 49.9893 108.268 49.9624 108.233C49.9357 108.196 49.8972 108.17 49.8534 108.158C49.8096 108.146 49.7631 108.15 49.7217 108.168C45.7655 109.906 42.9377 114.217 42.8761 117C42.8752 117.035 42.8837 117.07 42.9008 117.101C42.918 117.132 42.943 117.158 42.9735 117.176C43.0038 117.194 43.0384 117.203 43.0739 117.203C43.1092 117.203 43.1439 117.195 43.1746 117.177C44.0959 116.662 45.015 116.145 45.9317 115.624C45.976 115.6 46.0091 115.559 46.0242 115.51C46.8153 112.913 48.1545 110.516 49.9515 108.481Z" fill="#008765"/>
<path d="M157.113 116.827C156.942 114.041 154.15 109.871 150.274 108.171C150.233 108.153 150.187 108.149 150.143 108.161C150.099 108.172 150.06 108.199 150.034 108.236C150.007 108.271 149.993 108.316 149.995 108.362C149.997 108.407 150.015 108.451 150.045 108.484C151.703 110.361 152.973 112.547 153.782 114.917C154.94 115.58 156.055 116.219 157.113 116.827Z" fill="#008765"/>
<path d="M110.408 54.1683C110.296 52.1314 109.594 50.1711 108.385 48.5275C107.177 46.884 105.515 45.6285 103.604 44.9148C102.078 44.3594 100.443 44.1702 98.8297 44.3628C97.217 44.5554 95.6721 45.1241 94.3195 46.0233C92.967 46.9225 91.8448 48.1269 91.0432 49.5394C90.2416 50.952 89.7831 52.5331 89.7047 54.1554C78.9159 58.3552 79.1816 67.9053 89.845 71.8853C93.833 69.0754 96.5583 64.8407 97.2369 57.4299C96.9955 57.1678 96.7824 56.8811 96.6011 56.5742C95.8784 55.3167 95.5311 53.8784 95.6002 52.4297C95.6694 50.981 96.152 49.5823 96.9911 48.3993C97.402 47.7623 98.0008 47.2689 98.7047 46.9874C99.4086 46.7058 100.182 46.6503 100.919 46.8282C102.81 47.3426 104.15 49.2848 104.421 51.8977C104.556 52.9043 104.479 53.9282 104.196 54.9035C103.912 55.8787 103.428 56.784 102.774 57.5612C102.965 60.6766 103.345 63.8387 105.009 66.5919C106.299 68.7283 108.063 70.5397 110.165 71.8863C121.403 67.6714 120.68 58.1622 110.408 54.1683Z" stroke="#303030" stroke-linecap="round" stroke-linejoin="round"/>
<path d="M104.421 51.9018C104.15 49.2889 102.809 47.3467 100.919 46.8323C100.182 46.6543 99.4086 46.7099 98.7047 46.9914C98.0008 47.2728 97.402 47.7663 96.9911 48.4034C96.152 49.5863 95.6694 50.985 95.6002 52.4337C95.5311 53.8825 95.8784 55.3207 96.6011 56.5783C97.6468 58.3404 99.6935 59.414 101.587 58.4499C103.89 57.2738 104.671 54.3147 104.421 51.9018Z" stroke="#303030" stroke-miterlimit="10"/>
<path d="M66.3382 103.454C71.9022 100.156 77.2225 97.021 82.5029 94.0469C82.5278 95.6797 82.7079 106.431 83.1377 108.04C85.7681 109.335 88.4921 110.43 91.2868 111.317C98.1881 113.538 102.205 113.762 111.006 110.583C113.078 109.856 115.105 109.005 117.075 108.033C117.067 107.303 117.341 101.533 117.482 94.031C120.2 95.5762 126.427 99.1622 133.823 103.424" stroke="#303030" stroke-linecap="round" stroke-linejoin="round"/>
<path d="M154.043 115.064C160.902 119.005 166.194 122.029 167.187 122.545L167.359 122.634L177.1 105.297C177.1 105.297 143.239 86.2849 135.807 81.9806C128.732 77.8841 125.503 76.0105 122.722 74.8842C118.711 73.2591 114.477 72.2498 110.165 71.8903C103.553 73.9749 96.4593 73.9749 89.847 71.8903C84.0042 72.3856 78.324 74.069 73.1549 76.8374C72.0962 77.4085 69.9968 78.6284 66.8187 80.4672C48.7863 90.9147 39.4562 96.1304 22.9124 105.297L32.6534 122.634C37.1488 120.297 41.5089 117.903 45.8332 115.452" stroke="#303030" stroke-linecap="round" stroke-linejoin="round"/>
<path d="M153.31 91.8977C154.919 83.999 154.751 75.8413 152.818 68.0156C150.884 60.1898 147.236 52.892 142.134 46.6507C137.033 40.4092 130.607 35.3806 123.323 31.9289C116.038 28.4772 108.077 26.6888 100.016 26.6934C91.9553 26.6978 83.9963 28.4951 76.7157 31.955C69.4351 35.4149 63.0152 40.4507 57.9209 46.6978C52.8266 52.945 49.1854 60.2469 47.2612 68.0747C45.337 75.9027 45.1779 84.0605 46.7954 91.9574" stroke="#303030" stroke-linecap="round" stroke-linejoin="round"/>
<path d="M48.459 132.425C45.444 131.979 42.3644 132.385 39.5686 133.599C36.7726 134.812 34.3721 136.784 32.6385 139.29C30.6088 142.216 29.576 145.717 29.6933 149.275C29.8105 152.833 31.0717 156.259 33.2895 159.044C35.5075 161.829 38.564 163.825 42.0057 164.736C45.4475 165.646 49.0912 165.423 52.3962 164.1C53.0985 167.319 54.6097 170.306 56.7871 172.778C58.9646 175.25 61.7365 177.126 64.8408 178.23C67.9451 179.333 71.2794 179.627 74.5288 179.083C77.7782 178.539 80.8353 177.176 83.4114 175.122C83.4309 175.109 83.4528 175.101 83.476 175.097C85.0216 178.502 87.5137 181.392 90.6556 183.421C93.7973 185.449 97.4562 186.532 101.196 186.539C103.665 186.538 106.11 186.063 108.4 185.14C111.263 183.974 113.808 182.144 115.824 179.801C117.841 177.459 119.272 174.67 119.999 171.665C120.013 171.663 120.027 171.664 120.04 171.669C120.054 171.674 120.065 171.683 120.074 171.694C122.297 174.605 125.298 176.829 128.731 178.107C132.163 179.386 135.888 179.669 139.474 178.921C143.06 178.174 146.362 176.429 148.998 173.886C151.635 171.342 153.498 168.106 154.374 164.549C157.211 165.422 160.231 165.51 163.113 164.8C165.995 164.092 168.631 162.613 170.739 160.523C173.092 158.23 174.707 155.287 175.378 152.071C176.049 148.855 175.744 145.512 174.505 142.47C173.265 139.428 171.145 136.824 168.417 134.993C165.689 133.163 162.477 132.188 159.192 132.193C156.073 132.216 151.716 133.905 149.751 134.681" stroke="#303030" stroke-linecap="round" stroke-linejoin="round"/>
<path d="M159.71 102.804L174.194 110.466" stroke="#303030" stroke-linecap="round" stroke-linejoin="round"/>
<path d="M40.2353 102.751L25.8108 110.455" stroke="#303030" stroke-linecap="round" stroke-linejoin="round"/>
<path d="M105.009 66.5959C103.345 63.8427 102.965 60.6806 102.774 57.5653C102.43 57.9239 102.029 58.2229 101.587 58.4498C100.854 58.7929 100.026 58.8795 99.2367 58.6954C98.4479 58.5113 97.7439 58.0674 97.2379 57.4349C96.5583 64.8457 93.833 69.0764 89.845 71.8893C96.4576 73.9738 103.551 73.9738 110.164 71.8893C108.062 70.5433 106.298 68.7321 105.009 66.5959Z" stroke="#303030" stroke-linecap="round" stroke-linejoin="round"/>
<path d="M86.7197 97.0966C88.7351 98.7422 91.1591 99.8102 93.7335 100.187" stroke="#303030" stroke-linecap="round" stroke-linejoin="round"/>
<path d="M113.28 97.0966C111.265 98.7422 108.841 99.8102 106.267 100.187" stroke="#303030" stroke-linecap="round" stroke-linejoin="round"/>
<path d="M99.5602 121.561C90.2729 115.234 82.2472 109.771 76.3767 106.875C71.4763 104.461 59.2259 99.6189 51.3246 106.804C43.7556 113.686 42.1159 125.983 51.2102 135.784C55.1174 139.832 59.8112 143.038 65.0029 145.205L72.5469 140.472C84.4929 146.358 97.3822 150.597 110.176 154.335L121.034 135.735C113.708 131.195 106.71 126.431 99.5602 121.561Z" stroke="#303030" stroke-linecap="round" stroke-linejoin="round"/>
<path d="M72.5499 140.472C63.785 136.225 59.7055 132.682 55.8867 126.629" stroke="#303030" stroke-linecap="round" stroke-linejoin="round"/>
<path d="M52.9654 153.501H88.4789" stroke="#303030" stroke-linecap="round" stroke-linejoin="round"/>
<path d="M72.5499 140.472L71.3022 141.253C71.3022 141.253 67.3222 143.747 63.8566 145.929C60.391 148.111 52.6529 152.475 51.437 155.606H85.6581L89.0749 153.058L84.8959 145.902C80.697 144.249 76.5727 142.453 72.5499 140.472Z" stroke="#303030" stroke-linecap="round" stroke-linejoin="round"/>
<path d="M100 121.86L100.44 121.562C109.727 115.235 117.753 109.772 123.623 106.876C128.524 104.462 140.774 99.6199 148.675 106.805C156.244 113.687 157.884 125.984 148.79 135.785C144.882 139.833 140.189 143.039 134.997 145.206" stroke="#303030" stroke-linecap="round" stroke-linejoin="round"/>
<path d="M127.45 140.472C136.215 136.225 140.295 132.682 144.113 126.629" stroke="#303030" stroke-linecap="round" stroke-linejoin="round"/>
<path d="M136.143 145.927C132.68 143.747 128.698 141.251 128.698 141.251L120.73 136.261L110.925 153.054L114.342 155.602H148.563C147.347 152.473 139.607 148.107 136.143 145.927Z" stroke="#303030" stroke-linecap="round" stroke-linejoin="round"/>
<path d="M147.035 153.501H111.521" stroke="#303030" stroke-linecap="round" stroke-linejoin="round"/>
<path d="M100 151.234C96.613 152.317 93.2201 153.351 89.8212 154.335L84.8969 145.9" stroke="#303030" stroke-linecap="round" stroke-linejoin="round"/>
<path d="M110.189 114.976V110.872" stroke="#303030" stroke-linecap="round" stroke-linejoin="round"/>
<path d="M89.8112 110.823V114.976" stroke="#303030" stroke-linecap="round" stroke-linejoin="round"/>
<path d="M24.1551 107.509C19.5065 107.752 18.4438 107.41 13.8221 110.831C12.1072 111.949 10.6969 113.475 9.71769 115.273C8.84507 117.141 9.62714 117.639 10.7127 117.247C11.2073 117.042 11.6737 116.775 12.1007 116.451L16.4996 113.632L16.5464 113.659C16.4707 115.649 14.3395 117.753 12.0838 119.983C10.3858 121.543 8.85941 123.279 7.53068 125.164C6.67745 126.441 6.07722 127.871 5.76256 129.374C5.73474 129.497 5.73155 129.624 5.75316 129.749C5.77478 129.873 5.82078 129.991 5.88851 130.098C5.95623 130.203 6.04435 130.296 6.14774 130.367C6.25114 130.439 6.36777 130.49 6.4909 130.517C6.60887 130.549 6.73358 130.547 6.85008 130.509C6.96657 130.472 7.06988 130.402 7.1476 130.308C7.35655 130.122 7.58142 129.918 7.76351 129.741C7.58434 130.071 7.44251 130.42 7.34063 130.781C7.22743 131.016 7.18278 131.278 7.21182 131.537C7.24088 131.795 7.34243 132.04 7.50481 132.244C7.7239 132.453 8.00601 132.582 8.30691 132.613C8.60781 132.644 8.91049 132.574 9.16745 132.415C9.60046 132.164 9.99548 131.854 10.3406 131.492C10.1515 131.834 9.99719 132.194 9.87987 132.567C9.81051 132.712 9.7745 132.87 9.7745 133.031C9.7745 133.191 9.81051 133.349 9.87987 133.494C9.95959 133.635 10.0669 133.759 10.1954 133.858C10.324 133.957 10.4711 134.03 10.6281 134.071C11.0788 134.15 11.5429 134.099 11.9652 133.922C12.3876 133.745 12.7505 133.452 13.0111 133.076C13.1455 132.962 13.2936 132.866 13.4519 132.789C13.255 132.978 13.1118 133.216 13.0372 133.478C12.9626 133.74 12.959 134.018 13.027 134.282C13.1009 134.504 13.2491 134.694 13.4467 134.819C13.6444 134.944 13.8793 134.997 14.1116 134.969C14.4349 134.957 14.7563 134.916 15.0718 134.845C15.1852 134.823 15.2976 134.801 15.4091 134.782C20.2229 133.964 22.9422 130.695 25.8228 127.233C27.5744 124.969 29.5743 122.908 31.7848 121.089L24.1551 107.509Z" stroke="#303030" stroke-linecap="round" stroke-linejoin="round"/>
<path d="M22.8387 124.566C21.1838 127.559 18.6392 129.963 15.5573 131.447C14.8286 131.849 14.1257 132.297 13.4529 132.786" stroke="#303030" stroke-linecap="round" stroke-linejoin="round"/>
<path d="M20.4 120.965C18.3668 124.185 15.7562 127.002 12.6997 129.274C11.9132 129.845 11.1804 130.487 10.5107 131.191C10.2375 131.618 10.0226 132.08 9.87192 132.564" stroke="#303030" stroke-linecap="round" stroke-linejoin="round"/>
<path d="M17.6299 119.384C15.8479 122.078 13.6177 124.447 11.0361 126.388C9.255 127.828 7.85205 128.965 7.34062 130.778" stroke="#303030" stroke-linecap="round" stroke-linejoin="round"/>
<path d="M175.845 107.509C180.494 107.752 181.556 107.41 186.178 110.831C187.892 111.949 189.303 113.475 190.282 115.273C191.155 117.141 190.373 117.639 189.287 117.247C188.793 117.042 188.326 116.775 187.899 116.451L183.5 113.632L183.454 113.659C183.529 115.649 185.661 117.753 187.916 119.983C189.615 121.543 191.141 123.279 192.469 125.164C193.323 126.441 193.923 127.871 194.237 129.374C194.265 129.497 194.268 129.624 194.246 129.749C194.226 129.873 194.179 129.991 194.111 130.098C194.043 130.203 193.956 130.296 193.852 130.367C193.749 130.439 193.632 130.49 193.509 130.517C193.391 130.549 193.266 130.547 193.15 130.509C193.034 130.472 192.93 130.402 192.852 130.308C192.643 130.122 192.419 129.918 192.236 129.741C192.416 130.071 192.558 130.42 192.659 130.781C192.773 131.016 192.818 131.278 192.788 131.537C192.759 131.795 192.657 132.04 192.495 132.244C192.276 132.453 191.994 132.582 191.693 132.613C191.392 132.644 191.089 132.574 190.833 132.415C190.4 132.164 190.005 131.854 189.659 131.492C189.849 131.834 190.003 132.194 190.12 132.567C190.19 132.712 190.226 132.87 190.226 133.031C190.226 133.191 190.19 133.349 190.12 133.494C190.041 133.635 189.933 133.759 189.805 133.858C189.676 133.957 189.529 134.03 189.372 134.071C188.921 134.15 188.457 134.099 188.035 133.922C187.613 133.745 187.25 133.452 186.989 133.076C186.855 132.962 186.706 132.866 186.548 132.789C186.745 132.978 186.888 133.216 186.963 133.478C187.038 133.74 187.041 134.018 186.973 134.282C186.899 134.504 186.751 134.694 186.553 134.819C186.356 134.944 186.12 134.997 185.888 134.969C185.565 134.957 185.244 134.916 184.928 134.845C184.815 134.823 184.702 134.801 184.591 134.782C179.777 133.964 177.058 130.695 174.177 127.233C172.425 124.969 170.426 122.908 168.215 121.089L175.845 107.509Z" stroke="#303030" stroke-linecap="round" stroke-linejoin="round"/>
<path d="M177.161 124.566C178.816 127.559 181.361 129.963 184.443 131.447C185.171 131.849 185.874 132.297 186.547 132.786" stroke="#303030" stroke-linecap="round" stroke-linejoin="round"/>
<path d="M179.6 120.965C181.633 124.185 184.244 127.002 187.3 129.274C188.086 129.845 188.82 130.487 189.489 131.191C189.763 131.618 189.978 132.08 190.128 132.564" stroke="#303030" stroke-linecap="round" stroke-linejoin="round"/>
<path d="M182.37 119.384C184.152 122.078 186.382 124.447 188.964 126.388C190.745 127.828 192.148 128.965 192.659 130.778" stroke="#303030" stroke-linecap="round" stroke-linejoin="round"/>
<path d="M16.1086 95.5345V107.007" stroke="#303030" stroke-linecap="round" stroke-linejoin="round"/>
<path d="M21.8447 101.271H10.3724" stroke="#303030" stroke-linecap="round" stroke-linejoin="round"/>
<path d="M26.1392 63.7531V70.3738" stroke="#303030" stroke-linecap="round" stroke-linejoin="round"/>
<path d="M29.4495 67.0636H22.8288" stroke="#303030" stroke-linecap="round" stroke-linejoin="round"/>
<path d="M45.667 32.0295V40.4522" stroke="#303030" stroke-linecap="round" stroke-linejoin="round"/>
<path d="M49.8779 36.2413H41.4552" stroke="#303030" stroke-linecap="round" stroke-linejoin="round"/>
<path d="M69.9729 44.5337V52.834" stroke="#303030" stroke-linecap="round" stroke-linejoin="round"/>
<path d="M74.123 48.6838H65.8227" stroke="#303030" stroke-linecap="round" stroke-linejoin="round"/>
<path d="M154.441 13.4071V32.0833" stroke="#303030" stroke-linecap="round" stroke-linejoin="round"/>
<path d="M163.781 22.7452H145.103" stroke="#303030" stroke-linecap="round" stroke-linejoin="round"/>
<path d="M167.952 46.672H179.389" stroke="#303030" stroke-linecap="round" stroke-linejoin="round"/>
<path d="M173.67 52.3903V40.9537" stroke="#303030" stroke-linecap="round" stroke-linejoin="round"/>
<path d="M163.227 79.9827V85.7427" stroke="#303030" stroke-linecap="round" stroke-linejoin="round"/>
<path d="M166.108 82.8632H160.347" stroke="#303030" stroke-linecap="round" stroke-linejoin="round"/>
<path d="M178.138 95.9236L188.763 106.547" stroke="#303030" stroke-linecap="round" stroke-linejoin="round"/>
<path d="M178.138 106.547L188.763 95.9236" stroke="#303030" stroke-linecap="round" stroke-linejoin="round"/>
<path d="M184.88 152.167L189.266 156.554" stroke="#303030" stroke-linecap="round" stroke-linejoin="round"/>
<path d="M184.88 156.554L189.266 152.167" stroke="#303030" stroke-linecap="round" stroke-linejoin="round"/>
<path d="M42.8154 169.084L47.256 173.525" stroke="#303030" stroke-linecap="round" stroke-linejoin="round"/>
<path d="M42.8154 173.525L47.256 169.084" stroke="#303030" stroke-linecap="round" stroke-linejoin="round"/>
</svg>
