<svg width="200" height="200" viewBox="0 0 200 200" fill="none" xmlns="http://www.w3.org/2000/svg">
<path d="M104.615 80.4413C102.425 81.7627 99.9465 82.5333 97.3931 82.687C97.9896 84.3767 98.4325 86.1167 98.7165 87.8859L103.102 89.8142L105.768 85.9387C105.528 84.0788 105.143 82.2406 104.615 80.4413Z" fill="#E5DFD5"/>
<path d="M132.764 47.1497C121.762 60.8747 112.706 66.0547 106.657 68.1153C108.282 72.4256 109.549 75.6395 110.139 79.515C110.158 79.5528 131.233 71.3292 140.993 54.242C138.974 51.1491 136.121 48.6902 132.764 47.1497Z" fill="#E5DFD5"/>
<path d="M101.779 69.3251C100.757 69.4918 99.7088 69.3673 98.7543 68.9659C97.3742 70.5729 95.0111 71.1211 92.2321 71.2156C91.8159 71.7996 91.2812 72.2891 90.663 72.6524C92.0141 74.7933 93.2432 77.0086 94.3445 79.2881C98.7115 79.0234 102.02 78.2294 104.307 76.1877C103.709 73.8174 102.862 71.517 101.779 69.3251Z" fill="#E5DFD5"/>
<path d="M54.8947 93.0131C65.8974 92.5972 80.0194 90.8241 90.6819 87.0769C89.208 82.9498 87.3403 78.974 85.1049 75.2046C76.93 78.2841 70.4495 78.2742 53.7793 79.4204C57.7046 79.2045 58.5523 92.5037 54.8947 93.0131Z" fill="#E5DFD5"/>
<path d="M142.747 43.7825L145.677 46.4292C145.956 46.6772 146.321 46.8046 146.693 46.7833C147.065 46.762 147.414 46.5939 147.662 46.3158L156.661 36.32C156.785 36.182 156.879 36.021 156.941 35.8463C157.002 35.6715 157.027 35.4864 157.017 35.3016C157.007 35.1167 156.96 34.9358 156.879 34.769C156.799 34.6024 156.686 34.4532 156.548 34.33L149.818 28.2605C149.679 28.1371 149.518 28.0419 149.344 27.9809C149.169 27.9197 148.984 27.8936 148.799 27.9041C148.614 27.9147 148.434 27.9615 148.266 28.0422C148.099 28.1228 147.951 28.2356 147.828 28.374L138.828 38.3757C138.705 38.5137 138.609 38.6747 138.548 38.8495C138.487 39.0243 138.461 39.2094 138.472 39.3943C138.482 39.5792 138.528 39.7602 138.609 39.9268C138.69 40.0936 138.803 40.2427 138.941 40.3657L139.638 40.9896C140.688 39.4353 143.025 36.1689 143.78 35.9768C144.311 36.7207 143.738 38.7444 143.225 40.5554C142.794 42.0733 142.407 43.442 142.747 43.7825Z" fill="#E5DFD5"/>
<path d="M141.691 155.949C138.255 156.896 134.744 157.548 131.198 157.896C135.056 163.284 134.355 164.494 135.717 167.065C141.975 169.636 155.795 171.962 162.506 172.094C157.511 165.893 147.76 162.641 141.691 155.949Z" fill="#008765"/>
<path d="M48.8261 128.479C44.6294 128.63 40.4293 128.294 36.31 127.477C32.3788 135.984 29.5809 146.59 28.162 153.454C37.9558 148.855 38.2015 138.805 48.1834 137.799C47.9155 134.678 48.1323 131.534 48.8261 128.479Z" fill="#008765"/>
<path d="M55.7454 80.8194C54.4409 80.9896 53.1932 81.103 52.0022 81.1786C52.9096 79.0056 54.4977 78.8155 55.7454 80.8194Z" fill="#008765"/>
<path d="M56.5961 91.2361C55.5941 93.7127 53.817 93.5803 52.5504 91.1416C54.1952 91.1446 55.6508 91.1794 56.5961 91.2361Z" fill="#008765"/>
<path d="M155.773 106.567C155.485 105.939 155.018 105.411 154.428 105.048C153.84 104.686 153.158 104.506 152.467 104.532C151.777 104.557 151.11 104.787 150.55 105.192C149.99 105.597 149.563 106.159 149.322 106.807C149.081 107.455 149.039 108.159 149.199 108.831C149.358 109.503 149.714 110.112 150.22 110.583C150.726 111.053 151.361 111.362 152.042 111.472C152.725 111.582 153.425 111.486 154.052 111.199C154.47 111.009 154.846 110.738 155.16 110.402C155.473 110.066 155.716 109.672 155.876 109.241C156.036 108.811 156.109 108.352 156.091 107.893C156.074 107.435 155.966 106.984 155.773 106.567Z" fill="#008765"/>
<path d="M103.556 107.041C102.573 109.65 101.566 112.145 100.472 114.565C101.204 116.887 102.254 119.653 102.661 120.634C101.968 114.716 103.575 107.065 103.556 107.041Z" fill="#008765"/>
<path d="M96.013 39.0006C92.9956 39.0037 90.1026 40.2038 87.969 42.3374C85.8353 44.471 84.6353 47.364 84.6322 50.3814C84.6099 52.0896 84.9083 53.7869 85.5118 55.3853C84.0301 52.7569 81.6812 50.725 78.867 49.6372C76.0527 48.5494 72.9478 48.4733 70.0836 49.4219C67.2194 50.3706 64.7739 52.285 63.1653 54.8376C61.5568 57.3903 60.8851 60.4226 61.2653 63.4157C61.6456 66.4089 63.0541 69.1769 65.2499 71.2463C67.4457 73.3156 70.2923 74.5576 73.3026 74.7599C76.313 74.9622 79.3002 74.1122 81.7532 72.3553C84.206 70.5983 85.9722 68.0437 86.7496 65.1283C88.3943 66.0358 90.6062 66.1492 92.0231 67.1512C91.7912 66.6875 90.8659 65.0069 90.3216 64.9393C86.6401 64.7124 86.7675 61.3662 88.9037 61.9712C89.9246 62.2548 90.1704 62.0279 89.9982 61.5175C88.7316 58.7752 89.7525 52.048 95.1782 57.6977C96.355 58.8277 97.3556 60.128 98.1463 61.5553C100.929 61.0251 103.415 59.4757 105.115 57.2102C106.817 54.9447 107.612 52.1261 107.344 49.3055C107.077 46.4851 105.767 43.8658 103.672 41.9599C101.575 40.054 98.8431 38.9988 96.01 39.0006H96.013Z" fill="#008765"/>
<path d="M96.4857 66.3572C95.8238 66.5464 95.1471 66.6796 94.4628 66.7552L97.6578 68.3054C97.0328 67.8293 96.6134 67.1324 96.4857 66.3572Z" fill="#008765"/>
<path d="M189.518 76.339C189.726 76.8121 190.068 77.2131 190.504 77.4912C190.939 77.7692 191.447 77.912 191.964 77.9012C192.48 77.8906 192.983 77.727 193.406 77.4311C193.829 77.1353 194.156 76.7205 194.343 76.2392C194.531 75.7579 194.572 75.2318 194.46 74.7273C194.349 74.2228 194.091 73.7626 193.718 73.405C193.345 73.0474 192.874 72.8084 192.366 72.7182C191.857 72.628 191.333 72.6907 190.86 72.8983C190.546 73.0354 190.261 73.2333 190.024 73.4807C189.786 73.728 189.599 74.0199 189.474 74.3396C189.349 74.6594 189.289 75.0006 189.296 75.3438C189.304 75.6869 189.38 76.0251 189.518 76.339Z" fill="#008765"/>
<path d="M174.98 82.7478C175.187 83.2209 175.53 83.6219 175.966 83.8999C176.401 84.178 176.91 84.3208 177.426 84.3101C177.942 84.2994 178.445 84.1358 178.868 83.8399C179.292 83.5441 179.618 83.1293 179.805 82.648C179.993 82.1667 180.034 81.6406 179.922 81.1361C179.811 80.6317 179.553 80.1715 179.18 79.8139C178.807 79.4563 178.336 79.2173 177.828 79.127C177.319 79.0369 176.795 79.0995 176.322 79.3071C176.008 79.4442 175.724 79.6421 175.486 79.8895C175.248 80.1368 175.061 80.4288 174.936 80.7485C174.811 81.0683 174.751 81.4094 174.758 81.7525C174.766 82.0957 174.842 82.4339 174.98 82.7478Z" fill="#008765"/>
<path d="M55.4807 146.591L59.8856 156.195C60.7618 158.101 62.3588 159.583 64.3261 160.312C66.2933 161.042 68.4697 160.963 70.3778 160.089L112.46 140.805" stroke="#303030" stroke-linecap="round" stroke-linejoin="round"/>
<path d="M131.649 132.014L167.853 115.435C169.759 114.558 171.241 112.961 171.97 110.994C172.701 109.027 172.621 106.851 171.747 104.942L146.282 49.3427" stroke="#303030" stroke-linecap="round" stroke-linejoin="round"/>
<path d="M138.493 39.3419C136.732 38.8862 134.87 39.0531 133.219 39.8145L107.36 51.6539" stroke="#303030" stroke-linecap="round" stroke-linejoin="round"/>
<path d="M45.7635 79.8553L65.0624 71.0187" stroke="#303030" stroke-linecap="round" stroke-linejoin="round"/>
<path d="M37.7478 83.5228L35.725 84.4492C33.8182 85.3253 32.337 86.9223 31.6067 88.8895C30.8763 90.8567 30.9565 93.0333 31.8296 94.9415L47.2193 128.517" stroke="#303030" stroke-linecap="round" stroke-linejoin="round"/>
<path d="M119.153 111.045L129.891 106.129C130.309 105.935 130.632 105.584 130.792 105.151C130.951 104.719 130.934 104.242 130.741 103.823L129.702 101.516C129.508 101.098 129.156 100.775 128.724 100.615C128.292 100.456 127.814 100.474 127.395 100.666L116.411 105.694" stroke="#303030" stroke-linecap="round" stroke-linejoin="round"/>
<path d="M101.987 118.913L97.2419 121.087" stroke="#303030" stroke-linecap="round" stroke-linejoin="round"/>
<path d="M96.4667 66.376C96.5963 66.9691 96.8766 67.5188 97.2806 67.972C97.6846 68.4252 98.1986 68.7665 98.7731 68.963C99.7271 69.3662 100.776 69.4907 101.798 69.3222C114.162 67.4058 124.933 56.9016 132.764 47.1466C136.119 48.687 138.971 51.1446 140.989 54.236C131.233 71.3261 110.154 79.5498 110.135 79.509" stroke="#303030" stroke-linecap="round" stroke-linejoin="round"/>
<path d="M94.4439 66.7542C94.4439 66.7542 103.554 66.3402 95.3514 57.8688C89.7197 52.052 88.7177 58.5982 89.9426 61.41C90.2858 62.1971 89.65 62.1642 88.8859 61.9523C86.7466 61.3553 86.6173 64.6935 90.3038 64.9204C90.5997 65.077 90.8578 65.2964 91.06 65.5632C93.5713 69.2258 93.4997 71.3869 89.3585 73.352C78.6782 78.4205 72.7221 78.0783 53.7793 79.4215" stroke="#303030" stroke-linecap="round" stroke-linejoin="round"/>
<path d="M94.4627 66.7542L97.6387 68.3044" stroke="#303030" stroke-linecap="round" stroke-linejoin="round"/>
<path d="M54.8757 93.0132C65.8784 92.5973 80.0005 90.8242 90.6629 87.077" stroke="#303030" stroke-linecap="round" stroke-linejoin="round"/>
<path d="M55.7454 80.8195C51.3179 81.3927 46.8391 81.4498 42.3985 80.9896C41.0366 80.7994 39.6907 80.5087 38.3717 80.12C36.8536 79.7044 35.3634 79.1929 33.9101 78.5887C29.9023 76.941 28.9192 77.6812 32.6803 80.5548C36.8795 83.3383 41.4407 85.5329 46.2362 87.077" stroke="#303030" stroke-linecap="round" stroke-linejoin="round"/>
<path d="M56.596 91.2361C53.6697 91.061 43.8291 91.0371 40.9237 91.3117C35.8184 91.8032 37.5408 90.6689 39.1328 89.7048C40.2851 89.0083 45.7118 87.6441 43.7268 86.2223" stroke="#303030" stroke-linecap="round" stroke-linejoin="round"/>
<path d="M37.713 79.912C36.8434 79.2692 35.1429 77.7747 34.6504 77.3409C32.3868 75.3509 33.1002 74.8624 33.535 75.0524C35.2773 75.8196 37.9588 77.3777 39.6045 78.0583C42.2512 79.1528 47.28 81.3478 49.7754 81.2911" stroke="#303030" stroke-linecap="round" stroke-linejoin="round"/>
<path d="M39.4304 78.0025C39.109 77.6045 38.8264 77.2831 38.6742 77.0951C36.7787 74.7578 37.5399 74.3917 37.9369 74.6563C39.5289 75.715 41.9288 77.6752 43.4382 78.6075C45.2546 79.6767 47.1658 80.576 49.1475 81.294" stroke="#303030" stroke-linecap="round" stroke-linejoin="round"/>
<path d="M52.0022 81.1787C53.4668 77.6683 56.4319 79.6752 57.1354 85.1806C57.9613 91.6481 54.8628 95.5952 52.5504 91.1416" stroke="#303030" stroke-linecap="round" stroke-linejoin="round"/>
<path d="M142.747 43.7826C142.051 42.8562 143.692 39.2643 143.863 38.1678C144.146 36.334 144.379 34.2773 141.481 38.527C139.16 41.7636 136.654 44.8629 133.974 47.8093" stroke="#303030" stroke-linecap="round" stroke-linejoin="round"/>
<path d="M142.747 43.7825L145.677 46.4292C145.956 46.6772 146.321 46.8045 146.693 46.7833C147.065 46.762 147.414 46.5938 147.662 46.3158L156.661 36.32C156.785 36.182 156.879 36.021 156.941 35.8462C157.002 35.6715 157.027 35.4863 157.017 35.3016C157.007 35.1167 156.96 34.9357 156.879 34.769C156.799 34.6024 156.686 34.4531 156.548 34.33L149.818 28.2605C149.679 28.1371 149.518 28.0419 149.344 27.9808C149.169 27.9197 148.984 27.8936 148.799 27.9041C148.614 27.9146 148.434 27.9615 148.266 28.0422C148.1 28.1228 147.951 28.2356 147.828 28.374L138.828 38.3757C138.705 38.5137 138.609 38.6747 138.548 38.8494C138.487 39.0243 138.461 39.2094 138.472 39.3943C138.482 39.5792 138.528 39.7602 138.61 39.9268C138.691 40.0936 138.803 40.2427 138.941 40.3657L139.638 40.9896" stroke="#303030" stroke-linecap="round" stroke-linejoin="round"/>
<path d="M140.553 53.5962C143.503 50.439 157.667 42.7775 155.792 42.4989C153.595 42.1716 149.641 44.3546 149.213 44.5944" stroke="#303030" stroke-linecap="round" stroke-linejoin="round"/>
<path d="M152.415 43.1129C152.86 42.8224 154.691 41.6393 156.208 40.8165C157.724 39.9936 154.43 39.9657 152.464 40.9866" stroke="#303030" stroke-linecap="round" stroke-linejoin="round"/>
<path d="M145.104 45.9138C144.84 45.7666 143.335 45.0521 140.383 45.9397" stroke="#303030" stroke-linecap="round" stroke-linejoin="round"/>
<path d="M160.329 104.488C160.616 105.116 160.712 105.816 160.602 106.498C160.492 107.18 160.183 107.815 159.713 108.321C159.242 108.827 158.633 109.183 157.961 109.342C157.289 109.502 156.585 109.459 155.937 109.219C155.289 108.978 154.727 108.551 154.322 107.991C153.917 107.431 153.687 106.764 153.662 106.073C153.636 105.383 153.816 104.7 154.178 104.112C154.541 103.523 155.069 103.056 155.697 102.768C156.114 102.575 156.565 102.467 157.023 102.45C157.482 102.432 157.941 102.504 158.371 102.665C158.802 102.825 159.196 103.068 159.532 103.381C159.868 103.694 160.139 104.071 160.329 104.488Z" stroke="#303030" stroke-linecap="round" stroke-linejoin="round"/>
<path d="M155.773 106.567C156.06 107.195 156.156 107.894 156.046 108.577C155.936 109.259 155.626 109.893 155.157 110.4C154.686 110.906 154.077 111.261 153.405 111.421C152.733 111.581 152.029 111.538 151.381 111.297C150.733 111.056 150.171 110.63 149.766 110.069C149.361 109.509 149.131 108.843 149.106 108.152C149.08 107.462 149.259 106.779 149.622 106.191C149.984 105.602 150.513 105.134 151.141 104.847C151.985 104.469 152.943 104.437 153.809 104.759C154.675 105.081 155.381 105.73 155.773 106.567Z" stroke="#303030" stroke-linecap="round" stroke-linejoin="round"/>
<path d="M151.217 108.667C151.504 109.294 151.6 109.994 151.49 110.676C151.38 111.358 151.07 111.993 150.601 112.499C150.13 113.006 149.521 113.361 148.849 113.52C148.177 113.68 147.472 113.638 146.825 113.397C146.177 113.156 145.615 112.729 145.21 112.169C144.805 111.609 144.575 110.942 144.55 110.252C144.524 109.561 144.703 108.878 145.066 108.29C145.429 107.701 145.957 107.234 146.585 106.946C147.002 106.753 147.453 106.645 147.911 106.628C148.37 106.61 148.829 106.683 149.258 106.843C149.689 107.003 150.083 107.246 150.42 107.559C150.756 107.873 151.027 108.249 151.217 108.667Z" stroke="#303030" stroke-linecap="round" stroke-linejoin="round"/>
<path d="M61.9273 99.5026C63.1384 98.9511 64.5189 98.9019 65.7662 99.3662C67.0135 99.8304 68.026 100.77 68.5819 101.979L71.55 108.482C72.1015 109.693 72.1505 111.074 71.6864 112.321C71.2222 113.569 70.2826 114.581 69.0734 115.137L59.7722 119.391C58.5609 119.942 57.1805 119.992 55.9332 119.527C54.6859 119.063 53.6734 118.123 53.1176 116.914L50.1326 110.411C49.581 109.2 49.5319 107.819 49.9961 106.572C50.4602 105.324 51.3999 104.312 52.6092 103.756L61.9273 99.5026Z" stroke="#303030" stroke-linecap="round" stroke-linejoin="round"/>
<path d="M154.09 95.055C154.508 94.8609 154.831 94.5094 154.992 94.0773C155.151 93.6451 155.133 93.1674 154.941 92.7486L153.901 90.4421C153.707 90.0244 153.356 89.7005 152.923 89.5411C152.491 89.3817 152.014 89.3998 151.595 89.5914L134.012 97.626C133.594 97.8202 133.271 98.1716 133.111 98.6038C132.951 99.036 132.969 99.5137 133.161 99.9325L134.201 102.239C134.395 102.657 134.746 102.98 135.179 103.14C135.611 103.3 136.089 103.282 136.508 103.09L154.09 95.055Z" stroke="#303030" stroke-linecap="round" stroke-linejoin="round"/>
<path d="M189.518 76.339C189.726 76.8121 190.068 77.2131 190.504 77.4912C190.939 77.7692 191.448 77.912 191.964 77.9012C192.48 77.8906 192.983 77.727 193.406 77.4311C193.83 77.1353 194.156 76.7205 194.343 76.2392C194.531 75.7579 194.572 75.2318 194.46 74.7273C194.349 74.2228 194.091 73.7626 193.718 73.405C193.345 73.0474 192.874 72.8084 192.366 72.7182C191.857 72.628 191.333 72.6907 190.86 72.8983C190.546 73.0354 190.261 73.2333 190.024 73.4807C189.786 73.728 189.599 74.0199 189.474 74.3396C189.349 74.6594 189.289 75.0006 189.296 75.3438C189.304 75.6869 189.38 76.0251 189.518 76.339Z" stroke="#303030" stroke-linecap="round" stroke-linejoin="round"/>
<path d="M174.98 82.7477C175.187 83.2208 175.53 83.6218 175.966 83.8998C176.401 84.1779 176.91 84.3207 177.426 84.3099C177.942 84.2993 178.445 84.1357 178.868 83.8398C179.292 83.544 179.618 83.1292 179.805 82.6479C179.993 82.1666 180.034 81.6405 179.922 81.136C179.811 80.6315 179.553 80.1713 179.18 79.8137C178.807 79.4561 178.336 79.2171 177.828 79.1269C177.319 79.0368 176.795 79.0993 176.322 79.307C176.008 79.4441 175.724 79.642 175.486 79.8894C175.248 80.1367 175.061 80.4287 174.936 80.7483C174.811 81.0681 174.751 81.4093 174.758 81.7524C174.766 82.0956 174.842 82.4338 174.98 82.7477Z" stroke="#303030" stroke-linecap="round" stroke-linejoin="round"/>
<path d="M189.518 76.339L179.763 80.6304" stroke="#303030" stroke-linecap="round" stroke-linejoin="round"/>
<path d="M193.488 45.486L188.195 47.8113L191.56 72.6903" stroke="#303030" stroke-linecap="round" stroke-linejoin="round"/>
<path d="M190.993 68.5123L171.596 74.7698L163.845 67.17L189.291 55.9404" stroke="#303030" stroke-linecap="round" stroke-linejoin="round"/>
<path d="M100.487 114.601C101.581 112.181 102.576 109.65 103.556 107.039C103.575 107.058 101.964 114.714 102.668 120.631" stroke="#303030" stroke-linecap="round" stroke-linejoin="round"/>
<path d="M85.0859 75.2046C89.9067 83.0124 92.3833 92.5594 93.2151 94.0718C98.017 96.7752 107.035 94.5066 109.965 91.3117C111.283 80.8811 110.064 77.1399 106.657 68.1152" stroke="#303030" stroke-linecap="round" stroke-linejoin="round"/>
<path d="M93.2151 94.0718C89.2262 98.1931 84.7646 93.7315 79.0742 123.922C66.1621 123.846 61.4736 124.924 49.3744 126.342C47.2382 133.207 47.8431 140.577 50.3764 148.272L82.893 137.59C85.1768 136.837 87.2017 135.455 88.7346 133.602C93.4998 127.832 97.4537 121.438 100.487 114.598C104.556 127.487 115.539 147.018 122.688 158.309C133.633 158.309 142.728 156.437 149.951 152.638C130.648 137.704 113.733 101.159 109.966 91.3097" stroke="#303030" stroke-linecap="round" stroke-linejoin="round"/>
<path d="M90.6629 72.6525C92.0178 74.7954 93.2548 77.0105 94.3683 79.2882C98.7353 79.0235 102.044 78.2295 104.331 76.1878C103.731 73.8163 102.883 71.5149 101.798 69.3223" stroke="#303030" stroke-linecap="round" stroke-linejoin="round"/>
<path d="M105.771 85.9427L103.105 89.8182L98.7164 87.8899C98.4327 86.1193 97.9897 84.378 97.393 82.6871C99.9468 82.5322 102.425 81.7601 104.615 80.4374C105.144 82.2392 105.531 84.0801 105.771 85.9427Z" stroke="#303030" stroke-linecap="round" stroke-linejoin="round"/>
<path d="M141.691 155.949C147.76 162.641 157.511 165.893 162.506 172.094C155.795 171.961 141.975 169.636 135.717 167.065C134.355 164.494 135.055 163.284 131.198 157.896C134.745 157.549 138.256 156.897 141.691 155.949Z" stroke="#303030" stroke-linecap="round" stroke-linejoin="round"/>
<path d="M48.8261 128.479C44.6293 128.63 40.4292 128.294 36.31 127.477C32.3788 135.984 29.5809 146.59 28.162 153.453C37.9558 148.854 38.2015 138.805 48.1834 137.799C47.9154 134.678 48.1322 131.534 48.8261 128.479Z" stroke="#303030" stroke-linecap="round" stroke-linejoin="round"/>
<path d="M92.2509 71.2346C95.03 71.14 97.3931 70.5918 98.7731 68.9849" stroke="#303030" stroke-linecap="round" stroke-linejoin="round"/>
<path d="M98.1303 61.5363C100.251 61.1307 102.213 60.1299 103.786 58.6511C105.359 57.1724 106.478 55.2765 107.015 53.185C107.551 51.0935 107.48 48.8927 106.813 46.8395C106.144 44.7864 104.906 42.9657 103.242 41.5901C101.578 40.2144 99.5568 39.3406 97.4145 39.0707C95.2724 38.8008 93.0976 39.1459 91.1443 40.0657C89.1909 40.9856 87.5396 42.4422 86.3832 44.2655C85.2268 46.0888 84.6128 48.2034 84.6132 50.3625C84.588 52.071 84.8889 53.7687 85.4998 55.3643C84.0139 52.7399 81.6625 50.7131 78.8476 49.6305C76.0328 48.5478 72.9292 48.4765 70.0675 49.4288C67.2059 50.381 64.7639 52.2977 63.1591 54.8511C61.5541 57.4046 60.8861 60.4362 61.269 63.4277C61.6518 66.4192 63.0619 69.1848 65.2582 71.2518C67.4545 73.3187 70.3005 74.5586 73.3097 74.7594C76.3189 74.9602 79.3045 74.1096 81.7559 72.3529C84.2074 70.5961 85.9725 68.0424 86.7495 65.1283C88.3942 66.0357 90.6061 66.1492 92.023 67.1511" stroke="#303030" stroke-linecap="round" stroke-linejoin="round"/>
<path d="M36.3488 45.0323C36.5695 45.5184 36.641 46.0591 36.5544 46.5859C36.4678 47.1127 36.2269 47.602 35.8622 47.9919C35.4976 48.3819 35.0254 48.6549 34.5055 48.7765C33.9858 48.8981 33.4415 48.8627 32.9417 48.6751C32.4419 48.4873 32.009 48.1557 31.6977 47.722C31.3864 47.2882 31.2107 46.7719 31.1928 46.2383C31.175 45.7047 31.3158 45.1778 31.5974 44.7242C31.8789 44.2706 32.2887 43.9107 32.7748 43.69C33.0973 43.5417 33.4461 43.4588 33.8008 43.4461C34.1556 43.4333 34.5094 43.491 34.8418 43.6158C35.1741 43.7406 35.4784 43.93 35.7371 44.1732C35.9958 44.4163 36.2037 44.7083 36.3488 45.0323Z" stroke="#303030" stroke-linecap="round" stroke-linejoin="round"/>
<path d="M45.5178 48.4163C45.7382 48.9023 45.8096 49.4427 45.723 49.9693C45.6363 50.4959 45.3954 50.985 45.0308 51.3746C44.6662 51.7643 44.1942 52.0372 43.6746 52.1587C43.155 52.2802 42.611 52.2448 42.1114 52.0572C41.6118 51.8694 41.1791 51.5379 40.8679 51.1043C40.5568 50.6707 40.3812 50.1546 40.3634 49.6213C40.3456 49.0879 40.4863 48.5612 40.7678 48.1078C41.0492 47.6544 41.4588 47.2947 41.9447 47.074C42.2672 46.9259 42.6159 46.8431 42.9705 46.8304C43.3251 46.8178 43.6788 46.8755 44.0111 47.0003C44.3433 47.1252 44.6475 47.3145 44.9061 47.5576C45.1647 47.8006 45.3726 48.0925 45.5178 48.4163Z" stroke="#303030" stroke-linecap="round" stroke-linejoin="round"/>
<path d="M35.3658 55.9594L41.5477 39.6066" stroke="#303030" stroke-linecap="round" stroke-linejoin="round"/>
<path d="M99.4348 155.174L103.688 164.418" stroke="#303030" stroke-linecap="round" stroke-linejoin="round"/>
<path d="M106.184 157.669L96.9394 161.942" stroke="#303030" stroke-linecap="round" stroke-linejoin="round"/>
<path d="M137.869 72.9928C138.444 73.3876 138.903 73.9286 139.198 74.56C139.494 75.1915 139.616 75.8904 139.551 76.5847" stroke="#303030" stroke-linecap="round" stroke-linejoin="round"/>
<path d="M139.892 69.951C140.934 70.8054 141.772 71.882 142.345 73.102C142.917 74.3221 143.21 75.6549 143.201 77.0026" stroke="#303030" stroke-linecap="round" stroke-linejoin="round"/>
<path d="M142.089 66.5461C145.074 69.4639 146.894 73.3681 147.212 77.5299" stroke="#303030" stroke-linecap="round" stroke-linejoin="round"/>
<path d="M120.552 28.0167L117.313 29.4853C117.111 29.5637 116.927 29.6824 116.773 29.8342C116.618 29.986 116.496 30.1677 116.415 30.3683C116.332 30.5689 116.292 30.7841 116.296 31.0007C116.301 31.2173 116.349 31.4308 116.438 31.628C116.528 31.8253 116.657 32.0022 116.817 32.1479C116.978 32.2935 117.166 32.4051 117.371 32.4754C117.576 32.5458 117.793 32.5736 118.009 32.5572C118.225 32.5407 118.435 32.4804 118.627 32.3798L120.442 31.5549C120.821 31.3933 121.249 31.3862 121.633 31.5353C122.017 31.6844 122.329 31.9778 122.5 32.353C122.671 32.7281 122.688 33.1553 122.549 33.5433C122.409 33.9312 122.124 34.2492 121.753 34.4295L118.492 35.922" stroke="#303030" stroke-linecap="round" stroke-linejoin="round"/>
<path d="M117.716 28.0167L121.327 35.92" stroke="#303030" stroke-linecap="round" stroke-linejoin="round"/>
<path d="M16.3275 101.691C16.1075 101.271 15.7348 100.949 15.2856 100.794C14.8365 100.64 14.345 100.663 13.9122 100.858C13.4794 101.054 13.1379 101.408 12.9579 101.848C12.778 102.288 12.7731 102.78 12.9445 103.223L13.7763 105.075" stroke="#303030" stroke-linecap="round" stroke-linejoin="round"/>
<path d="M26.8008 109.725C27.0924 109.614 27.3579 109.444 27.5812 109.225C27.8045 109.007 27.9808 108.745 28.0992 108.457C28.2176 108.167 28.2757 107.858 28.2699 107.545C28.264 107.233 28.1943 106.925 28.0651 106.642C27.9359 106.357 27.75 106.102 27.5186 105.892C27.2873 105.683 27.0155 105.523 26.7199 105.422C26.4244 105.321 26.1115 105.283 25.8003 105.307C25.489 105.331 25.1861 105.42 24.9103 105.566C17.3105 107.381 14.7016 107.116 13.7753 105.075C14.7016 107.116 13.1703 109.254 6.81822 113.79C6.3031 114.062 5.91154 114.522 5.72349 115.073C5.53542 115.626 5.56504 116.229 5.80626 116.759C6.04749 117.289 6.48216 117.708 7.02155 117.929C7.56094 118.151 8.16438 118.158 8.70872 117.949L26.8008 109.725Z" stroke="#303030" stroke-linecap="round" stroke-linejoin="round"/>
</svg>
