<svg width="201" height="200" viewBox="0 0 201 200" fill="none" xmlns="http://www.w3.org/2000/svg">
<path d="M110.108 46.4609L87.9233 29.2759L66.6803 56.6999L114.021 93.3719L135.264 65.9479L117.891 52.4909" stroke="#303030" stroke-linecap="round" stroke-linejoin="round"/>
<path d="M109.249 32.9759L105.271 29.8939C104.657 29.4179 103.955 29.0677 103.205 28.8631C102.456 28.6585 101.673 28.6035 100.903 28.7014C100.132 28.7993 99.3883 29.0481 98.7136 29.4335C98.039 29.819 97.447 30.3336 96.9713 30.9479L94.3853 34.2859L107.71 44.6079L110.296 41.2699C111.257 40.031 111.686 38.4614 111.49 36.9061C111.293 35.3508 110.487 33.9372 109.249 32.9759Z" stroke="#303030" stroke-linecap="round" stroke-linejoin="round"/>
<path d="M130.323 49.3L128.323 47.75C124.933 49.5147 121.452 51.0972 117.893 52.491L128.793 60.932L131.378 57.594C132.338 56.3541 132.766 54.7839 132.568 53.2286C132.37 51.6732 131.563 50.2601 130.323 49.3Z" stroke="#303030" stroke-linecap="round" stroke-linejoin="round"/>
<path d="M192.447 15.4591L145.683 16.4591C145.056 16.4503 144.45 16.6853 143.993 17.1146C143.536 17.5439 143.264 18.1338 143.233 18.7601L142.775 46.2061C142.784 46.8201 143.027 47.4076 143.454 47.8484C143.882 48.2892 144.462 48.5499 145.075 48.5771L192.299 52.1061C192.631 52.1417 192.968 52.1086 193.287 52.009C193.606 51.9093 193.901 51.7452 194.154 51.5267C194.408 51.3083 194.613 51.0402 194.758 50.7391C194.904 50.4379 194.986 50.1102 194.999 49.7761V17.8001C194.987 17.4781 194.912 17.1616 194.777 16.8691C194.642 16.5765 194.45 16.3137 194.213 16.0959C193.975 15.8781 193.697 15.7096 193.394 15.6003C193.091 15.491 192.769 15.443 192.447 15.4591Z" fill="#008765"/>
<path d="M192.447 15.4591L145.683 16.4591C145.056 16.4503 144.45 16.6853 143.993 17.1146C143.536 17.5439 143.264 18.1338 143.233 18.7601L142.775 46.2061C142.784 46.8201 143.027 47.4076 143.454 47.8484C143.882 48.2892 144.462 48.5499 145.075 48.5771L192.299 52.1061C192.631 52.1417 192.968 52.1086 193.287 52.009C193.606 51.9093 193.901 51.7452 194.154 51.5267C194.408 51.3083 194.613 51.0402 194.758 50.7391C194.904 50.4379 194.986 50.1102 194.999 49.7761V17.8001C194.987 17.4781 194.912 17.1616 194.777 16.8691C194.642 16.5765 194.45 16.3137 194.213 16.0959C193.975 15.8781 193.697 15.7096 193.394 15.6003C193.091 15.491 192.769 15.443 192.447 15.4591Z" stroke="#303030" stroke-linecap="round" stroke-linejoin="round"/>
<path d="M121.844 34.6832C116.695 39.1252 109.935 46.2392 107.773 49.4222C105.611 52.6052 105.651 55.1222 110.249 54.6892C114.847 54.2562 125.291 49.5552 130.774 46.4132L142.838 42.5062L143.196 21.0602C137.761 19.0303 132.149 17.5114 126.433 16.5232C121.733 15.9432 120.36 16.5542 117.308 18.8432C113.11 22.2668 109.523 26.3774 106.699 31.0002" stroke="#303030" stroke-linecap="round" stroke-linejoin="round"/>
<path d="M80.1493 149.857V145.635C80.1493 144.067 79.5263 142.563 78.4174 141.454C77.3085 140.345 75.8045 139.722 74.2363 139.722H69.2063C67.6383 139.723 66.1348 140.346 65.0261 141.455C63.9173 142.564 63.2941 144.067 63.2933 145.635V149.857H55.1033V184.547H114.996V149.857H80.1493Z" fill="#008765"/>
<path d="M80.1493 149.857V145.635C80.1493 144.067 79.5263 142.563 78.4174 141.454C77.3085 140.345 75.8045 139.722 74.2363 139.722H69.2063C67.6383 139.723 66.1348 140.346 65.0261 141.455C63.9173 142.564 63.2941 144.067 63.2933 145.635V149.857H55.1033V184.547H114.996V149.857H80.1493Z" stroke="#303030" stroke-linecap="round" stroke-linejoin="round"/>
<path d="M166.621 149.857V145.635C166.621 144.068 165.998 142.564 164.89 141.455C163.782 140.347 162.279 139.723 160.711 139.722H155.678C154.11 139.723 152.607 140.347 151.498 141.455C150.39 142.564 149.767 144.067 149.766 145.635V149.857H114.918V184.547H174.812V149.857H166.621Z" stroke="#303030" stroke-linecap="round" stroke-linejoin="round"/>
<path d="M136.799 115.173V110.951C136.799 109.383 136.176 107.88 135.068 106.771C133.959 105.662 132.456 105.039 130.888 105.038H125.856C124.288 105.039 122.785 105.662 121.676 106.771C120.567 107.88 119.944 109.383 119.943 110.951V115.173H110.143V110.951C110.143 109.383 109.521 107.88 108.412 106.771C107.304 105.662 105.801 105.039 104.233 105.038H99.2004C97.6324 105.039 96.1289 105.662 95.0201 106.771C93.9114 107.88 93.2882 109.383 93.2874 110.951V115.173H85.1064V149.863H144.989V115.173H136.799Z" fill="#E5DFD5"/>
<path d="M136.799 115.173V110.951C136.799 109.383 136.176 107.88 135.068 106.771C133.959 105.662 132.456 105.039 130.888 105.038H125.856C124.288 105.039 122.785 105.662 121.676 106.771C120.567 107.88 119.944 109.383 119.943 110.951V115.173H110.143V110.951C110.143 109.383 109.521 107.88 108.412 106.771C107.304 105.662 105.801 105.039 104.233 105.038H99.2004C97.6324 105.039 96.1289 105.662 95.0201 106.771C93.9114 107.88 93.2882 109.383 93.2874 110.951V115.173H85.1064V149.863H144.989V115.173H136.799Z" stroke="#303030" stroke-linecap="round" stroke-linejoin="round"/>
<path d="M93.2873 115.173H110.142" stroke="#303030" stroke-linecap="round" stroke-linejoin="round"/>
<path d="M119.943 115.173H136.799" stroke="#303030" stroke-linecap="round" stroke-linejoin="round"/>
<path d="M149.766 149.857H166.621" stroke="#303030" stroke-linecap="round" stroke-linejoin="round"/>
<path d="M30.8332 57.1201L11.2732 85.3671L32.8462 100.308C37.7712 95.4081 43.7062 90.3991 45.4782 92.5531C47.2872 94.7531 45.1782 101.228 42.6442 107.093L60.6862 119.588L80.2492 91.3411L30.8332 57.1201Z" fill="#E5DFD5"/>
<path d="M32.8462 100.308L11.2732 85.3671L30.8362 57.1201L80.2492 91.3411L60.6862 119.588L42.6442 107.093" stroke="#303030" stroke-linecap="round" stroke-linejoin="round"/>
<path d="M27.2913 90.5132C30.4327 90.5132 32.9793 87.9666 32.9793 84.8252C32.9793 81.6838 30.4327 79.1372 27.2913 79.1372C24.1499 79.1372 21.6033 81.6838 21.6033 84.8252C21.6033 87.9666 24.1499 90.5132 27.2913 90.5132Z" stroke="#303030" stroke-linecap="round" stroke-linejoin="round"/>
<path d="M35.9622 77.9932C39.1036 77.9932 41.6502 75.4466 41.6502 72.3052C41.6502 69.1638 39.1036 66.6172 35.9622 66.6172C32.8208 66.6172 30.2742 69.1638 30.2742 72.3052C30.2742 75.4466 32.8208 77.9932 35.9622 77.9932Z" stroke="#303030" stroke-linecap="round" stroke-linejoin="round"/>
<path d="M64.2313 97.5703C67.3727 97.5703 69.9193 95.0237 69.9193 91.8823C69.9193 88.7409 67.3727 86.1943 64.2313 86.1943C61.0899 86.1943 58.5433 88.7409 58.5433 91.8823C58.5433 95.0237 61.0899 97.5703 64.2313 97.5703Z" stroke="#303030" stroke-linecap="round" stroke-linejoin="round"/>
<path d="M55.5602 110.091C58.7016 110.091 61.2482 107.545 61.2482 104.403C61.2482 101.262 58.7016 98.7153 55.5602 98.7153C52.4188 98.7153 49.8722 101.262 49.8722 104.403C49.8722 107.545 52.4188 110.091 55.5602 110.091Z" stroke="#303030" stroke-linecap="round" stroke-linejoin="round"/>
<path d="M36.2843 97.049C35.8453 96.1224 35.6649 95.0943 35.7623 94.0735C35.8597 93.0528 36.2312 92.0773 36.8376 91.2504C37.4439 90.4235 38.2625 89.7759 39.2067 89.376C40.1509 88.9762 41.1856 88.839 42.2014 88.9791C43.2172 89.1191 44.1762 89.5311 44.977 90.1715C45.7779 90.8119 46.3907 91.6569 46.7506 92.617C47.1106 93.5771 47.2043 94.6167 47.0219 95.6257C46.8395 96.6348 46.3877 97.5757 45.7143 98.349" stroke="#303030" stroke-linecap="round" stroke-linejoin="round"/>
<path d="M50.0963 87.7813C53.2376 87.7813 55.7843 85.2347 55.7843 82.0933C55.7843 78.9519 53.2376 76.4053 50.0963 76.4053C46.9549 76.4053 44.4083 78.9519 44.4083 82.0933C44.4083 85.2347 46.9549 87.7813 50.0963 87.7813Z" stroke="#303030" stroke-linecap="round" stroke-linejoin="round"/>
<path d="M39.8333 132.065C39.8055 131.431 39.5364 130.832 39.0811 130.39C38.6258 129.948 38.0187 129.697 37.3843 129.688L33.7063 129.748C34.5423 126.494 36.0063 122.093 37.6063 117.304C39.6563 113.68 48.6783 96.438 45.4813 92.553C43.7093 90.399 37.7743 95.407 32.8493 100.308L21.6073 92.524C13.4953 97.897 6.92731 104.583 6.66731 108.683C6.28431 114.692 9.48631 124.583 11.4673 130.113L9.0853 130.152C8.43928 130.183 7.83053 130.464 7.38691 130.934C6.94329 131.405 6.69934 132.029 6.70631 132.676L5.66831 180.925C5.65057 181.258 5.69933 181.591 5.81175 181.905C5.92418 182.219 6.09801 182.507 6.3231 182.754C6.54819 183 6.82004 183.198 7.12277 183.338C7.4255 183.478 7.75305 183.556 8.08631 183.568H41.0593C41.4044 183.554 41.7431 183.47 42.0543 183.32C42.3655 183.17 42.6426 182.958 42.8685 182.696C43.0944 182.435 43.2642 182.13 43.3676 181.8C43.4709 181.471 43.5055 181.124 43.4693 180.78L39.8333 132.065Z" stroke="#303030" stroke-linecap="round" stroke-linejoin="round"/>
<path d="M32.8463 100.308C30.0373 102.882 25.7543 107.866 25.7543 107.866" stroke="#303030" stroke-linecap="round" stroke-linejoin="round"/>
<path d="M11.4643 130.113L33.7073 129.748" stroke="#303030" stroke-linecap="round" stroke-linejoin="round"/>
<path d="M158.015 72.5691V68.1621" stroke="#303030" stroke-linecap="round" stroke-linejoin="round"/>
<path d="M158.015 83.074V78.667" stroke="#303030" stroke-linecap="round" stroke-linejoin="round"/>
<path d="M155.374 77.1431L151.558 79.3461" stroke="#303030" stroke-linecap="round" stroke-linejoin="round"/>
<path d="M164.472 71.8901L160.656 74.0931" stroke="#303030" stroke-linecap="round" stroke-linejoin="round"/>
<path d="M160.656 77.1431L164.472 79.3461" stroke="#303030" stroke-linecap="round" stroke-linejoin="round"/>
<path d="M151.558 71.8901L155.374 74.0931" stroke="#303030" stroke-linecap="round" stroke-linejoin="round"/>
<path d="M174.994 114.392C177.357 114.392 179.273 112.476 179.273 110.113C179.273 107.75 177.357 105.834 174.994 105.834C172.631 105.834 170.715 107.75 170.715 110.113C170.715 112.476 172.631 114.392 174.994 114.392Z" stroke="#303030" stroke-linecap="round" stroke-linejoin="round"/>
<path d="M190.795 158.725V167.391" stroke="#303030" stroke-linecap="round" stroke-linejoin="round"/>
<path d="M195.128 163.058H186.462" stroke="#303030" stroke-linecap="round" stroke-linejoin="round"/>
<path d="M25.5383 36.252V45.022" stroke="#303030" stroke-linecap="round" stroke-linejoin="round"/>
<path d="M29.9233 40.6366H21.1523" stroke="#303030" stroke-linecap="round" stroke-linejoin="round"/>
</svg>
