<svg width="50" height="64" viewBox="0 0 50 64" fill="none" xmlns="http://www.w3.org/2000/svg">
<path d="M14.3381 1.83614L30.8161 0C30.8161 0 38.7345 3.43471 40.5077 4.50519C42.2808 5.57567 47.4401 13.8776 47.4401 13.8776L45.9689 27.2816L29.2562 49.1964L24.668 49.7073L4.41895 18.6719L14.3381 1.83614Z" fill="#CC0000"/>
<path d="M24.5606 56.4995L29.5538 56.2891L29.8672 63.7496L23.9009 64L24.5606 56.4995Z" fill="#CC0000"/>
<path d="M35.1324 1.91055C35.4029 2.03363 37.219 18.6991 37.0916 19.4948C36.9642 20.2905 29.2562 49.1964 29.2562 49.1964L48.8125 26.1925L49.4093 12.8501L42.7646 4.02576L35.1324 1.91055Z" fill="#122F93"/>
<path d="M20.6923 1.12773L12.6422 15.7767L24.6694 49.7073L0.590698 19.0984L12.0726 2.08802L20.6923 1.12773Z" fill="#122F93"/>
</svg>
