<svg width="360" height="284" viewBox="0 0 360 284" fill="none" xmlns="http://www.w3.org/2000/svg">
<path d="M35.1603 181.017C34.8739 181.297 34.6363 181.523 34.3561 181.803L35.7452 181.894C36.1534 182.924 37.2135 183.722 37.1587 184.825C37.4267 185.056 37.9812 185.038 37.8654 185.495C37.8349 185.623 37.9568 185.794 38.0543 185.922C38.3528 186.318 38.9986 186.482 39.1388 187C39.1753 187.134 39.5531 187.201 39.748 187.305C40.077 187.457 40.4182 187.609 40.7411 187.774C41.064 187.938 41.4296 188.176 41.7769 188.383C41.722 188.84 42.4714 188.657 42.5384 188.95C42.6603 189.486 43.1477 189.346 43.562 189.364C44.2992 190.32 44.9633 191.265 45.5421 192.185C45.6784 192.208 45.8183 192.196 45.9491 192.151C46.0799 192.107 46.1975 192.03 46.2915 191.929C46.9008 192.026 46.785 192.587 47.1688 192.824C47.5405 192.952 47.6989 192.623 48.0766 192.581C48.1071 193.038 48.1375 193.489 48.168 193.885C48.43 194.128 48.7285 194.025 48.9661 194.092C49.0819 194.128 49.2647 194.208 49.2586 194.262C49.2489 194.577 49.3576 194.883 49.5632 195.121C49.7399 195.359 49.6607 195.731 49.7033 196.139L51.6225 197.546C51.653 198.119 51.6774 198.631 51.7139 199.216C51.9245 199.465 52.2079 199.642 52.5242 199.721C53.2219 200.049 53.8441 200.518 54.352 201.098C54.2484 201.842 55.1075 202.122 55.4852 202.56C55.7107 202.95 55.3512 203.438 55.7777 203.639C56.0783 203.757 56.3383 203.96 56.5264 204.223C56.7145 204.485 56.8226 204.797 56.8378 205.119C56.8743 205.394 57.3313 205.582 57.1363 206.082C57.5759 205.78 58.0856 205.595 58.6168 205.546C59.0981 205.43 59.1286 205.01 59.4028 204.711L59.6404 205.162C60.2801 205.448 61.0843 205.162 61.6875 205.357C62.3403 205.495 62.9773 205.699 63.5884 205.966C63.7436 205.852 63.9088 205.752 64.0819 205.668C64.2 205.625 64.3294 205.625 64.4475 205.668C64.7704 205.802 64.6241 206.277 65.1847 206.277C65.4992 206.286 65.8084 206.361 66.0925 206.496C66.3297 206.578 66.5864 206.584 66.8274 206.514C67.0684 206.445 67.2819 206.302 67.4389 206.106C67.8837 205.607 67.8837 205.607 68.4564 205.936H70.2842C71.46 206.496 71.46 206.496 72.0632 207.154C72.4427 207.209 72.8293 207.127 73.1538 206.923L74.2748 207.721C75.2557 208.032 75.9077 207.441 76.7119 207.508C77.3211 207.026 78.0279 207.215 78.631 207.203C78.9905 207.38 78.8199 207.812 79.283 207.812C79.4627 207.845 79.632 207.92 79.7765 208.032C80.9036 208.781 80.9097 208.793 82.7009 209.025C82.9461 209.051 83.1777 209.151 83.365 209.311C83.4462 209.362 83.5381 209.392 83.6334 209.401C83.7286 209.409 83.8245 209.395 83.9133 209.36C84.1997 209.311 84.5531 209.092 84.7298 209.165C85.0344 209.287 85.339 209.287 85.6314 209.384C85.8229 209.471 86.0306 209.515 86.2407 209.515C86.4508 209.515 86.6585 209.471 86.85 209.384C86.9677 209.335 87.0957 209.314 87.223 209.325C87.3503 209.336 87.4732 209.377 87.5811 209.445C88.4767 210.018 89.1469 209.628 89.7622 209.098C90.2131 209.281 89.8536 209.658 90.0912 209.896C90.2688 210.107 90.4336 210.329 90.5847 210.56L91.3646 210.603L92.2602 209.993C92.3881 209.993 92.5466 209.993 92.6197 210.054C92.9503 210.325 93.3284 210.532 93.7346 210.664C93.9052 210.694 94.0597 210.783 94.1711 210.915C94.2825 211.048 94.3437 211.216 94.3439 211.389C94.3439 211.846 94.6912 212.175 95.3126 212.175C95.9341 212.175 96.1899 212.577 96.6834 212.674C96.6164 213.076 96.9576 213.326 97.1891 213.643C97.4206 213.96 98.3772 213.911 98.3528 214.539C98.3528 214.581 98.5539 214.666 98.6696 214.673C99.0474 214.673 99.4982 214.624 99.5043 215.105C99.5109 215.133 99.5244 215.159 99.5436 215.18C99.5627 215.201 99.5869 215.218 99.614 215.227C100.382 215.312 100.589 215.836 100.912 216.257C101.018 216.356 101.134 216.444 101.259 216.519C101.551 216.665 101.941 216.519 102.325 216.519C103.159 216.45 103.999 216.541 104.799 216.787C105.43 216.933 106.087 216.933 106.718 216.787C107.272 217.055 107.54 217.433 107.382 217.865C107.687 218.231 108.064 218.036 108.454 218.158C108.911 218.803 109.971 218.968 110.66 219.522C110.819 219.618 111.005 219.661 111.19 219.644C111.408 219.605 111.633 219.619 111.845 219.685C112.057 219.751 112.25 219.866 112.408 220.022C112.622 220.26 112.957 220.272 113.231 220.375C113.645 220.528 113.731 220.826 113.84 221.1C114.124 221.003 114.419 220.941 114.718 220.917C115.753 221.033 116.797 220.776 117.66 220.193C118.075 220.375 118.233 220.619 118.629 220.589C119.025 220.558 119.549 220.589 120.012 220.589C120.207 220.589 120.487 220.546 120.579 220.631C121.054 221.07 121.7 220.802 122.26 220.911C122.403 221.012 122.536 221.126 122.656 221.253C122.745 221.389 122.82 221.534 122.882 221.685C122.943 221.783 123.01 221.74 123.156 221.685C123.576 221.448 124.027 221.253 124.454 221.021C124.616 220.923 124.803 220.871 124.993 220.871C125.183 220.871 125.369 220.923 125.532 221.021C125.628 221.095 125.735 221.154 125.849 221.198C126.027 221.265 126.22 221.278 126.405 221.236C126.591 221.193 126.759 221.098 126.891 220.96C127.023 220.828 127.163 220.704 127.311 220.589H128.274C128.514 220.564 128.756 220.608 128.972 220.715C129.188 220.823 129.368 220.991 129.492 221.198C130.01 221.984 130.047 221.965 131.32 221.582C131.48 221.503 131.664 221.486 131.836 221.534C132.008 221.583 132.156 221.693 132.252 221.844C132.313 221.929 132.319 222.051 132.398 222.118C132.666 222.343 132.965 222.55 133.282 222.794H134.427C134.5 222.861 134.646 222.94 134.646 223.019C134.646 223.336 134.646 223.629 135.024 223.86C135.599 224.284 136.211 224.655 136.852 224.969C137.358 225.164 137.717 225.316 137.845 225.767C137.942 226.021 138.094 226.25 138.29 226.437C138.465 226.545 138.656 226.623 138.856 226.669C139.143 226.913 138.82 227.327 138.887 227.406C139.307 227.924 139.685 227.735 140.3 227.912C140.421 228.068 140.558 228.211 140.709 228.338C141.025 228.588 141.391 228.807 141.732 229.039C142.341 228.899 142.737 229.52 143.377 229.362C143.444 229.362 143.566 229.453 143.657 229.508C143.371 229.953 143.371 229.953 143.487 230.495C143.98 230.714 144.516 230.495 145.12 230.654C145.243 230.717 145.354 230.802 145.449 230.903C145.983 231.521 146.485 232.166 146.954 232.835C147.369 233.429 147.865 233.962 148.428 234.419C148.825 234.735 149.17 235.111 149.452 235.534C149.505 235.647 149.592 235.742 149.701 235.804C149.81 235.866 149.936 235.893 150.061 235.881C150.67 235.765 150.975 236.228 151.486 236.277C151.584 236.277 151.596 236.576 151.724 236.673C152.163 237.014 152.029 237.447 152.102 237.892C152.211 238.178 152.656 238.074 152.869 238.269C152.959 238.342 153.044 238.419 153.125 238.501C153.418 238.86 153.01 239.354 153.454 239.677C153.646 239.785 153.8 239.947 153.899 240.144C153.998 240.34 154.036 240.561 154.009 240.779C153.96 241.078 154.198 241.297 154.49 241.389C155.099 241.596 155.611 241.858 155.709 242.424C156.541 243.192 157.499 243.81 158.542 244.252C159.014 244.489 159.456 244.781 159.858 245.123C160.028 245.916 160.004 245.909 159.529 246.476L160.912 248.669H161.972C162.341 248.835 162.634 249.133 162.794 249.504C162.861 249.644 163.276 249.662 163.404 249.809C163.532 249.955 163.489 250.205 163.556 250.418C163.726 250.978 164.506 251.179 164.774 251.697C164.805 251.764 164.988 251.801 165.103 251.807C165.555 251.759 166.01 251.85 166.407 252.069C166.485 252.122 166.578 252.151 166.672 252.151C166.767 252.151 166.859 252.122 166.937 252.069C167.717 251.545 168.247 251.947 168.838 252.453C169.263 252.404 169.693 252.404 170.118 252.453C170.727 252.599 171.056 252.106 171.604 252.167C172.049 252.175 172.489 252.073 172.884 251.868C173.062 251.791 173.253 251.752 173.447 251.752C173.641 251.752 173.833 251.791 174.011 251.868C174.102 252.514 175.144 252.477 175.376 253.038C175.645 253.582 175.966 254.1 176.332 254.585C176.839 254.235 177.304 253.826 177.715 253.367C177.934 253.062 178.428 252.873 178.653 253.044C179.263 253.501 180.03 253.221 180.701 253.403C181.188 253.732 181.755 254.013 181.779 254.561C182.425 254.628 182.754 254.031 183.345 254.305C183.735 254.128 184.143 253.976 184.508 253.781C184.588 253.73 184.679 253.699 184.773 253.69C184.867 253.68 184.962 253.693 185.051 253.726C185.415 253.921 185.824 254.02 186.237 254.014C186.651 254.007 187.056 253.896 187.415 253.69C187.472 253.666 187.535 253.653 187.597 253.653C187.66 253.653 187.722 253.666 187.78 253.69C188.255 254.153 189.242 253.854 189.608 254.457C189.894 254.933 190.552 255.012 191.046 255.188C191.355 255.276 191.641 255.43 191.883 255.641C192.125 255.851 192.318 256.113 192.447 256.407L193.33 256.102C193.556 255.767 193.824 255.383 194.123 254.939L195.902 256.766C195.967 256.861 196.02 256.964 196.06 257.071C196.937 256.175 197.93 256.395 198.96 256.888C199.027 257.12 199.088 257.364 199.149 257.589C199.523 257.715 199.921 257.753 200.313 257.699C200.745 257.601 200.501 257.034 201.19 257.016C201.731 256.89 202.25 256.684 202.731 256.407C203.024 256.303 202.902 256.047 203.121 255.889L204.559 256.462C204.632 256.462 204.724 256.462 204.76 256.462C205.004 256.291 205.235 256.108 205.504 255.907C205.985 255.768 206.499 255.792 206.966 255.974C207.205 256.057 207.456 256.096 207.709 256.09C208.166 256.09 208.623 256.09 209.092 256.09C209.207 256.284 209.335 256.469 209.476 256.645C209.526 256.679 209.583 256.704 209.642 256.716C209.702 256.729 209.763 256.729 209.823 256.718C210.054 256.624 210.278 256.514 210.493 256.389L212.321 257.162C212.478 257.252 212.643 257.325 212.815 257.382C213.058 257.424 213.333 257.278 213.564 257.455L214.271 257.979H216.525C216.891 257.802 216.708 257.37 217.183 257.37C217.902 257.412 218.298 257.12 218.353 256.596C218.373 256.427 218.441 256.268 218.549 256.138C218.657 256.007 218.8 255.91 218.962 255.859C219.654 255.64 220.312 255.326 220.918 254.926C221.07 254.817 221.411 254.866 221.637 254.847C221.73 254.928 221.818 255.016 221.899 255.109C222.203 255.523 222.563 255.591 222.648 255.249C222.776 254.762 223.428 254.591 223.532 254.08C223.605 253.744 224.141 253.61 224.586 253.47C224.913 253.418 225.214 253.259 225.441 253.017C225.668 252.776 225.808 252.466 225.841 252.136C225.922 251.643 226.132 251.181 226.45 250.796C226.818 250.804 227.187 250.786 227.553 250.741C227.851 250.686 228.083 250.436 228.497 250.522C228.558 250.631 228.582 250.814 228.71 250.899C228.973 251.049 229.248 251.176 229.533 251.277C229.642 251.32 229.813 251.393 229.88 251.362C230.629 250.972 231.653 251.058 232.317 250.503C232.719 250.162 233.115 249.809 233.499 249.474C234.023 249.796 234.395 249.991 234.992 249.681C235.646 249.35 236.34 249.106 237.057 248.956C237.221 248.933 237.377 248.874 237.514 248.782C237.651 248.69 237.766 248.568 237.849 248.426C238.203 247.92 238.538 247.89 239.305 248.151C239.567 248.268 239.852 248.324 240.138 248.318C240.424 248.312 240.706 248.242 240.962 248.115C241.151 248 241.37 247.949 241.59 247.969C241.809 247.989 242.016 248.078 242.181 248.225C242.358 248.371 242.559 248.584 242.79 248.602C243.534 248.669 243.601 249.212 243.966 249.565H245.715C245.904 249.565 246.184 249.565 246.269 249.626C246.775 250.113 247.177 249.723 247.616 249.571C247.699 249.562 247.782 249.562 247.865 249.571C247.908 249.699 247.957 249.839 247.993 249.979C248.03 250.119 247.926 250.363 248.158 250.387C248.724 250.442 248.694 250.905 249.017 251.088C249.529 251.381 249.529 251.947 250.028 252.203C250.528 252.459 251.04 252.605 251.527 252.812C251.537 252.98 251.56 253.147 251.594 253.312C251.617 253.382 251.656 253.446 251.708 253.498C251.761 253.55 251.825 253.588 251.896 253.61C251.967 253.632 252.042 253.636 252.114 253.622C252.187 253.608 252.255 253.577 252.313 253.531C252.417 253.475 252.512 253.403 252.593 253.318C252.721 253.147 252.825 252.959 252.965 252.709C253.696 252.508 254.488 252.794 255.244 252.642L256.145 253.251C256.694 253.312 257.023 252.898 257.632 252.94C258.504 252.885 259.37 253.116 260.099 253.598C260.416 253.763 260.77 253.891 261.08 254.061C261.267 254.174 261.483 254.227 261.701 254.214C261.918 254.201 262.127 254.122 262.299 253.988C262.433 253.904 262.585 253.853 262.743 253.839C262.901 253.825 263.06 253.849 263.207 253.909C263.505 255.316 263.487 255.31 263.048 256.9C262.981 257.15 262.902 257.51 263.463 257.65C263.661 257.678 263.844 257.775 263.979 257.925C264.114 258.074 264.192 258.265 264.2 258.466C264.2 258.643 264.413 258.826 264.553 258.99C264.693 259.155 264.913 259.24 264.906 259.356C264.846 260.446 265.875 261.184 266.229 262.177C266.478 262.39 266.838 262.268 267.149 262.372C267.599 263.2 268.538 263.292 269.525 263.304C269.982 263.651 270.634 263.913 270.548 264.522C270.548 264.522 271.633 265.698 271.663 265.741C272.394 266.198 272.394 266.198 272.668 266.959C273.113 267.063 273.71 266.959 273.844 267.514C273.844 267.563 274.064 267.605 274.185 267.611C275.081 267.611 275.66 268.129 276.318 268.507L276.641 267.959C277.183 268.275 276.641 268.781 277.025 269.116C278.243 269.281 278.243 269.281 279.035 268.939C279.295 269.413 279.63 269.841 280.028 270.207C280.449 270.493 280.991 270.694 281.405 271.005L283.379 271.096C283.708 271.523 283.422 272.01 283.617 272.449L285.055 273.235L286.523 273.29C286.864 273.619 286.578 274.106 287.077 274.289C287.577 274.472 288.138 274.898 288.844 274.782C289.289 274.593 288.948 274.173 289.271 273.893L290.489 274.807C290.873 274.898 291.099 274.642 291.367 274.539C291.824 274.508 292.012 274.849 292.341 275.002C292.628 275.088 292.901 275.215 293.152 275.379C293.343 275.544 293.568 275.665 293.811 275.734C294.055 275.802 294.31 275.816 294.559 275.775H294.748C294.785 275.775 295.9 275.775 295.967 275.775L297.185 277.603C297.63 277.695 298.069 277.603 298.404 277.963C298.839 278.267 299.3 278.534 299.781 278.761C300.017 278.86 300.276 278.892 300.53 278.852C300.877 278.861 301.217 278.948 301.524 279.109C301.831 279.27 302.098 279.499 302.303 279.778L303.052 279.266C303.203 279.33 303.339 279.425 303.452 279.545C303.564 279.664 303.65 279.806 303.704 279.961C303.783 280.129 303.914 280.268 304.077 280.357C304.24 280.446 304.428 280.48 304.612 280.455C305.124 280.442 305.631 280.55 306.092 280.771C306.492 280.912 306.899 281.032 307.311 281.131C307.725 281.247 308.371 281.326 308.432 281.862C308.877 282.142 309.102 282.599 309.76 282.727C310.095 282.794 310.327 283.147 310.638 283.336C311.159 283.678 311.763 283.872 312.386 283.897C312.571 283.917 312.759 283.889 312.93 283.817C313.102 283.744 313.252 283.629 313.367 283.483C313.644 283.031 313.896 282.566 314.123 282.087C314.297 282.054 314.478 282.075 314.64 282.148C314.916 282.293 315.225 282.361 315.535 282.346C315.846 282.331 316.147 282.234 316.407 282.063C316.79 281.808 317.239 281.672 317.699 281.673C318.245 280.854 318.719 279.99 319.118 279.09C319.417 278.24 319.867 277.452 320.447 276.762C320.535 276.737 320.628 276.732 320.719 276.748C320.81 276.764 320.896 276.8 320.971 276.854C321.058 276.92 321.161 276.964 321.269 276.982C321.775 276.47 322.744 276.982 323.219 276.446C323.771 276.309 324.258 275.984 324.596 275.526C324.621 275.12 324.621 274.713 324.596 274.307C324.529 273.74 324.986 273.351 325.266 272.9C325.341 272.799 325.442 272.721 325.558 272.674C325.674 272.627 325.8 272.612 325.924 272.632C326.302 272.68 326.533 272.437 326.801 272.364C326.934 272.331 327.057 272.269 327.162 272.183C327.268 272.096 327.353 271.987 327.41 271.864C327.733 271.358 327.825 270.792 328.16 270.31C328.303 270.025 328.516 269.78 328.779 269.599C329.042 269.418 329.347 269.306 329.665 269.275C329.994 269.433 330.043 269.817 330.274 270.079L331.876 269.226V176.582C293.718 176.527 255.932 176.052 217.945 176.892C176.088 178.452 133.903 178.556 91.8642 179.671C84.4921 179.695 77.1201 179.711 69.748 179.719C69.3581 179.719 68.8524 179.604 68.5904 179.719C67.8532 180.14 67.0612 179.957 66.3057 179.963C59.1286 179.963 51.9576 179.963 44.7866 180.006C44.4025 179.95 44.0111 179.97 43.6351 180.067C43.0953 180.287 42.5067 180.361 41.9292 180.28C39.4921 180.28 37.0551 180.28 34.6181 180.316C34.1574 180.259 33.6901 180.29 33.2411 180.408C33.2411 180.548 33.2046 180.694 33.1924 180.84C33.8016 180.993 34.4779 180.785 35.1603 181.017Z" fill="#FFC5CF"/>
<path d="M147.095 157.195C146.114 155.94 81.2945 132.599 81.2945 132.599L57.0703 140.952C57.0703 140.952 67.312 169.216 67.9639 169.929C68.6158 170.641 137.803 199.618 137.803 199.618L147.095 157.195Z" fill="#00277B"/>
<path d="M168.424 76.3219L165.548 79.6668L165.384 88.032L154.198 127.969C154.198 127.969 50.3006 146.289 46.1089 146.289C41.9171 146.289 6.45207 134.305 6.45207 134.305L0 119.074L7.20755 130.497L12.0816 119.372L34.7522 130.887C34.7522 130.887 121.389 119.872 121.992 117.648C122.595 115.424 145.327 84.748 145.613 82.5303C145.9 80.3126 162.161 59.6465 162.161 59.6465L171.678 47.2358L180.341 74.4698L168.424 76.3219Z" fill="#00B384"/>
<path d="M165.055 157.993C181.98 152.108 199.612 149.823 216.958 146.07L216.598 141.336L222.995 140.727C222.995 140.727 212.498 41.2099 212.498 40.229H208.903L176.289 47.7595L166.602 146.271L168.259 146.106L165.055 157.993Z" fill="#CEA01F"/>
<path d="M324.334 133.873C323.682 132.496 308.299 135.476 308.299 135.476L283.1 145.553C283.1 145.553 259.204 155.417 257.243 155.91C255.281 156.404 229.095 161.223 229.095 161.223L227.876 151.609C206.71 154.296 185.228 155.935 164.635 160.407L142.056 210.055C142.056 210.055 215.368 201.337 217.988 199.96C220.608 198.583 265.443 185.276 267.405 184.588C269.367 183.9 331.883 160.266 331.883 160.266C331.883 160.266 324.992 135.244 324.334 133.873Z" fill="#00277B"/>
<path d="M226.322 51.8788L252.301 99.1148L282.155 118.611L327.575 110.081L338.225 102.46L353.609 101.15L352.134 102.581L342.155 112.275L353.609 113.914V101.119L360 126.099L324.358 133.897C324.358 133.897 258.454 130.175 255.512 130.175C252.569 130.175 239.062 122.73 238.081 122.078C237.1 121.426 213.521 50.1484 213.521 50.1484L226.322 51.8788Z" fill="#00B384"/>
<path d="M182.132 22.3352C181.706 21.4883 175.565 14.7072 175.778 14.0736C175.991 13.44 184.247 0.097168 184.247 0.097168H198.016L203.731 11.2162L196.109 28.0501L182.132 22.3352Z" fill="#00277B"/>
<path d="M191.661 13.0137C191.661 13.0137 177.039 21.2752 176.625 22.5425C176.211 23.8097 171.141 33.9844 171.33 36.0985C171.519 38.2127 175.766 57.7029 175.772 58.763C175.778 59.8232 175.772 80.3674 175.772 80.3674C175.772 80.3674 193.568 46.6875 193.782 45.6396C193.995 44.5917 191.661 13.0137 191.661 13.0137Z" fill="#00277B"/>
</svg>
