<svg width="360" height="206" viewBox="0 0 360 206" fill="none" xmlns="http://www.w3.org/2000/svg">
<path d="M355.799 5.98693C351.461 7.44824 225.948 15.5298 224.197 14.7874C222.446 14.0451 174.204 -1.24959 172.215 1.01941C170.227 3.2884 105.112 17.9762 105.112 17.9762L110.803 29.8674L216.078 33.4436L192.011 47.8093L5.29014 51.6096L9.75344 71.2695L81.0821 76.9607L126.896 69.7616L129.651 80.8544L8.16607 83.8284C8.16607 83.8284 7.11562 97.0175 8.91307 97.1623C10.7105 97.307 115.472 99.6133 115.472 99.6133L114.37 113.4L0.85953 107.359L0.000488281 118.148L134.193 137.29L31.7011 144.2L36.874 167.931L242.181 157.772L360 134.806L355.799 5.98693Z" fill="#A6361F"/>
<path d="M142.756 23.9194L82.5293 108.563L111.289 133.69L140.986 141.678C140.986 141.678 175.535 124.488 176.38 123.424C177.225 122.359 193.019 89.4449 192.291 88.0349C191.562 86.625 161.729 36.4036 160.291 35.3064C158.853 34.2093 142.756 23.9194 142.756 23.9194Z" fill="#FF3414"/>
<path d="M192.375 139.036L157.733 197.148L191.497 198.217C191.497 198.217 208.641 181.493 209.364 180.55C210.088 179.607 208.949 149.307 208.949 149.307L192.375 139.036Z" fill="#00B384"/>
<path d="M258.139 94.4217C257.172 95.6729 220.821 150.474 222.063 150.913C223.305 151.352 248.339 156.184 248.339 156.184C248.339 156.184 275.884 140.479 276.739 138.658C277.593 136.837 284.731 112.387 283.742 111.617C282.752 110.846 262.733 88.4551 262.733 88.4551L258.139 94.4217Z" fill="#00B384"/>
<path d="M166.613 108.227C168.62 109.768 245.78 169.2 245.78 169.2C245.78 169.2 257.452 180.681 259.94 182.095C262.429 183.51 290.894 200.448 290.894 200.448L277.644 205.21L221.4 163.887L168.532 118.176L166.613 108.227Z" fill="#004137"/>
</svg>
