<svg width="264" height="58" viewBox="0 0 264 58" fill="none" xmlns="http://www.w3.org/2000/svg">
<g clip-path="url(#clip0_8665_56390)">
<mask id="mask0_8665_56390" style="mask-type:luminance" maskUnits="userSpaceOnUse" x="0" y="15" width="150" height="34">
<path d="M150 15.5H0V48.5H150V15.5Z" fill="white"/>
</mask>
<g mask="url(#mask0_8665_56390)">
<path d="M25.372 41.1537H20.3211V24.4788L13.0384 36.3728H12.4511L5.0509 24.5954V41.2703H0V15.5H5.28583L12.686 27.6272L20.0861 15.5H25.372V41.1537Z" fill="#303030"/>
<path d="M69.1853 29.9594V41.2703H64.3693V30.5424C64.3693 28.0937 62.8423 26.811 60.728 26.811C58.3787 26.811 56.6168 28.2103 56.6168 31.3587V41.2703H51.8008V22.8463H56.6168V24.9453C57.6739 23.3128 59.6708 22.3799 62.1375 22.3799C66.0138 22.3799 69.0678 25.0619 69.0678 29.9594H69.1853Z" fill="#303030"/>
<path d="M82.5767 37.4223C84.4561 37.4223 85.8656 36.606 86.6879 35.5566L90.5642 37.7721C88.8022 40.2209 86.1006 41.7368 82.4592 41.7368C76.2337 41.7368 72.3574 37.5389 72.3574 32.0583C72.3574 26.5778 76.3512 22.3799 82.1068 22.3799C87.6276 22.3799 91.5039 26.6944 91.5039 32.0583C91.5039 32.758 91.5039 33.341 91.2689 34.0407H77.2909C77.9956 36.4894 79.9925 37.5389 82.4592 37.5389L82.5767 37.4223ZM86.6879 30.3092C86.1006 27.6272 84.1037 26.5778 82.1068 26.5778C79.5227 26.5778 77.7607 27.9771 77.2909 30.3092H86.6879Z" fill="#303030"/>
<path d="M111.356 22.8462L104.66 41.1536C102.781 46.401 99.6094 48.7331 94.9109 48.4999V44.0688C97.4951 44.0688 98.9046 43.0193 99.7269 40.5706L92.0918 22.8462H97.2602L102.076 35.2066L106.187 22.8462H111.238H111.356Z" fill="#303030"/>
<path d="M43.5798 21.7969H33.7129V26.5778H43.5798V21.7969Z" fill="#303030"/>
<path d="M43.5798 36.373H33.7129V41.154H43.5798V36.373Z" fill="#303030"/>
<path d="M48.3961 26.5776H43.5801V36.3727H48.3961V26.5776Z" fill="#303030"/>
<path d="M33.7125 26.5776H28.8965V36.3727H33.7125V26.5776Z" fill="#303030"/>
<path d="M118.285 22.9631V26.2281H123.335V28.4437H118.285V33.3412H116.053V20.7476H123.453V22.9631H118.285Z" fill="#303030"/>
<path d="M130.031 31.7085C131.088 31.7085 131.911 31.2421 132.38 30.659L134.025 31.5919C133.203 32.758 131.793 33.5742 130.031 33.5742C127.095 33.5742 125.098 31.5919 125.098 28.9099C125.098 26.2279 126.977 24.2456 129.796 24.2456C132.615 24.2456 134.26 26.3445 134.26 28.9099C134.26 29.1431 134.26 29.493 134.26 29.7262H127.095C127.447 31.1255 128.504 31.8251 129.914 31.8251L130.031 31.7085ZM132.38 27.9771C132.145 26.4612 130.971 25.7615 129.796 25.7615C128.387 25.7615 127.329 26.5778 127.095 27.9771H132.38Z" fill="#303030"/>
<path d="M142.952 30.7756C142.952 32.5248 141.425 33.5742 139.428 33.5742C137.667 33.5742 136.374 32.758 135.787 31.4753L137.432 30.5424C137.667 31.3587 138.489 31.8251 139.428 31.8251C140.251 31.8251 140.955 31.5919 140.955 30.7756C140.955 29.1431 136.139 30.076 136.139 26.9276C136.139 25.2951 137.549 24.2456 139.428 24.2456C140.955 24.2456 142.13 24.9452 142.717 26.1113L141.073 27.0442C140.721 26.3445 140.133 25.9947 139.428 25.9947C138.724 25.9947 138.136 26.3445 138.136 26.9276C138.136 28.5601 142.952 27.6272 142.952 30.8922V30.7756Z" fill="#303030"/>
<path d="M147.768 26.228V30.5425C147.768 31.7085 148.473 31.7085 150 31.5919V33.341C147.064 33.6909 145.771 32.8746 145.771 30.5425V26.228H144.127V24.3622H145.771V22.3799L147.768 21.7969V24.2456H150V26.1114H147.768V26.228Z" fill="#303030"/>
</g>
</g>
<g clip-path="url(#clip1_8665_56390)">
<path d="M221 30L231 48V30V12L221 30Z" fill="#303030"/>
<path d="M251 12H241L231 30L241 48H251L241 30L251 12Z" fill="#303030"/>
</g>
<path d="M181.137 41.082V22.918H183.344V41.082H181.137ZM173.5 33.0547V30.9453H191V33.0547H173.5Z" fill="#008765"/>
<defs>
<clipPath id="clip0_8665_56390">
<rect width="150" height="33" fill="white" transform="translate(0 15.5)"/>
</clipPath>
<clipPath id="clip1_8665_56390">
<rect width="56" height="56" fill="white" transform="translate(208 2)"/>
</clipPath>
</defs>
</svg>
