<svg width="256" height="256" viewBox="0 0 256 256" fill="none" xmlns="http://www.w3.org/2000/svg">
<path d="M132.258 29.9188C131.613 31.8919 131.436 33.9885 131.741 36.042C132.048 38.0954 132.829 40.0493 134.022 41.748L131.436 48.3834L138.09 45.7445C140.222 47.1402 142.638 48.0425 145.162 48.3857C147.687 48.7291 150.257 48.5046 152.683 47.7288C147.566 40.0941 140.519 33.9495 132.258 29.9188Z" fill="#E5DFD5"/>
<path d="M96.8548 68.5407C96.2741 68.4439 95.6449 68.2987 94.9189 68.1586L96.8548 68.5407Z" fill="#E5DFD5"/>
<path d="M69.8494 12.254C70.6015 13.8768 70.8554 15.6862 70.5791 17.4534C70.3026 19.2205 69.5083 20.866 68.2966 22.1818C67.0851 23.4974 65.5104 24.4243 63.7719 24.845C62.0335 25.2657 60.2093 25.1614 58.53 24.5452C56.8509 23.929 55.3923 22.8288 54.3385 21.3835C53.2847 19.9382 52.6832 18.2129 52.6101 16.4258C52.537 14.6386 52.9955 12.8699 53.9276 11.3434C54.8598 9.8169 56.2238 8.6011 57.847 7.84985C60.0227 6.84287 62.5093 6.74114 64.76 7.56701C67.0107 8.39287 68.8414 10.0787 69.8494 12.254Z" fill="#E5DFD5"/>
<path d="M126.471 141.331L135.521 147.429L152.17 160.133C155.163 157.954 157.887 155.427 160.285 152.606C162.066 150.485 163.604 148.173 164.87 145.711C164.87 145.711 160.373 140.214 154.172 133.757C147.571 126.879 137.378 117.157 129.441 114.253C120.997 119.31 112.48 121.536 103.963 120.69C100.88 137.307 99.0354 154.132 98.4443 171.023C104.812 172.48 111.399 172.711 117.853 171.701L122.523 150.454C123.314 147.211 124.649 144.126 126.471 141.331Z" fill="#E5DFD5"/>
<path d="M129.441 114.253C137.378 117.157 147.571 126.879 154.172 133.757C160.373 140.214 164.87 145.711 164.87 145.711C163.604 148.173 162.066 150.485 160.285 152.606C157.887 155.427 155.163 157.954 152.17 160.133L135.521 147.429L126.471 141.331C124.649 144.126 123.314 147.211 122.523 150.454L117.853 171.701C111.399 172.711 104.812 172.48 98.4443 171.023C99.0354 154.132 100.88 137.307 103.963 120.69C112.48 121.536 120.997 119.31 129.441 114.253ZM129.441 114.253C120.996 119.31 112.478 121.536 103.96 120.69" stroke="#303030" stroke-linecap="round" stroke-linejoin="round"/>
<path d="M126.471 141.331C124.659 144.131 123.325 147.215 122.523 150.454L121.7 137.895L126.471 141.331Z" fill="#008765"/>
<path d="M195.442 130.538L189.201 134.749C192.156 138.581 194.825 142.625 197.187 146.848L199.147 145.565C201.325 144.114 203.72 143.896 206.334 143.655C211.15 143.195 219.452 141.042 226.904 138.452C219.012 134.894 206.065 131.893 195.442 130.538Z" fill="#008765"/>
<path d="M128.072 209.499C124.299 211.39 120.331 212.866 116.239 213.903L116.917 215.889C118.175 219.736 118.103 224.284 118.345 228.302C118.57 233.468 119.119 238.616 119.99 243.713C126.378 233.259 129.137 223.796 131.968 216.851L128.072 209.499Z" fill="#008765"/>
<path d="M131.63 124.61C131.63 124.912 131.54 125.207 131.372 125.459C131.204 125.71 130.965 125.906 130.686 126.022C130.407 126.137 130.1 126.168 129.803 126.109C129.507 126.05 129.234 125.904 129.02 125.69C128.807 125.477 128.661 125.204 128.602 124.908C128.544 124.611 128.574 124.304 128.689 124.025C128.805 123.746 129.001 123.507 129.252 123.339C129.504 123.171 129.799 123.081 130.101 123.081C130.303 123.08 130.501 123.119 130.687 123.195C130.874 123.271 131.043 123.384 131.185 123.526C131.328 123.668 131.44 123.837 131.516 124.023C131.593 124.209 131.631 124.409 131.63 124.61Z" fill="#008765"/>
<path d="M109.022 126.134C109.022 126.436 108.933 126.732 108.765 126.983C108.597 127.235 108.358 127.43 108.079 127.546C107.8 127.662 107.492 127.692 107.196 127.633C106.899 127.574 106.627 127.429 106.413 127.215C106.2 127.001 106.054 126.729 105.995 126.432C105.936 126.136 105.966 125.828 106.082 125.549C106.198 125.27 106.394 125.031 106.645 124.863C106.896 124.696 107.192 124.606 107.494 124.606C107.695 124.604 107.895 124.643 108.081 124.719C108.267 124.796 108.436 124.908 108.578 125.05C108.72 125.193 108.833 125.362 108.909 125.548C108.985 125.734 109.024 125.933 109.022 126.134Z" fill="#008765"/>
<path d="M119.288 146.8C119.254 147.099 119.131 147.383 118.936 147.612C118.741 147.843 118.482 148.011 118.192 148.094C117.902 148.178 117.594 148.174 117.306 148.082C117.019 147.99 116.765 147.816 116.576 147.58C116.388 147.345 116.273 147.058 116.247 146.758C116.221 146.457 116.284 146.155 116.429 145.89C116.575 145.625 116.795 145.41 117.062 145.27C117.33 145.131 117.633 145.074 117.933 145.106C118.335 145.155 118.702 145.36 118.955 145.678C119.208 145.993 119.328 146.396 119.288 146.8Z" fill="#008765"/>
<path d="M104.745 164.17C104.711 164.47 104.588 164.754 104.393 164.983C104.198 165.213 103.939 165.381 103.649 165.464C103.359 165.548 103.051 165.544 102.763 165.453C102.476 165.361 102.222 165.187 102.033 164.951C101.845 164.715 101.73 164.429 101.704 164.128C101.678 163.828 101.741 163.526 101.886 163.261C102.032 162.996 102.252 162.781 102.519 162.641C102.787 162.502 103.09 162.445 103.39 162.476C103.59 162.498 103.785 162.559 103.961 162.656C104.138 162.753 104.294 162.884 104.42 163.042C104.546 163.198 104.639 163.379 104.695 163.573C104.751 163.767 104.768 163.97 104.745 164.17Z" fill="#008765"/>
<path d="M140.583 142.637C140.583 142.939 140.494 143.235 140.326 143.487C140.157 143.738 139.918 143.934 139.639 144.05C139.36 144.165 139.053 144.195 138.756 144.137C138.46 144.078 138.187 143.931 137.973 143.719C137.76 143.505 137.614 143.232 137.555 142.936C137.497 142.639 137.527 142.332 137.642 142.053C137.758 141.774 137.954 141.535 138.205 141.366C138.457 141.198 138.753 141.109 139.054 141.109C139.256 141.108 139.454 141.146 139.64 141.223C139.828 141.299 139.996 141.411 140.138 141.554C140.281 141.696 140.393 141.864 140.469 142.052C140.546 142.238 140.584 142.436 140.583 142.637Z" fill="#008765"/>
<path d="M158.249 144.162C158.249 144.464 158.16 144.759 157.992 145.011C157.823 145.262 157.584 145.459 157.305 145.574C157.026 145.689 156.719 145.72 156.422 145.661C156.126 145.602 155.853 145.456 155.639 145.243C155.426 145.029 155.28 144.757 155.221 144.46C155.163 144.163 155.193 143.856 155.308 143.577C155.424 143.297 155.62 143.059 155.871 142.891C156.123 142.723 156.419 142.634 156.72 142.634C156.922 142.632 157.12 142.671 157.306 142.747C157.494 142.823 157.662 142.936 157.804 143.078C157.947 143.221 158.059 143.389 158.135 143.576C158.212 143.762 158.25 143.961 158.249 144.162Z" fill="#008765"/>
<path d="M92.1118 57.8679C90.9503 57.724 90.2243 58.9811 89.8613 60.2878C90.7478 60.2919 91.6169 60.5337 92.378 60.9883C93.7089 61.7639 94.7978 62.3676 95.8167 62.877C94.8704 60.0229 93.4427 58.0386 92.1118 57.8679Z" fill="#008765"/>
<path d="M90.5391 70.3798C91.5796 73.5014 93.2009 75.5582 94.6286 75.3163C95.3787 75.1953 95.9595 74.4693 96.3467 73.3562C94.919 72.5576 92.4507 71.3477 90.5391 70.3798Z" fill="#008765"/>
<path d="M116.771 61.499C116.892 60.1197 115.126 59.4612 114.037 60.894C114.061 59.5618 111.931 59.0779 110.746 60.773C110.625 59.344 108.199 59.4421 107.213 60.9653C107.092 59.7083 104.987 60.2165 104.454 62.0543C104.14 63.1674 103.849 64.2334 103.583 65.2255C106.535 65.3223 109.391 65.1275 110.359 65.1771C110.77 65.2013 111.135 65.8292 108.861 66.4826C109.031 66.6669 109.24 66.8108 109.473 66.9039C109.705 66.9971 109.956 67.037 110.206 67.0209C110.456 67.0047 110.7 66.933 110.919 66.8108C111.138 66.6885 111.327 66.519 111.472 66.3145C111.36 66.7519 111.279 67.1967 111.23 67.6454C111.641 67.8861 111.641 68.1548 111.181 68.3955C111.181 69.287 111.447 69.678 112.052 68.6375C113.19 66.75 115.416 68.4681 113.504 70.9122C113.181 71.4345 113.017 72.0392 113.029 72.653C113.042 73.267 113.232 73.8641 113.577 74.3725C114.904 70.7323 116.675 67.2703 118.852 64.0653C120.498 61.136 118.465 60.1171 116.771 61.499Z" fill="#008765"/>
<path d="M134.799 103.023L127.225 102.491L126.717 99.7809L134.799 103.023Z" fill="#008765"/>
<path d="M86.9093 76.3326L78.9238 77.3973L91.5745 79.5268C88.8694 77.7361 86.8851 76.3326 86.9093 76.3326Z" fill="#008765"/>
<path d="M108.907 78.2443L106.797 81.4869C106.9 80.6598 106.958 79.8277 106.971 78.9944C106.947 79.0186 108.084 78.5843 108.907 78.2443Z" fill="#008765"/>
<path d="M209.671 59.8293C209.742 60.0064 209.76 60.201 209.722 60.3883C209.683 60.5756 209.589 60.7472 209.454 60.8814C209.318 61.0156 209.145 61.1064 208.956 61.1425C208.769 61.1784 208.574 61.1578 208.398 61.0833C208.223 61.0088 208.072 60.8837 207.967 60.7239C207.862 60.564 207.807 60.3767 207.809 60.1854C207.81 59.9942 207.868 59.8078 207.975 59.6496C208.082 59.4914 208.235 59.3686 208.412 59.2969C208.529 59.2478 208.656 59.2225 208.783 59.2228C208.91 59.2231 209.036 59.2486 209.154 59.2983C209.271 59.3479 209.376 59.4203 209.466 59.5115C209.555 59.6027 209.625 59.7108 209.671 59.8293Z" fill="#008765"/>
<path d="M170.759 175.452C171.69 177.344 172.039 179.471 171.761 181.563C171.484 183.653 170.592 185.615 169.199 187.199C167.807 188.784 165.975 189.92 163.938 190.462C161.9 191.006 159.746 190.934 157.749 190.254C155.752 189.573 154.002 188.316 152.72 186.642C151.438 184.967 150.681 182.949 150.546 180.844C150.409 178.739 150.901 176.641 151.958 174.816C153.015 172.99 154.589 171.519 156.482 170.588C159.02 169.341 161.95 169.153 164.627 170.064C167.304 170.976 169.51 172.915 170.759 175.452Z" fill="#008765"/>
<path d="M120.257 160.762C123.209 168.723 123.379 177.449 120.741 185.518" stroke="#303030" stroke-linecap="round" stroke-linejoin="round"/>
<path d="M110.431 201.417C105.438 205.974 99.3023 209.09 92.6778 210.435C86.0532 211.78 79.1877 211.302 72.8128 209.054C66.4379 206.807 60.7922 202.871 56.477 197.667C52.1618 192.465 49.3388 186.188 48.3086 179.507C47.2784 172.827 48.0796 165.991 50.6268 159.73C53.1742 153.468 57.3722 148.015 62.7737 143.951C68.1751 139.887 74.5779 137.364 81.3 136.65C88.022 135.937 94.8117 137.062 100.946 139.902" stroke="#303030" stroke-linecap="round" stroke-linejoin="round"/>
<path d="M139.978 88.0446C142.622 81.8753 142.961 72.252 139.01 63.5316C135.398 55.5765 128.783 49.3748 120.612 46.2821C112.441 43.1894 103.377 43.4573 95.4032 47.0271C89.4779 49.7133 84.4639 54.0683 80.9746 59.5593" stroke="#303030" stroke-linecap="round" stroke-linejoin="round"/>
<path d="M132.694 115.729C133.182 111.453 133.948 107.214 134.987 103.037" stroke="#303030" stroke-linecap="round" stroke-linejoin="round"/>
<path d="M146.754 155.995L145.302 156.648" stroke="#303030" stroke-linecap="round" stroke-linejoin="round"/>
<path d="M145.302 156.648C144.652 156.946 143.95 157.114 143.236 157.141C142.521 157.167 141.808 157.052 141.138 156.802C140.468 156.553 139.854 156.175 139.331 155.687C138.807 155.199 138.386 154.613 138.09 153.962C137.119 151.824 136.262 149.635 135.525 147.405" stroke="#303030" stroke-linecap="round" stroke-linejoin="round"/>
<path d="M155.51 104.5C153.863 111.377 152.121 122.457 154.177 133.757" stroke="#303030" stroke-linecap="round" stroke-linejoin="round"/>
<path d="M160.258 89.2303C163.078 77.6118 161.786 65.3752 156.604 54.6012C150.642 42.0226 139.948 32.3114 126.855 27.585C113.762 22.8587 99.3314 23.5006 86.7096 29.3708C74.0879 35.2409 64.2987 45.8632 59.4769 58.9215C54.6551 71.9797 55.1916 86.4148 60.9694 99.0791C61.2656 99.7296 61.6875 100.315 62.2105 100.803C62.7336 101.29 63.3477 101.669 64.0176 101.918C64.6876 102.168 65.4001 102.283 66.1145 102.256C66.8289 102.23 67.531 102.062 68.1805 101.764L76.2144 98.0857C76.8647 97.7892 77.4502 97.3672 77.9373 96.8442C78.4243 96.3211 78.8035 95.707 79.053 95.0372C79.3025 94.3674 79.4175 93.655 79.3913 92.9407C79.3652 92.2264 79.1983 91.5243 78.9004 90.8746C78.5385 90.1369 78.2232 89.3772 77.9567 88.5999" stroke="#303030" stroke-linecap="round" stroke-linejoin="round"/>
<path d="M126.472 141.331L135.522 147.429L152.17 160.133C155.163 157.954 157.888 155.427 160.286 152.606C162.066 150.485 163.605 148.173 164.871 145.711C164.871 145.711 160.374 140.214 154.172 133.757C147.571 126.879 137.379 117.157 129.442 114.253" stroke="#303030" stroke-linecap="round" stroke-linejoin="round"/>
<path d="M122.531 150.429L121.708 137.895L126.475 141.331" stroke="#303030" stroke-linecap="round" stroke-linejoin="round"/>
<path d="M103.971 120.69C100.888 137.307 99.0432 154.132 98.4521 171.023C104.82 172.48 111.407 172.711 117.861 171.701L122.531 150.454C123.322 147.211 124.657 144.126 126.479 141.331" stroke="#303030" stroke-linecap="round" stroke-linejoin="round"/>
<path d="M189.175 134.725C192.138 138.55 194.808 142.595 197.16 146.824" stroke="#303030" stroke-linecap="round" stroke-linejoin="round"/>
<path d="M164.348 146.703C168.727 144.719 180.827 139.274 189.175 134.725L198.588 128.409C209.09 129.232 225.45 132.958 230.314 137.12C222.652 140.37 214.583 142.567 206.332 143.654C203.815 143.683 201.344 144.339 199.145 145.564L197.185 146.823C188.473 152.461 177.513 159.049 170.809 162.987C168.767 164.191 166.403 164.733 164.042 164.538C161.679 164.343 159.437 163.42 157.62 161.898L153.893 158.801" stroke="#303030" stroke-linecap="round" stroke-linejoin="round"/>
<path d="M29.4619 126.473L36.4553 141.04" stroke="#303030" stroke-linecap="round" stroke-linejoin="round"/>
<path d="M40.254 130.248L25.6865 137.241" stroke="#303030" stroke-linecap="round" stroke-linejoin="round"/>
<path d="M116.239 213.903C120.331 212.866 124.299 211.39 128.072 209.499" stroke="#303030" stroke-linecap="round" stroke-linejoin="round"/>
<path d="M100.39 171.411L100.099 175.04C99.9016 177.678 100.394 180.322 101.527 182.711L114.328 209.523C115.355 211.583 116.221 213.718 116.917 215.912C118.191 219.732 118.103 224.285 118.345 228.327C118.578 233.492 119.127 238.639 119.99 243.737C120.31 245.478 120.692 247.222 121.176 248.988C128.266 237.93 130.638 227.887 133.445 221.112C133.072 219.661 132.579 218.243 131.969 216.876C128.102 209.575 127.743 209.267 126.887 205.841C121.214 182.615 116.48 176.699 116.117 176.271L116.312 171.915" stroke="#303030" stroke-linecap="round" stroke-linejoin="round"/>
<path d="M174.486 99.9502C177.842 97.9589 180.98 95.6233 183.851 92.9811" stroke="#303030" stroke-linecap="round" stroke-linejoin="round"/>
<path d="M188.667 95.5945C187.796 95.9091 186.949 96.1511 186.126 96.4173" stroke="#303030" stroke-linecap="round" stroke-linejoin="round"/>
<path d="M180.148 102.491C183.047 100.78 185.289 98.1477 186.516 95.0138" stroke="#303030" stroke-linecap="round" stroke-linejoin="round"/>
<path d="M167.493 91.747C170.203 92.0858 178.502 92.8346 182.641 89.7385C187.819 85.8655 188.516 86.971 184.65 92.0374C184.409 92.3532 184.14 92.6665 183.827 93.0053C186.155 92.759 188.467 92.3712 190.748 91.8438C195.61 90.7485 196.515 91.8591 191.401 94.433C190.513 94.8752 189.6 95.2631 188.667 95.5945C189.973 95.5219 191.401 95.3538 192.974 95.1106C197.513 94.4088 197.881 95.3296 195.273 96.6096C191.559 98.1983 187.628 99.2184 183.609 99.6357" stroke="#303030" stroke-linecap="round" stroke-linejoin="round"/>
<path d="M184.65 102.176C186.513 102.176 189.634 103.944 184.117 104.137C178.576 104.331 170.058 104.016 166.477 103.846" stroke="#303030" stroke-linecap="round" stroke-linejoin="round"/>
<path d="M191.35 98.0882C195.587 97.6514 195.131 99.2778 190.626 100.821C187.241 101.914 183.706 102.478 180.148 102.491" stroke="#303030" stroke-linecap="round" stroke-linejoin="round"/>
<path d="M69.8494 12.254C70.6015 13.8768 70.8554 15.6862 70.5791 17.4534C70.3026 19.2205 69.5083 20.866 68.2966 22.1818C67.0851 23.4974 65.5104 24.4243 63.7719 24.845C62.0335 25.2657 60.2093 25.1614 58.53 24.5452C56.8509 23.929 55.3923 22.8288 54.3385 21.3835C53.2847 19.9382 52.6832 18.2129 52.6101 16.4258C52.537 14.6386 52.9955 12.8699 53.9276 11.3434C54.8598 9.8169 56.2238 8.6011 57.847 7.84985C60.0227 6.84287 62.5093 6.74114 64.76 7.56701C67.0107 8.39287 68.8414 10.0787 69.8494 12.254Z" stroke="#303030" stroke-linecap="round" stroke-linejoin="round"/>
<path d="M59.0576 10.4633L61.6468 16.0531L67.1157 13.5123" stroke="#303030" stroke-linecap="round" stroke-linejoin="round"/>
<path d="M160.257 89.2303C161.428 94.3995 161.109 99.7946 159.338 104.79" stroke="#303030" stroke-linecap="round" stroke-linejoin="round"/>
<path d="M91.4846 57.9138L69.0514 61.4264C67.1556 61.7193 65.3896 62.5693 63.9782 63.8685C62.5668 65.1676 61.5735 66.857 61.1249 68.7221C60.676 70.5871 60.7921 72.5436 61.458 74.3426C62.1241 76.1415 63.31 77.7018 64.865 78.825L98.0894 103.674L103.971 120.69" stroke="#303030" stroke-linecap="round" stroke-linejoin="round"/>
<path d="M96.3476 73.3626C95.9655 74.4757 95.3797 75.1991 94.6295 75.3226C91.8683 75.7799 90.0445 69.4119 89.6204 66.3565C89.2205 63.4489 89.4549 57.5394 92.1129 57.8743C93.4451 58.0424 94.8715 60.0292 95.8152 62.8847" stroke="#303030" stroke-linecap="round" stroke-linejoin="round"/>
<path d="M89.8379 60.289C90.725 60.2899 91.5949 60.5326 92.3545 60.9908C94.9967 62.5795 97.7657 63.9473 100.633 65.0803C103.129 66.0176 105.729 66.6513 108.376 66.9678C109.232 67.0888 111.243 67.4352 111.475 67.937C111.783 68.6018 109.244 68.9763 108.522 69.0731C106.949 69.279 105.36 69.3196 103.779 69.1941C101.457 69.2004 99.1394 68.9898 96.8567 68.5649C96.6974 69.0537 96.7059 69.5817 96.8809 70.0652C97.5011 71.2318 99.0014 72.7805 99.3504 73.4288C100.15 74.9176 100.982 76.6281 97.2197 73.8885C96.3078 73.2237 91.8884 71.0522 90.5409 70.3798" stroke="#303030" stroke-linecap="round" stroke-linejoin="round"/>
<path d="M111.227 67.7014C111.276 67.2419 111.358 66.7865 111.473 66.3387C111.328 66.5433 111.139 66.713 110.92 66.8354C110.7 66.9578 110.457 67.0296 110.206 67.0459C109.956 67.0621 109.705 67.0222 109.472 66.9292C109.239 66.8361 109.03 66.6922 108.859 66.508" stroke="#303030" stroke-linecap="round" stroke-linejoin="round"/>
<path d="M111.206 68.4044C111.206 69.2959 111.474 69.678 112.078 68.6375C113.191 66.7271 115.417 68.4439 113.53 70.9121C113.206 71.4273 113.04 72.0251 113.05 72.6332C113.061 73.2412 113.248 73.833 113.588 74.3369C114.861 70.7993 116.577 67.4374 118.695 64.3315C120.569 61.2519 118.568 60.0369 116.772 61.5295C116.893 60.1502 115.127 59.4918 114.038 60.9246C114.062 59.5937 111.932 59.1097 110.747 60.8036C110.626 59.3759 108.2 59.4727 107.214 60.9972C107.093 59.7389 104.981 60.2445 104.455 62.0861C104.137 63.198 103.85 64.264 103.584 65.2561" stroke="#303030" stroke-linecap="round" stroke-linejoin="round"/>
<path d="M113.578 74.3967C112.199 78.9218 112.441 83.6647 118.103 85.9152C113.965 88.819 108.4 88.6496 103.923 86.3265C106.391 86.6742 106.948 81.4677 106.948 79.0186C106.313 79.2116 105.651 79.3013 104.988 79.2848C101.866 79.2848 101.092 76.4536 102.665 69.1215" stroke="#303030" stroke-linecap="round" stroke-linejoin="round"/>
<path d="M127.226 102.491L126.718 99.7809L134.8 103.023" stroke="#303030" stroke-linecap="round" stroke-linejoin="round"/>
<path d="M91.5804 79.5268L78.9004 77.3973L86.8859 76.3326" stroke="#303030" stroke-linecap="round" stroke-linejoin="round"/>
<path d="M103.929 86.3265C103.77 86.3077 103.616 86.2669 103.469 86.2056C98.8316 84.3181 90.706 79.0632 86.8916 76.3326L94.6351 75.3137" stroke="#303030" stroke-linecap="round" stroke-linejoin="round"/>
<path d="M96.8548 68.5649C96.2741 68.4681 95.6449 68.2987 94.9189 68.1535" stroke="#303030" stroke-linecap="round" stroke-linejoin="round"/>
<path d="M100.49 65.0077L103.588 65.2497C106.54 65.3465 109.394 65.1771 110.363 65.2013C110.775 65.2115 111.14 65.8292 108.865 66.4826L107.592 66.843" stroke="#303030" stroke-linecap="round" stroke-linejoin="round"/>
<path d="M83.4007 59.2969C82.4558 62.1592 82.1979 65.2037 82.6477 68.1842C83.0976 71.1647 84.2424 73.9976 85.9899 76.4536" stroke="#303030" stroke-linecap="round" stroke-linejoin="round"/>
<path d="M106.947 79.0186C106.947 79.0186 108.109 78.583 108.907 78.2443L106.797 81.4869" stroke="#303030" stroke-linecap="round" stroke-linejoin="round"/>
<path d="M147.553 19.6587C140.342 19.5861 134.219 23.9176 132.259 29.9188C131.615 31.8921 131.439 33.9884 131.745 36.0416C132.052 38.0948 132.831 40.0485 134.023 41.748L131.437 48.358L138.091 45.7203C140.223 47.1159 142.639 48.0183 145.163 48.3615C147.688 48.7049 150.258 48.4804 152.684 47.7046C155.636 46.8596 158.246 45.1037 160.14 42.6875C162.035 40.2714 163.117 37.3185 163.234 34.2503C163.307 26.289 156.29 19.7313 147.553 19.6587Z" stroke="#303030" stroke-linecap="round" stroke-linejoin="round"/>
<path d="M207.009 56.3931C206.5 55.2558 206.55 54.214 207.106 51.6489C208.284 46.2196 205.166 44.2162 202.484 45.309C202.012 45.506 201.588 45.8044 201.242 46.1832C200.897 46.5619 200.64 47.0116 200.487 47.5008C200.334 47.99 200.292 48.5067 200.361 49.0144C200.43 49.522 200.609 50.0083 200.887 50.439" stroke="#303030" stroke-linecap="round" stroke-linejoin="round"/>
<path d="M209.671 59.8293C209.742 60.0064 209.76 60.201 209.722 60.3883C209.683 60.5756 209.589 60.7472 209.454 60.8814C209.318 61.0156 209.145 61.1064 208.956 61.1425C208.769 61.1784 208.574 61.1578 208.398 61.0833C208.223 61.0088 208.072 60.8837 207.967 60.7239C207.862 60.564 207.807 60.3767 207.809 60.1854C207.81 59.9942 207.868 59.8078 207.975 59.6496C208.082 59.4914 208.235 59.3686 208.412 59.2969C208.529 59.2478 208.656 59.2225 208.783 59.2228C208.91 59.2231 209.036 59.2486 209.154 59.2983C209.271 59.3479 209.376 59.4203 209.466 59.5115C209.555 59.6027 209.625 59.7108 209.671 59.8293Z" stroke="#303030" stroke-linecap="round" stroke-linejoin="round"/>
<path d="M103.463 86.2055L112.005 103.023L118.103 85.9152" stroke="#303030" stroke-linecap="round" stroke-linejoin="round"/>
<path d="M118.103 85.9152C120.347 86.7273 122.709 87.1686 125.096 87.2219C129.645 87.4435 167.202 89.6659 167.202 89.6659C168.391 97.1967 167.633 100.848 165.944 105.225L127.227 102.491L129.453 114.253" stroke="#303030" stroke-linecap="round" stroke-linejoin="round"/>
<path d="M116.312 119.794L112.005 103.023" stroke="#303030" stroke-linecap="round" stroke-linejoin="round"/>
<path d="M170.76 175.452C171.691 177.344 172.04 179.471 171.762 181.563C171.485 183.652 170.593 185.615 169.2 187.199C167.808 188.784 165.976 189.92 163.939 190.462C161.901 191.006 159.747 190.934 157.75 190.254C155.753 189.573 154.003 188.316 152.721 186.642C151.439 184.967 150.682 182.949 150.547 180.844C150.41 178.739 150.902 176.641 151.959 174.816C153.016 172.99 154.59 171.519 156.483 170.588C159.021 169.341 161.95 169.153 164.628 170.064C167.305 170.976 169.511 172.915 170.76 175.452Z" stroke="#303030" stroke-linecap="round" stroke-linejoin="round"/>
</svg>
