<svg width="193" height="360" viewBox="0 0 193 360" fill="none" xmlns="http://www.w3.org/2000/svg">
<path d="M112.668 0C112.668 0 174.665 45.8785 176.295 53.0716C177.926 60.2646 187.714 122.113 187.714 128.428V257.259H6.61452L0.0917969 115.876L13.1451 60.4057L66.981 12.9318L112.668 0Z" fill="#00B384"/>
<path d="M138.025 107.95L151.651 108.734L155.712 123.065L150.224 134.68L137.119 137.299L126.375 128.126V117.103L138.025 107.95Z" fill="#CEA01F"/>
<path d="M25.4691 241.16L39.4122 224.654L49.2394 201.009L62.4965 190.076L84.6675 202.569L94.04 242.72L102.495 261.461L123.067 269.266H99.7513L95.6393 260.121L82.3822 240.713L76.667 217.292L71.869 215.062L61.8105 232.462L50.8975 256.777L12.898 258.784L11.0713 237.146L25.4691 241.16Z" fill="#FF3414"/>
<path d="M6.94748 230.612L71.7435 250.944C71.7435 250.944 51.752 302.903 51.5089 304.032C51.2659 305.161 61.7007 331.055 61.7007 331.055V345.104L73.9621 360L49.8273 353.728C49.8273 353.728 48.8277 330.209 48.569 329.519C48.3103 328.829 36.7231 291.833 36.7231 291.833L42.4304 269.45C42.4304 269.45 4.20747 262.328 5.24232 260.971L6.94748 230.612Z" fill="#FF3414"/>
<path d="M25.606 186.525L32.5873 192.26L33.7868 223.979L6.66895 241.933L7.45293 217.308C7.45293 217.308 13.1172 193.181 13.8776 192.828C14.6381 192.475 25.606 186.525 25.606 186.525Z" fill="#FFF4E5"/>
<path d="M37.7346 164.785L38.3931 171.292L35.9824 176.208L32.0233 176.552L29.8242 166.388L37.7346 164.785Z" fill="#CEA01F"/>
<path d="M37.5264 169.179L38.228 169.646L40.0586 170.567L39.5922 171.229C38.9687 171.133 38.3407 171.069 37.7106 171.037L37.5264 169.179Z" fill="#CEA01F"/>
<path d="M92.0055 227.656L51.9048 243.485L23.9559 245.002L9.69531 239.004L17.1392 211.428L27.527 204.756L29.3066 223.772L26.5548 230.322L89.7241 225.441" fill="#008765"/>
<path d="M36.4369 162.515C36.4369 162.515 28.5304 175.059 27.6955 175.51C26.8606 175.961 22.435 184.102 21.7412 184.326C21.0473 184.549 16.465 191.648 16.2533 192.318C16.0416 192.989 12.0237 210.55 12.0237 210.55C12.0237 210.55 -0.127973 214.999 0.0797823 214.105C0.287537 213.211 1.88294 195.78 1.88294 195.78L9.69139 187.309L12.8273 180.163L18.3152 169.003L36.4369 162.515Z" fill="#303030"/>
<path d="M21.6194 156.059C22.4974 155.73 35.4919 152.755 35.4919 152.755L37.2323 158.442L29.3925 162.433C29.3925 162.433 21.7566 163.581 21.5841 163.08C21.4116 162.578 21.6194 156.059 21.6194 156.059Z" fill="#FF3414"/>
<path d="M5.34863 165.181L18.398 160.41L40.8003 156.557L51.9994 156.588L56.0055 158.482C56.0055 158.482 48.9772 162.139 48.4754 162.053C47.9737 161.966 34.2579 166.851 34.2579 166.851C34.2579 166.851 18.0413 169.097 17.2063 169.203C16.3714 169.308 6.50893 169.171 6.50893 169.171L5.34863 165.181Z" fill="#FF3414"/>
<path d="M178.013 206.426C178.585 206.214 193.465 200.06 192.908 199.135C192.352 198.21 191.144 193.937 191.144 193.937L187.714 193.502C187.714 193.502 182.728 196.195 182.587 196.481C182.446 196.767 179.8 200.527 179.8 200.527L177.601 201.985C177.781 194.196 179.753 185.298 179.753 185.129C179.753 184.843 178.342 180.288 178.342 180.288C178.342 180.288 173.45 178.881 173.246 178.951C173.042 179.022 170.816 183.071 170.816 183.353C170.816 183.636 172.066 196.944 172.066 196.944C172.066 196.944 167.942 194.8 167.872 194.447C167.801 194.094 164.618 187.113 164.618 187.113L160.569 184.968C160.569 184.968 155.152 189.794 155.293 190.006C155.434 190.217 158.84 194.494 158.84 194.494L165.23 200.06L171.502 202.067L171.976 212.808L163.521 209.017C163.521 209.017 161.169 210.079 161.169 210.291C161.169 210.503 161.282 217.637 161.282 217.637L167.052 219.056L173.324 218.574L172.54 231.725H176.104L179.922 225.061L187.322 220.31L191.391 219.895L192.222 214.987L188.028 213.705L182.489 218.801L177.699 219.519L180.411 215.046L190.603 211.581C190.603 211.581 190.901 206.673 190.831 206.32C190.76 205.967 189.412 204.607 189.412 204.607L181.364 208.359L177.652 213.686C177.652 213.686 177.444 206.638 178.013 206.426Z" fill="#00873A"/>
<path d="M137.539 254.907C137.539 254.907 152.599 224.509 152.505 224.23C152.411 223.952 150.083 218.931 150.083 218.931L145.014 217.072L140.506 222.835C140.506 222.835 135.951 243.751 136.23 242.826C136.508 241.901 137.998 209.268 137.998 209.268L133.07 204.247L126.955 205.164L129.092 239.373L124.537 224.407L118.582 223.587L115.701 230.373L137.539 254.907Z" fill="#00873A"/>
<path d="M123.325 249.051H144.148L141.823 256.209L151.122 263.645L143.031 270.803L125.183 270.152L120.444 262.716L126.113 255.276L123.325 249.051Z" fill="#BBB0A4"/>
<path d="M161.015 241.027L178.961 238.463L187.616 242.626L190.708 254.805L183.876 266.847H164.324L157.491 252.885L161.015 241.027Z" fill="#FF3414"/>
<path d="M169.35 245.511V231.733H179.933L182.497 245.511H169.35Z" fill="#FF3414"/>
<path d="M22.9683 159.916L36.8801 157.294L37.5269 159.509L27.6762 163.644L20.8398 164.228L21.5376 159.916H22.9683Z" fill="#303030"/>
<path d="M93.9027 227.754L93.1971 236.358L87.6426 224.516L93.9027 227.754Z" fill="#CEA01F"/>
</svg>
