<svg width="160" height="160" viewBox="0 0 160 160" fill="none" xmlns="http://www.w3.org/2000/svg">
<path d="M57.4367 139.483C72.0708 139.483 83.9339 127.619 83.9339 112.985C83.9339 98.351 72.0708 86.4882 57.4367 86.4882C42.8026 86.4882 30.9395 98.351 30.9395 112.985C30.9395 127.619 42.8026 139.483 57.4367 139.483Z" fill="#E5DFD5"/>
<path d="M46.1536 75.6444L33.4494 86.458L31.9219 83.8113L46.1536 75.6444Z" fill="#008765"/>
<path d="M61.0498 39.2711C62.6619 39.2711 63.9687 37.9643 63.9687 36.3522C63.9687 34.7401 62.6619 33.4332 61.0498 33.4332C59.4377 33.4332 58.1309 34.7401 58.1309 36.3522C58.1309 37.9643 59.4377 39.2711 61.0498 39.2711Z" fill="#008765"/>
<path d="M119.928 52.4138C121.264 52.4138 122.347 51.3304 122.347 49.9939C122.347 48.6575 121.264 47.5741 119.928 47.5741C118.591 47.5741 117.508 48.6575 117.508 49.9939C117.508 51.3304 118.591 52.4138 119.928 52.4138Z" fill="#008765"/>
<path d="M98.6799 126.4C99.4902 126.4 100.147 125.744 100.147 124.933C100.147 124.123 99.4902 123.466 98.6799 123.466C97.8696 123.466 97.2129 124.123 97.2129 124.933C97.2129 125.744 97.8696 126.4 98.6799 126.4Z" stroke="#303030" stroke-linecap="round" stroke-linejoin="round"/>
<path d="M83.8274 110.611L115.709 92.1144L82.8898 35.5354L37.9866 61.5789L31.9219 83.8113L38.2286 94.7157" stroke="#303030" stroke-linecap="round" stroke-linejoin="round"/>
<path d="M37.9866 61.5789L46.1536 75.6442L31.9219 83.8112" stroke="#303030" stroke-linecap="round" stroke-linejoin="round"/>
<path d="M46.1536 75.6442L33.4494 86.458L31.9219 83.8113L46.1536 75.6442Z" stroke="#303030" stroke-linecap="round" stroke-linejoin="round"/>
<path d="M58.6914 55.9981L60.7936 39.271" stroke="#303030" stroke-linecap="round" stroke-linejoin="round"/>
<path d="M61.0498 39.2711C62.6619 39.2711 63.9687 37.9643 63.9687 36.3522C63.9687 34.7401 62.6619 33.4332 61.0498 33.4332C59.4377 33.4332 58.1309 34.7401 58.1309 36.3522C58.1309 37.9643 59.4377 39.2711 61.0498 39.2711Z" stroke="#303030" stroke-linecap="round" stroke-linejoin="round"/>
<path d="M89.7715 107.178L121.214 114.528L133.525 61.8662L92.6148 52.3079" stroke="#303030" stroke-linecap="round" stroke-linejoin="round"/>
<path d="M107.375 60.4748L118.113 51.597" stroke="#303030" stroke-linecap="round" stroke-linejoin="round"/>
<path d="M119.928 52.4138C121.264 52.4138 122.347 51.3304 122.347 49.9939C122.347 48.6575 121.264 47.5741 119.928 47.5741C118.591 47.5741 117.508 48.6575 117.508 49.9939C117.508 51.3304 118.591 52.4138 119.928 52.4138Z" stroke="#303030" stroke-linecap="round" stroke-linejoin="round"/>
<path d="M57.4367 139.483C72.0708 139.483 83.9339 127.619 83.9339 112.985C83.9339 98.351 72.0708 86.4882 57.4367 86.4882C42.8026 86.4882 30.9395 98.351 30.9395 112.985C30.9395 127.619 42.8026 139.483 57.4367 139.483Z" stroke="#303030" stroke-linecap="round" stroke-linejoin="round"/>
<path d="M60.9453 99.8427L53.9277 126.128" stroke="#303030" stroke-linecap="round" stroke-linejoin="round"/>
<path d="M70.5785 116.494L44.293 109.477" stroke="#303030" stroke-linecap="round" stroke-linejoin="round"/>
<path d="M90.2246 20.5172L95.7297 30" stroke="#303030" stroke-linecap="round" stroke-linejoin="round"/>
<path d="M97.7113 22.4985L88.2285 28.0188" stroke="#303030" stroke-linecap="round" stroke-linejoin="round"/>
<path d="M16.7069 83.418L4.38086 80.605" stroke="#303030" stroke-linecap="round" stroke-linejoin="round"/>
<path d="M21.0177 97.5892L12.4121 106.86" stroke="#303030" stroke-linecap="round" stroke-linejoin="round"/>
<path d="M139.953 90.0725L149.133 98.7991" stroke="#303030" stroke-linecap="round" stroke-linejoin="round"/>
<path d="M143.492 75.6896L155.622 72.1052" stroke="#303030" stroke-linecap="round" stroke-linejoin="round"/>
</svg>
