<svg width="360" height="392" viewBox="0 0 360 392" fill="none" xmlns="http://www.w3.org/2000/svg">
<path d="M101.822 226.479L110.62 226.593C110.62 226.593 114.738 222.034 114.778 222.314C114.819 222.593 113.966 227.711 113.966 227.711C113.966 227.711 119.263 232.123 119.241 232.38C119.219 232.637 112.576 253.336 112.576 253.336L96.8405 250.215L92.7964 245.582L93.2817 233.347L101.822 226.479Z" fill="#FF3414"/>
<path d="M144.484 170.225L132.697 195.148L127.267 192.538C133.789 178.806 140.436 164.641 140.532 164.35C140.712 163.78 126.462 160.722 126.462 160.722C126.462 160.722 107.881 216.067 107.638 216.185C107.396 216.303 114.204 218.156 114.719 218.204C114.914 218.222 118.51 210.851 122.962 201.549L128.679 203.645L120.907 220.079L127.443 223.222L159.547 173.931C159.547 173.931 145.021 170.479 144.484 170.225Z" fill="#303030"/>
<path d="M100.579 195.685L120.973 192.398L121.23 193.968L117.767 194.512L122.675 195.214L123.105 196.656L116.951 197.391L123.69 198.196L123.193 199.417L115.076 199.784L122.429 200.839L122.267 203.075L113.811 201.861L113.528 203.836C113.528 203.836 100.017 200.77 100.241 200.317C100.465 199.865 100.579 195.685 100.579 195.685Z" fill="#FF3414"/>
<path d="M153.278 206.314L136.609 191.77L135.506 192.928L138.348 195.387L133.499 193.13L132.311 194.082L137.488 198.255L130.921 195.023L130.697 196.325L137.859 201.332L130.601 197.953L129.499 199.909L137.852 203.795L137.01 205.604C137.01 205.604 150.98 210.876 151.028 210.384C151.076 209.891 153.278 206.314 153.278 206.314Z" fill="#FF3414"/>
<path d="M209.286 383.785C207.672 376.8 175.554 268.866 175.48 267.902C175.407 266.939 153.91 250.553 153.91 250.553L87.8842 251.446L55.8325 279.134C55.8325 279.134 47.792 299.156 47.6156 300.259L46.5347 306.987L33.2993 391.098L209.286 383.785Z" fill="#00873A"/>
<path d="M138.664 293.274C138.664 293.274 157.3 260.399 158.966 259.45C160.631 258.502 192.256 248.34 192.256 248.34L201.135 242.457L150.91 215.071L155.058 204.623L222.006 234.792L231.003 252.656C231.003 252.656 232.617 273.016 232.029 273.862C231.44 274.708 188.753 305.458 187.37 306.002C185.988 306.546 157.388 314.726 157.388 314.726L138.664 293.274Z" fill="#00873A"/>
<path d="M88.866 261.432C88.866 261.432 33.9282 219.042 36.4172 218.24C38.9062 217.439 99.1087 205.99 99.1087 205.99L102.348 195.788C102.348 195.788 24.9355 199.92 24.351 200.626C23.7664 201.332 9.57881 217.538 8.9391 218.273C8.29939 219.009 -0.130812 232.715 0.001542 233.178C0.133896 233.641 28.8142 290.807 29.5789 290.163C30.3436 289.52 88.866 261.432 88.866 261.432Z" fill="#00873A"/>
<path d="M307.614 17.4744L320.114 15.6067L322.294 13.092L325.562 5.98165L332.379 2.30516L345.544 0L356.618 0.823531L345.677 5.45959L333.912 13.4596L354.28 9.08093L356.886 18.7722L360 23.9634L338.533 21.6251C338.533 21.6251 331.548 19.1398 331.772 19.3347C331.996 19.5295 335.081 23.2943 335.985 23.4523C336.89 23.6104 359.408 26.9082 359.408 26.9082L357.916 29.4818L342.188 31.4487L325.379 26.7281L322.07 20.8016L307.614 17.4744Z" fill="#CEA01F"/>
</svg>
