<svg width="256" height="256" viewBox="0 0 256 256" fill="none" xmlns="http://www.w3.org/2000/svg">
<path d="M149.107 121.414C133.357 116.334 129.58 100.435 129.58 100.435C130.119 99.6637 130.641 98.8944 131.129 98.143L131.638 89.941C123.411 87.6664 128.081 77.6482 128.081 77.6482C124.309 72.134 121.16 66.2179 118.692 60.0089C114.124 60.454 109.748 62.0704 105.988 64.7021C109.133 75.2004 114.444 88.1618 125.729 105.431C120.873 111.493 112.946 121.078 109.128 126.063L78.6886 112.435L71.75 126.786L105.916 144.28C108.275 145.383 110.946 145.63 113.468 144.976C115.99 144.322 118.205 142.809 119.732 140.699L127.209 130.391C130.21 134.988 132.508 138.763 140.836 142.248C149.696 138.261 153.532 133.433 156.854 126.786C153.979 125.46 151.358 123.642 149.107 121.414Z" fill="#E5DFD5"/>
<path d="M149.519 183.431L148.285 176.68L177.127 171.357L178.361 178.107L149.519 183.431Z" fill="#E5DFD5"/>
<path d="M174.756 177.744L170.231 172.615L194.597 151.129L199.121 156.257L174.756 177.744Z" fill="#E5DFD5"/>
<path fill-rule="evenodd" clip-rule="evenodd" d="M52.4229 10.1943C61.7152 9.05804 71.1414 10.4726 79.6908 14.2861C96.1412 21.6145 106.245 35.9076 109.26 51.5201C109.26 51.5201 109.334 53.6248 109.493 55.2456C108.489 55.8523 106.511 54.1667 104.782 52.6939C103.223 51.3653 101.867 50.2098 101.613 51.0667C101.368 51.8913 101.956 52.7741 102.892 54.1755C104.145 56.0549 106.022 58.867 107.344 63.7229L106.07 64.7579C106.456 66.3016 107.368 68.8969 108.442 71.9547C108.586 72.3656 108.734 72.7847 108.883 73.2108C106.746 82.452 102.015 91.2531 94.5389 98.4494C88.1481 104.632 80.2735 109.051 71.6843 111.289C71.4926 111.339 70.191 110.493 68.6436 109.488C66.5283 108.114 63.9536 106.441 63.1261 106.349C61.8119 106.203 64.9177 110.209 66.2591 111.939C66.3801 112.095 66.4869 112.233 66.5746 112.347C58.6172 113.58 50.4627 112.934 42.7696 110.438C33.865 107.55 25.9146 102.292 19.7708 95.2286C13.6272 88.1652 9.52204 79.5627 7.89563 70.3436C6.2692 61.1245 7.18287 51.6367 10.5386 42.8974C13.8944 34.1581 19.5657 26.497 26.9444 20.7359C34.323 14.9746 43.1307 11.3305 52.4229 10.1943ZM53.7816 21.2323C61.0506 20.3435 68.4245 21.4501 75.1126 24.4334C101.466 36.1734 106.997 70.7619 86.7278 90.2721C81.4644 95.3639 74.9143 98.9269 67.78 100.579C60.6455 102.231 53.196 101.91 46.2301 99.6507C39.2642 97.3911 33.0448 93.278 28.2388 87.7525C23.4327 82.227 20.2214 75.4975 18.9491 68.2856C17.6768 61.0739 18.3915 53.6517 21.0167 46.8151C23.6418 39.9787 28.0783 33.9857 33.8504 29.4788C39.6226 24.9719 46.5126 22.1212 53.7816 21.2323Z" fill="#008765"/>
<path d="M199.194 165.622L202.146 161.145L197.597 157.564L195.203 159.718L199.194 165.622Z" fill="#008765"/>
<path d="M214.826 171.048L211.006 179.836C209.853 182.513 207.868 184.747 205.343 186.204L224.412 201.07L235.64 187.23L214.826 171.048Z" fill="#008765"/>
<path d="M194.719 104.065C197.897 104.509 201.123 103.703 203.717 101.816C206.313 99.9295 208.074 97.1097 208.632 93.9503C204.715 92.6906 200.588 92.2278 196.489 92.5893C192.392 92.9509 188.408 94.1295 184.773 96.0556C185.555 98.1631 186.893 100.02 188.644 101.43C190.394 102.84 192.494 103.75 194.719 104.065Z" fill="#008765"/>
<path d="M121.813 99.2256L104.198 85.5305C101.665 90.8986 98.0006 95.6546 93.4551 99.4714L116.125 117.353L125.756 105.424L121.813 99.2256Z" fill="#008765"/>
<path d="M135.944 118.486L127.236 130.489C127.849 131.614 128.562 132.683 129.365 133.682L135.944 118.486Z" fill="#008765"/>
<path d="M131.492 92.45L134.951 90.0072C133.855 90.0788 132.754 90.0545 131.662 89.9346L131.492 92.45Z" fill="#008765"/>
<path d="M154.502 105.057C154.757 103.106 154.314 101.128 153.252 99.4724C152.188 97.8164 150.576 96.5892 148.696 96.0072C148.937 95.3164 149.011 94.5786 148.914 93.8535C147.317 82.1911 144.897 75.0042 140.904 70.8918C138.194 68.0593 132.654 68.5203 129.363 72.657C126.095 76.8 126.916 82.265 126.895 82.7184C127.226 78.6475 129.126 74.8645 132.194 72.1679C133.052 71.463 134.062 70.9662 135.145 70.716C134.976 74.3954 137.904 80.226 141.437 78.7741C143.799 77.81 144.083 82.0854 139.428 82.0854C138.17 92.1749 138.557 103.737 143.203 113.155L143.953 114.581C146.237 118.74 149.501 122.279 153.463 124.89C156.094 125.028 158.672 124.115 160.631 122.352C162.589 120.589 163.765 118.12 163.904 115.489C164.042 112.858 163.129 110.28 161.366 108.322C159.602 106.364 157.134 105.186 154.502 105.048V105.057Z" fill="#008765"/>
<path d="M199.194 165.622L202.146 161.145L197.597 157.564L195.203 159.718L199.194 165.622Z" stroke="#303030" stroke-linejoin="round"/>
<path d="M214.826 171.048L211.006 179.836C209.853 182.513 207.868 184.747 205.343 186.204L224.412 201.07L235.64 187.23L214.826 171.048Z" stroke="#303030"/>
<path d="M121.813 99.2256L104.198 85.5305C101.665 90.8986 98.0006 95.6546 93.4551 99.4714L116.125 117.353L125.756 105.424L121.813 99.2256Z" stroke="#303030"/>
<path d="M127.717 77.1337C124.063 71.7912 121.042 66.0423 118.716 60.0025C114.147 60.4458 109.77 62.0648 106.013 64.7021C109.158 75.2029 114.457 88.1491 125.753 105.425" stroke="#303030" stroke-linecap="round" stroke-linejoin="round"/>
<path d="M109.884 57.3891C109.206 53.859 108.946 50.2614 109.11 46.6705C109.038 44.815 109.166 42.957 109.492 41.129C110.384 36.1149 111.605 36.6039 112.009 41.4436C112.996 53.2983 115.83 57.2197 116.871 60.2687" stroke="#303030" stroke-linecap="round" stroke-linejoin="round"/>
<path d="M109.278 42.6535C108.467 40.9424 107.416 39.3557 106.157 37.9412C105.774 37.5744 104.883 37.5375 105.987 40.603C106.224 41.2577 107.17 44.0876 107.463 45.1039C108.142 47.1315 108.692 49.2002 109.109 51.2975" stroke="#303030" stroke-linecap="round" stroke-linejoin="round"/>
<path d="M109.449 54.5579C109.28 56.9535 105.58 53.2486 103.835 51.8476C102.265 50.5868 100.014 49.7857 103.182 54.3643C105.059 57.2854 106.478 60.476 107.392 63.8259" stroke="#303030" stroke-linecap="round" stroke-linejoin="round"/>
<path d="M200.912 168.139L195.203 159.718" stroke="#303030" stroke-linecap="round" stroke-linejoin="round"/>
<path d="M131.693 89.8722C131.693 89.8722 131.426 93.2244 131.16 98.1366C130.627 98.8868 130.119 99.6369 129.587 100.429" stroke="#303030" stroke-linecap="round" stroke-linejoin="round"/>
<path d="M134.953 90.0798L131.502 92.4207" stroke="#303030" stroke-linecap="round" stroke-linejoin="round"/>
<path d="M171.441 171.527L152.108 150.209" stroke="#303030" stroke-linecap="round" stroke-linejoin="round"/>
<path d="M135.919 118.462L129.363 133.657" stroke="#303030" stroke-linecap="round" stroke-linejoin="round"/>
<path d="M185.765 158.895C178.254 146.823 167.345 137.235 154.407 131.336" stroke="#303030" stroke-linecap="round" stroke-linejoin="round"/>
<path d="M150.297 176.309L140.904 142.224" stroke="#303030" stroke-linecap="round" stroke-linejoin="round"/>
<path d="M177.78 175.082L178.361 178.107L149.519 183.431L148.285 176.68L170.231 172.64" stroke="#303030" stroke-linecap="round" stroke-linejoin="round"/>
<path d="M153.439 124.923C156.031 124.992 158.547 124.046 160.453 122.287C162.358 120.529 163.502 118.096 163.64 115.507C163.779 112.917 162.902 110.376 161.195 108.424C159.488 106.472 157.086 105.263 154.502 105.055C154.757 103.104 154.314 101.126 153.252 99.4698C152.188 97.8139 150.576 96.5865 148.696 96.0046C149.479 93.7338 147.057 79.4631 142.695 73.0926C138.601 67.1143 132.618 68.514 129.339 72.6544C126.059 76.7949 126.892 82.2612 126.87 82.7159" stroke="#303030" stroke-linecap="round" stroke-linejoin="round"/>
<path d="M199.194 165.622L215.673 140.554C218.818 135.496 218.697 133.899 220.1 130.416C226.682 126.835 241.611 122.624 248.992 121.656C243.571 130.126 230.868 135.133 225.859 145.636L210.979 179.801C210.099 181.825 208.742 183.605 207.024 184.99C205.307 186.374 203.28 187.323 201.116 187.753C198.951 188.184 196.716 188.083 194.599 187.462C192.481 186.839 190.546 185.713 188.959 184.181L178.699 174.285" stroke="#303030" stroke-linecap="round" stroke-linejoin="round"/>
<path d="M174.757 177.744L170.231 172.615L194.598 151.129L199.122 156.257L174.757 177.744Z" stroke="#303030" stroke-linecap="round" stroke-linejoin="round"/>
<path d="M66.2302 114.348C68.8678 114.082 64.4828 109.9 63.762 108.617C62.7877 106.879 61.7548 104.865 66.3028 108.061C69.9873 110.386 73.8091 112.487 77.7474 114.351" stroke="#303030" stroke-linecap="round" stroke-linejoin="round"/>
<path d="M154.165 182.56L156.172 189.771C157.481 194.404 160.546 198.345 164.714 200.756C168.876 203.176 206.89 221.42 206.89 221.42C217.029 227.151 221.165 240.148 229.248 246.149C228.788 238.72 225.594 223.525 222.472 216.729C219.142 215.112 217.52 215.105 212.891 211.794L176.57 186.266L174.49 178.813" stroke="#303030" stroke-linecap="round" stroke-linejoin="round"/>
<path d="M135.919 118.462C134.541 120.253 126.277 131.688 119.732 140.723C118.203 142.832 115.988 144.343 113.467 144.996C110.946 145.65 108.276 145.404 105.916 144.302L71.75 126.81L78.6695 112.462L109.109 126.06" stroke="#303030" stroke-linecap="round" stroke-linejoin="round"/>
<path d="M149.107 121.414C151.373 123.634 153.994 125.46 156.862 126.816C153.653 134.202 148.161 138.985 140.856 142.272C132.505 138.776 130.219 135.037 127.204 130.419" stroke="#303030" stroke-linecap="round" stroke-linejoin="round"/>
<path d="M193.194 152.338C178.204 132.246 162.32 129.066 156.862 126.816" stroke="#303030" stroke-linecap="round" stroke-linejoin="round"/>
<path d="M129.58 100.435C129.58 100.435 133.355 116.333 149.107 121.414C146.679 119.019 144.674 116.229 143.179 113.163C138.521 103.757 138.145 92.1838 139.404 82.0944H140.033C143.854 81.8766 143.782 77.8087 141.412 78.783C137.878 80.2311 134.952 74.4031 135.122 70.7262C134.041 70.9779 133.031 71.4741 132.17 72.1768C130.38 73.7438 128.977 75.7027 128.07 77.901C127.162 80.0994 126.774 82.4776 126.936 84.8504C127.387 87.9262 129.505 90.3842 134.952 90.0837" stroke="#303030" stroke-linecap="round" stroke-linejoin="round"/>
<path d="M129.58 100.435C127.306 103.874 109.57 124.899 107.198 128.746" stroke="#303030" stroke-linecap="round" stroke-linejoin="round"/>
<path d="M57.2071 117.107C56.0456 117.252 53.6512 117.737 52.9482 117.881C49.7553 118.538 50.1667 119.382 50.6748 119.43C52.7304 119.625 56.0698 119.601 57.9815 119.841C61.0547 120.23 66.9833 120.785 69.3063 122.164" stroke="#303030" stroke-linecap="round" stroke-linejoin="round"/>
<path d="M57.8121 119.817C57.3026 120.011 56.8441 120.18 56.6263 120.277C53.5773 121.438 54.1352 122.219 54.6421 122.187C56.7002 122.066 59.9912 121.463 61.9258 121.389C64.2524 121.345 66.5779 121.523 68.8707 121.921" stroke="#303030" stroke-linecap="round" stroke-linejoin="round"/>
<path d="M146.203 50.3002C146.165 50.9225 145.944 51.5196 145.565 52.0156C145.188 52.5118 144.673 52.885 144.083 53.0877C143.493 53.2905 142.856 53.3139 142.254 53.155C141.65 52.996 141.109 52.662 140.695 52.1948C140.282 51.7277 140.018 51.1486 139.933 50.5309C139.849 49.913 139.951 49.2841 140.225 48.7239C140.498 48.1636 140.932 47.6971 141.471 47.3833C142.009 47.0695 142.628 46.9225 143.251 46.9608C144.084 47.0146 144.862 47.3959 145.416 48.0216C145.969 48.6473 146.252 49.4665 146.203 50.3002Z" stroke="#303030" stroke-linecap="round" stroke-linejoin="round"/>
<path d="M229.852 126.423C230.32 121.901 229.78 117.331 228.27 113.042C226.762 108.753 224.322 104.851 221.128 101.616C217.933 98.3813 214.061 95.8942 209.79 94.3332C205.52 92.7721 200.957 92.1758 196.429 92.5872C191.901 92.9985 187.52 94.4073 183.601 96.7122C179.682 99.0172 176.323 102.161 173.762 105.919C171.202 109.676 169.506 113.954 168.794 118.445C168.084 122.935 168.377 127.528 169.65 131.892" stroke="#303030" stroke-linecap="round" stroke-linejoin="round"/>
<path d="M197.113 153.981C200.576 154.227 204.054 153.874 207.398 152.941" stroke="#303030" stroke-linecap="round" stroke-linejoin="round"/>
<path d="M198.154 79.5051C195.728 79.1699 193.258 79.5613 191.054 80.6297C188.85 81.6983 187.014 83.3959 185.774 85.5081C184.535 87.6205 183.951 90.0526 184.093 92.4971C184.237 94.9418 185.101 97.2892 186.578 99.2426C188.054 101.196 190.077 102.668 192.39 103.473C194.702 104.277 197.202 104.378 199.573 103.762C201.943 103.147 204.076 101.842 205.706 100.014C207.335 98.1858 208.386 95.9156 208.725 93.4905C209.174 90.2346 208.315 86.9332 206.333 84.311C204.351 81.6889 201.409 79.9603 198.154 79.5051Z" stroke="#303030" stroke-linecap="round" stroke-linejoin="round"/>
<path d="M106.666 42.5809C103.58 34.7098 98.6084 27.7174 92.1866 22.2187C85.765 16.72 78.0907 12.8832 69.8385 11.0461C61.5862 9.20889 53.009 9.42748 44.8612 11.6826C36.7132 13.9378 29.2443 18.1604 23.111 23.9791C16.9778 29.7978 12.3682 37.0344 9.68771 45.0525C7.00719 53.0706 6.33783 61.6243 7.7385 69.9618C9.13916 78.2992 12.5669 86.1647 17.7204 92.8666C22.8738 99.5685 29.595 104.902 37.293 108.397C46.4649 112.488 56.6171 113.865 66.5476 112.365" stroke="#303030" stroke-linecap="round" stroke-linejoin="round"/>
<path d="M108.844 73.1168C107.276 79.8959 104.349 86.2863 100.24 91.9012C96.1307 97.5163 90.9248 102.239 84.9372 105.783C80.7993 108.226 76.3347 110.068 71.6777 111.252" stroke="#303030" stroke-linecap="round" stroke-linejoin="round"/>
<path d="M75.1125 24.4334C68.4245 21.4501 61.0505 20.3435 53.7814 21.2323C46.5125 22.1212 39.6225 24.9719 33.8502 29.4788C28.0782 33.9857 23.6417 39.9787 21.0166 46.8151C18.3914 53.6517 17.6767 61.0739 18.949 68.2856C20.2213 75.4975 23.4326 82.227 28.2386 87.7525C33.0447 93.278 39.2641 97.3911 46.23 99.6507C53.1958 101.91 60.6454 102.231 67.7798 100.579C74.9142 98.9269 81.4643 95.3639 86.7277 90.2722C106.997 70.7619 101.466 36.1734 75.1125 24.4334Z" stroke="#303030" stroke-linecap="round" stroke-linejoin="round"/>
<path d="M38.3818 145.926L49.1259 154.442L60.0865 137.626" stroke="#303030" stroke-linecap="round" stroke-linejoin="round"/>
<path d="M132.46 153.403L122.006 154.733" stroke="#303030" stroke-linecap="round" stroke-linejoin="round"/>
<path d="M127.887 159.306L126.556 148.83" stroke="#303030" stroke-linecap="round" stroke-linejoin="round"/>
<path d="M72.9347 124.342C69.5465 122.105 65.9583 120.186 62.2161 118.611C59.2117 117.513 56.0928 116.758 52.9188 116.361C48.2486 115.787 47.7149 114.53 52.7979 113.844C54.6681 113.617 56.5532 113.536 58.4361 113.602C62.0062 113.648 65.5605 114.087 69.035 114.909" stroke="#303030" stroke-linecap="round" stroke-linejoin="round"/>
</svg>
