<svg width="257" height="256" viewBox="0 0 257 256" fill="none" xmlns="http://www.w3.org/2000/svg">
<path d="M20.5586 13.4029H79.4924L72.4908 6.39999H10.334V110.844H20.5573L20.5586 13.4029Z" fill="#E5DFD5"/>
<path d="M79.4924 13.4029L72.4908 6.39999H10.334V110.844H20.5573" stroke="#303030" stroke-linecap="round" stroke-linejoin="round"/>
<path d="M30.7999 20.4224H89.7336L82.7141 13.4029H20.5586V117.847H30.7999V20.4224Z" fill="#E5DFD5"/>
<path d="M89.7336 20.4224L82.7141 13.4029H20.5586V117.847H30.7999" stroke="#303030" stroke-linecap="round" stroke-linejoin="round"/>
<path d="M116.452 63.2038V43.9194L92.9553 20.4224H30.7998V124.867H59.6587" stroke="#303030" stroke-linecap="round" stroke-linejoin="round"/>
<path d="M60.1934 44.3341H88.5185" stroke="#303030" stroke-linecap="round" stroke-linejoin="round"/>
<path d="M60.1934 56.6592H88.5185" stroke="#303030" stroke-linecap="round" stroke-linejoin="round"/>
<path d="M60.1934 69.4886H88.5185" stroke="#303030" stroke-linecap="round" stroke-linejoin="round"/>
<path d="M116.453 124.232V85.7421" stroke="#303030" stroke-linecap="round" stroke-linejoin="round"/>
<path d="M81.5098 124.867H116.22" stroke="#303030" stroke-linecap="round" stroke-linejoin="round"/>
<path d="M243.015 228.328L209.174 194.486C204.13 201.144 198.129 207.02 191.366 211.923L225.396 245.949C227.733 248.286 230.903 249.599 234.207 249.599C237.512 249.6 240.682 248.287 243.019 245.95C245.356 243.613 246.669 240.444 246.669 237.139C246.669 233.834 245.356 230.665 243.019 228.328H243.015Z" fill="#008765"/>
<path d="M243.015 228.328L209.174 194.486C204.13 201.144 198.129 207.02 191.366 211.923L225.396 245.949C227.733 248.286 230.903 249.599 234.207 249.599C237.512 249.6 240.682 248.287 243.019 245.95C245.356 243.613 246.669 240.444 246.669 237.139C246.669 233.834 245.356 230.665 243.019 228.328H243.015Z" stroke="#303030" stroke-linecap="round" stroke-linejoin="round"/>
<path d="M141.899 59.296C130.824 59.2962 119.857 61.4777 109.625 65.7162C99.3932 69.9546 90.0962 76.1669 82.265 83.9983C74.4338 91.8298 68.2218 101.127 63.9837 111.359C59.7455 121.591 57.5643 132.558 57.5645 143.633C57.5646 154.708 59.7462 165.675 63.9846 175.907C68.2231 186.139 74.4354 195.436 82.2668 203.267C90.0982 211.099 99.3955 217.311 109.628 221.549C119.86 225.787 130.827 227.968 141.902 227.968C152.977 227.968 163.944 225.786 174.176 221.548C184.408 217.309 193.705 211.097 201.536 203.266C209.367 195.434 215.579 186.137 219.817 175.905C224.055 165.673 226.237 154.706 226.236 143.631C226.236 132.556 224.055 121.589 219.816 111.357C215.578 101.125 209.366 91.8277 201.534 83.9965C193.703 76.1653 184.405 69.9533 174.173 65.7152C163.941 61.4771 152.974 59.2958 141.899 59.296ZM141.899 206.852C127.273 206.853 113.099 201.782 101.792 192.503C90.485 183.225 82.7451 170.313 79.891 155.968C77.0368 141.623 79.2449 126.732 86.1391 113.832C93.0333 100.932 104.187 90.8224 117.7 85.2244C131.213 79.6265 146.248 78.8871 160.245 83.1322C174.242 87.3774 186.334 96.3444 194.46 108.505C202.587 120.666 206.245 135.269 204.812 149.825C203.38 164.381 196.944 177.99 186.602 188.333C174.746 200.188 158.666 206.848 141.899 206.848V206.852Z" stroke="#303030" stroke-linecap="round" stroke-linejoin="round"/>
<path d="M182.624 44.6464H197.133" stroke="#303030" stroke-linecap="round" stroke-linejoin="round"/>
<path d="M189.878 51.9027V37.3939" stroke="#303030" stroke-linecap="round" stroke-linejoin="round"/>
<path d="M33.2139 234.67L43.4731 244.929" stroke="#303030" stroke-linecap="round" stroke-linejoin="round"/>
<path d="M33.2139 244.929L43.4731 234.67" stroke="#303030" stroke-linecap="round" stroke-linejoin="round"/>
<path d="M40.8584 155.524L46.0898 160.756" stroke="#303030" stroke-linecap="round" stroke-linejoin="round"/>
<path d="M40.8584 160.756L46.0898 155.524" stroke="#303030" stroke-linecap="round" stroke-linejoin="round"/>
<path d="M236.714 204.909L241.2 212.307L246.475 201.254" stroke="#303030" stroke-linecap="round" stroke-linejoin="round"/>
<path d="M226.235 20.4224H234.148" stroke="#303030" stroke-linecap="round" stroke-linejoin="round"/>
<path d="M230.191 24.3802V16.4659" stroke="#303030" stroke-linecap="round" stroke-linejoin="round"/>
</svg>
