<svg width="361" height="400" viewBox="0 0 361 400" fill="none" xmlns="http://www.w3.org/2000/svg">
<path d="M319.696 225.513C319.077 225.802 318.454 226.081 317.863 226.379C315.114 224.166 313.052 226.672 310.752 227.703C310.01 228.033 308.97 228.349 308.342 228.001C305.804 226.585 304.104 229.279 301.928 229.508L297.388 227.772C294.808 228.12 293.113 230.237 290.68 230.218C286.579 230.182 286.602 230.415 282.465 233.815C282.584 235.061 283.033 236.564 281.778 237.288C280.041 238.314 278.323 239.515 276.147 238.827C274.74 238.369 272.999 238.855 272.376 240.202C271.46 242.103 270.2 242.951 268.747 244.037C267.405 245.022 266.535 246.868 265.449 248.325C264.908 249.049 264.473 250.071 263.786 250.414C261.665 251.493 259.841 253.074 258.471 255.019C257.069 256.879 254.173 256.508 251.713 259.536C251.09 261.827 250.15 265.323 249.33 268.347C244.446 270.464 243.489 269.41 237.303 266.02C236.612 266.936 236.016 268.517 235.219 268.663C231.448 269.364 230.61 273.139 229.231 275.902C227.622 276.686 226.344 277.735 224.988 277.895C219.49 278.546 219.49 278.427 215.921 281.281C214.226 283.728 216.278 287.315 214.019 289.606C212.498 289.688 212.645 286.857 211.06 287.169L205.411 289.918C204.091 293.849 200.829 294.847 197.947 295.645C194.373 296.639 192.096 299.635 189.7 302.059C187.776 304.119 185.579 305.908 183.171 307.374C183.125 308.702 183.212 309.665 183.029 310.581C182.713 312.152 181.311 312.129 180.33 312.656C180.072 312.769 179.791 312.821 179.509 312.809C179.228 312.797 178.952 312.721 178.704 312.588C176.679 311.438 175.084 314.251 172.954 313.202C170.572 312.029 168.757 314.649 166.604 315.149C165.577 315.387 164.395 314.691 163.36 314.874C162.682 315.007 162.146 316.038 161.527 316.642C161.184 316.972 160.794 317.243 160.391 317.559C159.571 316.212 158.787 314.92 157.981 313.586C155.406 313.527 153.294 316.418 150.568 314.828C150.018 314.512 148.841 315.039 148.231 315.589C145.748 317.834 142.761 315.089 140.113 316.885C139.251 317.472 137.4 316.299 136.539 314.805C135.943 313.77 135.98 312.18 134.605 311.813C131.641 312.354 129.107 315.524 125.754 313.719C123.11 314.952 120.256 315.804 117.878 317.517C115.275 319.391 112.38 317.307 109.837 319.176C107.065 321.219 103.166 321.197 101.521 325.325L88.917 331.569C85.9802 330.456 82.9609 333.159 79.9874 331.166C78.7732 330.351 77.3392 329.961 76.0242 329.389C71.832 331.427 67.2503 332.252 64.3318 336.866C63.7408 337.782 62.128 338.763 61.3216 338.469C57.6563 337.141 54.9073 340.215 51.3244 341.012L43.4348 336.518C41.5426 337.434 39.9023 337.718 38.986 338.809C37.7051 340.427 36.2535 341.904 34.6563 343.211C33.4193 344.174 33.0298 346.593 32.2555 348.38C29.8364 349.557 27.5089 350.84 25.0852 351.816C23.8069 352.329 22.2492 350.56 21.0625 351.862C20.0866 352.925 19.5368 354.327 18.2448 355.289C16.3712 356.775 14.8253 358.633 13.7044 360.746C12.2337 363.417 8.83864 362.734 7.78028 365.969C6.98307 368.415 4.2249 367.751 2.15399 370.633C1.77371 371.838 1.19183 373.84 0.5 375.947H319.696V225.513Z" fill="#98AB4A"/>
<path d="M274.602 0.0766144L291.156 0.992948L296.09 18.4033L289.406 32.5057L273.494 35.6899L260.44 24.5611V11.1734L274.602 0.0766144Z" fill="#FF3414"/>
<path d="M103.725 152.719C102.621 152.994 91.2812 152.719 91.2812 152.719L93.2376 162.675L108.999 178.711L120.613 171.798L113.145 157.695L103.725 152.719Z" fill="#00B384"/>
<path d="M57.3586 98.6924L98.7128 135.557L96.7564 152.719L78.7459 140.619L52.2959 98.6924H57.3586Z" fill="#BBB0A4"/>
<path d="M113.956 157.471C115.083 156.623 125.777 145.558 125.777 145.558L195.867 137.678V142.461C195.867 142.461 132.988 165.457 132.145 165.457C131.302 165.457 113.956 157.471 113.956 157.471Z" fill="#BBB0A4"/>
<path d="M50.7881 222.049L76.7982 165.457L93.2785 162.955L87.6522 182.656L50.7881 226.553V222.049Z" fill="#BBB0A4"/>
<path d="M93.2783 323.904H115.953L104.613 174.588H97.9791L93.2783 323.904Z" fill="#00277B"/>
<path d="M67.8274 392.73C67.6741 391.934 67.7229 391.111 67.9694 390.339C68.2672 389.482 67.5113 388.712 67.9694 387.924C67.9694 386.05 67.7403 384.172 68.1298 382.311C67.6212 380.52 68.3909 378.724 68.1618 376.978C67.9969 375.718 68.2443 374.5 68.084 373.249C67.9373 372.117 68.3085 370.921 68.2031 369.781C68.0732 368.81 68.0855 367.825 68.2397 366.857C68.2492 366.718 68.2965 366.584 68.3765 366.469C68.4565 366.355 68.5662 366.264 68.6939 366.207C68.8215 366.15 68.9622 366.129 69.1009 366.146C69.2397 366.163 69.3712 366.217 69.4814 366.303C70.2053 366.812 70.8559 367.398 71.5706 367.957C72.6106 367.581 73.5178 367.499 74.0447 368.791C74.133 368.948 74.257 369.082 74.4066 369.182C74.5562 369.282 74.7273 369.346 74.9061 369.368C76.6425 369.368 78.0262 370.381 79.6069 370.931C79.8716 371.494 80.1924 372.03 80.5644 372.53C80.9958 372.988 81.5065 373.365 82.0718 373.643C82.9771 374.073 83.7056 374.803 84.1335 375.709C84.3076 375.751 84.5092 375.865 84.6467 375.81C85.1873 375.604 85.7142 376.195 86.2457 375.81C86.8917 375.324 87.556 374.825 87.8218 374.046C88.1837 372.969 89.0038 372.745 89.9523 372.722C91.8766 372.676 94.2773 371.435 94.8501 369.478C95.1058 368.688 95.4293 367.922 95.8168 367.187C96.1467 366.523 95.519 365.666 96.275 365.103C97.2142 364.718 98.158 364.342 99.0835 363.939C99.9128 363.582 100.815 363.389 101.31 362.441C101.475 362.125 102.126 362.065 102.685 361.841L103.752 359.38C103.679 359.114 103.592 358.858 103.532 358.601C103.39 357.964 103.592 357.616 104.128 357.749C104.957 357.96 105.397 357.598 106.038 357.121C107.013 356.44 107.694 355.416 107.944 354.253C108.022 353.561 108.297 352.906 108.737 352.366C109.195 351.843 109.195 350.991 109.777 350.478C110.693 350.331 111.317 351.115 112.334 351.225C113.099 350.913 114.13 350.666 114.936 350.098C115.655 349.589 116.191 348.829 117.227 348.645C118.4 349.36 119.976 349.406 120.892 350.703C121.735 350.102 122.51 350.212 123.032 350.785C123.82 351.666 124.818 352.334 125.932 352.728C126.537 352.938 126.757 353.717 127.462 353.786C127.989 353.841 128.548 353.644 129.034 354.001C129.52 354.359 130.097 353.937 130.587 353.969C131.563 354.038 132.608 353.942 133.336 354.583C135.224 353.804 136.937 353.103 138.646 352.389C139.311 352.109 140.021 351.93 140.424 351.188C140.557 350.922 141.024 350.808 141.34 350.666C142.257 350.267 143.223 349.882 144.259 349.456C144.744 348.453 146.22 348.004 146.119 346.519C146.444 345.86 147.287 346.015 147.704 345.539C148.41 344.728 149.079 343.871 149.885 342.85C150.215 342.565 150.765 343.271 151.26 342.955C151.718 342.689 152.139 342.877 152.584 342.868C153.029 342.781 153.463 342.641 153.876 342.451C155.081 342.098 156.125 341.163 157.541 341.493C157.839 341.562 158.247 341.296 158.563 341.113C159.61 340.563 160.785 340.304 161.967 340.362C163.077 340.407 164.177 340.125 165.128 339.551C165.614 338.13 166.31 336.774 167.799 336.032C168.528 335.01 169.417 334.066 169.944 332.953C170.576 331.611 171.318 330.461 172.693 329.746C172.303 328.798 171.95 327.95 171.643 327.208C171.687 326.872 171.797 326.548 171.967 326.254C172.137 325.961 172.363 325.704 172.633 325.499C172.997 325.24 173.28 324.882 173.449 324.468C173.593 323.951 173.606 323.406 173.485 322.883C173.348 322.314 173.1 321.824 173.838 321.508C173.898 321.481 173.925 321.343 173.939 321.256C174.003 320.72 173.407 320.239 173.806 319.685C174.113 319.226 174.443 318.828 174.759 318.397C174.812 318.32 174.853 318.235 174.878 318.145C175.103 317.453 175.643 316.835 175.501 316.061C175.295 314.97 176.592 315.327 176.876 314.558C177.082 313.948 177.792 313.513 178.278 312.986C178.403 312.811 178.51 312.624 178.598 312.427L181.347 311.3C181.489 310.842 181.682 310.21 181.874 309.587L183.854 307.868L184.632 308.056C184.875 307.543 184.335 307.14 184.422 306.746C184.596 305.958 184.422 305.124 184.843 304.354C185.22 303.644 185.764 303.035 186.428 302.581C187.244 302.045 187.656 301.505 187.203 300.57C187.113 300.357 187.09 300.122 187.135 299.896C187.181 299.669 187.294 299.462 187.459 299.301C187.83 298.806 188.376 298.449 188.733 297.926C189.242 297.189 189.952 296.584 190.195 295.663C190.378 295.151 190.747 294.727 191.23 294.476C191.607 294.213 191.897 293.844 192.064 293.416C192.231 292.988 192.268 292.52 192.169 292.071C192.096 291.613 192.728 291.374 193.131 291.759C193.393 292.011 193.525 292.218 193.993 292.218C194.403 292.179 194.817 292.246 195.195 292.412C195.572 292.578 195.901 292.838 196.151 293.166C196.824 294.11 197.846 294.884 197.947 296.135C197.936 296.876 197.854 297.614 197.699 298.339C198.066 298.42 198.424 298.538 198.767 298.691C199.399 299.04 199.367 300.066 200.242 300.194C200.549 301.569 202.043 302.233 202.309 303.653C202.345 303.932 202.459 304.196 202.638 304.413C202.817 304.63 203.054 304.792 203.321 304.881C203.321 304.881 203.234 305.216 203.184 305.404C203.298 305.82 203.729 305.775 204.013 305.94C204.792 306.398 205.745 306.462 206.34 307.314C206.499 307.486 206.703 307.608 206.928 307.667C207.154 307.727 207.392 307.72 207.614 307.649C207.841 307.585 208.082 307.596 208.303 307.678C208.523 307.76 208.712 307.91 208.842 308.107C209.392 309.61 210.862 309.527 211.866 310.114C212.965 309.797 212.965 309.797 214.432 310.251C215.806 309.687 217.24 309.101 218.679 308.482C219.024 308.376 219.331 308.172 219.563 307.896C220.424 306.448 221.854 305.871 223.329 305.394C223.565 305.312 223.796 305.218 224.021 305.11C224.575 304.725 224.021 304.194 224.433 303.708C225.18 303.401 226.032 303.058 226.88 302.696C227.214 302.554 227.696 302.458 227.838 302.196C228.584 300.785 229.62 301.257 230.642 301.738L233.226 300.671C233.684 300.016 233.684 299.008 234.747 298.838C234.916 298.004 235.883 297.986 236.272 297.349C236.195 296.927 236.112 296.501 236.011 295.947C236.35 295.796 236.68 295.672 236.996 295.489C237.716 295.127 238.609 295.031 239.012 294.156C239.099 293.963 239.47 293.881 239.713 293.771C240.135 293.583 240.565 293.413 240.996 293.235C241.737 292.874 242.502 292.568 243.287 292.318C244.153 292.098 244.327 291.054 245.23 290.903C246.132 290.751 246.196 289.528 247.145 289.491C247.268 289.193 247.461 288.929 247.708 288.721C247.956 288.514 248.25 288.369 248.565 288.3C249.206 288.172 249.179 287.343 249.756 287.237C250.673 287.077 251.154 286.353 251.639 285.767C252.061 285.253 252.647 285.001 253.014 284.548C253.38 284.094 253.445 283.274 253.857 282.821C254.682 281.904 255.305 280.814 256.473 280.168C258.608 278.99 260.001 277.689 260.487 276.008C260.564 275.742 260.674 275.485 260.752 275.27C260.78 275.167 260.789 275.06 260.78 274.954C260.61 274.523 260.432 274.097 260.262 273.689C260.289 273.499 260.339 273.313 260.409 273.135C261.398 271.302 261.426 271.101 261.201 268.645C261.178 268.388 261.293 268.123 261.293 267.861C261.293 267.215 262.374 267.197 262.104 266.276C261.93 265.694 262.663 265.218 262.965 264.686C263.515 263.738 263.804 262.638 264.285 261.392C264.312 260.746 263.451 260.512 263.048 259.949C263.08 259.775 263.048 259.559 263.153 259.449C263.51 259.051 263.918 258.698 264.28 258.309C264.395 258.189 264.546 257.974 264.509 257.85C264.138 256.71 265.155 256.219 265.641 255.56C265.991 255.182 266.204 254.698 266.246 254.185C266.246 253.906 266.887 253.649 267.304 253.333C267.492 252.508 266.676 251.894 266.686 251.005C267.102 250.364 268.023 249.814 267.437 248.715C267.332 248.518 267.478 248.197 267.464 247.94C267.423 247.262 268.504 247.221 268.266 246.337C268.097 245.714 268.761 245.26 269.109 244.738C269.621 243.833 270.056 242.888 270.41 241.911L271.835 241.32C272.028 240.779 271.657 240.119 272.481 239.945C273.306 239.771 273.233 238.745 273.746 238.223L276.037 237.279C276.591 236.55 277.026 235.73 277.869 235.322C278.616 234.96 279.404 234.676 280.188 234.356C281.104 233.153 282.089 232.004 283.138 230.915C284.166 229.944 285.284 229.074 286.478 228.317C287.436 227.946 288.476 228.404 289.571 228.138C290.586 227.975 291.626 228.156 292.526 228.651C293.488 228.225 294.487 227.781 295.619 227.969C296.136 227.561 296.7 228.038 297.199 227.9C297.903 227.668 298.591 227.392 299.261 227.075L300.828 226.429C301.135 226.599 301.612 226.888 302.116 227.14C304.081 228.097 304.727 227.941 307.591 228.147C308.203 228.251 308.826 228.285 309.446 228.248C310.121 228.057 310.775 227.797 311.398 227.474C311.81 227.68 312.314 227.932 312.805 228.184C314.115 228.903 315.554 229.032 316.992 229.073C317.396 229.109 317.803 229.044 318.175 228.884C318.548 228.724 318.875 228.474 319.127 228.157C319.695 227.483 320.177 226.736 321.125 226.402C321.706 226.16 322.172 225.704 322.426 225.128C322.719 224.418 323.562 224.51 323.833 223.891C324.103 223.273 324.369 222.709 324.598 222.104C324.877 221.344 325.403 220.698 326.091 220.272C327.228 219.63 327.718 218.608 328.304 217.486C328.579 217.371 328.914 217.216 329.257 217.096C329.855 216.89 330.405 216.567 330.877 216.146C331.349 215.725 331.733 215.215 332.006 214.645C332.501 213.706 333.147 212.762 334.389 212.652L335.236 211.021L337.678 210.013C338.366 209.729 339.053 209.422 339.74 209.184C340.427 208.946 340.57 207.951 341.362 207.777C340.73 207.086 341.243 206.16 340.904 205.464C340.51 204.607 341.257 204.089 341.197 203.173L338.828 197.437C338.787 196.676 339.479 195.984 339.287 195.146C339.287 195.045 339.69 194.843 339.905 194.688C340.789 194.688 341.646 194.426 342.553 194.5C343.337 194.568 344.239 194.628 344.913 194.312C345.806 193.895 346.746 194.349 347.57 193.886C348.395 193.423 349.343 193.886 350.232 193.428C350.906 193.084 351.799 193.231 352.596 193.075C353.394 192.919 354.369 192.937 355.18 192.552C356.239 194.225 356.211 194.225 356.395 195.81C356.468 196.433 356.853 197.065 356.77 197.643C356.695 198.275 356.816 198.915 357.118 199.475C357.535 200.392 357.073 201.496 357.696 202.371C357.325 203.319 358.154 204.149 357.998 205.015C357.842 205.881 358.585 206.618 358.511 207.379C358.411 208.46 359.089 209.344 359.07 210.27C359.052 211.195 359.528 212.047 359.565 212.909C359.602 213.77 359.936 214.517 359.721 215.282C359.547 215.892 360.152 216.341 359.886 216.877C359.62 217.413 359.987 217.926 360.12 218.443C360.22 218.692 360.244 218.965 360.188 219.227C359.629 227.396 360.468 235.767 359.909 244.041C360.226 249.822 360.215 255.617 359.877 261.397C360.591 270.203 360.234 279.407 360.17 288.314C360.628 290.605 359.872 294.233 360.417 296.304C360.284 299.773 360.147 303.269 360.477 306.709C359.849 312.207 360.784 317.797 360.174 323.277C360.894 330.277 359.822 337.539 360.5 344.613C360.138 357.726 360.262 370.931 360.376 384.117C360.454 384.918 360.051 385.711 360.376 386.522C360.468 386.747 360.321 387.058 360.344 387.324C360.436 388.478 360.069 389.615 360.344 390.801C360.559 391.828 359.996 392.936 360.463 394.008C360.21 395.513 360.167 397.046 360.335 398.563C360.399 399.154 359.904 399.529 359.286 399.52C359.107 399.52 358.878 399.337 358.759 399.396C357.545 400.033 356.28 399.754 355.038 399.626C351.9 399.497 348.784 399.722 345.673 399.465C345.568 399.465 345.371 399.827 345.279 399.923C343.708 399.923 342.274 399.364 340.725 399.387C252.968 399.474 167.382 399.021 81.0226 398.347C79.868 398.347 78.6997 398.65 77.5405 398.347C77.2729 398.313 77.001 398.356 76.7571 398.471C76.2393 398.65 75.7903 398.851 75.1855 398.572C74.6851 398.352 74.1438 398.241 73.5973 398.246C73.0508 398.25 72.5115 398.371 72.015 398.599C71.8547 398.663 71.621 398.746 71.5065 398.677C70.5168 398.118 69.5913 398.393 68.6017 398.718C68.3632 398.745 68.1224 398.699 67.9106 398.586C67.6989 398.473 67.5262 398.299 67.415 398.086C67.7953 396.276 68.1573 394.544 67.8274 392.73Z" fill="#008765"/>
</svg>
