<svg width="360" height="272" viewBox="0 0 360 272" fill="none" xmlns="http://www.w3.org/2000/svg">
<path d="M268.304 68.8388C269.721 68.311 306.73 53.0053 305.341 50.6998C303.952 48.3942 300.929 37.7598 300.929 37.7598L292.438 36.6765C292.438 36.6765 280.036 43.371 279.679 44.084C279.323 44.7969 272.735 54.1535 272.735 54.1535L267.262 57.7831C267.702 38.4034 272.614 16.2736 272.614 15.8661C272.614 15.1578 269.105 3.82901 269.105 3.82901C269.105 3.82901 256.947 0.319731 256.429 0.495658C255.91 0.671585 250.41 10.7457 250.41 11.4541C250.41 12.1624 253.517 45.2506 253.517 45.2506C253.517 45.2506 243.244 39.9219 243.058 39.0376C242.873 38.1534 234.961 20.7967 234.961 20.7967L224.892 15.4634C224.892 15.4634 211.415 27.4635 211.767 27.9959C212.118 28.5283 220.586 39.1626 220.586 39.1626L236.48 53.0007L252.04 57.9915L253.244 84.7139L232.211 75.2879C232.211 75.2879 226.364 77.9268 226.364 78.4593C226.364 78.9917 226.669 98.6307 226.669 98.6307C226.669 98.6307 240.466 100.432 241.021 100.256C241.577 100.08 256.596 99.052 256.596 99.052C256.596 99.052 252.202 128.506 253.818 128.682C255.434 128.858 263.573 131.761 263.573 131.761L273.059 115.2L290.513 105.876L305.216 101.964C305.216 101.964 300.124 90.8528 299.925 90.3251C299.726 89.7973 293.207 86.95 293.207 86.95L278.499 97.0011L267.517 101.399L274.267 90.288L299.591 81.6768C299.591 81.6768 300.327 69.4731 300.152 68.5842C299.976 67.6953 296.624 64.3295 296.624 64.3295L276.61 73.6629L267.35 86.913C267.35 86.913 266.887 69.3527 268.304 68.8388Z" fill="#00B384"/>
<path d="M146.362 58.8806C145.839 60.0241 146.362 73.265 146.362 73.265H123.057L99.4916 83.9132L93.2091 106.927L87.4498 132.821C87.4498 132.821 82.7322 87.7836 83.2599 86.7327C83.7877 85.6818 106.302 62.2927 106.302 62.2927L146.362 58.8806Z" fill="#00873A"/>
<path d="M86.3989 147.478C86.6628 146.432 92.1628 59.5703 92.1628 58.8805C92.1628 58.1907 90.8526 24.158 90.5887 22.5793C90.3248 21.0006 83.2183 12.6301 83.2183 12.6301H78.9266L72.5238 28.0978L67.5469 50.0147L79.8525 141.455L86.3989 147.478Z" fill="#00873A"/>
<path d="M83.2186 155.071C83.2186 155.071 64.6675 71.2464 64.4036 69.6908C64.1397 68.1353 49.4822 47.6212 49.2183 46.7508C48.9544 45.8805 20.5884 37.7646 20.5884 37.7646L7.06055 44.4962V55.5703L13.6069 65.3297L41.8895 62.288L59.1674 96.4179L73.8342 155.071H83.2186Z" fill="#00873A"/>
<path d="M64.4033 130.247L51.3152 89.348C51.3152 89.348 34.491 71.6673 31.5095 73.4359C28.528 75.2044 4.19448 77.3017 4.19448 77.3017L0 86.4684L1.57408 95.8481H27.5002L64.4033 130.247Z" fill="#00873A"/>
<path d="M165.985 209.483C165.985 209.483 201.818 137.154 201.601 136.487C201.383 135.82 195.837 123.881 195.837 123.881L183.8 119.455L173.064 133.191C173.064 133.191 162.225 182.96 162.878 180.747C163.531 178.534 167.082 100.894 167.082 100.894L155.36 88.9497L140.758 91.1581L145.836 172.543L134.998 136.932L120.841 134.941L113.984 151.089L165.985 209.483Z" fill="#00B384"/>
<path d="M132.14 195.548H181.691L176.159 212.581L198.279 230.28L179.034 247.312L136.566 245.761L125.283 228.067L138.774 210.372L132.14 195.548Z" fill="#BBB0A4"/>
<path d="M43.2526 121.585H107.512V136.21L105.559 143.326L93.5215 158.789L92.7993 164.344C92.7993 164.344 106.086 191.4 106.086 192.608C106.086 193.817 103.911 214.109 102.702 214.831C101.494 215.553 93.9845 217.488 93.9845 217.488C93.9845 217.488 41.5628 218.215 41.3221 217.488C41.0813 216.761 31.1738 191.641 31.1738 191.641L36.2665 169.696L55.3499 157.34L34.3174 133.191L43.2526 121.585Z" fill="#FF3414"/>
<path d="M229.591 145.367L269.697 139.64L289.031 148.95L295.948 176.164L280.674 203.071H236.984L221.711 171.867L229.591 145.367Z" fill="#FF3414"/>
<path d="M248.211 155.413V124.598H271.822L277.572 155.413H248.211Z" fill="#FF3414"/>
<path d="M339.364 223.136L340.897 226.243L258.16 267.1L251.799 263.878L339.364 223.136Z" fill="#475211"/>
<path d="M321.19 213.025C321.19 213.025 316.431 236.507 315.792 236.595C315.153 236.683 309.861 238.387 309.861 238.387L318.829 212.359L321.19 213.025Z" fill="#475211"/>
<path d="M336.077 243.159C334.897 242.155 319.91 234.581 319.91 234.581L309.484 241.757L315.785 238.872L331.818 244.192L336.077 243.159Z" fill="#475211"/>
<path d="M315.388 254.34C315.388 254.34 292.638 246.831 292.24 247.345C291.841 247.859 287.744 251.604 287.744 251.604L314.777 256.72L315.388 254.34Z" fill="#475211"/>
<path d="M298.481 227.539C298.565 229.085 295.477 245.595 295.477 245.595L283.439 249.498L289.56 246.257L295.078 230.294L298.481 227.539Z" fill="#475211"/>
<path d="M359.004 212.303L359.999 223.058L351.393 230.817L341.402 230.979L335.068 222.752C335.068 222.752 336.3 212.826 337.763 212.104C339.226 211.382 344.43 208.132 345.434 208.317C346.439 208.502 359.004 212.303 359.004 212.303Z" fill="#FF3414"/>
<path d="M333.731 195.02L334.074 206.442L328.708 212.608L320.439 216.692L315.185 212.821L310.402 203.145C310.402 203.145 315.171 197.154 316.356 196.798C317.541 196.441 322.838 193.349 323.657 193.178C324.477 193.006 333.731 195.02 333.731 195.02Z" fill="#FF3414"/>
<path d="M355.736 247.081C354.921 246.35 345.481 238.748 344.847 238.826C344.213 238.905 338.097 239.887 338.097 239.887L331.819 244.187C331.819 244.187 331.018 248.553 330.893 248.757C330.768 248.961 333.338 256.026 333.338 256.026L339.532 262.127L349.106 260.808L355.879 253.826L355.736 247.081Z" fill="#FF3414"/>
<path d="M325.16 258.322L317.377 247.623L310.692 248.803L304.438 258.785L309.669 269.378C309.669 269.378 316.35 271.762 316.896 271.489C317.442 271.216 325.651 263.915 325.651 263.915L325.16 258.322Z" fill="#FF3414"/>
<path d="M302.501 216.576C300.228 215.65 292.575 213.983 291.941 214.293C291.306 214.603 285.496 220.432 285.496 220.432C285.496 220.432 286.394 229.076 286.672 229.849C286.95 230.622 291.265 234.77 291.265 234.77L301.765 232.164L303.728 225.965L302.501 216.576Z" fill="#FF3414"/>
</svg>
