<svg width="360" height="438" viewBox="0 0 360 438" fill="none" xmlns="http://www.w3.org/2000/svg">
<path d="M39.8026 326.258L38.9373 327.105L40.439 327.201C40.8739 328.314 42.0184 329.165 41.9589 330.365C42.2473 330.612 42.8471 330.589 42.7281 331.088C42.6914 331.225 42.8242 331.408 42.9249 331.546C43.2454 331.972 43.9459 332.15 44.097 332.709C44.1382 332.851 44.5548 332.928 44.7791 333.038C45.1362 333.203 45.5025 333.363 45.8504 333.546C46.1984 333.73 46.5967 333.977 46.9675 334.192C46.908 334.686 47.7183 334.494 47.7916 334.805C47.9244 335.387 48.4738 335.236 48.895 335.263C49.6916 336.295 50.4042 337.31 51.033 338.308C51.1795 338.331 51.3294 338.318 51.4697 338.27C51.6101 338.222 51.7367 338.141 51.8388 338.033C52.5072 338.138 52.3698 338.738 52.7864 338.995C53.1848 339.136 53.3587 338.784 53.7662 338.734C53.7982 339.228 53.8349 339.713 53.8623 340.139C54.1462 340.405 54.4667 340.29 54.723 340.363C54.8466 340.4 55.0435 340.487 55.0435 340.551C55.0367 340.886 55.1523 341.211 55.3686 341.467C55.5608 341.719 55.4739 342.108 55.5242 342.561L57.589 344.076C57.6211 344.699 57.6531 345.253 57.6897 345.88C57.9167 346.15 58.2225 346.342 58.5642 346.43C59.4157 346.741 59.9376 347.345 60.5465 347.918C60.4412 348.714 61.3615 349.021 61.7735 349.492C62.0161 349.909 61.627 350.44 62.0894 350.655C62.4123 350.785 62.6915 351.005 62.8942 351.288C63.0969 351.571 63.2148 351.906 63.234 352.253C63.2706 352.546 63.765 352.748 63.5544 353.292C64.0254 352.963 64.575 352.764 65.1477 352.716C65.6696 352.583 65.7062 352.134 65.9946 351.8C66.0816 351.969 66.164 352.12 66.2556 352.29C66.9469 352.601 67.8122 352.29 68.4669 352.496C69.1216 352.702 69.9136 352.798 70.5134 353.15C70.6825 353.027 70.8616 352.918 71.049 352.825C71.1766 352.782 71.3151 352.782 71.4427 352.825C71.7907 352.972 71.635 353.517 72.2348 353.471C72.575 353.487 72.9091 353.568 73.2191 353.709C73.4736 353.805 73.7523 353.816 74.0138 353.741C74.2753 353.666 74.5056 353.509 74.6704 353.292C75.1282 352.748 75.1282 352.748 75.7646 353.109H77.7653C79.0334 353.709 79.0334 353.709 79.679 354.432C80.0895 354.491 80.5078 354.404 80.8601 354.185L82.0688 355.046C83.1264 355.38 83.8268 354.744 84.683 354.817C85.3148 354.295 86.0977 354.501 86.7478 354.492C87.1369 354.68 86.9492 355.11 87.4528 355.142C87.6489 355.174 87.8334 355.256 87.9885 355.38C89.2017 356.186 89.2063 356.2 91.1429 356.447C91.4059 356.477 91.6543 356.583 91.8571 356.754C91.9453 356.808 92.045 356.841 92.1482 356.851C92.2514 356.86 92.3555 356.846 92.4522 356.808C92.759 356.754 93.139 356.515 93.3313 356.593C93.6563 356.726 94.0043 356.731 94.3018 356.831C94.505 356.922 94.7249 356.969 94.9474 356.969C95.1698 356.969 95.3898 356.922 95.5929 356.831C95.7197 356.778 95.8574 356.757 95.9944 356.768C96.1314 356.779 96.2638 356.823 96.3804 356.895C97.3418 357.513 98.0651 357.092 98.7336 356.52C99.2189 356.717 98.8297 357.124 99.0815 357.381C99.2775 357.608 99.458 357.848 99.6217 358.1L100.464 358.141L101.426 357.5C101.567 357.5 101.732 357.5 101.815 357.564C102.172 357.855 102.58 358.077 103.019 358.219C103.201 358.254 103.365 358.351 103.482 358.494C103.6 358.637 103.664 358.816 103.664 359.001C103.664 359.496 104.035 359.848 104.704 359.848C105.372 359.848 105.651 360.279 106.187 360.384C106.114 360.842 106.48 361.089 106.727 361.428C107.043 361.858 108.014 361.716 107.986 362.398C107.986 362.444 108.206 362.531 108.33 362.54C108.737 362.572 109.245 362.49 109.245 362.998C109.253 363.028 109.269 363.055 109.291 363.076C109.312 363.098 109.339 363.114 109.369 363.122C110.193 363.213 110.417 363.772 110.742 364.234C110.855 364.342 110.98 364.437 111.113 364.518C111.434 364.678 111.855 364.518 112.267 364.518C113.182 364.546 114.057 364.44 114.931 364.807C115.554 365.068 116.305 364.894 117.01 364.834C117.605 365.123 117.898 365.535 117.719 365.992C118.054 366.391 118.457 366.18 118.878 366.313C119.372 367.009 120.517 367.192 121.258 367.782C121.428 367.887 121.628 367.934 121.826 367.915C122.061 367.876 122.302 367.893 122.529 367.963C122.757 368.034 122.964 368.157 123.136 368.323C123.36 368.579 123.722 368.593 124.024 368.707C124.482 368.872 124.555 369.165 124.692 369.49C124.998 369.383 125.317 369.315 125.64 369.289C126.858 369.344 127.975 369.16 128.813 368.51C129.27 368.703 129.431 368.968 129.856 368.936C130.354 368.911 130.852 368.911 131.349 368.936C131.555 368.936 131.862 368.89 131.958 368.977C132.475 369.435 133.166 369.165 133.789 369.289C133.942 369.396 134.085 369.517 134.215 369.65C134.309 369.796 134.39 369.949 134.457 370.108C134.526 370.209 134.599 370.168 134.755 370.076C135.213 369.824 135.698 369.618 136.129 369.362C136.305 369.255 136.506 369.199 136.712 369.199C136.918 369.199 137.12 369.255 137.296 369.362C137.4 369.443 137.516 369.507 137.639 369.554C137.831 369.625 138.039 369.638 138.238 369.593C138.437 369.547 138.619 369.445 138.761 369.298C138.904 369.153 139.057 369.018 139.219 368.895C139.562 368.895 139.91 368.895 140.258 368.895C140.518 368.862 140.783 368.905 141.02 369.018C141.257 369.13 141.456 369.309 141.595 369.531C142.149 370.374 142.19 370.355 143.55 369.943C143.722 369.857 143.92 369.838 144.105 369.889C144.291 369.941 144.45 370.06 144.552 370.223C144.621 370.314 144.626 370.447 144.713 370.52C145.006 370.763 145.322 370.978 145.665 371.248H146.906C146.984 371.326 147.135 371.408 147.144 371.495C147.144 371.83 147.144 372.159 147.547 372.411C148.164 372.869 148.822 373.27 149.511 373.611C150.056 373.821 150.426 373.986 150.587 374.471C150.683 374.744 150.839 374.991 151.044 375.195C151.233 375.31 151.438 375.393 151.653 375.442C151.965 375.707 151.617 376.156 151.685 376.238C152.143 376.797 152.551 376.591 153.215 376.783C153.349 376.953 153.503 377.107 153.672 377.241C154.016 377.516 154.405 377.749 154.776 378.001C155.444 377.85 155.865 378.518 156.552 378.349C156.625 378.349 156.753 378.45 156.854 378.505C156.721 378.643 156.632 378.818 156.6 379.008C156.567 379.197 156.592 379.392 156.671 379.567C157.202 379.805 157.784 379.567 158.434 379.741C158.565 379.812 158.685 379.905 158.786 380.015C159.364 380.679 159.906 381.373 160.411 382.094C160.86 382.735 161.395 383.311 162 383.806C162.427 384.147 162.799 384.552 163.103 385.006C163.158 385.126 163.248 385.227 163.362 385.294C163.476 385.362 163.608 385.392 163.74 385.381C164.385 385.253 164.72 385.752 165.274 385.812C165.379 385.812 165.393 386.132 165.53 386.237C165.988 386.604 165.86 387.071 165.937 387.524C166.056 387.831 166.537 387.725 166.766 387.931C166.863 388.009 166.955 388.093 167.041 388.183C167.357 388.572 166.917 389.099 167.393 389.451C167.601 389.566 167.769 389.741 167.877 389.952C167.984 390.163 168.026 390.402 167.998 390.637C167.943 390.962 168.204 391.2 168.515 391.305C169.179 391.534 169.728 391.814 169.847 392.427C170.742 393.268 171.777 393.947 172.905 394.432C173.414 394.69 173.89 395.007 174.325 395.375C174.508 396.222 174.48 396.222 173.972 396.831L175.465 399.203H176.6C177.011 399.38 177.339 399.707 177.516 400.118C177.589 400.274 178.033 400.297 178.166 400.453C178.299 400.608 178.262 400.874 178.326 401.089C178.514 401.689 179.356 401.913 179.635 402.463C179.668 402.527 179.869 402.572 179.997 402.577C180.482 402.524 180.972 402.624 181.398 402.861C181.483 402.918 181.582 402.948 181.684 402.948C181.786 402.948 181.886 402.918 181.97 402.861C182.813 402.298 183.39 402.733 184.026 403.273C184.482 403.219 184.943 403.219 185.399 403.273C186.059 403.433 186.411 402.897 186.997 402.962C187.475 402.974 187.948 402.863 188.371 402.641C188.565 402.564 188.772 402.527 188.981 402.533C189.19 402.539 189.395 402.589 189.584 402.678C189.685 403.374 190.811 403.296 191.058 403.941C191.347 404.526 191.691 405.083 192.084 405.603C192.636 405.228 193.139 404.785 193.581 404.285C193.819 403.955 194.35 403.754 194.593 403.937C195.252 404.431 196.08 404.129 196.804 404.326C197.33 404.678 197.944 404.985 197.967 405.576C198.663 405.644 199.02 405.003 199.656 405.292C200.077 405.109 200.517 404.944 200.911 404.733C200.997 404.678 201.095 404.644 201.196 404.633C201.298 404.623 201.401 404.637 201.497 404.674C201.89 404.88 202.329 404.985 202.774 404.979C203.218 404.972 203.654 404.855 204.042 404.637C204.17 404.585 204.313 404.585 204.44 404.637C204.953 405.136 206.015 404.811 206.409 405.466C206.716 405.979 207.43 406.061 207.961 406.253C208.294 406.346 208.603 406.51 208.865 406.736C209.127 406.962 209.336 407.242 209.476 407.558L210.429 407.233L211.285 405.979C211.949 406.67 212.58 407.325 213.203 407.984C213.273 408.085 213.331 408.194 213.377 408.309C214.32 407.343 215.391 407.586 216.504 408.112C216.573 408.364 216.641 408.625 216.705 408.872C217.109 409.007 217.538 409.046 217.96 408.987C218.418 408.881 218.161 408.272 218.908 408.249C219.471 408.249 220.006 407.833 220.569 407.631C220.885 407.517 220.757 407.238 220.991 407.068L222.543 407.686C222.625 407.686 222.721 407.709 222.758 407.686C223.023 407.499 223.275 407.302 223.559 407.087C224.079 406.935 224.635 406.961 225.139 407.16C225.395 407.248 225.664 407.292 225.935 407.288C226.43 407.288 226.929 407.288 227.432 407.288C227.555 407.496 227.693 407.695 227.844 407.883C227.954 407.957 228.089 407.985 228.22 407.961C228.468 407.858 228.709 407.741 228.943 407.608L230.939 408.442C231.108 408.539 231.286 408.618 231.47 408.68C231.731 408.726 232.029 408.57 232.276 408.758L233.041 409.321H235.467C235.865 409.133 235.668 408.661 236.177 408.698C236.955 408.744 237.381 408.433 237.44 407.86C237.466 407.677 237.543 407.505 237.663 407.365C237.783 407.225 237.941 407.122 238.118 407.068C238.865 406.829 239.576 406.49 240.233 406.061C240.393 405.942 240.759 405.997 241.007 405.979C241.106 406.067 241.199 406.162 241.286 406.262C241.62 406.72 242.005 406.775 242.096 406.414C242.234 405.882 242.939 405.699 243.049 405.15C243.126 404.788 243.712 404.642 244.184 404.504C245.026 404.266 245.512 403.735 245.557 403.067C245.64 402.536 245.863 402.037 246.203 401.62C246.599 401.629 246.995 401.609 247.389 401.561C247.714 401.497 247.961 401.231 248.414 401.327C248.474 401.446 248.501 401.643 248.643 401.73C248.925 401.892 249.221 402.029 249.527 402.138C249.646 402.188 249.833 402.266 249.902 402.229C250.712 401.808 251.816 401.904 252.516 401.313C252.947 400.943 253.372 400.567 253.789 400.201C254.352 400.553 254.755 400.759 255.396 400.43C256.103 400.071 256.854 399.806 257.63 399.642C257.806 399.619 257.974 399.555 258.121 399.456C258.268 399.357 258.39 399.225 258.477 399.07C258.857 398.525 259.228 398.489 260.052 398.777C260.334 398.902 260.641 398.963 260.949 398.956C261.258 398.948 261.561 398.873 261.838 398.736C262.04 398.614 262.276 398.56 262.511 398.58C262.746 398.601 262.969 398.695 263.147 398.85C263.339 399.011 263.554 399.239 263.788 399.262C264.585 399.331 264.658 399.903 265.056 400.302H266.942C267.148 400.302 267.446 400.302 267.538 400.366C268.082 400.892 268.517 400.476 268.993 400.306C269.082 400.296 269.171 400.296 269.259 400.306C269.305 400.444 269.36 400.595 269.396 400.764C269.433 400.933 269.328 401.176 269.579 401.222C270.188 401.281 270.156 401.785 270.495 401.982C271.049 402.298 271.054 402.898 271.594 403.177C272.121 403.419 272.66 403.633 273.21 403.818C273.218 403.999 273.241 404.18 273.279 404.358C273.303 404.433 273.345 404.502 273.402 404.558C273.459 404.613 273.528 404.655 273.604 404.678C273.679 404.701 273.76 404.706 273.838 404.692C273.916 404.678 273.99 404.645 274.052 404.596C274.164 404.532 274.268 404.454 274.359 404.363C274.496 404.175 274.602 403.978 274.757 403.731C275.545 403.52 276.401 403.827 277.211 403.662L278.186 404.335C278.782 404.399 279.134 403.96 279.789 404.001C281.126 404.088 281.13 404.001 282.453 404.71C282.797 404.894 283.177 405.026 283.516 405.214C283.72 405.34 283.958 405.399 284.197 405.385C284.436 405.37 284.665 405.282 284.852 405.132C284.997 405.041 285.162 404.986 285.332 404.971C285.503 404.957 285.674 404.984 285.832 405.049C286.153 406.565 286.134 406.56 285.663 408.254C285.585 408.529 285.507 408.913 286.121 409.064C286.336 409.093 286.535 409.196 286.68 409.357C286.826 409.518 286.91 409.726 286.917 409.943C286.917 410.136 287.146 410.333 287.297 410.516C287.448 410.699 287.691 410.781 287.682 410.905C287.613 412.081 288.726 412.905 289.106 413.949C289.376 414.178 289.769 414.05 290.099 414.16C290.589 415.076 291.596 415.153 292.663 415.163C293.157 415.543 293.858 415.817 293.766 416.499C293.766 416.531 294.934 417.768 294.97 417.79C295.758 418.28 295.758 418.28 296.051 419.082C296.536 419.191 297.177 419.082 297.323 419.681C297.323 419.736 297.562 419.782 297.69 419.787C298.656 419.787 299.278 420.341 299.979 420.753L300.331 420.162C300.913 420.505 300.359 421.05 300.743 421.407C302.034 421.59 302.034 421.581 302.918 421.215C303.261 421.673 303.495 422.254 303.985 422.588C304.475 422.923 305.024 423.115 305.468 423.454L307.602 423.545C307.959 424.003 307.647 424.539 307.853 425.006L309.405 425.853L310.99 425.917C311.365 426.269 311.054 426.796 311.594 426.993C312.134 427.19 312.738 427.634 313.498 427.524C313.956 427.322 313.608 426.887 313.956 426.567L315.252 427.551C315.664 427.652 315.888 427.377 316.195 427.263C316.694 427.231 316.891 427.597 317.248 427.762C317.559 427.854 317.854 427.993 318.122 428.174C318.33 428.351 318.574 428.481 318.838 428.554C319.101 428.627 319.377 428.641 319.647 428.595H319.858C319.899 428.595 321.103 428.595 321.185 428.595C321.643 429.245 322.069 429.904 322.499 430.55C322.984 430.651 323.456 430.582 323.873 430.939C324.342 431.27 324.84 431.558 325.361 431.8C325.615 431.908 325.894 431.943 326.166 431.901C326.54 431.908 326.907 432.003 327.238 432.176C327.569 432.349 327.856 432.596 328.075 432.899L328.89 432.349C329.053 432.417 329.199 432.518 329.319 432.646C329.44 432.773 329.533 432.925 329.591 433.091C329.672 433.276 329.812 433.429 329.99 433.525C330.167 433.622 330.371 433.658 330.571 433.627C331.121 433.616 331.667 433.733 332.164 433.97C332.599 434.139 333.079 434.235 333.51 434.359C333.94 434.483 334.65 434.57 334.718 435.142C335.176 435.449 335.442 435.939 336.151 436.058C336.513 436.131 336.76 436.515 337.099 436.712C337.658 437.085 338.31 437.294 338.981 437.317C339.182 437.338 339.386 437.307 339.572 437.227C339.758 437.146 339.92 437.02 340.043 436.859C340.341 436.373 340.613 435.872 340.858 435.357C341.045 435.32 341.239 435.344 341.412 435.426C341.71 435.581 342.044 435.654 342.379 435.638C342.715 435.621 343.04 435.514 343.321 435.33C343.834 435.028 343.834 435.028 344.694 434.913C345.281 434.028 345.792 433.095 346.224 432.125C346.545 431.207 347.031 430.356 347.657 429.611C347.752 429.583 347.854 429.577 347.952 429.594C348.051 429.612 348.144 429.652 348.224 429.712C348.317 429.783 348.425 429.83 348.54 429.85C349.09 429.296 350.133 429.877 350.646 429.268C351.342 429.167 351.676 428.723 352.134 428.279C352.161 427.851 352.161 427.421 352.134 426.993C352.061 426.384 352.56 425.963 352.857 425.482C352.937 425.372 353.045 425.286 353.171 425.234C353.296 425.182 353.433 425.167 353.567 425.189C353.975 425.239 354.203 424.983 354.515 424.9C354.659 424.867 354.793 424.801 354.907 424.707C355.021 424.613 355.113 424.495 355.174 424.36C355.527 423.815 355.632 423.202 355.984 422.685C356.142 422.378 356.372 422.115 356.656 421.919C356.94 421.724 357.267 421.601 357.61 421.563C357.967 421.737 358.022 422.154 358.269 422.437L359.999 421.522V321.469C318.837 321.41 278.049 320.897 237.106 321.803C191.864 323.488 146.347 323.598 100.981 324.797L77.1243 324.852C76.6985 324.852 76.1537 324.724 75.8745 324.884C75.0779 325.342 74.2217 325.141 73.4068 325.145C65.6696 325.177 57.9278 325.177 50.1906 325.191C49.7782 325.13 49.3576 325.153 48.9545 325.26C48.3501 325.594 47.7275 325.48 47.1232 325.484C44.4953 325.512 41.8674 325.484 39.2395 325.521C38.7412 325.463 38.2366 325.499 37.7515 325.626C37.7515 325.773 37.7195 325.933 37.7012 326.084C38.3375 326.23 39.0655 326.006 39.8026 326.258Z" fill="#CEA01F"/>
<path d="M2.44936 321.922L257.301 323.777C257.8 321.487 257.654 282.293 257.205 274.194C254.966 274.194 252.727 274.222 250.489 274.194C249.765 274.194 249.422 273.489 248.552 273.604C247.838 273.7 246.991 273.361 246.405 273.782C245.677 274.309 244.784 274.171 243.905 274.213C243.191 274.249 242.459 274.062 241.753 274.409C240.38 275.092 238.549 275.247 237.422 275.98C234.465 275.98 231.75 275.98 229.035 275.98C228.324 275.977 227.616 276.093 226.943 276.323C225.569 276.781 219.49 276.818 218.185 276.323C217.145 275.925 216.184 276.062 215.181 276.007C214.179 275.952 212.851 276.172 212.128 275.838C211.18 275.38 210.118 275.577 209.253 275.234C208.755 274.994 208.221 274.839 207.673 274.776C205.279 274.593 204.18 274.231 202.637 273.297C202.179 273.027 201.763 272.752 201.218 272.413H199.542H196.841C196.113 271.585 194.515 272.097 193.677 271.553C192.762 270.962 191.288 271.507 190.473 270.724C189.905 270.175 189.049 269.808 188.774 269.058C188.632 268.668 187.836 268.412 187.108 268.192C186.032 267.867 184.407 267.826 184.283 266.681L180.19 265.853H176.115C175.282 265.528 174.563 264.809 173.442 265.61C173.056 265.779 172.635 265.854 172.215 265.83C171.356 265.78 170.498 265.922 169.701 266.246C169.257 266.453 168.763 266.53 168.277 266.467C167.791 266.405 167.332 266.206 166.954 265.894C166.634 265.676 166.303 265.476 165.961 265.294L165.242 265.688C164.285 265.638 164.001 264.965 163.04 264.662H159.762L157.674 263.463C156.832 263.353 155.71 263.747 155.509 262.799C155.472 262.625 155.193 262.479 155.097 262.3C154.694 261.595 152.972 261.929 152.84 261.101C152.707 260.272 151.466 260.519 150.844 260.153C149.736 259.507 148.641 259.929 147.698 260.482C145.579 260.482 143.468 260.482 141.357 260.482C140.496 260.521 139.635 260.381 138.83 260.07C138.162 259.796 137.113 259.929 136.23 259.883C134.888 261.155 133.538 260.107 132.407 259.759C131.395 259.448 130.205 259.219 129.449 258.56C129.133 258.311 128.755 258.153 128.355 258.102C127.627 258.015 126.725 258.212 126.153 257.992C124.799 257.498 123.5 256.866 122.275 256.106C121.479 255.588 120.604 255.804 119.789 255.648C118.466 255.048 117.619 254.1 115.957 253.698C115.042 253.473 114.424 253.18 113.668 253.748C113.567 253.804 113.449 253.827 113.334 253.812C112.125 253.034 111.045 253.221 109.768 253.812C109.255 254.064 108.394 253.949 107.666 253.688C106.032 253.107 104.072 253.015 102.539 252.219C102.03 251.953 101.087 252.091 100.474 251.875C99.8903 251.621 99.3374 251.302 98.8257 250.923C96.8021 250.923 94.8381 250.868 92.874 250.923C91.4776 250.978 90.5849 249.971 89.1061 250.264C88.9917 250.264 88.6483 250.026 88.5613 249.861C87.6731 247.984 84.7293 247.549 82.8706 246.349C82.4787 246.202 82.0622 246.131 81.6436 246.139C79.7349 245.867 77.8579 245.407 76.0398 244.765C74.9379 244.224 73.7575 243.859 72.5421 243.685C71.5977 243.545 70.6747 243.287 69.7951 242.916C69.5067 242.806 69.4701 242.412 69.2183 242C68.0325 241.716 66.2653 242.321 65.2306 241.336H61.1743L58.1618 242.453L56.1062 241.336C54.6412 241.703 53.7713 240.499 52.32 240.732C51.97 240.804 51.6091 240.806 51.2584 240.737C50.9078 240.667 50.5745 240.529 50.2781 240.329C50.1043 240.208 49.901 240.137 49.6898 240.122C49.4786 240.108 49.2674 240.151 49.0786 240.247C48.4722 240.601 47.7801 240.781 47.078 240.769C45.9197 240.732 44.7888 240.645 43.6717 241.226C43.0903 241.524 41.9412 241.378 41.053 241.359C39.7665 241.327 38.9974 242.023 37.9123 242.275C37.6788 242.325 37.6651 242.792 37.5461 243.071C36.722 242.875 36.1955 242.238 35.1379 242.792C33.8652 243.47 32.1575 243.364 30.9214 242.957C29.612 242.527 28.0096 242.682 26.952 241.954C25.9403 242.055 25.5786 242.701 24.8277 242.998C24.6996 243.044 24.5576 243.14 24.4477 243.131C22.0488 242.884 19.9702 244.248 17.3149 243.589L15.4836 242.531H13.0296L10.1316 240.837C8.87261 240.654 7.38469 241.057 6.39579 240.183H3.02622C2.00985 240.833 2.78815 241.162 3.22766 241.556C3.22766 242.014 2.59586 242.128 2.16093 242.472C1.44437 242.566 0.719609 242.579 0 242.513L2.44936 321.922Z" fill="#004137"/>
<path d="M60.7803 298.225C62.5429 288.735 86.7205 178.23 86.7205 176.508C86.7205 174.787 96.0464 116.126 96.0464 116.126C96.0464 116.126 121.451 106.461 121.011 108.92C120.572 111.379 114.574 269.465 114.574 269.465L113.096 295.103L60.7803 298.225Z" fill="#C09259"/>
<path d="M182.731 312.981L111.512 311.667L113.709 113.091H141.847C141.847 113.091 151.297 119.995 151.297 122.632C151.297 125.269 165.146 234.295 165.146 234.295L182.731 312.981Z" fill="#C09259"/>
<path d="M111.361 77.1562L71.7959 125.516L113.993 115.842C113.993 115.842 164.99 129.911 164.111 128.153C163.232 126.395 141.678 77.1562 141.678 77.1562H111.361Z" fill="#A6361F"/>
<path d="M137.736 0.677002C137.736 0.677002 164.134 9.47178 164.125 11.6648C164.116 13.8577 150.93 86.8393 150.93 86.8393C150.93 86.8393 115.326 73.3381 117.967 71.0764C120.609 68.8148 137.736 0.677002 137.736 0.677002Z" fill="#FF3414"/>
<path d="M171.588 89.4673C168.95 92.9834 150.042 114.524 149.612 114.524C149.182 114.524 231.384 140.464 231.823 138.262C232.263 136.06 231.823 104.8 231.823 104.8L171.588 89.4673Z" fill="#FF3414"/>
<path d="M91.2299 79.7933C82.7831 78.4748 40.1415 64.4105 38.8229 67.0475C37.5044 69.6846 31.3467 91.6647 31.3467 91.6647L113.993 104.8V85.7588L91.2299 79.7933Z" fill="#FF3414"/>
<path d="M123.227 109.346L164.111 128.153L137.296 221.792L113.993 212.118L123.227 109.346Z" fill="#FF3414"/>
<path d="M174.605 291.303C174.605 288.231 178.693 235.394 178.693 235.394L161.396 238.411L169.482 291.303H174.605Z" fill="#A6361F"/>
<path d="M160.961 231.969H182.731V242.041L156.228 246.459L160.961 231.969Z" fill="#FF3414"/>
</svg>
