<svg width="200" height="200" viewBox="0 0 200 200" fill="none" xmlns="http://www.w3.org/2000/svg">
<path d="M69.6618 98.983L68.1693 80.9258L48.7578 90.5474L50.5727 112.362L62.246 106.582L61.864 105.931C59.8819 105.665 58.1277 104.593 58.3974 102.907C58.4531 102.689 58.5635 102.488 58.7188 102.325C58.9406 102.144 59.2086 102.029 59.4926 101.992C59.7765 101.955 60.0651 101.999 60.3257 102.117C61.6112 102.552 61.8948 102.287 61.7247 101.607C60.4749 98.4338 61.2142 92.1484 66.4907 95.9871C67.7046 96.9871 68.3912 97.5861 69.6618 98.983Z" fill="#E5DFD5"/>
<path d="M143.674 88.7135L138.23 67.5031L116.738 64.7817L121.407 82.9902C121.745 81.92 122.149 80.8719 122.617 79.852C123.3 78.3665 122.58 79.9396 125.226 74.7666C126.133 72.8572 135.491 77.2998 134.584 79.2092L133.527 81.5336C135.266 81.1555 138.837 84.1434 137.571 87.9622L143.674 88.7135Z" fill="#E5DFD5"/>
<path d="M76.6971 115.113C76.1299 125.492 73.3141 140.407 73.3141 140.407C68.8714 129.027 60.2129 117.721 60.2129 117.721C60.7741 117.455 61.3173 117.153 61.8387 116.813C66.1691 122.208 69.7788 128.143 72.5768 134.47C72.5768 134.47 74.9956 119.895 74.8444 114.371C75.3737 114.602 75.9976 114.848 76.6971 115.113Z" fill="#E5DFD5"/>
<path d="M121.329 95.3593C120.756 101.85 121.371 108.392 123.144 114.662C125.819 107.943 129.581 101.71 134.279 96.212C133.736 96.124 133.199 96 132.672 95.8408C132.672 95.8408 125.337 104.046 123.518 110.832C122.564 105.558 122.297 100.182 122.722 94.8389C122.122 95.1831 121.83 95.2627 121.329 95.3593Z" fill="#E5DFD5" stroke="#303030" stroke-linecap="round" stroke-linejoin="round"/>
<path d="M23.0078 103.724C23.2335 104.851 23.5691 105.952 24.0098 107.014C25.7301 105.426 25.3898 103.913 23.0078 103.724Z" fill="#008765"/>
<path d="M11.9675 111.442C8.88305 111.461 8.03531 109.76 10.5497 107.812C11.0462 109.154 11.5327 110.398 11.9675 111.442Z" fill="#008765"/>
<path d="M136.849 89.4329C137.148 88.9732 137.39 88.4777 137.567 87.9583C138.813 84.1455 135.266 81.1446 133.524 81.5296L134.58 79.2053C135.488 77.2959 126.13 72.8532 125.222 74.7626L123.559 78.0103C127.264 71.8851 130.535 78.3884 130.251 81.7913C130.27 82.4719 130.629 82.6231 131.688 81.8669C133.887 80.3217 135.469 84.0559 131.31 85.8559C131.02 86.1444 130.812 86.5026 130.705 86.8957C129.4 92.1314 130.27 95.8934 134.297 96.1959C135.828 95.1183 138.021 93.4169 140.687 91.3204C139.684 88.7901 136.83 89.4329 136.849 89.4329Z" fill="#008765"/>
<path d="M151.273 74.5168C152.128 74.4937 152.972 74.7098 153.711 75.1407C153.711 75.1407 152.747 76.5585 151.821 76.7854C150.894 77.0123 150.006 76.672 149.874 76.0481C149.703 75.4233 150.33 74.7357 151.273 74.5168Z" fill="#008765"/>
<path d="M39.0768 92.1921C38.2237 92.1282 37.3703 92.312 36.6191 92.7215C36.6191 92.7215 37.5266 94.1771 38.4529 94.4418C39.3793 94.7065 40.2678 94.404 40.4429 93.7801C40.6081 93.1752 39.9842 92.4578 39.0768 92.1921Z" fill="#008765"/>
<path d="M63.407 93.1562C61.9324 91.6438 54.5406 98.9034 56.0341 100.42L58.4161 102.915C58.5083 102.634 58.6901 102.391 58.9336 102.224C59.1772 102.056 59.469 101.973 59.7643 101.987C59.9603 101.997 60.1524 102.049 60.3255 102.14C61.6111 102.575 61.8946 102.291 61.7245 101.63C60.4389 98.4158 61.233 91.9881 66.6995 96.1661L63.407 93.1562Z" fill="#008765"/>
<path d="M124.844 90.0368C124.804 90.975 124.612 91.9007 124.277 92.778L127.302 89.6597C126.503 89.8914 125.677 90.0182 124.844 90.0368Z" fill="#008765"/>
<path d="M69.4747 107.978C68.6528 108.245 67.8031 108.416 66.9414 108.488L70.2309 109.641C69.7582 108.676 69.5523 108.167 69.4747 107.978Z" fill="#008765"/>
<path d="M95.6577 139.812L87.6608 137.43L86.1484 131.306L95.6577 139.812Z" fill="#008765"/>
<path d="M142.066 120.889L137.809 114.877C138.357 114.18 139.003 113.402 139.737 112.588C140.289 115.142 141.14 118.034 142.066 120.889Z" fill="#008765"/>
<path d="M66.6965 96.162L63.407 93.1342C61.9324 91.6218 54.5406 98.9052 56.0341 100.398H56.0152L58.3972 102.893" stroke="#303030" stroke-linecap="round" stroke-linejoin="round"/>
<path d="M62.253 106.579L50.5707 112.363L48.7559 90.5484L68.1703 80.9258L69.6638 99.0169" stroke="#303030" stroke-linecap="round" stroke-linejoin="round"/>
<path d="M26.5248 71.9269C26.5248 72.1256 26.4857 72.3222 26.4097 72.5057C26.3337 72.6892 26.2223 72.8559 26.0818 72.9964C25.9414 73.1368 25.7747 73.2482 25.5912 73.3242C25.4077 73.4002 25.211 73.4393 25.0124 73.4393C24.8138 73.4393 24.6171 73.4002 24.4336 73.3242C24.2501 73.2482 24.0834 73.1368 23.943 72.9964C23.8025 72.8559 23.6911 72.6892 23.6151 72.5057C23.5391 72.3222 23.5 72.1256 23.5 71.9269C23.5 71.5258 23.6593 71.1412 23.943 70.8575C24.2266 70.5739 24.6113 70.4146 25.0124 70.4146C25.4135 70.4146 25.7982 70.5739 26.0818 70.8575C26.3655 71.1412 26.5248 71.5258 26.5248 71.9269Z" stroke="#303030" stroke-linecap="round" stroke-linejoin="round"/>
<path d="M110.666 38.5615V46.5952" stroke="#303030" stroke-linecap="round" stroke-linejoin="round"/>
<path d="M114.674 42.5781H106.658" stroke="#303030" stroke-linecap="round" stroke-linejoin="round"/>
<path d="M171.217 115.085L176.302 121.853L180.991 113.119" stroke="#303030" stroke-linecap="round" stroke-linejoin="round"/>
<path d="M25.0117 104.764L32.516 126.485C47.451 121.966 55.8438 119.849 60.2108 117.713" stroke="#303030" stroke-linecap="round" stroke-linejoin="round"/>
<path d="M54.9757 139.427C46.9345 142.19 38.7017 144.359 30.3435 145.918C27.8947 146.305 25.3878 145.811 23.2692 144.523C21.1506 143.236 19.5579 141.238 18.7747 138.885L9.22266 110.482" stroke="#303030" stroke-linecap="round" stroke-linejoin="round"/>
<path d="M13.8959 101.361C13.2449 102.465 13.0165 103.768 13.2532 105.028" stroke="#303030" stroke-linecap="round" stroke-linejoin="round"/>
<path d="M16.4067 94.8439C16.2963 94.3872 15.8436 92.3365 15.4834 89.5087C15.0854 86.3138 16.7769 86.1257 17.752 89.1674C17.9997 89.9425 20.3629 98.2359 21.4763 98.5821C23.4454 99.195 27.4264 97.3752 28.3199 98.8806C28.9019 99.8657 25.6732 101.206 23.5747 102.363C23.1966 102.533 22.8563 102.662 23.0076 103.724C23.2358 104.85 23.5713 105.952 24.0095 107.014" stroke="#303030" stroke-linecap="round" stroke-linejoin="round"/>
<path d="M11.9679 111.442C9.88838 106.659 6.98298 96.9788 6.24071 94.749C4.38205 89.168 6.0626 86.3512 9.94509 96.1291C10.1262 96.6365 10.4555 97.0773 10.8903 97.3957" stroke="#303030" stroke-linecap="round" stroke-linejoin="round"/>
<path d="M11.0753 97.2964C10.6923 97.4954 10.3132 97.6944 9.9082 97.9202" stroke="#303030" stroke-linecap="round" stroke-linejoin="round"/>
<path d="M18.6094 95.9544C18.0143 95.8986 17.4154 95.8797 16.8184 95.8976" stroke="#303030" stroke-linecap="round" stroke-linejoin="round"/>
<path d="M15.127 99.3948C13.5569 95.7462 13.8414 96.3153 13.6345 95.8029C12.8544 93.8845 15.3717 92.7413 16.1488 94.2716C16.6394 95.2367 17.1349 96.8984 17.5856 98.1282C18.3249 100.149 15.9518 101.315 15.127 99.3948Z" stroke="#303030" stroke-linecap="round" stroke-linejoin="round"/>
<path d="M13.8961 101.361C13.57 101.413 13.2363 101.346 12.9554 101.172C12.6745 100.999 12.465 100.73 12.3648 100.416C11.723 98.998 11.3639 98.0338 10.8902 96.8239C10.136 94.8956 12.6335 93.7593 13.4046 95.2926C13.9508 96.5521 14.4303 97.8394 14.8414 99.1492C14.9464 99.3535 15.0051 99.5784 15.0132 99.808C15.0214 100.038 14.9788 100.266 14.8885 100.477C14.7983 100.689 14.6625 100.877 14.491 101.03C14.3195 101.183 14.1163 101.296 13.8961 101.361Z" stroke="#303030" stroke-linecap="round" stroke-linejoin="round"/>
<path d="M55.1451 134.461L54.2188 161.438" stroke="#303030" stroke-linecap="round" stroke-linejoin="round"/>
<path d="M76.6951 115.113C76.128 125.492 73.3121 140.407 73.3121 140.407C68.8694 129.027 60.2109 117.721 60.2109 117.721C60.7721 117.455 61.3154 117.153 61.8368 116.813C66.1672 122.208 69.7769 128.143 72.5748 134.47C72.5748 134.47 74.9937 119.895 74.8424 114.371C75.3718 114.602 75.9956 114.848 76.6951 115.113Z" stroke="#303030" stroke-linecap="round" stroke-linejoin="round"/>
<path d="M61.8558 116.805C62.4061 116.442 62.9025 116.003 63.3304 115.501C64.8518 113.697 64.419 110.902 63.4628 108.961C63.022 108.065 62.224 106.459 61.8708 105.936C59.8887 105.698 58.7733 104.75 58.446 103.829C58.048 102.709 58.8678 101.625 60.3205 102.117C61.7732 102.609 61.9125 102.203 61.614 101.348C60.5305 98.2056 61.3036 92.6247 66.009 95.6763C68.2363 97.284 70.1326 99.3063 71.5939 101.632C72.7282 103.583 73.2257 105.79 71.0377 107.236C70.5402 107.552 70.0059 107.803 69.4457 107.983C70.1092 109.574 70.9471 111.085 71.9441 112.491C72.7625 113.315 73.7487 113.953 74.8356 114.362" stroke="#303030" stroke-linecap="round" stroke-linejoin="round"/>
<path d="M76.6953 115.104C83.3688 117.618 98.6351 122.886 138.891 135.974C139.917 136.308 138.355 142.121 138.063 143.149C137.692 144.451 135.476 151.596 134.316 151.23L87.6612 137.43L93.5218 161.438" stroke="#303030" stroke-linecap="round" stroke-linejoin="round"/>
<path d="M148.399 150.228C147.574 150.029 148.265 150.221 144.675 149.151C142.71 148.564 143.162 146.145 145.109 146.564L148.683 147.452C150.554 147.941 149.987 150.493 148.399 150.228Z" stroke="#303030" stroke-linecap="round" stroke-linejoin="round"/>
<path d="M147.852 141.458L149.724 141.816C151.576 142.194 151.104 144.765 149.553 144.576C148.774 144.465 148.004 144.302 147.246 144.089" stroke="#303030" stroke-linecap="round" stroke-linejoin="round"/>
<path d="M147.455 152.743C146.239 152.426 145.04 152.047 143.863 151.608C141.987 150.997 142.489 148.636 144.335 149.113C145.66 149.454 147.876 150.122 147.927 150.134C149.551 150.758 148.948 153.045 147.455 152.743Z" stroke="#303030" stroke-linecap="round" stroke-linejoin="round"/>
<path d="M147.22 144.178C147.934 144.347 148.613 144.516 149.309 144.685C151.238 145.139 150.728 147.741 149.101 147.502C148.044 147.347 146.456 146.821 145.283 146.5C145.007 146.447 144.755 146.307 144.565 146.1C144.375 145.892 144.257 145.63 144.228 145.35C144.198 145.071 144.259 144.79 144.401 144.547C144.544 144.305 144.76 144.115 145.018 144.005" stroke="#303030" stroke-linecap="round" stroke-linejoin="round"/>
<path d="M139.137 138.394C142.351 139.604 144.771 139.259 145.734 139.528C147.457 140.011 147.988 140.225 147.851 141.459C147.766 142.215 147.259 144.007 146.962 145.124C146.712 146.068 145.334 146.052 145.015 144.009C144.931 143.401 144.925 142.785 144.996 142.175C144.732 144.841 143.485 146.542 141.689 146.996" stroke="#303030" stroke-linecap="round" stroke-linejoin="round"/>
<path d="M139.894 151.268C138.47 150.794 137.075 150.238 135.715 149.604" stroke="#303030" stroke-linecap="round" stroke-linejoin="round"/>
<path d="M67.9427 64.9143C69.3984 66.3501 71.3128 64.7581 70.0034 63.2885C69.0233 62.188 68.2949 61.4418 67.489 60.602C66.1358 59.1951 64.1727 60.9294 65.1826 62.1711C65.8015 62.9333 66.6005 63.59 67.9427 64.9143Z" stroke="#303030" stroke-linecap="round" stroke-linejoin="round"/>
<path d="M73.2187 58.3349C72.765 57.7867 72.4107 57.3857 71.9709 56.8603C70.7769 55.4315 68.7392 57.1051 69.6456 58.3528C70.1292 58.9833 70.6533 59.5816 71.2147 60.1438" stroke="#303030" stroke-linecap="round" stroke-linejoin="round"/>
<path d="M66.1473 67.106C67.605 68.4463 69.4039 66.8752 68.0945 65.4812C67.1144 64.4374 66.3961 63.7389 65.5991 62.9479C64.2618 61.6196 62.4041 63.326 63.4101 64.517C64.2749 65.4289 65.1887 66.2932 66.1473 67.106Z" stroke="#303030" stroke-linecap="round" stroke-linejoin="round"/>
<path d="M71.1583 60.2069C70.6479 59.6398 70.1772 59.2029 69.6837 58.6567C68.3464 57.1771 66.3206 58.9005 67.3206 60.2069C67.9265 61.0029 68.7215 61.6994 70.0429 63.0616C70.2255 63.2796 70.4736 63.4328 70.7503 63.4986C71.027 63.5643 71.3175 63.539 71.5787 63.4265C71.8399 63.314 72.0578 63.1202 72.2 62.8739C72.3422 62.6276 72.4012 62.3421 72.3682 62.0596" stroke="#303030" stroke-linecap="round" stroke-linejoin="round"/>
<path d="M79.7963 64.1956C77.2093 62.0066 76.5815 59.924 75.9208 59.2614C73.894 57.2246 73.9706 57.4992 70.4204 60.8872C69.5498 61.718 70.8184 63.3827 73.9556 61.1708C71.5358 62.8533 70.893 65.1786 71.706 67.0871" stroke="#303030" stroke-linecap="round" stroke-linejoin="round"/>
<path d="M68.416 69.9985C69.4041 70.9159 70.4458 71.7746 71.5353 72.5696" stroke="#303030" stroke-linecap="round" stroke-linejoin="round"/>
<path d="M145.969 132.245C144.302 126.989 141.003 118.969 139.852 112.533" stroke="#303030" stroke-linecap="round" stroke-linejoin="round"/>
<path d="M114.03 104.839C112.461 109.074 111.327 116.749 112.102 126.787" stroke="#303030" stroke-linecap="round" stroke-linejoin="round"/>
<path d="M137.567 87.9605C138.834 84.1417 135.263 81.1537 133.523 81.5318" stroke="#303030" stroke-linecap="round" stroke-linejoin="round"/>
<path d="M123.541 78.0332L125.224 74.7626C126.131 72.8532 135.489 77.2959 134.582 79.2053L133.432 81.7575" stroke="#303030" stroke-linecap="round" stroke-linejoin="round"/>
<path d="M121.385 83.0053L116.717 64.8008L138.23 67.5221L143.654 88.7136L137.568 87.9584" stroke="#303030" stroke-linecap="round" stroke-linejoin="round"/>
<path d="M112.614 110.303L70.7793 74.9515C71.5166 70.1119 77.8299 64.3846 81.6109 63.4961C93.5399 74.1575 119.476 95.6077 121.311 95.349C124.649 94.8794 124.824 90.3034 124.831 90.0308C122.483 90.0556 119.564 89.0049 121.387 83.0051V83.024C121.921 81.2867 122.644 79.6131 123.542 78.033L123.561 78.0141C127.266 71.8889 130.537 78.3922 130.253 81.7951C130.253 82.42 130.557 82.6737 131.69 81.8708C131.923 81.6545 132.223 81.5251 132.54 81.5044C132.857 81.4838 133.171 81.5731 133.429 81.7573C134.312 82.5016 134.165 84.6707 131.312 85.8597C131.026 86.1493 130.818 86.5065 130.707 86.8995C129.489 92.1561 130.272 95.8973 134.299 96.1998C135.83 95.1222 138.025 93.4237 140.689 91.3243C148.974 84.7911 161.903 74.462 172.58 65.1428C174.737 63.2593 183.94 74.5724 181.843 76.5226C172.988 84.7652 141.37 108.036 136.606 116.675" stroke="#303030" stroke-linecap="round" stroke-linejoin="round"/>
<path d="M133.523 81.5296C135.49 81.0948 139.741 84.9524 136.83 89.4319C136.83 89.4319 139.684 88.7891 140.668 91.3224" stroke="#303030" stroke-linecap="round" stroke-linejoin="round"/>
<path d="M62.6497 70.906C64.3123 72.8731 64.7999 75.1735 63.7651 76.0481C62.7303 76.9228 60.5323 76.0481 58.8687 74.082C57.205 72.1159 56.7095 69.8035 57.7533 68.9399C58.797 68.0762 61.0039 68.9558 62.6497 70.906Z" stroke="#303030" stroke-linecap="round" stroke-linejoin="round"/>
<path d="M58.1855 73.1559C57.5964 72.1041 57.4183 70.8495 58.0382 70.3201C58.7755 69.6962 60.275 70.3918 61.3466 71.6624C62.4182 72.933 63.2371 74.5349 62.5187 75.0454C61.5157 75.7618 58.6243 72.9091 59.5695 72.1151" stroke="#303030" stroke-linecap="round" stroke-linejoin="round"/>
<path d="M63.653 64.8008L58.082 68.741" stroke="#303030" stroke-linecap="round" stroke-linejoin="round"/>
<path d="M64.1055 75.6325L71.4217 66.0854" stroke="#303030" stroke-linecap="round" stroke-linejoin="round"/>
<path d="M71.9707 56.8795L75.5617 52.1343C76.6771 50.6975 78.5855 51.7363 79.7407 52.9094C81.1575 54.3472 81.8958 56.18 80.8561 57.0307L76.6771 60.3391" stroke="#303030" stroke-linecap="round" stroke-linejoin="round"/>
<path d="M142.54 156.317C140.822 155.761 138.233 155.699 137.499 156.854C136.437 158.527 139.021 160.377 140.99 161.023C143.235 161.762 145.52 161.486 146.103 160.327C146.943 158.647 144.441 156.931 142.54 156.317Z" stroke="#303030" stroke-linecap="round" stroke-linejoin="round"/>
<path d="M139.911 160.587C138.853 160.001 138.036 159.036 138.286 158.262C138.584 157.335 140.233 157.147 141.802 157.657C143.371 158.168 144.92 159.113 144.58 159.926C144.106 161.06 140.138 160.153 140.516 158.981" stroke="#303030" stroke-linecap="round" stroke-linejoin="round"/>
<path d="M147.094 152.667L146.268 159.557" stroke="#303030" stroke-linecap="round" stroke-linejoin="round"/>
<path d="M137.521 156.818L141.707 146.996" stroke="#303030" stroke-linecap="round" stroke-linejoin="round"/>
<path d="M143.145 139.302L143.636 134.122C143.844 132.138 146.228 132 147.965 132.422C150.122 132.944 151.86 134.236 151.387 135.616L149.213 141.722" stroke="#303030" stroke-linecap="round" stroke-linejoin="round"/>
<path d="M141.084 78.0104C143.273 77.4999 143.484 78.3865 145.661 77.878C147.85 77.3656 147.651 76.479 149.82 75.9497" stroke="#303030" stroke-linecap="round" stroke-linejoin="round"/>
<path d="M151.273 74.5168C152.128 74.4937 152.972 74.7098 153.711 75.1407C153.711 75.1407 152.747 76.5585 151.821 76.7854C150.894 77.0123 150.006 76.672 149.874 76.0481C149.703 75.4233 150.33 74.7357 151.273 74.5168Z" stroke="#303030" stroke-linecap="round" stroke-linejoin="round"/>
<path d="M49.0784 96.3323C46.9232 95.7273 47.168 94.8398 44.9989 94.2338C42.8427 93.6319 42.579 94.5174 40.4219 93.8936" stroke="#303030" stroke-linecap="round" stroke-linejoin="round"/>
<path d="M39.0768 92.1919C38.2236 92.1271 37.3699 92.3109 36.6191 92.7213C36.6191 92.7213 37.5266 94.177 38.4529 94.4416C39.3793 94.7063 40.2648 94.4038 40.4429 93.78C40.6061 93.175 39.9852 92.4546 39.0768 92.1919Z" stroke="#303030" stroke-linecap="round" stroke-linejoin="round"/>
<path d="M184.828 60.0934C184.828 60.0934 185.746 58.2178 187.172 55.3482C188.675 52.3195 187.751 51.1414 185.641 54.3841C185.409 54.7403 182.973 58.2208 182.258 59.2427C181.86 59.8088 180.593 61.2665 180.069 60.9252C178.611 59.9829 177.363 55.1343 175.947 55.6885C175.039 56.0437 175.642 59.3183 176.193 61.568C176.31 62.0506 176.317 62.554 176.213 63.0406C176.107 63.5262 175.893 63.9817 175.587 64.3729C175.27 64.7552 174.893 65.0846 174.473 65.349" stroke="#303030" stroke-linecap="round" stroke-linejoin="round"/>
<path d="M184.205 60.7361C184.205 60.7361 189.329 55.387 189.668 55.0268C192.306 52.2199 192.983 53.4815 191.029 56.2208C189.65 58.16 188.283 60.1072 186.927 62.0624" stroke="#303030" stroke-linecap="round" stroke-linejoin="round"/>
<path d="M185.924 62.8346C187.843 61.3753 189.673 59.8034 191.405 58.1272C194.2 55.4576 194.689 56.7233 192.672 59.4128C191.459 61.1069 190.126 62.7116 188.683 64.2146" stroke="#303030" stroke-linecap="round" stroke-linejoin="round"/>
<path d="M186.793 65.3112C188.66 64.3637 190.405 63.1944 191.991 61.8287C194.92 59.2925 195.341 60.583 193.086 63.2655C192.561 63.892 192.019 64.5035 191.46 65.0993C190.094 66.548 188.724 67.9947 187.396 69.4842C185.696 71.3085 183.884 73.0258 181.971 74.6264" stroke="#303030" stroke-linecap="round" stroke-linejoin="round"/>
<path d="M183.354 59.9014C185.811 62.2645 186.719 64.552 187.418 67.8972" stroke="#303030" stroke-linecap="round" stroke-linejoin="round"/>
<path d="M181.067 61.7002C181.58 63.2411 181.767 64.8717 181.618 66.4888C181.468 68.106 180.984 69.6744 180.197 71.095" stroke="#303030" stroke-linecap="round" stroke-linejoin="round"/>
<path d="M70.2309 109.641L66.9414 108.488C67.7949 108.419 68.6376 108.253 69.4528 107.991" stroke="#303030" stroke-linecap="round" stroke-linejoin="round"/>
<path d="M87.6608 137.43L86.1484 131.306L95.6577 139.812" stroke="#303030" stroke-linecap="round" stroke-linejoin="round"/>
<path d="M142.068 120.889L137.814 114.877" stroke="#303030" stroke-linecap="round" stroke-linejoin="round"/>
<path d="M124.829 90.0308C125.666 90.0149 126.498 89.8901 127.303 89.6597L124.297 92.7442" stroke="#303030" stroke-linecap="round" stroke-linejoin="round"/>
<path d="M10.5489 107.808C6.80277 110.709 10.4087 113.208 19.0323 109.835C26.1814 107.04 26.2879 103.985 23.0123 103.724" stroke="#303030" stroke-linecap="round" stroke-linejoin="round"/>
</svg>
