<svg width="128" height="128" viewBox="0 0 128 128" fill="none" xmlns="http://www.w3.org/2000/svg">
<path d="M42.5442 83.9424L40.9673 84.2861L55.0217 110.024L56.4098 109.336L42.5442 83.9424Z" stroke="#303030" stroke-linecap="round" stroke-linejoin="round"/>
<path d="M40.9674 84.2861L39.9639 84.505L53.2458 108.811L55.0218 110.024L40.9674 84.2861Z" fill="#008765"/>
<path d="M40.9674 84.2861L39.9639 84.505L53.2458 108.811L55.0218 110.024L40.9674 84.2861Z" stroke="#303030" stroke-linecap="round" stroke-linejoin="round"/>
<path d="M37.2402 85.0983L26.9106 120.028L28.8985 119.015L39.0444 84.7053L37.2402 85.0983Z" stroke="#303030" stroke-linecap="round" stroke-linejoin="round"/>
<path d="M22.5437 69.8348L19.2944 72.4704C17.3187 74.1984 18.2064 77.8726 20.7453 78.336L24.9629 78.72C23.0229 76.19 22.1541 72.999 22.5437 69.8348Z" fill="#008765"/>
<path d="M22.5437 69.8348L19.2944 72.4704C17.3187 74.1984 18.2064 77.8726 20.7453 78.336L24.9629 78.72C23.0229 76.19 22.1541 72.999 22.5437 69.8348Z" stroke="#303030" stroke-linecap="round" stroke-linejoin="round"/>
<path d="M31.0116 81.088C24.3664 77.0918 23.1844 67.1667 28.5949 61.5436L24.9719 65.0316C19.8948 69.5456 23.096 80.2252 28.961 81.3254L33.9786 82.3289C32.9334 82.0652 31.9333 81.6467 31.0116 81.088Z" fill="#E5DFD5"/>
<path d="M31.0116 81.088C24.3664 77.0918 23.1844 67.1667 28.5949 61.5436L24.9719 65.0316C19.8948 69.5456 23.096 80.2252 28.961 81.3254L33.9786 82.3289C32.9334 82.0652 31.9333 81.6467 31.0116 81.088Z" stroke="#303030" stroke-linecap="round" stroke-linejoin="round"/>
<path d="M33.3442 79.104C30.1608 77.7088 28.0731 74.2676 28.0494 70.4935C28.0118 69.0618 28.284 67.6391 28.8473 66.3226C29.4107 65.0061 30.2519 63.8265 31.3134 62.8652C31.6166 62.5995 31.9374 62.3545 32.2734 62.1318C32.8569 60.6229 33.7869 59.2722 34.9883 58.1888L35.1618 58.0217C32.8196 58.3925 30.654 59.4923 28.973 61.1648C23.133 66.7104 24.2152 76.9991 31.0114 81.0855C31.9961 81.6832 33.0702 82.1191 34.1928 82.3776L33.3442 79.104Z" stroke="#303030" stroke-linecap="round" stroke-linejoin="round"/>
<path d="M32.2734 62.1332C30.9416 63.0463 29.8572 64.2753 29.1176 65.7108C28.3779 67.1463 28.006 68.7425 28.0353 70.3572C28.0353 75.6263 31.7019 79.4593 35.8382 79.7492C36.1462 79.7709 36.4551 79.7748 36.7636 79.762C32.2241 76.0199 29.9579 67.9764 32.2734 62.1332Z" fill="#008765"/>
<path d="M33.3379 79.0861L34.838 84.8633L36.8265 85.1885L36.5142 79.7613C35.4187 79.7715 34.3344 79.5411 33.3379 79.0861Z" fill="#E5DFD5"/>
<path d="M33.3379 79.0861L34.838 84.8633L36.8265 85.1885L36.5142 79.7613C35.4187 79.7715 34.3344 79.5411 33.3379 79.0861Z" stroke="#303030" stroke-linecap="round" stroke-linejoin="round"/>
<path d="M40.7529 81.6992C39.2698 81.3997 37.888 80.7258 36.7394 79.7408L36.5142 79.7613L36.8265 85.1885L43.6546 83.7005L43.757 82.3002L40.7529 81.6992Z" stroke="#303030" stroke-linecap="round" stroke-linejoin="round"/>
<path d="M51.0367 79.4342C44.4383 79.1085 39.4648 73.0848 39.4155 66.0806C39.3627 64.0147 39.7567 61.9615 40.5702 60.0617C41.3839 58.1619 42.598 56.4601 44.1298 55.0726C44.4621 54.7816 44.8005 54.5131 45.1448 54.2669C45.6624 52.2372 46.5023 50.3037 47.6325 48.5402C45.0448 49.32 42.688 50.7227 40.7685 52.6253C32.4139 60.6688 33.9064 75.4458 43.7195 81.3613C45.41 82.4058 47.2928 83.1002 49.2566 83.4035C51.2203 83.7069 53.225 83.6134 55.1519 83.1277C53.6125 82.0973 52.2269 80.8538 51.0367 79.4342Z" stroke="#303030" stroke-linecap="round" stroke-linejoin="round"/>
<path d="M45.1481 54.2578C43.3376 55.5913 41.8726 57.3386 40.8754 59.3538C39.8781 61.369 39.3776 63.5937 39.4156 65.8419C39.4156 73.5258 44.8351 79.1251 51.0258 79.4202C45.5775 73.0023 42.9349 62.7007 45.1481 54.2578Z" fill="#008765"/>
<path d="M43.7168 81.362C34.0528 75.538 32.4592 61.1174 40.3888 52.9977L34.9865 58.19C27.6835 64.7053 32.2985 80.1114 40.751 81.6992L47.9657 83.1425C46.4687 82.7636 45.0366 82.1632 43.7168 81.362Z" fill="#E5DFD5"/>
<path d="M43.7168 81.362C34.0528 75.538 32.4592 61.1174 40.3888 52.9977L34.9865 58.19C27.6835 64.7053 32.2985 80.1114 40.751 81.6992L47.9657 83.1425C46.4687 82.7636 45.0366 82.1632 43.7168 81.362Z" stroke="#303030" stroke-linecap="round" stroke-linejoin="round"/>
<path d="M93.9125 58.8159C93.9125 70.6471 86.6728 80.4186 77.494 81.3971C78.0232 81.44 78.5564 81.4611 79.094 81.4611C90.6364 81.4362 100.022 70.8819 100.015 58.014C100.006 38.8217 80.068 27.6588 66.2383 39.7567C69.101 37.6712 72.5167 36.479 76.0552 36.3302C85.8965 36.2879 93.9125 46.3724 93.9125 58.8159Z" fill="#008765"/>
<path d="M93.9125 58.8159C93.9125 70.6471 86.6728 80.4186 77.494 81.3971C78.0232 81.44 78.5564 81.4611 79.094 81.4611C90.6364 81.4362 100.022 70.8819 100.015 58.014C100.006 38.8217 80.068 27.6588 66.2383 39.7567C69.101 37.6712 72.5167 36.479 76.0552 36.3302C85.8965 36.2879 93.9125 46.3724 93.9125 58.8159Z" stroke="#303030" stroke-linecap="round" stroke-linejoin="round"/>
<path d="M79.094 27.6895C72.4252 27.7241 65.9586 30.2265 60.4988 35.5558C46.246 49.4675 48.7778 74.6016 65.5381 84.7635C84.1468 96.0454 106.976 81.0375 106.968 57.9897C106.961 41.1827 94.4879 27.6108 79.094 27.6895ZM79.094 81.4618C67.9336 81.4861 58.2664 71.5283 58.173 58.59C58.116 50.7289 61.341 44.0415 66.237 39.7574C80.0668 27.6614 100.005 38.8224 100.014 58.0147C100.021 70.8826 90.6364 81.4368 79.094 81.4618Z" stroke="#303030" stroke-linecap="round" stroke-linejoin="round"/>
<path d="M73.7416 87.9897C73.7416 87.9897 60.4737 85.3382 60.4609 85.3261C45.9924 82.5997 38.0801 56.2393 50.5947 45.0847L60.4987 35.543C57.5321 38.5264 55.1867 42.0686 53.5983 45.9645C52.0099 49.8605 51.21 54.0328 51.2449 58.2399C51.2449 72.6528 60.5518 85.2275 73.7416 87.9897Z" fill="#E5DFD5"/>
<path d="M73.7416 87.9897C73.7416 87.9897 60.4737 85.3382 60.4609 85.3261C45.9924 82.5997 38.0801 56.2393 50.5947 45.0847L60.4987 35.543C57.5321 38.5264 55.1867 42.0686 53.5983 45.9645C52.0099 49.8605 51.21 54.0328 51.2449 58.2399C51.2449 72.6528 60.5518 85.2275 73.7416 87.9897Z" stroke="#303030" stroke-linecap="round" stroke-linejoin="round"/>
<path d="M36.8268 85.1885L35.8406 85.0272L25.8726 118.727L26.9106 120.028L37.2402 85.0983L36.8268 85.1885Z" fill="#008765"/>
<path d="M36.8268 85.1885L35.8406 85.0272L25.8726 118.727L26.9106 120.028L37.2402 85.0983L36.8268 85.1885Z" stroke="#303030" stroke-linecap="round" stroke-linejoin="round"/>
<path d="M83.2836 42.6957C82.7716 43.5399 80.1789 43.0343 76.993 42.6317C73.8071 42.2292 70.9053 42.153 70.6781 41.1937C70.4548 40.2522 73.617 38.6426 77.5313 39.1553C81.4455 39.6679 83.7725 41.8893 83.2836 42.6957Z" stroke="#303030" stroke-linecap="round" stroke-linejoin="round"/>
<path d="M67.3397 44.2665C67.9969 43.7388 68.2453 42.9574 67.8945 42.5211C67.5445 42.0849 66.7278 42.1591 66.0705 42.6869C65.4139 43.2146 65.1656 43.9961 65.5157 44.4323C65.8664 44.8685 66.683 44.7943 67.3397 44.2665Z" stroke="#303030" stroke-linecap="round" stroke-linejoin="round"/>
<path d="M86.5095 56.6266C81.4075 64.8927 74.7419 66.7059 66.251 61.0426C71.9156 52.3002 78.7201 51.1623 86.5095 56.6266Z" stroke="#303030" stroke-linecap="round" stroke-linejoin="round"/>
<path d="M75.3423 53.5629L74.1167 47.298" stroke="#303030" stroke-linecap="round" stroke-linejoin="round"/>
<path d="M69.9397 56.5645L66.3506 51.9124" stroke="#303030" stroke-linecap="round" stroke-linejoin="round"/>
<path d="M81.4946 53.913L83.0453 48.1357" stroke="#303030" stroke-linecap="round" stroke-linejoin="round"/>
<path d="M77.4058 64.1171L78.6314 70.382" stroke="#303030" stroke-linecap="round" stroke-linejoin="round"/>
<path d="M71.3153 63.6173L69.7524 69.3945" stroke="#303030" stroke-linecap="round" stroke-linejoin="round"/>
<path d="M82.9204 61.2538L86.5095 65.9053" stroke="#303030" stroke-linecap="round" stroke-linejoin="round"/>
<path d="M76.9193 62.5529C78.614 62.3037 79.7429 60.4398 79.4415 58.3899C79.1401 56.3399 77.5221 54.8802 75.8274 55.1294C74.1327 55.3786 73.0031 57.2424 73.3045 59.2923C73.6066 61.3423 75.2245 62.8021 76.9193 62.5529Z" fill="#E5DFD5"/>
<path d="M76.9193 62.5529C78.614 62.3037 79.7429 60.4398 79.4415 58.3899C79.1401 56.3399 77.5221 54.8802 75.8274 55.1294C74.1327 55.3786 73.0031 57.2424 73.3045 59.2923C73.6066 61.3423 75.2245 62.8021 76.9193 62.5529Z" stroke="#303030" stroke-linecap="round" stroke-linejoin="round"/>
<path d="M76.6042 60.4126C77.3216 60.3072 77.8003 59.518 77.6723 58.65C77.545 57.7821 76.8595 57.164 76.1421 57.2695C75.4246 57.3751 74.9459 58.1642 75.0739 59.0322C75.2013 59.9001 75.8867 60.5182 76.6042 60.4126Z" fill="#008765"/>
<path d="M76.6042 60.4126C77.3216 60.3072 77.8003 59.518 77.6723 58.65C77.545 57.7821 76.8595 57.164 76.1421 57.2695C75.4246 57.3751 74.9459 58.1642 75.0739 59.0322C75.2013 59.9001 75.8867 60.5182 76.6042 60.4126Z" stroke="#303030" stroke-linecap="round" stroke-linejoin="round"/>
<path d="M123.538 74.6586C124.235 74.6586 124.8 74.0935 124.8 73.3959C124.8 72.6983 124.235 72.1332 123.538 72.1332C122.84 72.1332 122.275 72.6983 122.275 73.3959C122.275 74.0935 122.84 74.6586 123.538 74.6586Z" stroke="#303030" stroke-linecap="round" stroke-linejoin="round"/>
<path d="M105.042 17.5481V19.8617C105.043 20.1487 104.987 20.4328 104.877 20.6979C104.766 20.9629 104.605 21.2035 104.402 21.4058C104.198 21.6082 103.957 21.7682 103.691 21.8766C103.426 21.9851 103.141 22.0398 102.854 22.0377H100.541" stroke="#303030" stroke-linecap="round" stroke-linejoin="round"/>
<path d="M109.544 22.0499H107.23C106.943 22.0499 106.659 21.9932 106.394 21.8831C106.13 21.773 105.889 21.6116 105.687 21.4083C105.485 21.2049 105.325 20.9636 105.216 20.6982C105.108 20.4328 105.053 20.1485 105.054 19.8617V17.5481" stroke="#303030" stroke-linecap="round" stroke-linejoin="round"/>
<path d="M105.042 26.5518V24.2388C105.041 23.9519 105.098 23.6677 105.208 23.4026C105.318 23.1376 105.479 22.897 105.683 22.6947C105.886 22.4924 106.127 22.3324 106.393 22.2239C106.659 22.1154 106.943 22.0607 107.23 22.0628H109.544" stroke="#303030" stroke-linecap="round" stroke-linejoin="round"/>
<path d="M100.541 22.0499H102.854C103.141 22.0494 103.426 22.1057 103.691 22.2158C103.956 22.3257 104.196 22.4871 104.398 22.6906C104.601 22.8942 104.761 23.1358 104.869 23.4015C104.978 23.6672 105.032 23.9518 105.03 24.2387" stroke="#303030" stroke-linecap="round" stroke-linejoin="round"/>
<path d="M6.66388 57.3894V59.1776C6.66388 59.622 6.48736 60.0482 6.17317 60.3626C5.85897 60.6769 5.43279 60.8535 4.98836 60.8537H3.2002" stroke="#303030" stroke-linecap="round" stroke-linejoin="round"/>
<path d="M10.1155 60.8537H8.32738C7.88296 60.8535 7.45678 60.6769 7.14254 60.3626C6.82837 60.0482 6.65186 59.622 6.65186 59.1776V57.3894" stroke="#303030" stroke-linecap="round" stroke-linejoin="round"/>
<path d="M6.65186 64.3046V62.5165C6.65186 62.072 6.82837 61.6459 7.14261 61.3317C7.45685 61.0175 7.88302 60.8409 8.32738 60.8409H10.1155" stroke="#303030" stroke-linecap="round" stroke-linejoin="round"/>
<path d="M3.2002 60.8409H4.98836C5.43273 60.8409 5.85891 61.0175 6.17313 61.3317C6.48736 61.6459 6.66388 62.072 6.66388 62.5165" stroke="#303030" stroke-linecap="round" stroke-linejoin="round"/>
<path d="M39.3147 24.9888C43.7209 24.9888 47.2929 21.4169 47.2929 17.0106C47.2929 12.6044 43.7209 9.03235 39.3147 9.03235C34.9084 9.03235 31.3364 12.6044 31.3364 17.0106C31.3364 21.4169 34.9084 24.9888 39.3147 24.9888Z" stroke="#303030" stroke-linecap="round" stroke-linejoin="round"/>
<path d="M43.0794 9.96988C45.48 8.29436 47.3674 7.55516 48.0311 8.20668C49.1715 9.32988 46.193 14.1843 41.3783 19.0611C36.5635 23.9379 31.7392 26.9497 30.5994 25.8265C29.9376 25.175 30.6634 23.2755 32.312 20.8492" stroke="#303030" stroke-linecap="round" stroke-linejoin="round"/>
<path d="M78.5934 115.201C79.9745 115.201 81.0945 114.081 81.0945 112.7C81.0945 111.318 79.9745 110.198 78.5934 110.198C77.2123 110.198 76.0923 111.318 76.0923 112.7C76.0923 114.081 77.2123 115.201 78.5934 115.201Z" stroke="#303030" stroke-linecap="round" stroke-linejoin="round"/>
<path d="M82.3828 110.774L96.9761 103.396" stroke="#303030" stroke-linecap="round" stroke-linejoin="round"/>
<path d="M82.8208 111.974L93.7501 108.635" stroke="#303030" stroke-linecap="round" stroke-linejoin="round"/>
<path d="M81.6699 109.711L90.836 102.896" stroke="#303030" stroke-linecap="round" stroke-linejoin="round"/>
</svg>
