<svg width="200" height="200" viewBox="0 0 200 200" fill="none" xmlns="http://www.w3.org/2000/svg">
<path d="M33.8201 113.39C32.8324 111.57 31.3744 110.048 29.5981 108.983C29.8512 108.068 29.8894 107.106 29.7097 106.173C29.53 105.241 29.1372 104.362 28.562 103.606C27.9868 102.851 27.2448 102.238 26.3938 101.816C25.5428 101.394 24.6059 101.175 23.6561 101.175C22.7063 101.175 21.7693 101.394 20.9183 101.816C20.0673 102.238 19.3253 102.851 18.7501 103.606C18.1749 104.362 17.7821 105.241 17.6024 106.173C17.4227 107.106 17.4609 108.068 17.7141 108.983C15.6555 110.216 14.0316 112.059 13.0672 114.256C12.1029 116.453 11.846 118.896 12.3321 121.246C8.49729 124.174 5.94636 128.475 5.21492 133.244C4.48349 138.014 5.62844 142.881 8.40936 146.824C11.1903 150.767 15.3908 153.479 20.129 154.391C24.8672 155.303 29.7743 154.343 33.8201 151.714V113.39Z" fill="#E5DFD5"/>
<path d="M33.8201 113.39C32.8324 111.57 31.3744 110.048 29.5981 108.983C29.8512 108.068 29.8894 107.106 29.7097 106.173C29.53 105.241 29.1372 104.362 28.562 103.606C27.9868 102.851 27.2448 102.238 26.3938 101.816C25.5428 101.394 24.6059 101.175 23.6561 101.175C22.7063 101.175 21.7693 101.394 20.9183 101.816C20.0673 102.238 19.3253 102.851 18.7501 103.606C18.1749 104.362 17.7821 105.241 17.6024 106.173C17.4227 107.106 17.4609 108.068 17.7141 108.983C15.6555 110.216 14.0316 112.059 13.0672 114.256C12.1029 116.453 11.846 118.896 12.3321 121.246C8.49729 124.174 5.94636 128.475 5.21492 133.244C4.48349 138.014 5.62844 142.881 8.40936 146.824C11.1903 150.767 15.3908 153.479 20.129 154.391C24.8672 155.303 29.7743 154.343 33.8201 151.714" stroke="#303030" stroke-linecap="round" stroke-linejoin="round"/>
<path d="M23.656 112.258V170.262" stroke="#303030" stroke-linecap="round" stroke-linejoin="round"/>
<path d="M16.3611 141.47L23.6561 150.77" stroke="#303030" stroke-linecap="round" stroke-linejoin="round"/>
<path d="M18.052 118.068L23.656 125.212" stroke="#303030" stroke-linecap="round" stroke-linejoin="round"/>
<path d="M30.3391 130.834L23.7211 140.043" stroke="#303030" stroke-linecap="round" stroke-linejoin="round"/>
<path d="M29.336 140.412L23.656 146.12" stroke="#303030" stroke-linecap="round" stroke-linejoin="round"/>
<path d="M40.8461 70.176V76.36" stroke="#303030" stroke-linecap="round" stroke-linejoin="round"/>
<path d="M43.9381 73.2681H37.7531" stroke="#303030" stroke-linecap="round" stroke-linejoin="round"/>
<path d="M186.297 127.741V133.926" stroke="#303030" stroke-linecap="round" stroke-linejoin="round"/>
<path d="M189.39 130.834H183.205" stroke="#303030" stroke-linecap="round" stroke-linejoin="round"/>
<path d="M191.749 111.163V114.951" stroke="#303030" stroke-linecap="round" stroke-linejoin="round"/>
<path d="M193.643 113.057H189.854" stroke="#303030" stroke-linecap="round" stroke-linejoin="round"/>
<path d="M145.048 71.831H182.837C184.787 71.8334 186.664 71.0834 188.075 69.737C189.486 68.3907 190.324 66.5518 190.413 64.6033C190.503 62.6549 189.837 60.747 188.555 59.277C187.273 57.807 185.474 56.8883 183.531 56.712C183.271 55.5 182.76 54.356 182.03 53.3541C181.3 52.3523 180.368 51.5148 179.294 50.896C178.22 50.2773 177.028 49.8909 175.796 49.7621C174.563 49.6332 173.317 49.7647 172.138 50.148C171.965 47.2687 170.805 44.5371 168.852 42.4135C166.9 40.29 164.276 38.9044 161.421 38.4903C158.566 38.0761 155.656 38.6588 153.181 40.14C150.706 41.6213 148.817 43.9106 147.833 46.622C146.285 45.9337 144.598 45.6157 142.906 45.6931C141.214 45.7705 139.563 46.2413 138.084 47.0681C136.606 47.8948 135.34 49.0548 134.388 50.456C133.436 51.8571 132.824 53.4609 132.6 55.14" stroke="#303030" stroke-linecap="round" stroke-linejoin="round"/>
<path d="M146.597 114.255H33.8201V170.262H146.597V114.255Z" stroke="#303030" stroke-linecap="round" stroke-linejoin="round"/>
<path d="M130.38 166.036H112.245V170.262H130.38V166.036Z" fill="#E5DFD5"/>
<path d="M132.022 161.81H113.887V166.036H132.022V161.81Z" fill="#E5DFD5"/>
<path d="M133.778 157.584H115.643V161.81H133.778V157.584Z" fill="#E5DFD5"/>
<path d="M45.8681 126.12H40.8461V170.262H45.8681V126.12Z" stroke="#303030" stroke-linecap="round" stroke-linejoin="round"/>
<path d="M107.206 114.255H102.184V170.262H107.206V114.255Z" stroke="#303030" stroke-linecap="round" stroke-linejoin="round"/>
<path d="M45.868 126.12V170.262H95.158V126.12H45.868ZM60.6 133.76H49.177V128.953H60.6V133.76ZM76.284 133.76H64.86V128.953H76.285L76.284 133.76ZM91.967 133.76H80.544V128.953H91.968L91.967 133.76Z" fill="#E5DFD5"/>
<path d="M45.868 137.382H95.158" stroke="#303030" stroke-linecap="round" stroke-linejoin="round"/>
<path d="M45.868 145.323H95.158" stroke="#303030" stroke-linecap="round" stroke-linejoin="round"/>
<path d="M45.868 153.265H95.158" stroke="#303030" stroke-linecap="round" stroke-linejoin="round"/>
<path d="M45.868 161.206H95.158" stroke="#303030" stroke-linecap="round" stroke-linejoin="round"/>
<path d="M51.197 128.953H49.177V133.76H51.197V128.953Z" stroke="#303030" stroke-linecap="round" stroke-linejoin="round"/>
<path d="M60.601 128.953H51.197V133.76H60.601V128.953Z" stroke="#303030" stroke-linecap="round" stroke-linejoin="round"/>
<path d="M66.8801 128.953H64.8601V133.76H66.8801V128.953Z" stroke="#303030" stroke-linecap="round" stroke-linejoin="round"/>
<path d="M76.2851 128.953H66.8811V133.76H76.2851V128.953Z" stroke="#303030" stroke-linecap="round" stroke-linejoin="round"/>
<path d="M82.5641 128.953H80.5441V133.76H82.5641V128.953Z" stroke="#303030" stroke-linecap="round" stroke-linejoin="round"/>
<path d="M91.9681 128.953H82.5641V133.76H91.9681V128.953Z" stroke="#303030" stroke-linecap="round" stroke-linejoin="round"/>
<path d="M137.176 166.036H130.38V170.262H137.176V166.036Z" stroke="#303030" stroke-linecap="round" stroke-linejoin="round"/>
<path d="M121.792 126.12H118.6V157.584H121.792V126.12Z" stroke="#303030" stroke-linecap="round" stroke-linejoin="round"/>
<path d="M137.176 161.81H132.021V166.036H137.176V161.81Z" stroke="#303030" stroke-linecap="round" stroke-linejoin="round"/>
<path d="M137.176 157.583H133.778V161.809H137.176V157.583Z" stroke="#303030" stroke-linecap="round" stroke-linejoin="round"/>
<path d="M137.176 126.12H121.792V157.584H137.176V126.12Z" stroke="#303030" stroke-linecap="round" stroke-linejoin="round"/>
<path d="M129.484 131.356V157.583" stroke="#303030" stroke-linecap="round" stroke-linejoin="round"/>
<path d="M121.792 131.356H137.176" stroke="#303030" stroke-linecap="round" stroke-linejoin="round"/>
<path d="M131.812 145.462C132.466 145.462 132.996 144.932 132.996 144.278C132.996 143.624 132.466 143.094 131.812 143.094C131.158 143.094 130.628 143.624 130.628 144.278C130.628 144.932 131.158 145.462 131.812 145.462Z" stroke="#303030" stroke-linecap="round" stroke-linejoin="round"/>
<path d="M126.936 145.462C127.59 145.462 128.12 144.932 128.12 144.278C128.12 143.624 127.59 143.094 126.936 143.094C126.282 143.094 125.752 143.624 125.752 144.278C125.752 144.932 126.282 145.462 126.936 145.462Z" stroke="#303030" stroke-linecap="round" stroke-linejoin="round"/>
<path d="M135.187 92.938L129.909 100.072H110.071L104.874 105.218H75.485V100.072H63.701V92.939H54.157L28.453 114.255H146.597L159.623 92.939L135.187 92.938Z" fill="#008765"/>
<path d="M145.048 92.938L159.623 92.939L146.597 114.255H28.453L54.157 92.939H63.701" stroke="#303030" stroke-linecap="round" stroke-linejoin="round"/>
<path d="M172.649 170.262H146.597V114.255L159.623 92.939L172.649 114.255V170.262Z" stroke="#303030" stroke-linecap="round" stroke-linejoin="round"/>
<path d="M61.2561 67.527L76.1931 55.14H137.479L129.909 67.527H61.2561Z" fill="#008765"/>
<path d="M61.2561 67.527L76.1931 55.14H137.479L129.909 67.527H61.2561Z" stroke="#303030" stroke-linecap="round" stroke-linejoin="round"/>
<path d="M159.623 117.877C162.201 117.877 164.29 115.351 164.29 112.235C164.29 109.119 162.201 106.593 159.623 106.593C157.046 106.593 154.956 109.119 154.956 112.235C154.956 115.351 157.046 117.877 159.623 117.877Z" fill="#E5DFD5"/>
<path d="M159.623 106.592V117.877" stroke="#303030" stroke-linecap="round" stroke-linejoin="round"/>
<path d="M164.29 112.235H154.956" stroke="#303030" stroke-linecap="round" stroke-linejoin="round"/>
<path d="M168.511 125.859H165.726V156.933H168.511V125.859Z" fill="#E5DFD5"/>
<path d="M130.38 166.036H112.245V170.262H130.38V166.036Z" stroke="#303030" stroke-linecap="round" stroke-linejoin="round"/>
<path d="M132.022 161.81H113.887V166.036H132.022V161.81Z" stroke="#303030" stroke-linecap="round" stroke-linejoin="round"/>
<path d="M133.778 157.584H115.643V161.81H133.778V157.584Z" stroke="#303030" stroke-linecap="round" stroke-linejoin="round"/>
<path d="M95.158 126.12H45.868V170.262H95.158V126.12Z" stroke="#303030" stroke-linecap="round" stroke-linejoin="round"/>
<path d="M159.623 117.877C162.201 117.877 164.29 115.351 164.29 112.235C164.29 109.119 162.201 106.593 159.623 106.593C157.046 106.593 154.956 109.119 154.956 112.235C154.956 115.351 157.046 117.877 159.623 117.877Z" stroke="#303030" stroke-linecap="round" stroke-linejoin="round"/>
<path d="M168.511 125.859H165.726V156.933H168.511V125.859Z" stroke="#303030" stroke-linecap="round" stroke-linejoin="round"/>
<path d="M165.726 125.859H150.736V156.933H165.726V125.859Z" stroke="#303030" stroke-linecap="round" stroke-linejoin="round"/>
<path d="M165.726 141.397H150.736" stroke="#303030" stroke-linecap="round" stroke-linejoin="round"/>
<path d="M150.736 133.667H165.726" stroke="#303030" stroke-linecap="round" stroke-linejoin="round"/>
<path d="M159.206 125.859V141.397" stroke="#303030" stroke-linecap="round" stroke-linejoin="round"/>
<path d="M137.479 55.14L129.909 67.527V100.072L135.187 92.938H145.048V67.527L137.479 55.14Z" stroke="#303030" stroke-linecap="round" stroke-linejoin="round"/>
<path d="M75.4851 100.072H63.701V67.527H129.909V100.072H114.495" stroke="#303030" stroke-linecap="round" stroke-linejoin="round"/>
<path d="M119.509 73.2H117.489V85.808H119.509V73.2Z" stroke="#303030" stroke-linecap="round" stroke-linejoin="round"/>
<path d="M125.792 73.2H119.51V85.808H125.792V73.2Z" fill="#E5DFD5"/>
<path d="M125.792 73.2H119.51V85.808H125.792V73.2Z" stroke="#303030" stroke-linecap="round" stroke-linejoin="round"/>
<path d="M125.791 79.504H119.545" stroke="#303030" stroke-linecap="round" stroke-linejoin="round"/>
<path d="M141.859 73.2H139.839V85.808H141.859V73.2Z" fill="#E5DFD5"/>
<path d="M141.859 73.2H139.839V85.808H141.859V73.2Z" stroke="#303030" stroke-linecap="round" stroke-linejoin="round"/>
<path d="M139.84 73.2H133.558V85.808H139.84V73.2Z" stroke="#303030" stroke-linecap="round" stroke-linejoin="round"/>
<path d="M133.558 79.504H139.839" stroke="#303030" stroke-linecap="round" stroke-linejoin="round"/>
<path d="M68.9011 73.2H66.8811V85.808H68.9011V73.2Z" stroke="#303030" stroke-linecap="round" stroke-linejoin="round"/>
<path d="M75.183 73.2H68.901V85.808H75.183V73.2Z" fill="#E5DFD5"/>
<path d="M75.183 73.2H68.901V85.808H75.183V73.2Z" stroke="#303030" stroke-linecap="round" stroke-linejoin="round"/>
<path d="M75.182 79.504H68.936" stroke="#303030" stroke-linecap="round" stroke-linejoin="round"/>
<path d="M73.5811 84.536L83.0731 76.665H109.684L104.874 84.536H73.5811Z" fill="#008765"/>
<path d="M73.5811 84.536L83.0731 76.665H109.684L104.874 84.536H73.5811Z" stroke="#303030" stroke-linecap="round" stroke-linejoin="round"/>
<path d="M104.874 84.536H75.4851V105.218H104.874V84.536Z" stroke="#303030" stroke-linecap="round" stroke-linejoin="round"/>
<path d="M109.684 76.665L104.874 84.536V105.218L110.071 100.072H114.495V84.536L109.684 76.665Z" stroke="#303030" stroke-linecap="round" stroke-linejoin="round"/>
<path d="M82.5641 88.2061H80.5441V100.814H82.5641V88.2061Z" stroke="#303030" stroke-linecap="round" stroke-linejoin="round"/>
<path d="M99.3671 88.2061H82.5641V100.814H99.3671V88.2061Z" fill="#E5DFD5"/>
<path d="M99.3671 88.2061H82.5641V100.814H99.3671V88.2061Z" stroke="#303030" stroke-linecap="round" stroke-linejoin="round"/>
<path d="M99.3671 94.51H82.5641" stroke="#303030" stroke-linecap="round" stroke-linejoin="round"/>
<path d="M90.9661 94.5101V88.2061" stroke="#303030" stroke-linecap="round" stroke-linejoin="round"/>
<path d="M195 170.262H11.3051V174.771H195V170.262Z" stroke="#303030" stroke-linecap="round" stroke-linejoin="round"/>
<path d="M189.39 167.549C189.39 166.513 189.067 165.503 188.465 164.661C187.862 163.818 187.012 163.184 186.032 162.849C186.08 161.977 185.898 161.108 185.503 160.33C185.108 159.551 184.515 158.89 183.783 158.414C183.051 157.938 182.206 157.664 181.334 157.619C180.463 157.574 179.594 157.759 178.817 158.157C178.491 156.513 177.552 155.054 176.189 154.078C174.826 153.102 173.143 152.681 171.481 152.901C169.82 153.122 168.304 153.967 167.243 155.265C166.182 156.562 165.656 158.216 165.77 159.888C165.039 159.364 164.18 159.048 163.284 158.974C162.387 158.901 161.488 159.072 160.681 159.469C159.875 159.867 159.191 160.476 158.704 161.232C158.216 161.987 157.943 162.861 157.914 163.76C157.22 163.172 156.379 162.786 155.481 162.644C154.583 162.501 153.663 162.608 152.822 162.952C151.98 163.296 151.249 163.864 150.708 164.594C150.167 165.325 149.837 166.19 149.753 167.095C149.721 167.499 149.773 167.906 149.906 168.289C150.039 168.672 150.251 169.024 150.527 169.321C150.803 169.618 151.137 169.855 151.509 170.016C151.882 170.178 152.283 170.26 152.689 170.258H186.625C187.35 170.264 188.049 169.982 188.567 169.475C189.085 168.967 189.381 168.274 189.39 167.549Z" fill="#E5DFD5"/>
<path d="M189.39 167.549C189.39 166.513 189.067 165.503 188.465 164.661C187.862 163.818 187.012 163.184 186.032 162.849C186.08 161.977 185.898 161.108 185.503 160.33C185.108 159.551 184.515 158.89 183.783 158.414C183.051 157.938 182.206 157.664 181.334 157.619C180.463 157.574 179.594 157.759 178.817 158.157C178.491 156.513 177.552 155.054 176.189 154.078C174.826 153.102 173.143 152.681 171.481 152.901C169.82 153.122 168.304 153.967 167.243 155.265C166.182 156.562 165.656 158.216 165.77 159.888C165.039 159.364 164.18 159.048 163.284 158.974C162.387 158.901 161.488 159.072 160.681 159.469C159.875 159.867 159.191 160.476 158.704 161.232C158.216 161.987 157.943 162.861 157.914 163.76C157.22 163.172 156.379 162.786 155.481 162.644C154.583 162.501 153.663 162.608 152.822 162.952C151.98 163.296 151.249 163.864 150.708 164.594C150.167 165.325 149.837 166.19 149.753 167.095C149.721 167.499 149.773 167.906 149.906 168.289C150.039 168.672 150.251 169.024 150.527 169.321C150.803 169.618 151.137 169.855 151.509 170.016C151.882 170.178 152.283 170.26 152.689 170.258H186.625C187.35 170.264 188.049 169.982 188.567 169.475C189.085 168.967 189.381 168.274 189.39 167.549Z" stroke="#303030" stroke-linecap="round" stroke-linejoin="round"/>
</svg>
