<svg width="200" height="200" viewBox="0 0 200 200" fill="none" xmlns="http://www.w3.org/2000/svg">
<path d="M69.6615 98.9832L68.169 80.9259L48.7575 90.5476L50.5724 112.362L62.2457 106.582L61.8636 105.931C59.8816 105.666 58.1274 104.593 58.3971 102.907C58.4528 102.69 58.5632 102.489 58.7185 102.325C58.9403 102.144 59.2083 102.029 59.4922 101.992C59.7762 101.955 60.0648 101.999 60.3254 102.117C61.6109 102.552 61.8945 102.288 61.7243 101.607C60.4746 98.4339 61.2139 92.1485 66.4904 95.9872C67.7043 96.9872 68.3908 97.5862 69.6615 98.9832Z" fill="#E5DFD5"/>
<path d="M143.674 88.7137L138.23 67.5033L116.738 64.782L121.406 82.9905C121.744 81.9203 122.148 80.8722 122.616 79.8522C123.3 78.3667 122.58 79.9398 125.225 74.7668C126.133 72.8574 135.491 77.3001 134.583 79.2095L133.527 81.5338C135.266 81.1557 138.837 84.1437 137.57 87.9625L143.674 88.7137Z" fill="#E5DFD5"/>
<path d="M76.6961 115.113C76.129 125.492 73.3131 140.407 73.3131 140.407C68.8705 129.027 60.212 117.721 60.212 117.721C60.7732 117.455 61.3164 117.153 61.8378 116.814C66.1682 122.208 69.7779 128.143 72.5758 134.47C72.5758 134.47 74.9947 119.895 74.8434 114.371C75.3728 114.603 75.9967 114.848 76.6961 115.113Z" fill="#E5DFD5"/>
<path d="M121.329 95.3594C120.756 101.851 121.371 108.392 123.144 114.662C125.819 107.943 129.581 101.71 134.279 96.2121C133.736 96.1241 133.199 96.0001 132.672 95.841C132.672 95.841 125.337 104.046 123.518 110.833C122.564 105.558 122.297 100.182 122.722 94.839C122.122 95.1833 121.83 95.2629 121.329 95.3594Z" fill="#E5DFD5" stroke="#303030" stroke-linecap="round" stroke-linejoin="round"/>
<path d="M23.0089 103.724C23.2346 104.851 23.5701 105.953 24.0108 107.014C25.7312 105.426 25.3909 103.913 23.0089 103.724Z" fill="#008765"/>
<path d="M11.9683 111.443C8.88384 111.461 8.0361 109.76 10.5505 107.813C11.047 109.154 11.5335 110.398 11.9683 111.443Z" fill="#008765"/>
<path d="M136.85 89.4332C137.149 88.9735 137.391 88.478 137.568 87.9586C138.814 84.1457 135.267 81.1448 133.524 81.5299L134.581 79.2056C135.489 77.2961 126.131 72.8535 125.223 74.7629L123.56 78.0106C127.265 71.8853 130.536 78.3887 130.252 81.7916C130.271 82.4721 130.63 82.6234 131.689 81.8672C133.888 80.3219 135.47 84.0562 131.311 85.8561C131.021 86.1447 130.813 86.5029 130.706 86.8959C129.401 92.1316 130.271 95.8937 134.298 96.1962C135.829 95.1186 138.022 93.4171 140.688 91.3207C139.685 88.7904 136.831 89.4332 136.85 89.4332Z" fill="#008765"/>
<path d="M151.273 74.5171C152.128 74.494 152.973 74.7101 153.712 75.1409C153.712 75.1409 152.748 76.5588 151.822 76.7857C150.895 77.0125 150.007 76.6722 149.874 76.0484C149.704 75.4235 150.331 74.736 151.273 74.5171Z" fill="#008765"/>
<path d="M39.0771 92.1922C38.224 92.1283 37.3706 92.3121 36.6194 92.7216C36.6194 92.7216 37.5269 94.1773 38.4532 94.4419C39.3796 94.7066 40.2681 94.4041 40.4432 93.7803C40.6084 93.1753 39.9845 92.4579 39.0771 92.1922Z" fill="#008765"/>
<path d="M63.4068 93.1565C61.9323 91.6441 54.5404 98.9036 56.0339 100.42L58.4159 102.915C58.5081 102.635 58.6899 102.392 58.9335 102.224C59.177 102.056 59.4688 101.973 59.7641 101.987C59.9602 101.997 60.1522 102.049 60.3253 102.14C61.6109 102.575 61.8944 102.292 61.7243 101.63C60.4388 98.416 61.2328 91.9883 66.6993 96.1664L63.4068 93.1565Z" fill="#008765"/>
<path d="M124.845 90.0371C124.805 90.9754 124.613 91.901 124.278 92.7784L127.303 89.66C126.503 89.8918 125.677 90.0185 124.845 90.0371Z" fill="#008765"/>
<path d="M69.4753 107.978C68.6535 108.246 67.8037 108.417 66.9421 108.488L70.2315 109.642C69.7589 108.677 69.553 108.167 69.4753 107.978Z" fill="#008765"/>
<path d="M95.6578 139.812L87.661 137.43L86.1486 131.306L95.6578 139.812Z" fill="#008765"/>
<path d="M142.068 120.889L137.81 114.877C138.358 114.181 139.004 113.403 139.738 112.589C140.29 115.142 141.141 118.034 142.068 120.889Z" fill="#008765"/>
<path d="M66.6964 96.1623L63.4069 93.1345C61.9323 91.6221 54.5405 98.9055 56.034 100.398H56.0151L58.3971 102.894" stroke="#303030" stroke-linecap="round" stroke-linejoin="round"/>
<path d="M62.2536 106.579L50.5714 112.363L48.7565 90.5485L68.1709 80.9259L69.6644 99.017" stroke="#303030" stroke-linecap="round" stroke-linejoin="round"/>
<path d="M26.5252 71.9271C26.5252 72.1257 26.4861 72.3224 26.4101 72.5058C26.3341 72.6893 26.2227 72.8561 26.0823 72.9965C25.9418 73.1369 25.7751 73.2483 25.5916 73.3243C25.4081 73.4004 25.2114 73.4395 25.0128 73.4395C24.8142 73.4395 24.6176 73.4004 24.4341 73.3243C24.2506 73.2483 24.0838 73.1369 23.9434 72.9965C23.803 72.8561 23.6916 72.6893 23.6156 72.5058C23.5395 72.3224 23.5004 72.1257 23.5004 71.9271C23.5004 71.526 23.6598 71.1413 23.9434 70.8576C24.227 70.574 24.6117 70.4147 25.0128 70.4147C25.4139 70.4147 25.7986 70.574 26.0823 70.8576C26.3659 71.1413 26.5252 71.526 26.5252 71.9271Z" stroke="#303030" stroke-linecap="round" stroke-linejoin="round"/>
<path d="M110.667 38.5618V46.5954" stroke="#303030" stroke-linecap="round" stroke-linejoin="round"/>
<path d="M114.675 42.5786H106.66" stroke="#303030" stroke-linecap="round" stroke-linejoin="round"/>
<path d="M171.217 115.085L176.303 121.853L180.991 113.119" stroke="#303030" stroke-linecap="round" stroke-linejoin="round"/>
<path d="M25.0128 104.764L32.5171 126.485C47.4521 121.967 55.8449 119.849 60.2119 117.713" stroke="#303030" stroke-linecap="round" stroke-linejoin="round"/>
<path d="M54.9753 139.428C46.934 142.19 38.7012 144.359 30.343 145.918C27.8942 146.306 25.3873 145.812 23.2687 144.524C21.1501 143.236 19.5574 141.238 18.7742 138.886L9.22217 110.482" stroke="#303030" stroke-linecap="round" stroke-linejoin="round"/>
<path d="M13.8967 101.361C13.2456 102.466 13.0172 103.769 13.2539 105.029" stroke="#303030" stroke-linecap="round" stroke-linejoin="round"/>
<path d="M16.408 94.8439C16.2976 94.3872 15.8448 92.3365 15.4847 89.5087C15.0867 86.3138 16.7782 86.1257 17.7533 89.1674C18.001 89.9425 20.3641 98.2359 21.4775 98.5821C23.4466 99.195 27.4276 97.3752 28.3212 98.8806C28.9032 99.8657 25.6745 101.206 23.576 102.363C23.1979 102.533 22.8576 102.662 23.0088 103.724C23.2371 104.85 23.5726 105.952 24.0108 107.014" stroke="#303030" stroke-linecap="round" stroke-linejoin="round"/>
<path d="M11.9684 111.442C9.88881 106.66 6.98341 96.9792 6.24114 94.7494C4.38248 89.1684 6.06303 86.3516 9.94552 96.1294C10.1266 96.6369 10.456 97.0777 10.8908 97.3961" stroke="#303030" stroke-linecap="round" stroke-linejoin="round"/>
<path d="M11.0748 97.2966C10.6918 97.4956 10.3127 97.6946 9.90771 97.9205" stroke="#303030" stroke-linecap="round" stroke-linejoin="round"/>
<path d="M18.609 95.9544C18.014 95.8986 17.415 95.8797 16.818 95.8976" stroke="#303030" stroke-linecap="round" stroke-linejoin="round"/>
<path d="M15.1265 99.3951C13.5564 95.7464 13.8409 96.3156 13.634 95.8031C12.8539 93.8848 15.3712 92.7415 16.1483 94.2718C16.6389 95.237 17.1344 96.8986 17.5851 98.1284C18.3244 100.149 15.9513 101.315 15.1265 99.3951Z" stroke="#303030" stroke-linecap="round" stroke-linejoin="round"/>
<path d="M13.8967 101.361C13.5706 101.413 13.2369 101.346 12.9559 101.172C12.675 100.999 12.4655 100.731 12.3654 100.416C11.7236 98.9981 11.3644 98.0339 10.8908 96.824C10.1366 94.8957 12.634 93.7594 13.4051 95.2927C13.9513 96.5522 14.4309 97.8395 14.8419 99.1493C14.9469 99.3536 15.0056 99.5786 15.0138 99.8081C15.0219 100.038 14.9793 100.266 14.8891 100.477C14.7988 100.689 14.6631 100.877 14.4915 101.03C14.32 101.183 14.1169 101.296 13.8967 101.361Z" stroke="#303030" stroke-linecap="round" stroke-linejoin="round"/>
<path d="M55.1454 134.462L54.2191 161.438" stroke="#303030" stroke-linecap="round" stroke-linejoin="round"/>
<path d="M76.6961 115.113C76.1289 125.492 73.3131 140.407 73.3131 140.407C68.8704 129.027 60.2119 117.721 60.2119 117.721C60.7731 117.455 61.3164 117.153 61.8377 116.814C66.1682 122.208 69.7779 128.143 72.5758 134.47C72.5758 134.47 74.9946 119.895 74.8434 114.371C75.3727 114.603 75.9966 114.848 76.6961 115.113Z" stroke="#303030" stroke-linecap="round" stroke-linejoin="round"/>
<path d="M61.8567 116.806C62.407 116.442 62.9034 116.003 63.3313 115.501C64.8526 113.697 64.4198 110.902 63.4636 108.961C63.0228 108.065 62.2248 106.46 61.8716 105.936C59.8896 105.698 58.7742 104.75 58.4468 103.83C58.0488 102.709 58.8687 101.626 60.3214 102.117C61.7741 102.609 61.9134 102.203 61.6149 101.348C60.5313 98.206 61.3045 92.625 66.0098 95.6767C68.2372 97.2844 70.1335 99.3067 71.5948 101.633C72.7291 103.583 73.2266 105.79 71.0385 107.237C70.541 107.552 70.0067 107.804 69.4465 107.984C70.11 109.574 70.948 111.086 71.945 112.491C72.7634 113.315 73.7495 113.954 74.8365 114.363" stroke="#303030" stroke-linecap="round" stroke-linejoin="round"/>
<path d="M76.6961 115.104C83.3696 117.618 98.6359 122.886 138.892 135.974C139.917 136.309 138.356 142.121 138.064 143.149C137.693 144.451 135.477 151.596 134.317 151.231L87.662 137.43L93.5226 161.438" stroke="#303030" stroke-linecap="round" stroke-linejoin="round"/>
<path d="M148.4 150.229C147.575 150.03 148.265 150.222 144.675 149.151C142.71 148.564 143.163 146.145 145.11 146.564L148.683 147.453C150.555 147.941 149.988 150.493 148.4 150.229Z" stroke="#303030" stroke-linecap="round" stroke-linejoin="round"/>
<path d="M147.852 141.459L149.723 141.816C151.576 142.194 151.103 144.765 149.553 144.576C148.774 144.465 148.003 144.302 147.246 144.09" stroke="#303030" stroke-linecap="round" stroke-linejoin="round"/>
<path d="M147.454 152.743C146.239 152.426 145.04 152.047 143.863 151.609C141.987 150.998 142.488 148.637 144.335 149.113C145.66 149.455 147.875 150.122 147.927 150.134C149.551 150.758 148.948 153.045 147.454 152.743Z" stroke="#303030" stroke-linecap="round" stroke-linejoin="round"/>
<path d="M147.221 144.178C147.935 144.347 148.614 144.516 149.31 144.685C151.239 145.139 150.729 147.741 149.102 147.502C148.045 147.347 146.457 146.821 145.283 146.5C145.007 146.447 144.756 146.307 144.566 146.1C144.376 145.892 144.258 145.63 144.229 145.35C144.199 145.071 144.26 144.79 144.402 144.547C144.544 144.305 144.76 144.115 145.019 144.005" stroke="#303030" stroke-linecap="round" stroke-linejoin="round"/>
<path d="M139.137 138.394C142.351 139.604 144.772 139.259 145.734 139.528C147.458 140.011 147.989 140.225 147.852 141.459C147.767 142.215 147.26 144.007 146.963 145.124C146.712 146.068 145.334 146.052 145.016 144.009C144.932 143.401 144.926 142.785 144.997 142.175C144.732 144.841 143.485 146.542 141.689 146.996" stroke="#303030" stroke-linecap="round" stroke-linejoin="round"/>
<path d="M139.893 151.268C138.47 150.794 137.075 150.238 135.714 149.605" stroke="#303030" stroke-linecap="round" stroke-linejoin="round"/>
<path d="M67.9441 64.9143C69.3997 66.3501 71.3141 64.7581 70.0047 63.2885C69.0246 62.188 68.2963 61.4418 67.4903 60.602C66.1371 59.1951 64.174 60.9294 65.1839 62.1711C65.8028 62.9333 66.6018 63.59 67.9441 64.9143Z" stroke="#303030" stroke-linecap="round" stroke-linejoin="round"/>
<path d="M73.2186 58.3354C72.7648 57.7872 72.4106 57.3862 71.9708 56.8608C70.7768 55.432 68.7391 57.1056 69.6455 58.3533C70.129 58.9838 70.6532 59.5821 71.2146 60.1443" stroke="#303030" stroke-linecap="round" stroke-linejoin="round"/>
<path d="M66.1481 67.1063C67.6058 68.4465 69.4047 66.8754 68.0953 65.4814C67.1152 64.4377 66.3968 63.7392 65.5999 62.9482C64.2626 61.6198 62.4049 63.3263 63.4109 64.5173C64.2757 65.4292 65.1895 66.2935 66.1481 67.1063Z" stroke="#303030" stroke-linecap="round" stroke-linejoin="round"/>
<path d="M71.1579 60.207C70.6475 59.6399 70.1769 59.2031 69.6833 58.6568C68.3461 57.1772 66.3202 58.9006 67.3202 60.207C67.9262 61.003 68.7212 61.6995 70.0425 63.0617C70.2252 63.2797 70.4733 63.4329 70.7499 63.4987C71.0266 63.5644 71.3171 63.5392 71.5783 63.4266C71.8395 63.3141 72.0574 63.1203 72.1996 62.874C72.3419 62.6278 72.4009 62.3422 72.3678 62.0597" stroke="#303030" stroke-linecap="round" stroke-linejoin="round"/>
<path d="M79.7965 64.196C77.2095 62.007 76.5817 59.9244 75.921 59.2617C73.8942 57.225 73.9708 57.4996 70.4207 60.8876C69.55 61.7184 70.8187 63.383 73.9559 61.1712C71.536 62.8537 70.8933 65.179 71.7062 67.0874" stroke="#303030" stroke-linecap="round" stroke-linejoin="round"/>
<path d="M68.4167 69.9988C69.4047 70.9162 70.4465 71.7749 71.536 72.5699" stroke="#303030" stroke-linecap="round" stroke-linejoin="round"/>
<path d="M145.969 132.245C144.302 126.989 141.003 118.97 139.852 112.533" stroke="#303030" stroke-linecap="round" stroke-linejoin="round"/>
<path d="M114.029 104.84C112.46 109.074 111.326 116.749 112.101 126.787" stroke="#303030" stroke-linecap="round" stroke-linejoin="round"/>
<path d="M137.568 87.9605C138.835 84.1417 135.264 81.1537 133.525 81.5318" stroke="#303030" stroke-linecap="round" stroke-linejoin="round"/>
<path d="M123.541 78.0334L125.223 74.7629C126.131 72.8535 135.489 77.2961 134.581 79.2056L133.432 81.7577" stroke="#303030" stroke-linecap="round" stroke-linejoin="round"/>
<path d="M121.386 83.0054L116.717 64.8009L138.23 67.5222L143.655 88.7137L137.568 87.9585" stroke="#303030" stroke-linecap="round" stroke-linejoin="round"/>
<path d="M112.615 110.303L70.7798 74.9519C71.5171 70.1122 77.8304 64.385 81.6114 63.4965C93.5405 74.1579 119.476 95.6081 121.312 95.3494C124.649 94.8798 124.824 90.3038 124.831 90.0311C122.484 90.056 119.565 89.0053 121.388 83.0054V83.0243C121.922 81.287 122.644 79.6134 123.543 78.0334L123.562 78.0145C127.267 71.8893 130.538 78.3926 130.254 81.7955C130.254 82.4204 130.557 82.6741 131.691 81.8711C131.923 81.6549 132.223 81.5255 132.54 81.5048C132.857 81.4841 133.171 81.5735 133.43 81.7577C134.313 82.502 134.165 84.6711 131.313 85.8601C131.026 86.1496 130.818 86.5068 130.708 86.8999C129.49 92.1564 130.273 95.8976 134.3 96.2001C135.831 95.1225 138.026 93.4241 140.69 91.3246C148.975 84.7914 161.904 74.4624 172.58 65.1432C174.737 63.2596 183.94 74.5728 181.844 76.523C172.988 84.7656 141.37 108.037 136.606 116.675" stroke="#303030" stroke-linecap="round" stroke-linejoin="round"/>
<path d="M133.525 81.5299C135.491 81.0951 139.742 84.9527 136.831 89.4322C136.831 89.4322 139.686 88.7894 140.669 91.3227" stroke="#303030" stroke-linecap="round" stroke-linejoin="round"/>
<path d="M62.6506 70.9062C64.3133 72.8733 64.8008 75.1738 63.766 76.0484C62.7312 76.923 60.5333 76.0484 58.8697 74.0823C57.206 72.1161 56.7105 69.8038 57.7543 68.9401C58.798 68.0764 61.0049 68.956 62.6506 70.9062Z" stroke="#303030" stroke-linecap="round" stroke-linejoin="round"/>
<path d="M58.1851 73.156C57.5961 72.1043 57.418 70.8496 58.0378 70.3202C58.7751 69.6964 60.2746 70.3919 61.3462 71.6625C62.4178 72.9331 63.2367 74.5351 62.5183 75.0455C61.5154 75.7619 58.6239 72.9092 59.5691 72.1152" stroke="#303030" stroke-linecap="round" stroke-linejoin="round"/>
<path d="M63.6527 64.8009L58.0817 68.7411" stroke="#303030" stroke-linecap="round" stroke-linejoin="round"/>
<path d="M64.1064 75.6325L71.4226 66.0854" stroke="#303030" stroke-linecap="round" stroke-linejoin="round"/>
<path d="M71.9708 56.8797L75.5618 52.1346C76.6772 50.6978 78.5856 51.7366 79.7408 52.9097C81.1577 54.3475 81.896 56.1802 80.8562 57.031L76.6772 60.3393" stroke="#303030" stroke-linecap="round" stroke-linejoin="round"/>
<path d="M142.54 156.317C140.822 155.761 138.233 155.699 137.5 156.854C136.437 158.527 139.021 160.377 140.99 161.023C143.235 161.762 145.52 161.486 146.103 160.327C146.943 158.647 144.441 156.931 142.54 156.317Z" stroke="#303030" stroke-linecap="round" stroke-linejoin="round"/>
<path d="M139.912 160.588C138.854 160.002 138.037 159.036 138.287 158.262C138.585 157.335 140.234 157.147 141.803 157.657C143.372 158.168 144.921 159.113 144.581 159.926C144.107 161.06 140.139 160.153 140.517 158.981" stroke="#303030" stroke-linecap="round" stroke-linejoin="round"/>
<path d="M147.095 152.667L146.268 159.558" stroke="#303030" stroke-linecap="round" stroke-linejoin="round"/>
<path d="M137.522 156.818L141.708 146.996" stroke="#303030" stroke-linecap="round" stroke-linejoin="round"/>
<path d="M143.144 139.303L143.636 134.123C143.844 132.139 146.228 132 147.965 132.422C150.122 132.944 151.859 134.236 151.387 135.616L149.213 141.722" stroke="#303030" stroke-linecap="round" stroke-linejoin="round"/>
<path d="M141.085 78.0105C143.274 77.5 143.484 78.3866 145.662 77.8781C147.851 77.3657 147.652 76.4792 149.821 75.9498" stroke="#303030" stroke-linecap="round" stroke-linejoin="round"/>
<path d="M151.273 74.5171C152.128 74.494 152.973 74.7101 153.712 75.1409C153.712 75.1409 152.748 76.5588 151.822 76.7857C150.895 77.0125 150.007 76.6722 149.874 76.0484C149.704 75.4235 150.331 74.736 151.273 74.5171Z" stroke="#303030" stroke-linecap="round" stroke-linejoin="round"/>
<path d="M49.0779 96.3324C46.9227 95.7275 47.1675 94.8399 44.9984 94.234C42.8422 93.632 42.5785 94.5175 40.4214 93.8937" stroke="#303030" stroke-linecap="round" stroke-linejoin="round"/>
<path d="M39.0772 92.1923C38.224 92.1274 37.3703 92.3113 36.6195 92.7216C36.6195 92.7216 37.5269 94.1773 38.4533 94.442C39.3796 94.7067 40.2652 94.4042 40.4433 93.7803C40.6065 93.1754 39.9856 92.455 39.0772 92.1923Z" stroke="#303030" stroke-linecap="round" stroke-linejoin="round"/>
<path d="M184.829 60.0936C184.829 60.0936 185.747 58.2181 187.173 55.3485C188.676 52.3197 187.752 51.1416 185.642 54.3843C185.41 54.7405 182.974 58.221 182.259 59.2429C181.861 59.8091 180.594 61.2667 180.07 60.9254C178.612 59.9832 177.364 55.1346 175.948 55.6888C175.04 56.044 175.643 59.3185 176.194 61.5682C176.312 62.0508 176.318 62.5543 176.214 63.0408C176.109 63.5264 175.895 63.9819 175.588 64.3731C175.271 64.7554 174.895 65.0849 174.474 65.3492" stroke="#303030" stroke-linecap="round" stroke-linejoin="round"/>
<path d="M184.205 60.7363C184.205 60.7363 189.329 55.3872 189.667 55.027C192.306 52.2201 192.983 53.4818 191.029 56.221C189.65 58.1602 188.283 60.1075 186.927 62.0627" stroke="#303030" stroke-linecap="round" stroke-linejoin="round"/>
<path d="M185.925 62.8348C187.844 61.3755 189.674 59.8037 191.407 58.1275C194.202 55.4579 194.69 56.7235 192.673 59.413C191.46 61.1071 190.127 62.7119 188.684 64.2149" stroke="#303030" stroke-linecap="round" stroke-linejoin="round"/>
<path d="M186.795 65.3113C188.661 64.3638 190.406 63.1945 191.993 61.8288C194.921 59.2926 195.342 60.5831 193.087 63.2656C192.563 63.8921 192.021 64.5036 191.461 65.0994C190.095 66.5481 188.725 67.9948 187.398 69.4844C185.697 71.3086 183.885 73.0259 181.972 74.6265" stroke="#303030" stroke-linecap="round" stroke-linejoin="round"/>
<path d="M183.354 59.9015C185.812 62.2646 186.719 64.5521 187.419 67.8973" stroke="#303030" stroke-linecap="round" stroke-linejoin="round"/>
<path d="M181.067 61.7004C181.58 63.2413 181.767 64.8719 181.617 66.4891C181.468 68.1062 180.984 69.6747 180.197 71.0952" stroke="#303030" stroke-linecap="round" stroke-linejoin="round"/>
<path d="M70.2316 109.642L66.9421 108.488C67.7956 108.42 68.6383 108.253 69.4535 107.991" stroke="#303030" stroke-linecap="round" stroke-linejoin="round"/>
<path d="M87.661 137.43L86.1486 131.306L95.6578 139.812" stroke="#303030" stroke-linecap="round" stroke-linejoin="round"/>
<path d="M142.068 120.889L137.814 114.877" stroke="#303030" stroke-linecap="round" stroke-linejoin="round"/>
<path d="M124.829 90.0312C125.666 90.0152 126.498 89.8905 127.303 89.66L124.297 92.7445" stroke="#303030" stroke-linecap="round" stroke-linejoin="round"/>
<path d="M10.5495 107.808C6.80332 110.709 10.4092 113.209 19.0329 109.836C26.1819 107.041 26.2884 103.985 23.0129 103.724" stroke="#303030" stroke-linecap="round" stroke-linejoin="round"/>
</svg>
