<svg width="201" height="200" viewBox="0 0 201 200" fill="none" xmlns="http://www.w3.org/2000/svg">
<path d="M154.695 64.194L130.746 75.4803L136.134 49.5615C131.828 48.6696 127.367 48.8639 123.155 50.1269C118.943 51.3899 115.112 53.6819 112.007 56.7959C108.903 59.91 106.622 63.7481 105.372 67.964C104.122 72.1798 103.941 76.6406 104.846 80.9438L105.073 80.6791C106.665 78.8881 107.644 78.5429 106.906 80.3806C106.68 80.9667 106.301 81.6095 106.037 82.2144L119.648 66.0506C119.69 66.0102 119.745 65.9865 119.803 65.9842C119.861 65.982 119.918 66.0012 119.962 66.0383C120.007 66.0753 120.036 66.1276 120.045 66.185C120.053 66.2424 120.04 66.3009 120.008 66.3491L106.906 82.891C108.064 81.8914 109.364 81.0695 110.763 80.4523C112.294 79.9229 111.122 81.4353 110.177 82.3806C109.17 83.4867 108.241 84.6616 107.398 85.8969L110.952 84.687C112.654 84.2144 112.427 84.8949 111.35 85.8024C110.745 86.3128 109.758 86.9745 109.025 87.5416L108.004 88.3924L108.117 88.657C109.218 88.353 110.345 88.1505 111.482 88.0521C112.692 88.0899 111.558 88.9028 111.199 89.1466C110.613 89.5446 109.573 90.054 108.874 90.451L109.57 91.4152C113.51 96.6604 119.256 100.257 125.696 101.508C132.136 102.76 138.811 101.577 144.429 98.1891C150.047 94.8006 154.207 89.4476 156.104 83.1671C158 76.8866 157.498 70.1256 154.695 64.194Z" fill="#E5DFD5"/>
<path d="M95.1475 90.3774C92.2997 94.646 88.9553 98.5615 85.1846 102.042C78.8166 103.1 74.749 102.798 67.1492 102.855C63.8786 102.874 62.3851 102.496 62.0826 101.078C61.4399 101.437 61.4588 101.853 60.7215 101.947C60.0787 102.023 58.6798 101.834 57.9614 101.834C57.8831 102.195 57.7757 102.549 57.64 102.893C56.8271 104.991 48.3009 105.747 45.4463 112.572C44.5766 114.67 41.0225 126.807 41.0225 126.807C34.555 126.996 28.9044 128.3 22.1742 130.437C25.3124 129.908 26.995 139.492 24.1214 140.551C30.7237 138.721 37.4447 137.351 44.2363 136.449C45.3655 136.304 46.4303 135.841 47.3071 135.115C48.1839 134.389 48.8366 133.429 49.1894 132.347L52.063 123.193C52.6142 126.125 52.9366 129.096 53.0272 132.078C53.1028 133.742 73.5242 133.723 73.4635 132.04C74.1062 126.482 74.6734 120.338 73.6147 114.061C78.1209 113.906 82.6054 113.363 87.0183 112.438C88.9647 111.976 90.7407 110.973 92.1416 109.545C96.0516 105.552 99.6134 101.232 102.788 96.633C103.711 95.5226 96.0738 89.2242 95.1475 90.3774Z" fill="#E5DFD5"/>
<path d="M175.664 24.8148H30.2646C29.7032 24.8151 29.1649 25.0383 28.768 25.4353C28.3711 25.8324 28.1482 26.3708 28.1482 26.9322V35.1559C28.1482 36.325 29.0964 37.2732 30.2656 37.2732H175.664C176.225 37.2732 176.764 37.0501 177.161 36.6531C177.558 36.256 177.781 35.7174 177.781 35.1559V26.9322C177.781 26.3706 177.558 25.8321 177.161 25.435C176.764 25.0379 176.225 24.8148 175.664 24.8148Z" fill="#008765"/>
<path d="M136.134 49.5615L130.746 75.4803L154.695 64.194C152.949 60.4819 150.363 57.2272 147.141 54.6876C143.919 52.1479 140.151 50.3929 136.134 49.5615Z" fill="#008765"/>
<path d="M101.915 87.1068L101.329 87.8033C101.226 87.9389 101.181 88.1095 101.202 88.2784C101.224 88.4473 101.31 88.601 101.444 88.7067C101.577 88.8128 101.746 88.8626 101.915 88.8457C102.085 88.8288 102.241 88.7465 102.35 88.6162L104.486 85.9297C104.054 86.2245 103.592 86.4717 103.106 86.667C102.691 86.8421 102.275 86.9933 101.915 87.1068Z" fill="#008765"/>
<path d="M119.989 66.0277C119.943 65.9889 119.884 65.9692 119.824 65.9727C119.764 65.9762 119.708 66.0027 119.667 66.0466L103.847 84.8382C104.093 84.8293 104.339 84.8422 104.584 84.876C105.132 84.9516 105.076 85.1745 105.094 85.1974L120.026 66.369C120.063 66.3175 120.08 66.2541 120.073 66.1911C120.066 66.1281 120.036 66.0699 119.989 66.0277Z" fill="#008765"/>
<path d="M187.517 110.87C187.959 110.322 188.246 109.665 188.346 108.968C188.447 108.27 188.358 107.559 188.09 106.908C187.821 106.257 187.382 105.69 186.819 105.267C186.256 104.843 185.59 104.579 184.89 104.502C185.06 103.835 185.052 103.133 184.864 102.47C184.677 101.807 184.317 101.205 183.822 100.725C183.327 100.246 182.714 99.9051 182.046 99.7384C181.377 99.5717 180.676 99.5847 180.014 99.7761C179.941 99.252 179.763 98.748 179.491 98.2942C179.219 97.8404 178.858 97.4461 178.43 97.135C178.002 96.8238 177.516 96.6022 177 96.4832C176.484 96.3643 175.95 96.3506 175.429 96.4428C174.733 96.5662 174.082 96.8747 173.547 97.3373C173.206 96.7011 172.696 96.1707 172.074 95.804C171.453 95.4372 170.742 95.2483 170.02 95.2578C169.298 95.2673 168.593 95.4752 167.981 95.8586C167.369 96.242 166.875 96.7863 166.552 97.4319C166.141 97.0993 165.667 96.8529 165.159 96.7074C164.651 96.5619 164.118 96.5203 163.594 96.585C163.069 96.6498 162.563 96.8195 162.105 97.0842C161.647 97.3488 161.248 97.7029 160.93 98.1254C160.505 98.6895 160.24 99.3577 160.162 100.06C159.493 99.8884 158.791 99.8966 158.127 100.084C157.463 100.271 156.86 100.63 156.379 101.124C155.898 101.619 155.555 102.232 155.387 102.901C155.218 103.57 155.228 104.271 155.417 104.935C154.6 105.044 153.839 105.408 153.242 105.975C152.644 106.542 152.241 107.283 152.089 108.092C153.03 108.041 153.97 108.189 154.849 108.527C153.98 110.682 153.696 113.65 155.133 112.209C157.647 109.732 160.009 113.759 155.228 116.727C155.473 119.147 155.851 121.434 156.267 123.722C156.488 125.491 156.842 127.242 157.326 128.958C157.983 129.41 158.76 129.653 159.557 129.655C159.921 129.654 160.283 129.603 160.634 129.504C160.729 130.206 161.012 130.87 161.454 131.424C161.896 131.978 162.48 132.402 163.144 132.651C163.808 132.899 164.526 132.962 165.223 132.834C165.92 132.706 166.57 132.391 167.102 131.924C167.439 132.564 167.946 133.099 168.568 133.469C169.19 133.84 169.902 134.031 170.625 134.023C171.349 134.014 172.056 133.806 172.669 133.42C173.282 133.035 173.776 132.488 174.098 131.84C174.646 132.282 175.303 132.569 176.001 132.67C176.698 132.772 177.409 132.683 178.061 132.415C178.713 132.147 179.28 131.708 179.703 131.144C180.126 130.58 180.39 129.913 180.466 129.212C181.134 129.384 181.835 129.376 182.499 129.189C183.163 129.002 183.765 128.642 184.245 128.147C184.725 127.652 185.065 127.039 185.232 126.369C185.398 125.7 185.384 124.999 185.192 124.337C185.895 124.243 186.559 123.96 187.113 123.518C187.667 123.076 188.09 122.491 188.338 121.827C188.587 121.164 188.652 120.445 188.524 119.748C188.396 119.05 188.08 118.401 187.612 117.869C188.253 117.532 188.789 117.024 189.159 116.401C189.53 115.778 189.721 115.065 189.711 114.341C189.701 113.616 189.491 112.909 189.104 112.296C188.717 111.683 188.168 111.19 187.517 110.87Z" fill="#008765"/>
<path d="M61.7234 89.3187C60.0975 86.9556 56.8081 79.3558 55.1822 85.9357C51.25 86.8054 46.6372 90.3973 53.2917 94.3107C55.3146 95.5047 57.5454 97.2787 58.0558 98.8877C57.8668 96.8459 57.1862 95.1823 56.8459 95.0499C53.8609 93.9156 54.823 91.1933 56.4479 92.2331C57.223 92.7435 57.5175 92.6102 57.4688 92.1386C57.223 89.7655 58.7772 85.6134 61.7234 89.3187Z" fill="#008765"/>
<path d="M72.556 109.585C72.9989 111.061 73.3462 112.564 73.5958 114.084C76.6007 113.933 80.0802 113.649 83.3319 113.158C81.3874 113.322 79.4298 113.091 77.5776 112.476C75.7253 111.862 74.017 110.879 72.556 109.585Z" fill="#008765"/>
<path d="M24.0836 131.496C23.8962 131.158 23.618 130.88 23.2804 130.693C22.9429 130.506 22.5596 130.417 22.1742 130.437C21.5314 130.532 21.1533 131.212 20.9642 132.157C21.6259 132.006 22.3443 131.859 23.1005 131.666C23.4219 131.578 23.7512 131.522 24.0836 131.496Z" fill="#008765"/>
<path d="M23.8378 140.627C24.6696 140.457 25.1233 139.795 25.388 138.774C24.2794 138.865 23.1796 139.042 22.0985 139.304C22.59 140.192 23.1761 140.74 23.8378 140.627Z" fill="#008765"/>
<path d="M60.7025 112.08C60.7074 112.2 60.7584 112.312 60.8447 112.395C60.931 112.477 61.0459 112.523 61.1652 112.522C61.2845 112.522 61.3994 112.477 61.4858 112.394C61.5722 112.312 61.6235 112.2 61.6289 112.08C61.624 111.961 61.573 111.848 61.4867 111.766C61.4004 111.684 61.2855 111.638 61.1662 111.639C61.0468 111.638 60.932 111.684 60.8456 111.766C60.7592 111.849 60.7079 111.961 60.7025 112.08Z" fill="#008765"/>
<path d="M67.3193 118.924C67.3242 119.043 67.3753 119.156 67.4619 119.239C67.5484 119.321 67.6635 119.367 67.783 119.366C67.9022 119.366 68.0168 119.32 68.103 119.238C68.1892 119.155 68.2403 119.043 68.2457 118.924C68.2408 118.805 68.1898 118.692 68.1035 118.61C68.0172 118.527 67.9023 118.482 67.783 118.482C67.6637 118.482 67.5488 118.528 67.4624 118.61C67.376 118.692 67.3247 118.805 67.3193 118.924Z" fill="#008765"/>
<path d="M63.0846 127.223C63.0895 127.342 63.1405 127.455 63.2267 127.537C63.313 127.62 63.428 127.666 63.5473 127.665C63.6666 127.665 63.7815 127.62 63.8679 127.537C63.9543 127.455 64.0056 127.342 64.0109 127.223C64.006 127.104 63.9551 126.991 63.8688 126.909C63.7825 126.826 63.6676 126.781 63.5483 126.781C63.4289 126.781 63.314 126.827 63.2276 126.909C63.1412 126.991 63.09 127.104 63.0846 127.223Z" fill="#008765"/>
<path d="M149.499 123.934C148.513 124.093 147.503 123.99 146.569 123.635C146.398 123.552 146.249 123.431 146.134 123.28C146.019 123.128 145.942 122.952 145.907 122.766C146.059 124.788 148.025 126.074 151.031 126.845C151.163 126.883 151.276 126.902 151.409 126.94L153.167 123.386C153.136 123.359 153.11 123.327 153.091 123.291C151.911 123.591 150.71 123.805 149.499 123.934Z" fill="#008765"/>
<path d="M61.0807 97.5632C60.6752 97.5679 60.2703 97.5329 59.8717 97.4587C59.8311 97.4453 59.7871 97.4461 59.747 97.4609C59.7069 97.4757 59.673 97.5037 59.6508 97.5403C59.6289 97.577 59.6201 97.6202 59.6261 97.6625C59.6321 97.7049 59.6524 97.7439 59.6837 97.7731L61.4976 99.4935C61.5239 99.5233 61.56 99.5427 61.5994 99.5482C61.6388 99.5538 61.6788 99.5451 61.7124 99.5238C61.7459 99.5024 61.7708 99.4698 61.7825 99.4318C61.7942 99.3938 61.7919 99.3529 61.7762 99.3164C61.2518 97.5433 61.203 97.5433 61.0807 97.5632Z" fill="#008765"/>
<path d="M193.813 144.294C193.849 144.708 193.751 145.123 193.533 145.476C193.316 145.83 192.99 146.105 192.605 146.259C192.219 146.414 191.794 146.441 191.392 146.335C190.99 146.23 190.633 145.998 190.373 145.674C190.113 145.35 189.965 144.951 189.949 144.536C189.933 144.12 190.051 143.711 190.286 143.369C190.521 143.026 190.859 142.768 191.252 142.632C191.645 142.496 192.07 142.491 192.467 142.616C192.832 142.73 193.156 142.951 193.395 143.25C193.635 143.549 193.78 143.912 193.813 144.294Z" stroke="#303030" stroke-linecap="round" stroke-linejoin="round"/>
<path d="M188.538 194.525V162.973C188.538 162.171 188.381 161.377 188.075 160.635C187.612 159.52 186.829 158.567 185.824 157.896C184.82 157.225 183.64 156.867 182.432 156.866H118.325C117.523 156.866 116.729 157.023 115.988 157.33C114.872 157.793 113.919 158.576 113.248 159.58C112.578 160.584 112.219 161.765 112.219 162.973V194.525" stroke="#303030" stroke-linecap="round" stroke-linejoin="round"/>
<path d="M161.428 164.655H139.31C138.391 164.655 137.646 165.4 137.646 166.319V172.293C137.646 173.211 138.391 173.956 139.31 173.956H161.428C162.347 173.956 163.092 173.211 163.092 172.293V166.319C163.092 165.4 162.347 164.655 161.428 164.655Z" stroke="#303030" stroke-linecap="round" stroke-linejoin="round"/>
<path d="M93.2381 194.525V162.973C93.2385 162.171 93.0808 161.376 92.774 160.635C92.4673 159.894 92.0175 159.221 91.4504 158.654C90.8833 158.087 90.21 157.637 89.469 157.33C88.728 157.023 87.9337 156.866 87.1317 156.866H23.0239C22.2229 156.866 21.4289 157.023 20.6876 157.33C19.1917 157.951 18.003 159.139 17.3822 160.635C17.0757 161.376 16.9181 162.171 16.9186 162.973V194.525" stroke="#303030" stroke-linecap="round" stroke-linejoin="round"/>
<path d="M67.792 166.319C67.7945 165.989 67.6982 165.666 67.5155 165.392C67.3329 165.118 67.0722 164.904 66.7672 164.779C66.5646 164.696 66.3474 164.654 66.1284 164.655H44.0284C43.8095 164.653 43.5925 164.695 43.3899 164.778C43.1874 164.862 43.0033 164.984 42.8485 165.139C42.6937 165.294 42.5712 165.478 42.4882 165.68C42.4051 165.883 42.3632 166.1 42.3648 166.319V172.289C42.3632 172.508 42.4051 172.725 42.4882 172.927C42.5712 173.13 42.6937 173.314 42.8485 173.469C43.0033 173.623 43.1874 173.746 43.3899 173.829C43.5925 173.912 43.8095 173.954 44.0284 173.952H66.1274C66.3464 173.954 66.5635 173.912 66.7662 173.829C66.9689 173.746 67.153 173.624 67.3079 173.469C67.4628 173.314 67.5854 173.13 67.6685 172.927C67.7516 172.725 67.7936 172.508 67.792 172.289V166.319Z" stroke="#303030" stroke-linecap="round" stroke-linejoin="round"/>
<path d="M147.231 117.619H74.0486" stroke="#303030" stroke-linecap="round" stroke-linejoin="round"/>
<path d="M164.812 96.5971V37.2732H41.1171V113.532C41.1179 114.377 41.3799 115.201 41.8672 115.892C42.3545 116.582 43.0434 117.105 43.8394 117.389" stroke="#303030" stroke-linecap="round" stroke-linejoin="round"/>
<path d="M28.1482 26.9322V35.1559C28.1479 35.434 28.2025 35.7094 28.3088 35.9664C28.4152 36.2235 28.5711 36.457 28.7678 36.6536C28.9644 36.8503 29.198 37.0063 29.455 37.1126C29.712 37.2189 29.9874 37.2735 30.2656 37.2732H175.664C175.942 37.2735 176.217 37.2189 176.474 37.1125C176.731 37.0062 176.964 36.8502 177.161 36.6535C177.358 36.4568 177.513 36.2233 177.619 35.9663C177.725 35.7093 177.78 35.4339 177.779 35.1559V26.9322C177.78 26.5133 177.656 26.1038 177.423 25.7554C177.19 25.407 176.86 25.1354 176.473 24.975C176.216 24.8689 175.94 24.8145 175.662 24.8148H30.2656C29.9874 24.8144 29.7119 24.8689 29.4548 24.9752C29.1977 25.0815 28.9642 25.2374 28.7675 25.4341C28.5708 25.6308 28.4148 25.8644 28.3086 26.1214C28.2023 26.3785 28.1478 26.654 28.1482 26.9322Z" stroke="#303030" stroke-linecap="round" stroke-linejoin="round"/>
<path d="M102.955 117.619V143.652" stroke="#303030" stroke-linecap="round" stroke-linejoin="round"/>
<path d="M98.6638 147.943C98.6641 148.58 98.8057 149.21 99.0783 149.786C99.3509 150.362 99.7477 150.87 100.24 151.274C100.733 151.678 101.309 151.969 101.927 152.124C102.545 152.279 103.19 152.295 103.815 152.171C104.616 152.012 105.355 151.628 105.946 151.065C106.538 150.502 106.957 149.783 107.155 148.991C107.354 148.199 107.323 147.367 107.067 146.591C106.811 145.816 106.34 145.129 105.709 144.611C105.078 144.093 104.312 143.765 103.502 143.665C102.692 143.565 101.87 143.698 101.131 144.047C100.393 144.396 99.7695 144.947 99.3327 145.637C98.8958 146.327 98.6639 147.127 98.6638 147.943Z" stroke="#303030" stroke-linecap="round" stroke-linejoin="round"/>
<path d="M136.134 49.5614L130.765 75.4802L154.698 64.1939" stroke="#303030" stroke-linecap="round" stroke-linejoin="round"/>
<path d="M104.846 80.9437C103.512 74.5252 104.614 67.8402 107.936 62.1888C111.259 56.5375 116.564 52.3238 122.821 50.3674C129.078 48.411 135.838 48.8517 141.788 51.6037C147.738 54.3558 152.452 59.2225 155.013 65.2573C157.573 71.292 157.798 78.0635 155.642 84.2546C153.487 90.4457 149.106 95.6139 143.351 98.754C137.597 101.894 130.88 102.781 124.507 101.244C118.135 99.706 112.562 95.8529 108.873 90.434" stroke="#303030" stroke-linecap="round" stroke-linejoin="round"/>
<path d="M146.928 54.4957L153.148 45.9884H159.103" stroke="#303030" stroke-linecap="round" stroke-linejoin="round"/>
<path d="M115.414 97.0508L108.986 106.125H102.842" stroke="#303030" stroke-linecap="round" stroke-linejoin="round"/>
<path d="M62.3662 90.2072V56.8747C62.3654 56.4839 62.2098 56.1093 61.9334 55.8329C61.657 55.5565 61.2824 55.4009 60.8916 55.4001H56.5434C56.1525 55.4007 55.7778 55.5562 55.5013 55.8326C55.2249 56.1091 55.0694 56.4838 55.0688 56.8747V85.6312" stroke="#303030" stroke-linecap="round" stroke-linejoin="round"/>
<path d="M55.0688 95.5234V98.998C55.0691 99.389 55.2246 99.7639 55.501 100.04C55.7775 100.317 56.1524 100.472 56.5434 100.473H58.1126" stroke="#303030" stroke-linecap="round" stroke-linejoin="round"/>
<path d="M61.8369 100.132C62.0013 99.9922 62.1336 99.8184 62.225 99.6227C62.3163 99.427 62.3645 99.2139 62.3663 98.998V97.599" stroke="#303030" stroke-linecap="round" stroke-linejoin="round"/>
<path d="M75.3729 66.0088C75.3733 65.8696 75.3462 65.7318 75.2931 65.6032C75.24 65.4745 75.1621 65.3577 75.0637 65.2593C74.9653 65.1609 74.8484 65.0829 74.7198 65.0299C74.5912 64.9768 74.4534 64.9497 74.3142 64.9501H69.1342C68.9951 64.9497 68.8573 64.9768 68.7286 65.0299C68.6 65.0829 68.4832 65.1609 68.3848 65.2593C68.2864 65.3577 68.2084 65.4745 68.1554 65.6032C68.1023 65.7318 68.0752 65.8696 68.0756 66.0088V99.4139C68.0754 99.553 68.1027 99.6907 68.1559 99.8192C68.209 99.9477 68.287 100.064 68.3854 100.163C68.4837 100.261 68.6005 100.339 68.729 100.392C68.8575 100.445 68.9952 100.473 69.1342 100.473H74.3142C74.5235 100.472 74.728 100.41 74.9021 100.294C75.0763 100.178 75.2123 100.013 75.2933 99.8199C75.346 99.6905 75.3729 99.5532 75.3729 99.4139V66.0088Z" stroke="#303030" stroke-linecap="round" stroke-linejoin="round"/>
<path d="M88.3795 98.9054V75.5368C88.3792 75.1458 88.2238 74.7709 87.9473 74.4944C87.6708 74.218 87.2959 74.0625 86.9049 74.0623H82.5577C82.1668 74.0628 81.792 74.2183 81.5156 74.4947C81.2392 74.7712 81.0837 75.1459 81.0831 75.5368V98.9979C81.0834 99.389 81.2388 99.7639 81.5153 100.04C81.7918 100.317 82.1667 100.472 82.5577 100.473H86.8492" stroke="#303030" stroke-linecap="round" stroke-linejoin="round"/>
<path d="M52.4033 105.898H48.3387V49.0132" stroke="#303030" stroke-linecap="round" stroke-linejoin="round"/>
<path d="M46.3538 53.7962L48.3388 49.0132L50.3427 53.7962" stroke="#303030" stroke-linecap="round" stroke-linejoin="round"/>
<path d="M58.0748 98.8845C58.1815 99.8623 58.1369 100.851 57.9425 101.815" stroke="#303030" stroke-linecap="round" stroke-linejoin="round"/>
<path d="M61.6409 89.2172C62.0501 89.7137 62.4132 90.2466 62.7255 90.8092C67.584 99.1274 59.8141 97.615 59.8141 97.615" stroke="#303030" stroke-linecap="round" stroke-linejoin="round"/>
<path d="M102.766 96.6916C103.693 95.5762 96.0549 89.2809 95.1286 90.3963C92.2807 94.6648 88.9364 98.5803 85.1656 102.061C78.7976 103.119 74.7301 102.823 67.1303 102.874C63.8597 102.895 62.3662 102.514 62.0637 101.096C61.421 101.456 61.4409 101.876 60.7026 101.966C60.0608 102.045 58.6608 101.853 57.9424 101.853C57.8641 102.214 57.7566 102.568 57.6211 102.911C56.8071 105.009 48.2681 105.761 45.4273 112.591C44.5547 114.688 41.0036 126.826 41.0036 126.826C34.5361 127.015 28.8855 128.319 22.1553 130.456C25.2935 129.927 26.976 139.51 24.1025 140.57C30.7065 138.748 37.4271 137.377 44.2174 136.468C45.3475 136.325 46.4136 135.864 47.2908 135.137C48.168 134.411 48.82 133.449 49.1705 132.365C49.2034 132.266 51.9446 123.546 52.063 123.196C52.6331 126.126 52.9555 129.098 53.0271 132.082C53.1167 133.744 73.5241 133.727 73.4634 132.044C74.1062 126.486 74.6734 120.342 73.6147 114.065C78.1208 113.905 82.6049 113.361 87.0183 112.438C88.964 111.974 90.7397 110.972 92.1416 109.545C96.0413 105.57 99.5957 101.27 102.766 96.6916Z" stroke="#303030" stroke-linecap="round" stroke-linejoin="round"/>
<path d="M61.0807 97.7313C61.4941 98.8133 61.8228 99.9257 62.0637 101.059" stroke="#303030" stroke-linecap="round" stroke-linejoin="round"/>
<path d="M52.063 123.196C51.7227 121.722 51.267 120.304 50.6073 118.092" stroke="#303030" stroke-linecap="round" stroke-linejoin="round"/>
<path d="M100.468 92.1852C101.164 90.9912 102.288 88.7723 101.145 87.3525C102.341 87.0422 103.481 86.5513 104.528 85.8968C104.961 85.5714 105.474 85.0073 104.566 84.8759C103.159 84.8504 101.752 84.9707 100.369 85.2351C100.075 85.2783 99.7934 85.3832 99.5425 85.5428C99.2917 85.7024 99.0774 85.9133 98.9136 86.1615C98.3216 87.0649 97.2311 88.6758 96.0779 90.3017" stroke="#303030" stroke-linecap="round" stroke-linejoin="round"/>
<path d="M106.453 89.1674C107.451 88.7805 108.484 88.4893 109.537 88.2978C112.732 87.5416 112.753 88.3575 110.218 89.6778C107.312 91.1373 104.708 93.1321 102.542 95.5573" stroke="#303030" stroke-linecap="round" stroke-linejoin="round"/>
<path d="M105.318 86.7665C106.754 86.1137 108.232 85.5579 109.742 85.1029C112.804 83.9278 112.937 84.7248 110.593 86.3884C109.54 87.1202 108.532 87.9143 107.574 88.7665" stroke="#303030" stroke-linecap="round" stroke-linejoin="round"/>
<path d="M104.865 84.5357C106.23 83.3762 107.656 82.2907 109.137 81.2841C111.964 79.6185 112.222 80.3577 110.196 82.3995C109.202 83.498 108.282 84.6614 107.443 85.882" stroke="#303030" stroke-linecap="round" stroke-linejoin="round"/>
<path d="M101.934 85.0084C102.904 83.5005 103.958 82.0488 105.092 80.6602C107.289 78.2245 107.768 78.8692 106.434 81.4164C105.998 82.2939 105.632 83.2041 105.339 84.1387" stroke="#303030" stroke-linecap="round" stroke-linejoin="round"/>
<path d="M106.717 90.3774C106.698 90.2451 105.921 87.1486 104.546 85.881" stroke="#303030" stroke-linecap="round" stroke-linejoin="round"/>
<path d="M104.487 85.9347L102.369 88.6212C102.261 88.7582 102.103 88.847 101.929 88.8682C101.756 88.8895 101.581 88.8415 101.443 88.7346C101.374 88.6815 101.317 88.6148 101.274 88.5386C101.232 88.4625 101.206 88.3785 101.197 88.2918C101.188 88.2052 101.197 88.1177 101.223 88.0346C101.249 87.9514 101.292 87.8745 101.348 87.8083L101.9 87.1287" stroke="#303030" stroke-linecap="round" stroke-linejoin="round"/>
<path d="M105.092 85.1745L120.026 66.3451C120.059 66.2969 120.072 66.2384 120.063 66.1811C120.055 66.1237 120.025 66.0715 119.981 66.0347C119.936 65.9977 119.88 65.9784 119.822 65.9806C119.764 65.9828 119.709 66.0063 119.667 66.0466L103.847 84.8382" stroke="#303030" stroke-linecap="round" stroke-linejoin="round"/>
<path d="M55.2013 85.9536C51.269 86.8232 46.6562 90.4152 53.3108 94.3285C55.3336 95.5225 57.5644 97.2966 58.0748 98.9055C57.8858 96.8638 57.2052 95.2001 56.8649 95.0678C53.8799 93.9335 54.8421 91.2112 56.4669 92.251C57.4221 92.8798 57.4997 92.5425 57.45 91.9574C57.251 89.5953 58.8161 85.7825 61.6389 89.2192C59.9713 86.7297 56.7873 79.4831 55.2013 85.9536Z" stroke="#303030" stroke-linecap="round" stroke-linejoin="round"/>
<path d="M24.0836 131.496C23.3475 131.53 22.6349 131.766 22.023 132.176C17.365 135.528 12.9553 139.211 8.82827 143.198C6.53977 146.012 7.41537 146.42 10.1138 144.446C11.9481 143.112 13.9267 141.99 16.0122 141.099C18.5683 140.098 21.2231 139.369 23.9324 138.925C24.2309 138.868 24.8975 138.793 25.389 138.755" stroke="#303030" stroke-linecap="round" stroke-linejoin="round"/>
<path d="M15.7654 136.978C16.9942 135.56 12.9485 135.503 11.9466 135.187C10.5854 134.751 9.09091 134.214 13.0052 133.656C16.5505 133.146 20.0656 132.446 23.5353 131.557" stroke="#303030" stroke-linecap="round" stroke-linejoin="round"/>
<path d="M12.6709 142.779C12.1386 143.429 11.1506 144.827 10.869 145.24C9.54565 147.13 10.1526 147.38 10.4531 147.149C10.5526 147.07 17.5534 140.853 21.0558 139.531" stroke="#303030" stroke-linecap="round" stroke-linejoin="round"/>
<path d="M14.264 143.979C14.1128 144.291 13.9814 144.54 13.9128 144.694C12.9108 146.774 13.5585 146.911 13.8133 146.642C14.8351 145.582 16.2331 143.673 17.1963 142.69C18.4009 141.517 19.7105 140.457 21.1086 139.522" stroke="#303030" stroke-linecap="round" stroke-linejoin="round"/>
<path d="M53.0272 132.063C51.874 135.031 46.902 142.158 44.0095 156.847" stroke="#303030" stroke-linecap="round" stroke-linejoin="round"/>
<path d="M73.4635 132.063C73.7849 138.53 75.3729 156.847 75.3729 156.847" stroke="#303030" stroke-linecap="round" stroke-linejoin="round"/>
<path d="M60.1921 156.866L62.9334 147.168L64.3323 146.601" stroke="#303030" stroke-linecap="round" stroke-linejoin="round"/>
<path d="M145.913 122.834C146.106 124.815 148.061 126.079 151.031 126.845C151.163 126.883 151.276 126.902 151.409 126.94" stroke="#303030" stroke-linecap="round" stroke-linejoin="round"/>
<path d="M177.271 156.847C176.972 146.809 175.38 140.601 167.081 136.748C165.815 136.161 158.886 133.601 157.307 128.959C156.842 127.238 156.489 125.489 156.248 123.723C155.839 121.434 155.452 119.146 155.209 116.728C159.992 113.76 157.62 109.724 155.114 112.21C153.672 113.641 153.961 110.678 154.831 108.528C153.951 108.194 153.011 108.046 152.07 108.093C145 120.363 145.907 122.839 145.926 122.877C146.411 124.088 148.115 124.071 149.499 123.936C150.756 123.8 152 123.572 153.224 123.255L151.409 126.937C151.201 127.598 151.029 128.259 150.823 128.922C150.605 129.773 150.207 130.569 149.656 131.253C149.105 131.938 148.413 132.497 147.628 132.892C143.699 135.089 137.665 136.374 136.512 136.824C127.91 139.584 127.002 145.312 123.373 156.863" stroke="#303030" stroke-linecap="round" stroke-linejoin="round"/>
<path d="M154.849 108.526C153.98 110.681 153.691 113.644 155.133 112.208C157.638 109.72 160.009 113.758 155.228 116.726C155.473 119.146 155.857 121.432 156.267 123.721C156.49 125.49 156.844 127.24 157.326 128.957C157.983 129.409 158.76 129.652 159.557 129.654C159.921 129.653 160.283 129.602 160.634 129.503C160.729 130.205 161.012 130.869 161.454 131.423C161.896 131.977 162.48 132.401 163.144 132.65C163.808 132.898 164.526 132.961 165.223 132.833C165.92 132.705 166.57 132.391 167.102 131.923C167.439 132.563 167.946 133.098 168.568 133.469C169.189 133.839 169.901 134.031 170.625 134.022C171.349 134.014 172.056 133.805 172.669 133.42C173.282 133.035 173.776 132.488 174.098 131.84C174.646 132.282 175.303 132.569 176.001 132.67C176.698 132.772 177.409 132.683 178.061 132.415C178.713 132.147 179.28 131.708 179.703 131.144C180.126 130.58 180.39 129.913 180.466 129.212C181.134 129.384 181.835 129.376 182.499 129.189C183.163 129.002 183.765 128.642 184.245 128.147C184.725 127.652 185.065 127.039 185.232 126.37C185.398 125.7 185.384 124.999 185.192 124.337C185.895 124.243 186.559 123.96 187.113 123.518C187.667 123.076 188.09 122.491 188.338 121.827C188.587 121.164 188.652 120.445 188.524 119.748C188.396 119.05 188.08 118.401 187.612 117.869C188.252 117.531 188.786 117.023 189.155 116.401C189.524 115.779 189.714 115.066 189.705 114.343C189.695 113.619 189.485 112.913 189.099 112.301C188.714 111.689 188.166 111.195 187.517 110.874C187.959 110.326 188.246 109.669 188.346 108.972C188.447 108.274 188.358 107.563 188.09 106.912C187.821 106.261 187.382 105.694 186.819 105.271C186.256 104.847 185.59 104.583 184.89 104.506C185.06 103.839 185.052 103.137 184.864 102.474C184.677 101.811 184.317 101.209 183.822 100.729C183.327 100.25 182.714 99.9091 182.046 99.7424C181.377 99.5757 180.676 99.5887 180.014 99.7801C179.941 99.256 179.763 98.752 179.491 98.2982C179.219 97.8444 178.858 97.4502 178.43 97.139C178.002 96.8278 177.516 96.6062 177 96.4872C176.484 96.3683 175.95 96.3546 175.429 96.4468C174.733 96.5692 174.082 96.8787 173.547 97.3414C173.205 96.7052 172.696 96.1748 172.074 95.8081C171.453 95.4414 170.742 95.2524 170.02 95.2618C169.298 95.2713 168.593 95.4792 167.981 95.8626C167.369 96.246 166.875 96.7903 166.552 97.4359C166.141 97.1033 165.667 96.8569 165.159 96.7115C164.651 96.566 164.118 96.5243 163.594 96.5891C163.069 96.6538 162.563 96.8235 162.105 97.0882C161.647 97.3528 161.248 97.7069 160.93 98.1294C160.505 98.6936 160.24 99.3617 160.162 100.064C159.493 99.8923 158.791 99.9005 158.127 100.087C157.463 100.274 156.86 100.633 156.379 101.128C155.898 101.623 155.555 102.236 155.387 102.905C155.218 103.574 155.228 104.275 155.417 104.939C154.6 105.048 153.839 105.412 153.242 105.979C152.644 106.546 152.241 107.287 152.089 108.096C153.029 108.043 153.97 108.189 154.849 108.526Z" stroke="#303030" stroke-linecap="round" stroke-linejoin="round"/>
<path d="M173.131 149.89C173.131 149.89 173.339 153.18 173.414 156.866" stroke="#303030" stroke-linecap="round" stroke-linejoin="round"/>
<path d="M142.278 135.123C151.034 138.606 165.814 138.186 163.432 135.01" stroke="#303030" stroke-linecap="round" stroke-linejoin="round"/>
<path d="M58.6041 164.655L56.449 173.956" stroke="#303030" stroke-linecap="round" stroke-linejoin="round"/>
<path d="M138.062 153.747L137.684 156.866" stroke="#303030" stroke-linecap="round" stroke-linejoin="round"/>
<path d="M83.3319 113.158C80.0802 113.649 76.6017 113.933 73.5958 114.084C73.3471 112.564 72.9988 111.06 72.556 109.585C74.017 110.879 75.7253 111.862 77.5776 112.476C79.4298 113.091 81.3874 113.322 83.3319 113.158Z" stroke="#303030" stroke-linecap="round" stroke-linejoin="round"/>
<path d="M20.9673 132.157C21.1563 131.212 21.5145 130.55 22.1613 130.456" stroke="#303030" stroke-linecap="round" stroke-linejoin="round"/>
<path d="M24.1026 140.57C23.3464 140.869 22.6469 140.293 22.0986 139.303" stroke="#303030" stroke-linecap="round" stroke-linejoin="round"/>
<path d="M57.0918 103.554L58.3773 106.125L60.9544 101.923L64.5026 104.896L63.4827 102.523" stroke="#303030" stroke-linecap="round" stroke-linejoin="round"/>
<path d="M60.7225 101.963C61.0897 102.647 66.593 113.243 65.2209 133.311" stroke="#303030" stroke-linecap="round" stroke-linejoin="round"/>
<path d="M48.2631 142.234C51.0043 142.839 55.6927 139.36 56.4489 136.449" stroke="#303030" stroke-linecap="round" stroke-linejoin="round"/>
<path d="M71.3083 136.146C71.9322 138.623 73.2178 140.249 74.0307 140.646" stroke="#303030" stroke-linecap="round" stroke-linejoin="round"/>
<path d="M137.438 136.524C152.335 142.687 168.934 141.232 167.1 136.751" stroke="#303030" stroke-linecap="round" stroke-linejoin="round"/>
<path d="M62.3473 47.6143L88.3984 68.0128" stroke="#303030" stroke-linecap="round" stroke-linejoin="round"/>
<path d="M87.6223 61.7362L88.3984 68.0127L82.103 68.7878" stroke="#303030" stroke-linecap="round" stroke-linejoin="round"/>
<path d="M191.639 61.4716H183.075" stroke="#303030" stroke-linecap="round" stroke-linejoin="round"/>
<path d="M187.357 65.763V57.1802" stroke="#303030" stroke-linecap="round" stroke-linejoin="round"/>
<path d="M17.5614 90.1316C17.5703 90.493 17.5072 90.8527 17.3756 91.1895C17.244 91.5263 17.0467 91.8335 16.7951 92.0932C16.5435 92.3529 16.2427 92.5598 15.9103 92.702C15.5778 92.8442 15.2204 92.9187 14.8588 92.9212C14.4972 92.9237 14.1388 92.8542 13.8044 92.7166C13.47 92.5791 13.1663 92.3763 12.9111 92.1201C12.656 91.864 12.4544 91.5595 12.3181 91.2246C12.1819 90.8896 12.1138 90.5309 12.1177 90.1694C12.1313 89.4598 12.4215 88.7836 12.9264 88.2849C13.4313 87.7861 14.111 87.5043 14.8206 87.4993C15.5303 87.4944 16.2138 87.7668 16.7256 88.2585C17.2374 88.7502 17.5379 89.4223 17.5614 90.1316Z" stroke="#303030" stroke-linecap="round" stroke-linejoin="round"/>
<path d="M24.6319 97.015C24.6358 97.5537 24.4799 98.0815 24.1838 98.5315C23.8878 98.9816 23.4649 99.3337 22.9687 99.5434C22.4724 99.7531 21.9252 99.8109 21.3961 99.7095C20.867 99.6082 20.3799 99.3521 19.9964 98.9739C19.6128 98.5956 19.3501 98.1121 19.2413 97.5845C19.1326 97.0569 19.1828 96.5089 19.3856 96.0098C19.5884 95.5107 19.9346 95.083 20.3805 94.7807C20.8264 94.4784 21.3519 94.3152 21.8906 94.3116C22.249 94.3059 22.6049 94.3717 22.9376 94.5051C23.2703 94.6385 23.573 94.8368 23.8282 95.0884C24.0834 95.3401 24.2859 95.6401 24.4239 95.9709C24.5619 96.3017 24.6326 96.6566 24.6319 97.015Z" stroke="#303030" stroke-linecap="round" stroke-linejoin="round"/>
<path d="M12.1735 99.811L24.5751 87.2581" stroke="#303030" stroke-linecap="round" stroke-linejoin="round"/>
<path d="M103.163 5.47498L100.8 10.7873H105.129L102.747 16.0996" stroke="#303030" stroke-linecap="round" stroke-linejoin="round"/>
</svg>
