<svg width="200" height="200" viewBox="0 0 200 200" fill="none" xmlns="http://www.w3.org/2000/svg">
<path d="M62.583 50.5941V47.5171H5V70.7111H8.157" stroke="#303030" stroke-linecap="round" stroke-linejoin="round"/>
<path d="M65.74 53.7272V50.5942H8.15698V73.7882H11.56" stroke="#303030" stroke-linecap="round" stroke-linejoin="round"/>
<path d="M29.7241 76.921H11.5601V53.728H69.1431V72.036" stroke="#303030" stroke-linecap="round" stroke-linejoin="round"/>
<path d="M43.1581 60.6001H39.2659C39.0146 60.6001 38.7658 60.6496 38.5336 60.7458C38.3014 60.842 38.0904 60.983 37.9126 61.1607C37.7349 61.3384 37.5939 61.5494 37.4977 61.7816C37.4016 62.0139 37.3521 62.2627 37.3521 62.5141C37.3521 62.7654 37.4016 63.0143 37.4977 63.2466C37.5939 63.4788 37.7349 63.6898 37.9126 63.8675C38.0904 64.0452 38.3014 64.1862 38.5336 64.2824C38.7658 64.3786 39.0146 64.4281 39.2659 64.4281L41.3871 64.4421C41.9014 64.4415 42.3956 64.6424 42.7635 65.0019C43.1314 65.3614 43.3437 65.8508 43.3549 66.3651C43.3547 66.8737 43.1525 67.3614 42.7929 67.721C42.4333 68.0807 41.9457 68.2828 41.437 68.2831L37.5449 68.2751" stroke="#303030" stroke-linecap="round" stroke-linejoin="round"/>
<path d="M40.3521 69.9293V59.1143" stroke="#303030" stroke-linecap="round" stroke-linejoin="round"/>
<path d="M149.534 135.654H29.7241C29.7247 138.786 30.969 141.789 33.1835 144.004C35.398 146.218 38.4013 147.463 41.5331 147.463H129.473" stroke="#303030" stroke-linecap="round" stroke-linejoin="round"/>
<path d="M29.7241 135.654V72.0361L86.7071 72.0371" stroke="#303030" stroke-linecap="round" stroke-linejoin="round"/>
<path d="M102.739 72.0371L163.063 72.0361V124.567" stroke="#303030" stroke-linecap="round" stroke-linejoin="round"/>
<path d="M113.216 147.463H79.571V164.284H113.216V147.463Z" fill="#E5DFD5"/>
<path d="M113.216 147.463H79.571V164.284H113.216V147.463Z" stroke="#303030" stroke-linecap="round" stroke-linejoin="round"/>
<path d="M72.6001 164.284H120.189" stroke="#303030" stroke-linecap="round" stroke-linejoin="round"/>
<path fill-rule="evenodd" clip-rule="evenodd" d="M99.2851 85.4468C98.8608 84.9284 98.3772 84.4615 97.8441 84.0558C96.2028 84.1277 94.6135 84.6524 93.2521 85.5718C89.7183 85.939 86.2721 86.9009 83.0591 88.4168C80.1181 83.9558 74.4531 84.0558 74.4531 84.0558C73.075 87.604 73.1044 91.5446 74.5351 95.0718C73.6109 96.251 72.8419 97.5439 72.2471 98.9188C69.4381 103.998 65.7371 104.919 65.7371 104.919C67.9491 104.919 69.7421 107.701 69.7421 111.133C69.7421 114.263 68.2511 116.853 66.3101 117.285C68.1221 117.113 73.7171 116.823 75.6101 119.506C77.8781 122.726 78.2651 130.653 78.2651 130.653H84.1501L85.6941 122.522L86.5361 130.653H93.3171V124.253C96.574 124.68 99.8791 124.566 103.099 123.917L102.699 130.653H109.599L111.508 121.124L114.031 130.653H120.9L122.977 104.919C122.974 94.7098 112.553 86.3228 99.2851 85.4468Z" fill="#E5DFD5"/>
<path d="M74.5349 95.072C73.2157 91.5234 73.1867 87.6238 74.4529 84.056C74.4529 84.056 80.2209 83.888 83.0589 88.417" stroke="#303030" stroke-linecap="round" stroke-linejoin="round"/>
<path d="M65.7371 104.914C65.7371 104.914 69.4371 103.997 72.2471 98.9139C75.2321 91.9559 83.2751 86.6999 93.1141 85.5879" stroke="#303030" stroke-linecap="round" stroke-linejoin="round"/>
<path d="M99.4718 85.46C112.651 86.402 122.972 94.76 122.972 104.914L120.9 130.648H114.034L111.511 121.119L109.602 130.648H102.702L103.102 123.912" stroke="#303030" stroke-linecap="round" stroke-linejoin="round"/>
<path d="M103.1 123.912C97.2771 124.97 91.2788 124.487 85.7 122.512" stroke="#303030" stroke-linecap="round" stroke-linejoin="round"/>
<path d="M69.742 111.128C69.742 114.561 67.949 117.343 65.737 117.343C63.525 117.343 61.731 114.561 61.731 111.128C61.731 107.695 63.525 104.914 65.737 104.914C67.949 104.914 69.742 107.7 69.742 111.128Z" stroke="#303030" stroke-linecap="round" stroke-linejoin="round"/>
<path d="M65.7371 117.343C65.7371 117.343 73.3371 116.282 75.6061 119.501C77.8751 122.72 78.2611 130.648 78.2611 130.648H84.1501L85.6941 122.517L86.5361 130.648H93.3171V124.263" stroke="#303030" stroke-linecap="round" stroke-linejoin="round"/>
<path d="M122.93 103.765C122.93 103.765 123.561 107.371 125.538 107.3C129.338 107.163 125.129 99.9709 128.55 99.9709C130.588 99.9709 129.67 106.623 132.55 105.794C135.606 104.914 131.931 99.6129 134.404 98.9759C137.004 98.3059 136.171 103.765 138.161 103.765C140.225 103.765 139.533 100.035 139.387 98.9759" stroke="#303030" stroke-linecap="round" stroke-linejoin="round"/>
<path d="M75.7 101.059L75.688 103.765" stroke="#303030" stroke-linecap="round" stroke-linejoin="round"/>
<path d="M63.9557 109.213L63.9437 113.044" stroke="#303030" stroke-linecap="round" stroke-linejoin="round"/>
<path d="M66.7591 109.213L66.7471 113.044" stroke="#303030" stroke-linecap="round" stroke-linejoin="round"/>
<path d="M84.4361 101.059L84.4241 103.765" stroke="#303030" stroke-linecap="round" stroke-linejoin="round"/>
<path d="M89.1459 92.7508C89.1349 89.3368 92.3939 84.0568 97.8459 84.0508C97.8459 84.0508 103.937 87.1368 99.4019 96.5888" stroke="#303030" stroke-linecap="round" stroke-linejoin="round"/>
<path d="M72.752 117.693C72.752 117.693 77.119 118.484 77.292 112.686" stroke="#303030" stroke-linecap="round" stroke-linejoin="round"/>
<path fill-rule="evenodd" clip-rule="evenodd" d="M160.248 150.306C149.328 150.306 137.078 147.461 129.473 144.076V179.241H191.024V144.076C181.255 148.093 170.81 150.207 160.248 150.306ZM175.221 165.306C174.748 165.306 174.285 165.166 173.891 164.903C173.498 164.64 173.191 164.266 173.01 163.829C172.829 163.392 172.782 162.911 172.874 162.446C172.966 161.982 173.194 161.556 173.529 161.221C173.863 160.886 174.29 160.658 174.754 160.566C175.218 160.474 175.699 160.521 176.137 160.702C176.574 160.883 176.948 161.19 177.211 161.584C177.474 161.977 177.614 162.44 177.614 162.913C177.612 163.547 177.359 164.154 176.911 164.601C176.462 165.049 175.854 165.3 175.221 165.3V165.306Z" fill="#008765"/>
<path d="M129.473 144.076V179.241H191.024V144.076" stroke="#303030" stroke-linecap="round" stroke-linejoin="round"/>
<path d="M174.367 139.188C180.081 140.206 185.666 141.845 191.024 144.076C181.285 148.188 170.82 150.306 160.248 150.306C149.677 150.306 139.212 148.188 129.473 144.076C136.023 141.366 142.896 139.517 149.922 138.576" stroke="#303030" stroke-linecap="round" stroke-linejoin="round"/>
<path fill-rule="evenodd" clip-rule="evenodd" d="M175.088 157.732C173.732 157.732 172.432 158.27 171.474 159.229C170.515 160.187 169.977 161.487 169.977 162.843C169.977 164.198 170.515 165.498 171.474 166.457C172.432 167.415 173.732 167.954 175.088 167.954H195V157.732H175.088ZM175.221 165.304C174.748 165.304 174.285 165.164 173.891 164.901C173.498 164.638 173.191 164.264 173.01 163.827C172.829 163.389 172.781 162.908 172.874 162.444C172.966 161.98 173.194 161.553 173.529 161.219C173.863 160.884 174.29 160.656 174.754 160.564C175.218 160.472 175.699 160.519 176.137 160.7C176.574 160.881 176.948 161.188 177.211 161.581C177.473 161.975 177.614 162.438 177.614 162.911C177.612 163.545 177.36 164.152 176.911 164.6C176.463 165.048 175.855 165.3 175.221 165.3V165.304Z" fill="#E5DFD5"/>
<path d="M195 157.732H175.088C173.732 157.732 172.432 158.27 171.474 159.229C170.515 160.187 169.977 161.487 169.977 162.843C169.977 164.198 170.515 165.498 171.474 166.457C172.432 167.415 173.732 167.954 175.088 167.954H195V157.732Z" stroke="#303030" stroke-linecap="round" stroke-linejoin="round"/>
<path d="M175.221 165.304C176.542 165.304 177.614 164.233 177.614 162.911C177.614 161.589 176.542 160.518 175.221 160.518C173.899 160.518 172.828 161.589 172.828 162.911C172.828 164.233 173.899 165.304 175.221 165.304Z" stroke="#303030" stroke-linecap="round" stroke-linejoin="round"/>
<path d="M117.768 45.1537C117.606 45.0407 116.924 44.4537 116.501 44.1177C118.716 45.9297 118.487 50.2417 115.923 53.9387C113.276 57.7557 109.143 59.4717 106.692 57.7717C106.892 57.9087 107.842 58.7397 108.183 58.9717C110.634 60.6717 114.766 58.9547 117.413 55.1377C120.06 51.3207 120.219 46.8527 117.768 45.1537Z" fill="#E5DFD5"/>
<path d="M117.768 45.1537C117.606 45.0407 116.924 44.4537 116.501 44.1177C118.716 45.9297 118.487 50.2417 115.923 53.9387C113.276 57.7557 109.143 59.4717 106.692 57.7717C106.892 57.9087 107.842 58.7397 108.183 58.9717C110.634 60.6717 114.766 58.9547 117.413 55.1377C120.06 51.3207 120.219 46.8527 117.768 45.1537Z" stroke="#303030" stroke-linecap="round" stroke-linejoin="round"/>
<path d="M115.923 53.9391C118.57 50.1224 118.729 45.6503 116.278 43.9505C113.827 42.2506 109.694 43.9667 107.047 47.7834C104.4 51.6002 104.241 56.0722 106.693 57.7721C109.144 59.4719 113.277 57.7559 115.923 53.9391Z" stroke="#303030" stroke-linecap="round" stroke-linejoin="round"/>
<path d="M114.319 49.135L112.652 47.925C112.199 47.596 111.423 47.891 110.916 48.59C110.409 49.289 110.366 50.122 110.816 50.451L111.716 51.119C112.169 51.448 112.145 52.301 111.638 52.999C111.131 53.697 110.352 53.999 109.899 53.668L108.236 52.454" stroke="#303030" stroke-linecap="round" stroke-linejoin="round"/>
<path d="M108.649 54.4205L113.826 47.2855" stroke="#303030" stroke-linecap="round" stroke-linejoin="round"/>
<path d="M177 69.2686C177.183 69.1946 178.051 68.9486 178.562 68.7786C175.831 69.6336 172.355 67.0706 170.677 62.8966C168.945 58.5866 169.784 54.1906 172.551 53.0786C172.33 53.1676 171.111 53.5066 170.727 53.6616C167.96 54.7736 167.12 59.1696 168.853 63.4796C170.586 67.7896 174.233 70.3806 177 69.2686Z" fill="#E5DFD5"/>
<path d="M177 69.2686C177.183 69.1946 178.051 68.9486 178.562 68.7786C175.831 69.6336 172.355 67.0706 170.677 62.8966C168.945 58.5866 169.784 54.1906 172.551 53.0786C172.33 53.1676 171.111 53.5066 170.727 53.6616C167.96 54.7736 167.12 59.1696 168.853 63.4796C170.586 67.7896 174.233 70.3806 177 69.2686Z" stroke="#303030" stroke-linecap="round" stroke-linejoin="round"/>
<path d="M178.854 68.692C181.622 67.5794 182.462 63.1833 180.73 58.873C178.997 54.5627 175.349 51.9705 172.58 53.0831C169.812 54.1957 168.973 58.5918 170.705 62.9021C172.438 67.2124 176.086 69.8047 178.854 68.692Z" stroke="#303030" stroke-linecap="round" stroke-linejoin="round"/>
<path d="M175.572 64.1998L177.499 63.4718C178.023 63.2718 178.199 62.4648 177.899 61.6568C177.599 60.8488 176.922 60.3568 176.399 60.5568L175.345 60.9428C174.821 61.1428 174.122 60.6518 173.817 59.8428C173.512 59.0338 173.691 58.2188 174.217 58.0218L176.146 57.2998" stroke="#303030" stroke-linecap="round" stroke-linejoin="round"/>
<path d="M174.275 56.5557L177.387 64.8027" stroke="#303030" stroke-linecap="round" stroke-linejoin="round"/>
<path d="M176.149 108.867C176.328 108.952 177.096 109.424 177.567 109.685C175.089 108.254 174.62 103.961 176.555 99.8986C178.555 95.7056 182.355 93.3455 185.047 94.6285C184.832 94.5285 183.757 93.8587 183.383 93.6807C180.69 92.3987 176.883 94.7576 174.89 98.9516C172.897 103.146 173.457 107.585 176.149 108.867Z" fill="#E5DFD5"/>
<path d="M176.149 108.867C176.328 108.952 177.096 109.424 177.567 109.685C175.089 108.254 174.62 103.961 176.555 99.8986C178.555 95.7056 182.355 93.3455 185.047 94.6285C184.832 94.5285 183.757 93.8587 183.383 93.6807C180.69 92.3987 176.883 94.7576 174.89 98.9516C172.897 103.146 173.457 107.585 176.149 108.867Z" stroke="#303030" stroke-linecap="round" stroke-linejoin="round"/>
<path d="M186.307 104.544C188.305 100.351 187.741 95.9116 185.048 94.6288C182.355 93.3461 178.553 95.7057 176.555 99.899C174.558 104.092 175.122 108.532 177.815 109.814C180.508 111.097 184.31 108.737 186.307 104.544Z" stroke="#303030" stroke-linecap="round" stroke-linejoin="round"/>
<path d="M178.912 104.382L180.752 105.307C181.252 105.559 181.971 105.143 182.358 104.372C182.745 103.601 182.658 102.772 182.158 102.519L181.158 102.005C180.658 101.754 180.544 100.905 180.931 100.138C181.318 99.3706 182.04 98.9446 182.54 99.1966L184.377 100.127" stroke="#303030" stroke-linecap="round" stroke-linejoin="round"/>
<path d="M183.656 98.252L179.697 106.127" stroke="#303030" stroke-linecap="round" stroke-linejoin="round"/>
<path fill-rule="evenodd" clip-rule="evenodd" d="M88.7141 72.0369C88.7141 70.177 89.4529 68.3932 90.7681 67.078C92.0833 65.7628 93.8671 65.0239 95.7271 65.0239H93.7191C91.8737 65.046 90.1115 65.7945 88.8143 67.1072C87.5172 68.4199 86.7898 70.191 86.7898 72.0364C86.7898 73.8819 87.5172 75.653 88.8143 76.9657C90.1115 78.2784 91.8737 79.0269 93.7191 79.0489H95.7271C94.8061 79.0491 93.8942 78.8678 93.0434 78.5155C92.1925 78.1631 91.4194 77.6466 90.7682 76.9955C90.1169 76.3444 89.6004 75.5713 89.2479 74.7205C88.8955 73.8697 88.7141 72.9578 88.7141 72.0369Z" fill="#E5DFD5"/>
<path fill-rule="evenodd" clip-rule="evenodd" d="M88.7141 72.0369C88.7141 70.177 89.4529 68.3932 90.7681 67.078C92.0833 65.7628 93.8671 65.0239 95.7271 65.0239H93.7191C91.8737 65.046 90.1115 65.7945 88.8143 67.1072C87.5172 68.4199 86.7898 70.191 86.7898 72.0364C86.7898 73.8819 87.5172 75.653 88.8143 76.9657C90.1115 78.2784 91.8737 79.0269 93.7191 79.0489H95.7271C94.8061 79.0491 93.8942 78.8678 93.0434 78.5155C92.1925 78.1631 91.4194 77.6466 90.7682 76.9955C90.1169 76.3444 89.6004 75.5713 89.2479 74.7205C88.8955 73.8697 88.7141 72.9578 88.7141 72.0369Z" stroke="#303030" stroke-linecap="round" stroke-linejoin="round"/>
<path d="M96.1461 79.0363C100.012 78.8048 102.958 75.4834 102.726 71.6177C102.495 67.752 99.1735 64.8059 95.3078 65.0374C91.4421 65.2689 88.496 68.5903 88.7275 72.456C88.959 76.3217 92.2804 79.2678 96.1461 79.0363Z" stroke="#303030" stroke-linecap="round" stroke-linejoin="round"/>
<path d="M97.634 69.3677H94.989C94.8182 69.3677 94.6492 69.4013 94.4915 69.4666C94.3337 69.532 94.1904 69.6277 94.0697 69.7484C93.949 69.8692 93.8532 70.0125 93.7879 70.1702C93.7226 70.3279 93.689 70.497 93.689 70.6677C93.689 70.8384 93.7226 71.0074 93.7879 71.1652C93.8532 71.3229 93.949 71.4662 94.0697 71.5869C94.1904 71.7076 94.3337 71.8034 94.4915 71.8687C94.6492 71.9341 94.8182 71.9677 94.989 71.9677L96.431 71.9777C96.7803 71.9773 97.1159 72.1138 97.3659 72.358C97.6158 72.6021 97.7601 72.9344 97.768 73.2837C97.768 73.6285 97.631 73.9591 97.3872 74.2029C97.1434 74.4467 96.8127 74.5837 96.468 74.5837H93.823" stroke="#303030" stroke-linecap="round" stroke-linejoin="round"/>
<path d="M95.7271 75.7108V68.3618" stroke="#303030" stroke-linecap="round" stroke-linejoin="round"/>
<path fill-rule="evenodd" clip-rule="evenodd" d="M134.147 41.3728C134.147 38.4254 135.318 35.5988 137.402 33.5147C139.486 31.4306 142.313 30.2598 145.26 30.2598H142.079C139.132 30.2598 136.305 31.4306 134.221 33.5147C132.137 35.5988 130.966 38.4254 130.966 41.3728C130.966 44.3201 132.137 47.1468 134.221 49.2308C136.305 51.3149 139.132 52.4858 142.079 52.4858H145.26C142.313 52.4858 139.486 51.3149 137.402 49.2308C135.318 47.1468 134.147 44.3201 134.147 41.3728Z" fill="#E5DFD5"/>
<path fill-rule="evenodd" clip-rule="evenodd" d="M134.147 41.3728C134.147 38.4254 135.318 35.5988 137.402 33.5147C139.486 31.4306 142.313 30.2598 145.26 30.2598H142.079C139.132 30.2598 136.305 31.4306 134.221 33.5147C132.137 35.5988 130.966 38.4254 130.966 41.3728C130.966 44.3201 132.137 47.1468 134.221 49.2308C136.305 51.3149 139.132 52.4858 142.079 52.4858H145.26C142.313 52.4858 139.486 51.3149 137.402 49.2308C135.318 47.1468 134.147 44.3201 134.147 41.3728Z" stroke="#303030" stroke-linecap="round" stroke-linejoin="round"/>
<path d="M145.824 52.4723C151.954 52.1606 156.67 46.9389 156.358 40.8093C156.047 34.6797 150.825 29.9633 144.695 30.275C138.566 30.5867 133.849 35.8084 134.161 41.938C134.473 48.0676 139.694 52.784 145.824 52.4723Z" stroke="#303030" stroke-linecap="round" stroke-linejoin="round"/>
<path d="M148.283 37.1441H144.091C143.817 37.138 143.544 37.1869 143.288 37.2877C143.033 37.3886 142.8 37.5395 142.604 37.7315C142.407 37.9236 142.251 38.1529 142.145 38.406C142.038 38.6591 141.984 38.9309 141.984 39.2056C141.984 39.4802 142.038 39.752 142.145 40.0051C142.251 40.2582 142.407 40.4875 142.604 40.6796C142.8 40.8716 143.033 41.0225 143.288 41.1234C143.544 41.2243 143.817 41.2731 144.091 41.2671L146.376 41.2811C146.93 41.2807 147.462 41.4972 147.858 41.8843C148.254 42.2715 148.483 42.7983 148.495 43.3521C148.495 43.8999 148.277 44.4253 147.89 44.8126C147.502 45.2 146.977 45.4178 146.429 45.4181L142.238 45.4101" stroke="#303030" stroke-linecap="round" stroke-linejoin="round"/>
<path d="M145.26 47.1998V35.5488" stroke="#303030" stroke-linecap="round" stroke-linejoin="round"/>
<path fill-rule="evenodd" clip-rule="evenodd" d="M152.715 135.654C152.715 134.195 153.002 132.749 153.561 131.401C154.119 130.053 154.938 128.828 155.97 127.796C157.002 126.764 158.227 125.945 159.575 125.387C160.923 124.828 162.369 124.541 163.828 124.541H160.647C157.7 124.541 154.873 125.712 152.789 127.796C150.705 129.88 149.534 132.707 149.534 135.654C149.534 138.601 150.705 141.428 152.789 143.512C154.873 145.596 157.7 146.767 160.647 146.767H163.828C162.369 146.767 160.923 146.48 159.575 145.921C158.227 145.363 157.002 144.544 155.97 143.512C154.938 142.48 154.119 141.255 153.561 139.907C153.002 138.559 152.715 137.113 152.715 135.654Z" fill="#E5DFD5"/>
<path fill-rule="evenodd" clip-rule="evenodd" d="M152.715 135.654C152.715 134.195 153.002 132.749 153.561 131.401C154.119 130.053 154.938 128.828 155.97 127.796C157.002 126.764 158.227 125.945 159.575 125.387C160.923 124.828 162.369 124.541 163.828 124.541H160.647C157.7 124.541 154.873 125.712 152.789 127.796C150.705 129.88 149.534 132.707 149.534 135.654C149.534 138.601 150.705 141.428 152.789 143.512C154.873 145.596 157.7 146.767 160.647 146.767H163.828C162.369 146.767 160.923 146.48 159.575 145.921C158.227 145.363 157.002 144.544 155.97 143.512C154.938 142.48 154.119 141.255 153.561 139.907C153.002 138.559 152.715 137.113 152.715 135.654Z" stroke="#303030" stroke-linecap="round" stroke-linejoin="round"/>
<path d="M164.392 146.754C170.522 146.442 175.238 141.22 174.926 135.091C174.615 128.961 169.393 124.245 163.263 124.556C157.134 124.868 152.417 130.09 152.729 136.219C153.041 142.349 158.263 147.065 164.392 146.754Z" stroke="#303030" stroke-linecap="round" stroke-linejoin="round"/>
<path d="M166.85 131.425H162.659C162.385 131.419 162.112 131.468 161.856 131.569C161.601 131.669 161.368 131.82 161.172 132.012C160.976 132.204 160.82 132.434 160.713 132.687C160.607 132.94 160.552 133.212 160.552 133.486C160.552 133.761 160.607 134.033 160.713 134.286C160.82 134.539 160.976 134.768 161.172 134.96C161.368 135.152 161.601 135.303 161.856 135.404C162.112 135.505 162.385 135.554 162.659 135.548L164.944 135.562C165.498 135.561 166.03 135.778 166.426 136.165C166.822 136.552 167.051 137.079 167.063 137.633C167.063 138.18 166.846 138.705 166.459 139.093C166.072 139.481 165.548 139.699 165 139.7L160.808 139.692" stroke="#303030" stroke-linecap="round" stroke-linejoin="round"/>
<path d="M163.828 141.477V129.83" stroke="#303030" stroke-linecap="round" stroke-linejoin="round"/>
<path d="M15 155.873H29.72" stroke="#303030" stroke-linecap="round" stroke-linejoin="round"/>
<path d="M22.364 148.514V163.234" stroke="#303030" stroke-linecap="round" stroke-linejoin="round"/>
<path d="M177.75 21.5059H186.669" stroke="#303030" stroke-linecap="round" stroke-linejoin="round"/>
<path d="M182.209 17.0459V25.9659" stroke="#303030" stroke-linecap="round" stroke-linejoin="round"/>
<path d="M48.3 179.241H55.725" stroke="#303030" stroke-linecap="round" stroke-linejoin="round"/>
<path d="M52.0143 175.528V182.954" stroke="#303030" stroke-linecap="round" stroke-linejoin="round"/>
</svg>
