<svg width="256" height="256" viewBox="0 0 256 256" fill="none" xmlns="http://www.w3.org/2000/svg">
<path d="M225.207 72.0533L223.417 94.2687C215.254 94.4326 207.088 94.1661 198.952 93.4702L183.754 112.319L175.793 90.5893C157.155 90.4543 140.835 87.1276 122.774 82.5541C121.277 84.7669 120.263 87.2711 119.801 89.9026C119.338 92.5341 119.436 95.2336 120.088 97.8246C134.416 101.349 145.905 104.193 160.62 105.496L167.711 103.366C166.815 113.46 166.936 123.617 168.074 133.687C177.729 132.719 188.618 134.001 200.283 136.663C200.856 127.063 201.557 119.429 204.082 110.795C212.652 111.542 221.267 111.656 229.853 111.134C232.199 110.918 234.392 109.879 236.044 108.201C237.697 106.522 238.701 104.312 238.879 101.964L241.081 73.3842C235.926 71.9211 230.535 71.4691 225.207 72.0533Z" fill="#E5DFD5"/>
<path d="M187.602 82.6535L185.158 84.9765L185.86 82.7999L187.602 82.6535Z" fill="#008765"/>
<path d="M160.621 105.473C162.817 105.665 165.135 105.825 167.499 105.945C167.567 105.075 167.648 104.212 167.711 103.343L160.621 105.473Z" fill="#008765"/>
<path d="M124.08 94.4623C123.958 94.3164 123.795 94.2101 123.613 94.1566C123.43 94.1031 123.236 94.105 123.055 94.1618C122.873 94.2188 122.713 94.3282 122.594 94.4763C122.474 94.6244 122.402 94.8045 122.385 94.9939C122.368 95.1833 122.407 95.3734 122.499 95.5402C122.59 95.7072 122.728 95.8432 122.897 95.9314C123.065 96.0195 123.256 96.0558 123.445 96.0354C123.634 96.0152 123.813 95.9393 123.959 95.8174C124.056 95.7365 124.136 95.6372 124.195 95.5252C124.254 95.4133 124.289 95.2909 124.301 95.1649C124.312 95.0391 124.298 94.9122 124.26 94.7916C124.222 94.671 124.161 94.5591 124.08 94.4623Z" fill="#008765"/>
<path d="M146.996 90.5663C146.874 90.4204 146.712 90.3138 146.529 90.2602C146.347 90.2065 146.153 90.2082 145.971 90.265C145.789 90.3218 145.628 90.4312 145.51 90.5793C145.39 90.7274 145.318 90.9077 145.301 91.097C145.283 91.2865 145.323 91.4768 145.414 91.6437C145.506 91.8106 145.644 91.9468 145.813 92.0349C145.981 92.1231 146.172 92.1591 146.362 92.1387C146.55 92.1182 146.729 92.0422 146.875 91.9202C146.972 91.8393 147.052 91.7401 147.111 91.6283C147.169 91.5163 147.205 91.394 147.217 91.2683C147.228 91.1426 147.214 91.0159 147.176 90.8954C147.139 90.7749 147.078 90.6631 146.996 90.5663Z" fill="#008765"/>
<path d="M165.189 101.77C165.109 101.673 165.01 101.593 164.897 101.534C164.785 101.476 164.663 101.44 164.537 101.428C164.411 101.417 164.284 101.431 164.164 101.469C164.043 101.507 163.931 101.568 163.834 101.649C163.735 101.729 163.653 101.828 163.593 101.94C163.533 102.052 163.496 102.175 163.486 102.301C163.475 102.428 163.489 102.555 163.528 102.676C163.567 102.797 163.63 102.908 163.713 103.004C163.794 103.101 163.894 103.181 164.006 103.24C164.118 103.298 164.24 103.334 164.365 103.346C164.491 103.357 164.619 103.343 164.738 103.305C164.859 103.268 164.971 103.206 165.068 103.125C165.165 103.044 165.245 102.945 165.304 102.833C165.362 102.721 165.398 102.599 165.409 102.473C165.421 102.347 165.407 102.22 165.369 102.1C165.332 101.979 165.271 101.867 165.189 101.77Z" fill="#008765"/>
<path d="M206.357 106.586C206.479 106.732 206.641 106.838 206.824 106.891C207.007 106.945 207.201 106.943 207.382 106.886C207.563 106.829 207.724 106.72 207.843 106.572C207.963 106.424 208.036 106.243 208.052 106.054C208.069 105.865 208.029 105.675 207.939 105.508C207.847 105.341 207.708 105.205 207.54 105.117C207.372 105.028 207.181 104.992 206.991 105.013C206.803 105.033 206.624 105.109 206.478 105.231C206.381 105.311 206.301 105.411 206.242 105.523C206.184 105.635 206.147 105.757 206.137 105.883C206.125 106.009 206.139 106.136 206.176 106.256C206.214 106.377 206.276 106.489 206.357 106.586Z" fill="#008765"/>
<path d="M235.056 99.4471C235.179 99.593 235.34 99.6993 235.524 99.7528C235.706 99.8063 235.899 99.8044 236.082 99.7476C236.262 99.6907 236.423 99.5813 236.543 99.4331C236.662 99.285 236.735 99.1049 236.751 98.9155C236.768 98.7262 236.729 98.536 236.638 98.3692C236.546 98.2022 236.408 98.0662 236.239 97.978C236.071 97.8899 235.88 97.8536 235.691 97.874C235.502 97.8942 235.324 97.9701 235.177 98.092C235.08 98.1729 235 98.2722 234.942 98.3842C234.883 98.4961 234.846 98.6185 234.836 98.7445C234.824 98.8703 234.838 98.9973 234.875 99.1178C234.914 99.2384 234.975 99.3503 235.056 99.4471Z" fill="#008765"/>
<path d="M181.189 112.611C181.109 112.514 181.01 112.434 180.897 112.375C180.785 112.316 180.663 112.281 180.537 112.269C180.411 112.258 180.285 112.272 180.164 112.31C180.044 112.348 179.932 112.409 179.835 112.49C179.736 112.57 179.654 112.668 179.595 112.78C179.535 112.892 179.498 113.015 179.486 113.142C179.475 113.268 179.489 113.396 179.528 113.517C179.568 113.638 179.631 113.749 179.714 113.845C179.794 113.943 179.894 114.024 180.006 114.084C180.118 114.143 180.242 114.18 180.368 114.192C180.494 114.204 180.622 114.19 180.743 114.153C180.864 114.115 180.976 114.054 181.074 113.972C181.171 113.891 181.251 113.791 181.31 113.678C181.369 113.565 181.404 113.442 181.416 113.316C181.426 113.189 181.412 113.062 181.372 112.941C181.334 112.82 181.272 112.708 181.189 112.611Z" fill="#008765"/>
<path d="M186.367 114.547C186.489 114.693 186.651 114.799 186.834 114.853C187.016 114.906 187.21 114.904 187.392 114.847C187.573 114.79 187.733 114.681 187.853 114.533C187.973 114.385 188.045 114.205 188.062 114.015C188.079 113.826 188.039 113.636 187.949 113.469C187.857 113.302 187.718 113.166 187.55 113.078C187.382 112.99 187.191 112.953 187.001 112.974C186.813 112.994 186.634 113.07 186.488 113.192C186.391 113.273 186.311 113.372 186.252 113.484C186.194 113.596 186.157 113.718 186.146 113.844C186.135 113.97 186.149 114.097 186.186 114.218C186.224 114.338 186.285 114.45 186.367 114.547Z" fill="#008765"/>
<path d="M195.373 130.736C195.495 130.881 195.657 130.988 195.84 131.041C196.022 131.095 196.217 131.094 196.398 131.036C196.579 130.979 196.739 130.869 196.859 130.722C196.979 130.574 197.051 130.393 197.068 130.205C197.084 130.015 197.045 129.825 196.954 129.658C196.863 129.491 196.724 129.355 196.556 129.266C196.388 129.178 196.197 129.142 196.007 129.163C195.818 129.183 195.64 129.258 195.494 129.381C195.397 129.462 195.317 129.56 195.258 129.672C195.199 129.784 195.163 129.907 195.152 130.033C195.141 130.159 195.155 130.286 195.192 130.406C195.23 130.527 195.291 130.639 195.373 130.736Z" fill="#008765"/>
<path d="M170.666 128.388C170.788 128.534 170.951 128.641 171.133 128.694C171.315 128.748 171.51 128.746 171.691 128.689C171.873 128.632 172.033 128.522 172.152 128.374C172.272 128.227 172.344 128.046 172.361 127.857C172.377 127.667 172.338 127.477 172.247 127.31C172.156 127.143 172.017 127.007 171.849 126.919C171.681 126.831 171.49 126.795 171.301 126.815C171.111 126.836 170.933 126.911 170.787 127.033C170.69 127.114 170.61 127.214 170.551 127.325C170.492 127.437 170.457 127.56 170.445 127.686C170.434 127.812 170.448 127.939 170.485 128.059C170.523 128.18 170.584 128.292 170.666 128.388Z" fill="#008765"/>
<path d="M197.155 75.4169C196.236 70.8204 195.413 66.0521 191.832 63.0273C189.532 64.9377 185.418 68.5687 183.58 73.2887C188.491 64.8664 191.275 71.4967 190.79 75.1023C190.767 75.7569 191.13 75.925 192.191 75.2487C194.418 73.7968 195.774 77.5705 191.634 79.1205C191.103 79.3141 189.869 82.0727 190.184 85.2185C189.732 80.8615 197.155 75.4169 197.155 75.4169Z" fill="#008765"/>
<path d="M228.57 75.5391C228.448 75.3933 228.286 75.287 228.103 75.2335C227.92 75.18 227.727 75.1819 227.545 75.2387C227.364 75.2956 227.203 75.405 227.084 75.5531C226.964 75.7013 226.891 75.8813 226.875 76.0707C226.858 76.2601 226.898 76.4503 226.988 76.6171C227.08 76.7841 227.219 76.9201 227.387 77.0082C227.555 77.0964 227.746 77.1327 227.936 77.1123C228.124 77.092 228.302 77.0161 228.449 76.8942C228.546 76.8135 228.627 76.7142 228.686 76.6022C228.744 76.4903 228.78 76.3677 228.792 76.2419C228.803 76.1159 228.789 75.989 228.751 75.8684C228.713 75.7477 228.651 75.6359 228.57 75.5391Z" fill="#008765"/>
<path d="M82.798 170.784C78.5875 174.027 71.0121 179.642 68.3516 182.501C71.7151 183.253 82.2172 180.856 88.2668 180.856C90.2035 180.858 92.1315 180.597 93.998 180.081C95.1596 178.799 96.4421 177.203 97.773 175.726C92.5247 174.992 87.4519 173.318 82.798 170.784Z" fill="#008765"/>
<path d="M133.421 224.675C132.114 229.829 129.622 238.928 129.283 242.8C132.381 241.324 139.182 232.928 143.93 229.2C145.452 228.003 146.809 226.611 147.971 225.062C148.092 223.344 148.116 221.287 148.261 219.303C143.67 221.955 138.645 223.773 133.421 224.675Z" fill="#008765"/>
<path d="M194.521 172.599L198.342 205.22C203.438 204.653 208.334 202.913 212.646 200.138C216.957 197.363 220.568 193.627 223.194 189.223L194.521 172.599Z" fill="#008765"/>
<path d="M200.041 110.409L204.106 110.796L203.017 114.789L200.041 110.409Z" fill="#008765"/>
<path d="M104.693 91.3356C104.809 91.1894 104.978 91.0944 105.164 91.0707C101.314 90.3575 97.7554 90.3893 95.8131 89.7971L54.1944 87.2015C54.1101 87.1993 54.0281 87.2298 53.9656 87.2863C53.9029 87.343 53.8646 87.4216 53.8583 87.5058C53.8521 87.5899 53.8786 87.6732 53.9321 87.7384C53.9857 87.8038 54.0622 87.8458 54.146 87.8561L104.833 92.3392C104.553 91.8845 104.486 91.5967 104.693 91.3356Z" fill="#008765"/>
<path d="M219.375 94.2929L193.776 36.8446C191.73 32.2534 187.946 28.6624 183.254 26.8609C178.563 25.0594 173.347 25.195 168.755 27.2379L39.8204 84.6377C35.2287 86.6825 31.6371 90.4673 29.8355 95.1597C28.034 99.852 28.17 105.068 30.2136 109.66L73.0702 205.874C75.1149 210.466 78.8995 214.057 83.5916 215.858C88.2838 217.66 93.4993 217.524 98.0914 215.481L134.583 199.244" stroke="#303030" stroke-linecap="round" stroke-linejoin="round"/>
<path d="M158.322 188.667L227.023 158.08C231.614 156.036 235.206 152.251 237.007 147.559C238.809 142.867 238.672 137.651 236.63 133.059L226.95 111.329" stroke="#303030" stroke-linecap="round" stroke-linejoin="round"/>
<path d="M97.433 155.612L72.4895 99.5923C72.2285 99.0016 71.8536 98.4684 71.3859 98.0231C70.9181 97.5779 70.3672 97.2294 69.7644 96.9978C69.1616 96.7662 68.5191 96.6559 67.8735 96.6735C67.228 96.691 66.5924 96.8359 66.0031 97.0999L54.8718 102.036C54.2812 102.297 53.7478 102.672 53.3026 103.14C52.8573 103.607 52.509 104.158 52.2773 104.761C52.0457 105.363 51.9355 106.006 51.953 106.651C51.9705 107.297 52.1153 107.932 52.3794 108.522L80.7896 172.329" stroke="#303030" stroke-linecap="round" stroke-linejoin="round"/>
<path d="M85.6543 183.295L89.2115 191.28C89.4722 191.871 89.8471 192.403 90.3147 192.849C90.7822 193.295 91.3332 193.643 91.9358 193.874C92.5385 194.106 93.181 194.217 93.8264 194.199C94.4718 194.181 95.1073 194.036 95.6966 193.773L106.828 188.805C107.418 188.544 107.952 188.17 108.397 187.703C108.842 187.235 109.191 186.684 109.422 186.081C109.654 185.479 109.764 184.836 109.747 184.19C109.729 183.546 109.584 182.91 109.32 182.32L105.449 173.585" stroke="#303030" stroke-linecap="round" stroke-linejoin="round"/>
<path d="M118.539 163.186L124.105 175.721C124.366 176.311 124.74 176.844 125.208 177.29C125.676 177.735 126.227 178.083 126.829 178.315C127.432 178.547 128.075 178.657 128.72 178.64C129.365 178.622 130 178.477 130.59 178.213L140.584 173.785" stroke="#303030" stroke-linecap="round" stroke-linejoin="round"/>
<path d="M137.971 152.732L144.359 167.057" stroke="#303030" stroke-linecap="round" stroke-linejoin="round"/>
<path d="M128.557 131.607L120.209 112.853C119.948 112.262 119.573 111.729 119.106 111.284C118.638 110.839 118.087 110.49 117.484 110.259C116.882 110.027 116.239 109.917 115.594 109.934C114.949 109.952 114.313 110.097 113.724 110.361L102.592 115.297C102.002 115.558 101.469 115.933 101.023 116.4C100.578 116.868 100.23 117.419 99.9981 118.021C99.7664 118.624 99.6562 119.267 99.6737 119.912C99.6912 120.557 99.836 121.193 100.1 121.782L110.36 144.843" stroke="#303030" stroke-linecap="round" stroke-linejoin="round"/>
<path d="M167.355 124.783L160.676 109.754C160.415 109.164 160.041 108.63 159.573 108.185C159.106 107.74 158.554 107.391 157.952 107.16C157.349 106.928 156.706 106.818 156.061 106.836C155.416 106.853 154.781 106.998 154.191 107.262L143.06 112.223C142.469 112.483 141.935 112.858 141.491 113.326C141.045 113.793 140.697 114.344 140.465 114.947C140.234 115.55 140.123 116.192 140.141 116.838C140.158 117.483 140.304 118.119 140.567 118.708L146.617 132.335" stroke="#303030" stroke-linecap="round" stroke-linejoin="round"/>
<path d="M202.17 146.368L211.535 142.182C212.126 141.92 212.659 141.546 213.104 141.079C213.55 140.611 213.897 140.06 214.129 139.457C214.361 138.855 214.472 138.212 214.454 137.566C214.436 136.922 214.291 136.286 214.027 135.696L203.651 112.369" stroke="#303030" stroke-linecap="round" stroke-linejoin="round"/>
<path d="M190.506 82.8713L194.862 92.6474" stroke="#303030" stroke-linecap="round" stroke-linejoin="round"/>
<path d="M185.134 70.8154L177.197 52.9569C176.936 52.3662 176.562 51.833 176.094 51.3877C175.627 50.9425 175.075 50.594 174.473 50.3625C173.871 50.1308 173.227 50.0207 172.583 50.0381C171.937 50.0557 171.302 50.2005 170.712 50.4645L159.581 55.4252C158.99 55.6859 158.458 56.0608 158.012 56.5284C157.566 56.996 157.218 57.5469 156.987 58.1495C156.755 58.7522 156.645 59.3947 156.662 60.0402C156.68 60.6855 156.825 61.3212 157.088 61.9103L169.744 90.3447" stroke="#303030" stroke-linecap="round" stroke-linejoin="round"/>
<path d="M185.859 82.7999C186.444 82.8025 187.027 82.7556 187.604 82.6599L185.16 84.9829" stroke="#303030" stroke-linecap="round" stroke-linejoin="round"/>
<path d="M202.98 114.867L200.041 110.409L204.082 110.81" stroke="#303030" stroke-linecap="round" stroke-linejoin="round"/>
<path d="M106.707 87.7542C103.566 87.5399 100.416 87.4915 97.2697 87.6091C94.0016 87.8217 92.5739 89.6697 98.4312 90.2709C102.714 90.709 107.191 90.9484 111.111 93.0053" stroke="#303030" stroke-linecap="round" stroke-linejoin="round"/>
<path d="M103.898 85.5331C104.31 83.6227 105.592 82.9859 109.512 83.3552" stroke="#303030" stroke-linecap="round" stroke-linejoin="round"/>
<path d="M102.352 87.5416C102.908 85.5038 104.045 85.0975 107.772 85.4363" stroke="#303030" stroke-linecap="round" stroke-linejoin="round"/>
<path d="M105.545 83.5004C106.101 81.5645 107.384 81.2156 111.111 81.4627C114.854 81.8977 118.571 82.5441 122.242 83.3985" stroke="#303030" stroke-linecap="round" stroke-linejoin="round"/>
<path d="M122.27 83.4036C119.982 87.1904 119.091 91.658 119.75 96.0326C116.573 96.7052 113.278 96.5646 110.17 95.6238C106.222 94.6049 102.982 90.844 105.713 91.1662C106.823 91.3775 107.916 91.6755 108.98 92.0577" stroke="#303030" stroke-linecap="round" stroke-linejoin="round"/>
<path d="M190.215 85.1943C189.741 80.8997 196.872 75.5824 197.152 75.3748C196.237 70.7899 195.407 66.0432 191.838 63.0273C188.429 65.8624 185.624 69.3515 183.586 73.2887" stroke="#303030" stroke-linecap="round" stroke-linejoin="round"/>
<path d="M134.51 152.345C142.048 153.048 149.499 154.499 156.751 156.675C153.375 159.108 150.114 161.675 146.972 164.377C143.807 167.101 141.497 170.68 140.318 174.685C136.717 187.252 134.081 200.074 132.429 213.041C139.001 215.314 145.878 216.579 152.828 216.792C154.243 204.569 156.9 192.522 160.755 180.837L191.644 166.167C208.244 157.507 200.283 136.669 200.283 136.669C200.936 125.804 201.831 118.147 204.082 110.815C212.652 111.57 221.265 111.687 229.853 111.164C232.199 110.949 234.392 109.91 236.044 108.231C237.696 106.553 238.701 104.343 238.879 101.994L241.078 73.4148C235.918 71.935 230.52 71.4667 225.183 72.0355L223.392 94.2203C194.474 94.7043 191.763 92.0182 190.965 89.9372C189.245 85.4121 190.891 79.3854 191.667 79.0963C195.803 77.5451 194.446 73.7663 192.223 75.2233C191.393 75.7684 190.723 75.9683 190.834 74.9839C191.243 71.3554 188.467 64.9581 183.607 73.2874C178.689 81.6932 183.14 82.8012 185.858 82.7999C185.858 82.7999 184.743 85.9916 184.115 88.7757C183.68 90.7103 181.454 90.6211 176.953 90.5905C156.575 90.4505 142.397 87.3722 122.748 82.5325C121.263 84.7507 120.257 87.2545 119.794 89.8837C119.332 92.5129 119.423 95.2098 120.062 97.8017C137.875 102.194 149.895 105.061 167.496 105.945C166.792 116.093 167.098 126.286 168.411 136.374C157.06 133.734 145.537 131.898 133.928 130.881C130.892 130.613 127.862 131.465 125.41 133.277C113.139 142.297 101.332 151.932 90.0332 162.145C93.2987 167.499 97.4658 172.247 102.35 176.18C112.414 167.386 123.169 159.416 134.51 152.345Z" stroke="#303030" stroke-linecap="round" stroke-linejoin="round"/>
<path d="M174.826 145.497C168.547 148.794 162.507 152.528 156.752 156.67" stroke="#303030" stroke-linecap="round" stroke-linejoin="round"/>
<path d="M200.307 136.66C188.642 133.999 177.753 132.712 168.098 133.684" stroke="#303030" stroke-linecap="round" stroke-linejoin="round"/>
<path d="M175.77 90.5905L183.731 112.272L198.929 93.446" stroke="#303030" stroke-linecap="round" stroke-linejoin="round"/>
<path d="M183.344 89.9856C184.453 90.8733 185.803 91.4059 187.219 91.5138C188.636 91.6218 190.052 91.3 191.282 90.5906" stroke="#303030" stroke-linecap="round" stroke-linejoin="round"/>
<path d="M178.648 90.6147L181.407 97.6807L187.094 91.5101L191.281 98.2856L195.782 92.8652" stroke="#303030" stroke-linecap="round" stroke-linejoin="round"/>
<path d="M187.095 91.5101C185.425 97.9469 181.771 123.742 182.128 133.688" stroke="#303030" stroke-linecap="round" stroke-linejoin="round"/>
<path d="M193.463 135.237C193.463 135.237 192.011 145.807 200.287 149.126" stroke="#303030" stroke-linecap="round" stroke-linejoin="round"/>
<path d="M197.984 147.868C184.477 154.516 171.529 162.245 159.267 170.978C155.315 173.828 152.427 177.915 151.063 182.593C147.976 193.548 145.663 204.708 144.143 215.988" stroke="#303030" stroke-linecap="round" stroke-linejoin="round"/>
<path d="M164.88 151.232C155.809 148.66 146.589 146.656 137.27 145.231C134.173 144.766 131.015 145.473 128.413 147.215C117.421 154.513 106.913 162.515 96.9551 171.171" stroke="#303030" stroke-linecap="round" stroke-linejoin="round"/>
<path d="M99.6893 173.833C96.436 170.89 93.5661 167.548 91.1473 163.887C89.2114 165.775 86.0172 168.316 82.7988 170.808C87.461 173.331 92.5316 175.014 97.7776 175.775C98.3715 175.086 99.0101 174.438 99.6893 173.833Z" stroke="#303030" stroke-linecap="round" stroke-linejoin="round"/>
<path d="M68.353 182.496C67.6512 183.27 67.2793 183.831 67.408 184.142C68.2078 186.075 79.702 183.222 85.8484 183.222C87.652 183.236 89.447 182.975 91.1721 182.448C92.2588 181.858 93.2125 181.051 93.974 180.076C92.1075 180.593 90.1794 180.853 88.2428 180.851C82.2187 180.854 71.6924 183.274 68.353 182.496Z" stroke="#303030" stroke-linecap="round" stroke-linejoin="round"/>
<path d="M82.798 170.784C78.5875 174.027 71.0134 179.641 68.3516 182.501C71.7151 183.251 82.2172 180.856 88.2668 180.856C90.2035 180.857 92.1313 180.597 93.998 180.081C95.1596 178.799 96.4421 177.202 97.773 175.726C92.5247 174.992 87.4519 173.319 82.798 170.784Z" stroke="#303030" stroke-linecap="round" stroke-linejoin="round"/>
<path d="M148.57 216.544C144.218 216.147 139.914 215.329 135.72 214.1C135.357 216.762 134.414 220.731 133.428 224.671C138.649 223.768 143.671 221.95 148.261 219.299C148.328 218.384 148.424 217.391 148.57 216.544Z" stroke="#303030" stroke-linecap="round" stroke-linejoin="round"/>
<path d="M129.284 242.8C129.188 243.84 129.261 244.515 129.551 244.663C131.421 245.617 138.639 236.325 143.489 232.54C144.914 231.437 146.162 230.124 147.191 228.644C147.689 227.508 147.945 226.279 147.941 225.038C146.787 226.593 145.427 227.985 143.9 229.176C139.153 232.891 132.406 241.324 129.284 242.8Z" stroke="#303030" stroke-linecap="round" stroke-linejoin="round"/>
<path d="M133.421 224.675C132.114 229.829 129.622 238.928 129.283 242.8C132.381 241.324 139.182 232.928 143.93 229.2C145.452 228.003 146.809 226.611 147.971 225.062C148.092 223.344 148.116 221.287 148.261 219.303C143.67 221.955 138.645 223.773 133.421 224.675Z" stroke="#303030" stroke-linecap="round" stroke-linejoin="round"/>
<path d="M24.0685 140.246L12.2598 113.337" stroke="#303030" stroke-linecap="round" stroke-linejoin="round"/>
<path d="M7.00781 126.84L12.2589 113.337L25.7616 118.612" stroke="#303030" stroke-linecap="round" stroke-linejoin="round"/>
<path d="M238.007 190.724C238.259 191.3 238.335 191.94 238.224 192.56C238.113 193.18 237.82 193.753 237.383 194.207C236.946 194.661 236.383 194.975 235.768 195.11C235.153 195.244 234.511 195.193 233.925 194.962C233.338 194.732 232.834 194.332 232.475 193.815C232.116 193.297 231.917 192.685 231.907 192.054C231.895 191.425 232.071 190.805 232.412 190.275C232.752 189.745 233.243 189.329 233.821 189.078C234.595 188.746 235.469 188.733 236.252 189.041C237.036 189.349 237.666 189.953 238.007 190.724Z" stroke="#303030" stroke-linecap="round" stroke-linejoin="round"/>
<path d="M248.728 194.864C248.98 195.441 249.055 196.08 248.945 196.701C248.834 197.321 248.541 197.894 248.104 198.347C247.667 198.802 247.104 199.115 246.489 199.25C245.874 199.384 245.232 199.333 244.646 199.103C244.059 198.872 243.555 198.472 243.196 197.955C242.836 197.438 242.638 196.825 242.627 196.195C242.616 195.566 242.792 194.946 243.133 194.416C243.473 193.886 243.964 193.469 244.542 193.219C245.316 192.887 246.19 192.873 246.973 193.182C247.756 193.49 248.387 194.095 248.728 194.864Z" stroke="#303030" stroke-linecap="round" stroke-linejoin="round"/>
<path d="M236.652 203.55L244.202 184.408" stroke="#303030" stroke-linecap="round" stroke-linejoin="round"/>
<path d="M237.695 72.5857C237.729 69.8276 238.036 67.0796 238.614 64.3824C239.155 62.1784 239.943 60.0424 240.961 58.0144C242.464 55.0393 242.255 54.5439 239.534 56.9497C238.485 57.8632 237.535 58.8852 236.702 59.9987C233.864 63.6283 231.469 67.5846 229.57 71.7833" stroke="#303030" stroke-linecap="round" stroke-linejoin="round"/>
<path d="M234.646 62.8337C233.048 64.7212 232.419 59.7847 231.572 57.6794C230.871 55.9372 229.572 54.3885 229.662 59.5898C229.54 63.674 229.168 67.747 228.549 71.7858" stroke="#303030" stroke-linecap="round" stroke-linejoin="round"/>
<path d="M240.477 59.0104C241.563 57.6304 242.778 56.3582 244.107 55.2112C246.709 53.0779 247.11 53.907 246.817 54.3643C245.671 56.1626 243.506 58.8652 242.487 60.5591C240.746 63.4942 239.203 66.5419 237.865 69.6819" stroke="#303030" stroke-linecap="round" stroke-linejoin="round"/>
<path d="M244.251 57.9698C244.711 57.6311 244.785 57.5878 245.001 57.4375C247.81 55.5131 248.148 56.3982 247.803 56.8325C246.476 58.5302 244.247 60.8265 242.915 62.3255C241.225 63.9388 239.788 65.799 238.656 67.8428" stroke="#303030" stroke-linecap="round" stroke-linejoin="round"/>
<path d="M81.4914 52.5494L70.6022 70.8918L49.8145 66.1489" stroke="#303030" stroke-linecap="round" stroke-linejoin="round"/>
<path d="M90.0581 62.132C87.7185 57.0228 83.4576 53.0429 78.2011 51.0565C72.9444 49.0702 67.1164 49.2376 61.9826 51.5227C56.8488 53.8078 52.8237 58.0259 50.7814 63.261C48.739 68.4961 48.8444 74.3255 51.0744 79.4835" stroke="#303030" stroke-linecap="round" stroke-linejoin="round"/>
<path d="M219.086 56.1792L221.505 49.936L215.286 47.5887L217.706 41.3213L211.415 38.7805L213.834 32.5373L207.422 30.0207" stroke="#303030" stroke-linecap="round" stroke-linejoin="round"/>
<path d="M221.722 45.6529L224.142 39.4097L217.947 37.0624L220.367 30.795L214.051 28.2542L216.495 22.011L210.059 19.5186" stroke="#303030" stroke-linecap="round" stroke-linejoin="round"/>
<path d="M224.793 159.076C226.862 163.579 227.872 168.495 227.745 173.45C227.444 180.924 224.637 188.08 219.774 193.765C214.911 199.449 208.277 203.332 200.94 204.788C193.602 206.244 185.988 205.188 179.323 201.79C172.658 198.393 167.332 192.852 164.199 186.058" stroke="#303030" stroke-linecap="round" stroke-linejoin="round"/>
<path d="M223.199 189.223L194.523 172.623L198.347 205.22" stroke="#303030" stroke-linecap="round" stroke-linejoin="round"/>
<path d="M194.524 172.623L169.332 193.99" stroke="#303030" stroke-linecap="round" stroke-linejoin="round"/>
<path d="M123.33 11.2669L130.977 27.746" stroke="#303030" stroke-linecap="round" stroke-linejoin="round"/>
<path d="M135.406 15.671L118.902 23.3419" stroke="#303030" stroke-linecap="round" stroke-linejoin="round"/>
<path d="M55.9846 192.248L51.2659 198.855L47.9023 191.449L55.9846 192.248Z" stroke="#303030" stroke-linecap="round" stroke-linejoin="round"/>
<path d="M168.412 136.374L170.445 136.809" stroke="#303030" stroke-linecap="round" stroke-linejoin="round"/>
</svg>
