<svg width="200" height="200" viewBox="0 0 200 200" fill="none" xmlns="http://www.w3.org/2000/svg">
<path d="M118.527 134.748L175.16 155.896L160.557 194.999L65.3831 159.458L79.9851 120.355L95.6171 126.192" stroke="#303030" stroke-linecap="round" stroke-linejoin="round"/>
<path d="M112.544 162.781L119.63 165.427V165.441C120.552 165.768 121.566 165.721 122.453 165.307C123.34 164.894 124.029 164.149 124.371 163.232C124.713 162.316 124.681 161.301 124.282 160.408C123.883 159.514 123.149 158.814 122.238 158.457C122.244 158.443 118.385 156.99 118.385 156.99C117.448 156.641 116.685 155.939 116.26 155.035C115.834 154.13 115.78 153.095 116.109 152.151C116.28 151.692 116.541 151.271 116.875 150.913C117.209 150.555 117.61 150.266 118.056 150.063C118.502 149.859 118.983 149.746 119.472 149.729C119.962 149.712 120.45 149.791 120.909 149.963V149.977L127.995 152.623" stroke="#303030" stroke-linecap="round" stroke-linejoin="round"/>
<path d="M124 147.693L116.647 167.383" stroke="#303030" stroke-linecap="round" stroke-linejoin="round"/>
<path d="M71.1151 5.12109L68.4648 42.0501L158.348 48.5009L160.999 11.5719L71.1151 5.12109Z" stroke="#303030" stroke-linecap="round" stroke-linejoin="round"/>
<path d="M103.243 29.941C102.237 30.4912 101.101 30.7598 99.9549 30.7187C98.8089 30.6776 97.6951 30.3282 96.7308 29.7074C95.7666 29.0865 94.9876 28.2172 94.4759 27.1909C93.9641 26.1646 93.7386 25.0193 93.8229 23.8756C93.9073 22.7319 94.2984 21.6321 94.9552 20.692C95.612 19.7519 96.5102 19.0063 97.555 18.5337C98.5999 18.061 99.7529 17.8788 100.892 18.0063C102.032 18.1338 103.116 18.5662 104.031 19.258" stroke="#303030" stroke-linecap="round" stroke-linejoin="round"/>
<path d="M101.8 23.9735L91.1172 23.1855" stroke="#303030" stroke-linecap="round" stroke-linejoin="round"/>
<path d="M101.644 26.0595L90.9612 25.2715" stroke="#303030" stroke-linecap="round" stroke-linejoin="round"/>
<path d="M149.659 33.4996C148.653 34.0498 147.517 34.3184 146.371 34.2773C145.225 34.2362 144.111 33.8868 143.147 33.2659C142.182 32.6451 141.403 31.7758 140.892 30.7495C140.38 29.7232 140.154 28.5779 140.239 27.4342C140.323 26.2905 140.714 25.1907 141.371 24.2506C142.028 23.3105 142.926 22.5649 143.971 22.0922C145.016 21.6196 146.169 21.4374 147.308 21.5649C148.448 21.6924 149.532 22.1248 150.447 22.8166" stroke="#303030" stroke-linecap="round" stroke-linejoin="round"/>
<path d="M148.214 27.536L137.531 26.748" stroke="#303030" stroke-linecap="round" stroke-linejoin="round"/>
<path d="M148.06 29.622L137.377 28.834" stroke="#303030" stroke-linecap="round" stroke-linejoin="round"/>
<path d="M79.0894 5.70703L76.6348 42.6616L81.4303 42.9801L83.8848 6.02554L79.0894 5.70703Z" fill="#E5DFD5"/>
<path d="M79.0894 5.70703L76.6348 42.6616L81.4303 42.9801L83.8848 6.02554L79.0894 5.70703Z" stroke="#303030" stroke-linecap="round" stroke-linejoin="round"/>
<path d="M110.945 137.238C118.009 137.238 123.735 131.511 123.735 124.448C123.735 117.384 118.009 111.658 110.945 111.658C103.881 111.658 98.155 117.384 98.155 124.448C98.155 131.511 103.881 137.238 110.945 137.238Z" stroke="#303030" stroke-linecap="round" stroke-linejoin="round"/>
<path fill-rule="evenodd" clip-rule="evenodd" d="M114.391 112.131C112.774 111.678 111.083 111.549 109.415 111.75C107.748 111.95 106.136 112.478 104.672 113.301C103.208 114.125 101.921 115.229 100.884 116.55C99.847 117.871 99.0802 119.384 98.6276 121.001C98.175 122.619 98.0454 124.31 98.2463 125.977C98.4471 127.645 98.9744 129.257 99.7981 130.72C100.622 132.184 101.726 133.471 103.047 134.508C104.368 135.546 105.881 136.312 107.498 136.765L104.711 135.985C103.082 135.543 101.557 134.782 100.223 133.748C98.89 132.713 97.7744 131.425 96.941 129.957C96.1077 128.489 95.5731 126.871 95.3681 125.196C95.1631 123.52 95.2917 121.821 95.7466 120.195C96.2014 118.57 96.9734 117.051 98.0182 115.725C99.063 114.4 100.36 113.294 101.834 112.472C103.308 111.65 104.93 111.127 106.607 110.935C108.284 110.743 109.982 110.885 111.604 111.352L114.391 112.131Z" fill="#008765"/>
<path fill-rule="evenodd" clip-rule="evenodd" d="M114.391 112.131C112.774 111.678 111.083 111.549 109.415 111.75C107.748 111.95 106.136 112.478 104.672 113.301C103.208 114.125 101.921 115.229 100.884 116.55C99.847 117.871 99.0802 119.384 98.6276 121.001C98.175 122.619 98.0454 124.31 98.2463 125.977C98.4471 127.645 98.9744 129.257 99.7981 130.72C100.622 132.184 101.726 133.471 103.047 134.508C104.368 135.546 105.881 136.312 107.498 136.765L104.711 135.985C103.082 135.543 101.557 134.782 100.223 133.748C98.89 132.713 97.7744 131.425 96.941 129.957C96.1077 128.489 95.5731 126.871 95.3681 125.196C95.1631 123.52 95.2917 121.821 95.7466 120.195C96.2014 118.57 96.9734 117.051 98.0182 115.725C99.063 114.4 100.36 113.294 101.834 112.472C103.308 111.65 104.93 111.127 106.607 110.935C108.284 110.743 109.982 110.885 111.604 111.352L114.391 112.131Z" stroke="#303030" stroke-linecap="round" stroke-linejoin="round"/>
<path d="M107.113 130.779L110.984 118.115C110.984 118.115 118.044 119.541 116.914 123.454C115.914 126.913 112.446 125.688 108.987 124.648C106.998 124.048 105.469 123.474 105.469 123.474" stroke="#303030" stroke-linecap="round" stroke-linejoin="round"/>
<path d="M104.853 125.492L113.943 128.4" stroke="#303030" stroke-linecap="round" stroke-linejoin="round"/>
<path d="M39.6171 188.247C48.0477 188.247 54.8821 181.412 54.8821 172.982C54.8821 164.551 48.0477 157.717 39.6171 157.717C31.1865 157.717 24.3521 164.551 24.3521 172.982C24.3521 181.412 31.1865 188.247 39.6171 188.247Z" stroke="#303030" stroke-linecap="round" stroke-linejoin="round"/>
<path fill-rule="evenodd" clip-rule="evenodd" d="M32.4 159.529C28.832 161.442 26.1703 164.695 25.0004 168.571C23.8304 172.446 24.2481 176.628 26.1615 180.196C28.0749 183.764 31.3273 186.426 35.2032 187.596C39.0791 188.766 43.261 188.348 46.829 186.435L43.785 188.067C42.0183 189.014 40.0823 189.604 38.0876 189.804C36.0928 190.003 34.0784 189.807 32.1592 189.228C30.2401 188.649 28.4538 187.697 26.9024 186.427C25.351 185.158 24.0649 183.595 23.1175 181.828C22.1701 180.062 21.5799 178.126 21.3807 176.131C21.1815 174.136 21.3771 172.122 21.9564 170.203C22.5357 168.283 23.4873 166.497 24.7569 164.946C26.0266 163.394 27.5893 162.108 29.356 161.161L32.4 159.529Z" fill="#E5DFD5"/>
<path fill-rule="evenodd" clip-rule="evenodd" d="M32.4 159.529C28.832 161.442 26.1703 164.695 25.0004 168.571C23.8304 172.446 24.2481 176.628 26.1615 180.196C28.0749 183.764 31.3273 186.426 35.2032 187.596C39.0791 188.766 43.261 188.348 46.829 186.435L43.785 188.067C42.0183 189.014 40.0823 189.604 38.0876 189.804C36.0928 190.003 34.0784 189.807 32.1592 189.228C30.2401 188.649 28.4538 187.697 26.9024 186.427C25.351 185.158 24.0649 183.595 23.1175 181.828C22.1701 180.062 21.5799 178.126 21.3807 176.131C21.1815 174.136 21.3771 172.122 21.9564 170.203C22.5357 168.283 23.4873 166.497 24.7569 164.946C26.0266 163.394 27.5893 162.108 29.356 161.161L32.4 159.529Z" stroke="#303030" stroke-linecap="round" stroke-linejoin="round"/>
<path d="M29.8 172.327L46.675 166.398" stroke="#303030" stroke-linecap="round" stroke-linejoin="round"/>
<path d="M31.7432 169.364L43.2872 165.309" stroke="#303030" stroke-linecap="round" stroke-linejoin="round"/>
<path d="M32.6279 180.653C32.6279 180.653 39.0339 177.623 36.9129 169.828" stroke="#303030" stroke-linecap="round" stroke-linejoin="round"/>
<path d="M42.1001 168.004C42.1001 168.004 43.8001 175.304 47.2101 174.799C49.7871 174.416 49.4161 171.659 49.4161 171.659" stroke="#303030" stroke-linecap="round" stroke-linejoin="round"/>
<path fill-rule="evenodd" clip-rule="evenodd" d="M25.236 74.7461L34.967 58.5391L22.321 61.2741L25.236 74.7461Z" fill="#008765"/>
<path fill-rule="evenodd" clip-rule="evenodd" d="M113.313 55.6898L97.7539 44.9548L110.4 42.2188L113.313 55.6898Z" fill="#008765"/>
<path fill-rule="evenodd" clip-rule="evenodd" d="M27.2349 83.9902L42.7939 94.7252L30.1489 97.4612L27.2349 83.9902Z" fill="#008765"/>
<path fill-rule="evenodd" clip-rule="evenodd" d="M115.313 64.9355L105.583 81.1415L118.227 78.4065L115.313 64.9355Z" fill="#008765"/>
<path d="M110.398 42.2188L22.3201 61.273L30.1486 97.46L118.226 78.4056L110.398 42.2188Z" stroke="#303030" stroke-linecap="round" stroke-linejoin="round"/>
<path d="M25.2361 74.7461L34.9671 58.5391" stroke="#303030" stroke-linecap="round" stroke-linejoin="round"/>
<path d="M113.313 55.6901L97.7539 44.9551" stroke="#303030" stroke-linecap="round" stroke-linejoin="round"/>
<path d="M105.583 81.1415L115.313 64.9355" stroke="#303030" stroke-linecap="round" stroke-linejoin="round"/>
<path d="M42.7939 94.7252L27.2349 83.9902" stroke="#303030" stroke-linecap="round" stroke-linejoin="round"/>
<path d="M60.8169 61.6824C60.8169 61.6824 74.0359 58.2284 75.2169 63.9344C76.8999 72.1194 63.3509 73.3994 63.3509 73.3994L80.3179 79.5594" stroke="#303030" stroke-linecap="round" stroke-linejoin="round"/>
<path d="M75.6949 58.4629L60.8169 61.6809" stroke="#303030" stroke-linecap="round" stroke-linejoin="round"/>
<path d="M61.561 65.1236L76.5 61.8926" stroke="#303030" stroke-linecap="round" stroke-linejoin="round"/>
<path fill-rule="evenodd" clip-rule="evenodd" d="M19.6361 112.428L34.7251 117.373L37.9861 132.913L26.1591 143.507L11.0701 138.562L7.80908 123.022L19.6361 112.428Z" fill="#E5DFD5"/>
<path d="M19.6361 112.428L34.7251 117.373L37.9861 132.913L26.1591 143.507L11.0701 138.562L7.80908 123.022L19.6361 112.428Z" stroke="#303030" stroke-linecap="round" stroke-linejoin="round"/>
<path d="M24.044 121.448C24.044 121.448 18.334 121.178 19.137 125.899C19.678 129.082 20.256 133.638 19.937 135.074L27.322 133.32" stroke="#303030" stroke-linecap="round" stroke-linejoin="round"/>
<path d="M17 129.427L23.468 128.082" stroke="#303030" stroke-linecap="round" stroke-linejoin="round"/>
<path d="M173.54 123.527H182.42" stroke="#303030" stroke-linecap="round" stroke-linejoin="round"/>
<path d="M177.981 119.088V127.968" stroke="#303030" stroke-linecap="round" stroke-linejoin="round"/>
<path d="M9.11011 28.0508L15.3891 34.3308" stroke="#303030" stroke-linecap="round" stroke-linejoin="round"/>
<path d="M15.3901 28.0527L9.11011 34.3317" stroke="#303030" stroke-linecap="round" stroke-linejoin="round"/>
<path d="M182.42 58.7731L185.776 64.5101L192.191 53.7891" stroke="#303030" stroke-linecap="round" stroke-linejoin="round"/>
<path d="M154.225 105.933C162.656 105.933 169.49 99.0979 169.49 90.6673C169.49 82.2367 162.656 75.4023 154.225 75.4023C145.794 75.4023 138.96 82.2367 138.96 90.6673C138.96 99.0979 145.794 105.933 154.225 105.933Z" stroke="#303030" stroke-linecap="round" stroke-linejoin="round"/>
<path fill-rule="evenodd" clip-rule="evenodd" d="M151.988 75.5664C149.996 75.8494 148.079 76.5235 146.348 77.5499C144.617 78.5763 143.107 79.9348 141.903 81.5472C140.699 83.1597 139.826 84.9942 139.333 86.9454C138.841 88.8965 138.739 90.9258 139.034 92.9163C139.329 94.9069 140.014 96.8195 141.051 98.5442C142.088 100.269 143.455 101.772 145.075 102.966C146.695 104.16 148.534 105.023 150.488 105.503C152.442 105.984 154.472 106.074 156.461 105.767L153.044 106.273C149.051 106.84 144.996 105.804 141.765 103.391C138.534 100.979 136.388 97.3849 135.797 93.3956C135.206 89.4064 136.218 85.3454 138.612 82.0997C141.005 78.8539 144.585 76.6871 148.571 76.0724L151.988 75.5664Z" fill="#E5DFD5"/>
<path fill-rule="evenodd" clip-rule="evenodd" d="M151.988 75.5664C149.996 75.8494 148.079 76.5235 146.348 77.5499C144.617 78.5763 143.107 79.9348 141.903 81.5472C140.699 83.1597 139.826 84.9942 139.333 86.9454C138.841 88.8965 138.739 90.9258 139.034 92.9163C139.329 94.9069 140.014 96.8195 141.051 98.5442C142.088 100.269 143.455 101.772 145.075 102.966C146.695 104.16 148.534 105.023 150.488 105.503C152.442 105.984 154.472 106.074 156.461 105.767L153.044 106.273C149.051 106.84 144.996 105.804 141.765 103.391C138.534 100.979 136.388 97.3849 135.797 93.3956C135.206 89.4064 136.218 85.3454 138.612 82.0997C141.005 78.8539 144.585 76.6871 148.571 76.0724L151.988 75.5664Z" stroke="#303030" stroke-linecap="round" stroke-linejoin="round"/>
<path d="M159.224 96.023C158.261 96.6457 157.148 96.9972 156.002 97.0405C154.856 97.0838 153.719 96.8173 152.712 96.2691C151.705 95.7208 150.864 94.9112 150.278 93.9253C149.692 92.9394 149.383 91.8138 149.383 90.667C149.383 89.5202 149.692 88.3946 150.278 87.4087C150.864 86.4229 151.705 85.6132 152.712 85.065C153.719 84.5168 154.856 84.2503 156.002 84.2936C157.148 84.3369 158.261 84.6884 159.224 85.311" stroke="#303030" stroke-linecap="round" stroke-linejoin="round"/>
<path d="M157.344 90.1777H146.632" stroke="#303030" stroke-linecap="round" stroke-linejoin="round"/>
<path d="M157.344 92.2695H146.632" stroke="#303030" stroke-linecap="round" stroke-linejoin="round"/>
</svg>
