<svg width="200" height="200" viewBox="0 0 200 200" fill="none" xmlns="http://www.w3.org/2000/svg">
<path d="M62.583 50.5941V47.5171H5V70.7111H8.157" stroke="#303030" stroke-linecap="round" stroke-linejoin="round"/>
<path d="M65.7393 53.7272V50.5942H8.15625V73.7882H11.5593" stroke="#303030" stroke-linecap="round" stroke-linejoin="round"/>
<path d="M29.7245 76.921H11.5605V53.728H69.1435V72.036" stroke="#303030" stroke-linecap="round" stroke-linejoin="round"/>
<path d="M43.1576 60.6001H39.2655C39.0142 60.6001 38.7653 60.6496 38.5331 60.7458C38.3009 60.842 38.0899 60.983 37.9121 61.1607C37.7344 61.3384 37.5934 61.5494 37.4972 61.7816C37.4011 62.0139 37.3516 62.2627 37.3516 62.5141C37.3516 62.7654 37.4011 63.0143 37.4972 63.2466C37.5934 63.4788 37.7344 63.6898 37.9121 63.8675C38.0899 64.0452 38.3009 64.1862 38.5331 64.2824C38.7653 64.3786 39.0142 64.4281 39.2655 64.4281L41.3866 64.4421C41.9009 64.4415 42.3951 64.6424 42.763 65.0019C43.1309 65.3614 43.3433 65.8508 43.3545 66.3651C43.3543 66.8737 43.1521 67.3614 42.7925 67.721C42.4329 68.0807 41.9452 68.2828 41.4365 68.2831L37.5445 68.2751" stroke="#303030" stroke-linecap="round" stroke-linejoin="round"/>
<path d="M40.3516 69.9293V59.1143" stroke="#303030" stroke-linecap="round" stroke-linejoin="round"/>
<path d="M149.535 135.654H29.7246C29.7252 138.786 30.9695 141.789 33.184 144.004C35.3985 146.218 38.4018 147.463 41.5336 147.463H129.474" stroke="#303030" stroke-linecap="round" stroke-linejoin="round"/>
<path d="M29.7246 135.654V72.0361L86.7076 72.0371" stroke="#303030" stroke-linecap="round" stroke-linejoin="round"/>
<path d="M102.74 72.0371L163.064 72.0361V124.567" stroke="#303030" stroke-linecap="round" stroke-linejoin="round"/>
<path d="M113.217 147.463H79.5723V164.284H113.217V147.463Z" fill="#E5DFD5"/>
<path d="M113.217 147.463H79.5723V164.284H113.217V147.463Z" stroke="#303030" stroke-linecap="round" stroke-linejoin="round"/>
<path d="M72.6016 164.284H120.19" stroke="#303030" stroke-linecap="round" stroke-linejoin="round"/>
<path fill-rule="evenodd" clip-rule="evenodd" d="M99.2843 85.4468C98.86 84.9284 98.3764 84.4615 97.8433 84.0558C96.202 84.1277 94.6127 84.6524 93.2513 85.5718C89.7175 85.939 86.2713 86.9009 83.0583 88.4168C80.1173 83.9558 74.4523 84.0558 74.4523 84.0558C73.0742 87.604 73.1036 91.5446 74.5343 95.0718C73.6101 96.251 72.8411 97.5439 72.2463 98.9188C69.4373 103.998 65.7363 104.919 65.7363 104.919C67.9483 104.919 69.7413 107.701 69.7413 111.133C69.7413 114.263 68.2503 116.853 66.3093 117.285C68.1213 117.113 73.7163 116.823 75.6093 119.506C77.8773 122.726 78.2643 130.653 78.2643 130.653H84.1493L85.6933 122.522L86.5353 130.653H93.3163V124.253C96.5732 124.68 99.8783 124.566 103.098 123.917L102.698 130.653H109.598L111.507 121.124L114.03 130.653H120.899L122.976 104.919C122.973 94.7098 112.552 86.3228 99.2843 85.4468Z" fill="#E5DFD5"/>
<path d="M74.5344 95.072C73.2152 91.5234 73.1862 87.6238 74.4524 84.056C74.4524 84.056 80.2204 83.888 83.0584 88.417" stroke="#303030" stroke-linecap="round" stroke-linejoin="round"/>
<path d="M65.7363 104.914C65.7363 104.914 69.4363 103.997 72.2463 98.9139C75.2313 91.9559 83.2743 86.6999 93.1133 85.5879" stroke="#303030" stroke-linecap="round" stroke-linejoin="round"/>
<path d="M99.4707 85.46C112.65 86.402 122.971 94.76 122.971 104.914L120.899 130.648H114.033L111.51 121.119L109.601 130.648H102.701L103.101 123.912" stroke="#303030" stroke-linecap="round" stroke-linejoin="round"/>
<path d="M103.099 123.912C97.2763 124.97 91.278 124.487 85.6992 122.512" stroke="#303030" stroke-linecap="round" stroke-linejoin="round"/>
<path d="M69.7415 111.128C69.7415 114.561 67.9485 117.343 65.7365 117.343C63.5245 117.343 61.7305 114.561 61.7305 111.128C61.7305 107.695 63.5245 104.914 65.7365 104.914C67.9485 104.914 69.7415 107.7 69.7415 111.128Z" stroke="#303030" stroke-linecap="round" stroke-linejoin="round"/>
<path d="M65.7363 117.343C65.7363 117.343 73.3363 116.282 75.6053 119.501C77.8743 122.72 78.2603 130.648 78.2603 130.648H84.1493L85.6933 122.517L86.5353 130.648H93.3163V124.263" stroke="#303030" stroke-linecap="round" stroke-linejoin="round"/>
<path d="M122.93 103.765C122.93 103.765 123.561 107.371 125.538 107.3C129.338 107.163 125.129 99.9709 128.55 99.9709C130.588 99.9709 129.67 106.623 132.55 105.794C135.606 104.914 131.931 99.6129 134.404 98.9759C137.004 98.3059 136.171 103.765 138.161 103.765C140.225 103.765 139.533 100.035 139.387 98.9759" stroke="#303030" stroke-linecap="round" stroke-linejoin="round"/>
<path d="M75.6995 101.059L75.6875 103.765" stroke="#303030" stroke-linecap="round" stroke-linejoin="round"/>
<path d="M63.9554 109.213L63.9434 113.044" stroke="#303030" stroke-linecap="round" stroke-linejoin="round"/>
<path d="M66.7581 109.213L66.7461 113.044" stroke="#303030" stroke-linecap="round" stroke-linejoin="round"/>
<path d="M84.4358 101.059L84.4238 103.765" stroke="#303030" stroke-linecap="round" stroke-linejoin="round"/>
<path d="M89.1446 92.7508C89.1336 89.3368 92.3926 84.0568 97.8446 84.0508C97.8446 84.0508 103.936 87.1368 99.4006 96.5888" stroke="#303030" stroke-linecap="round" stroke-linejoin="round"/>
<path d="M72.752 117.693C72.752 117.693 77.119 118.484 77.292 112.686" stroke="#303030" stroke-linecap="round" stroke-linejoin="round"/>
<path fill-rule="evenodd" clip-rule="evenodd" d="M160.248 150.306C149.328 150.306 137.078 147.461 129.473 144.076V179.241H191.024V144.076C181.255 148.093 170.81 150.207 160.248 150.306ZM175.221 165.306C174.748 165.306 174.285 165.166 173.891 164.903C173.498 164.64 173.191 164.266 173.01 163.829C172.829 163.392 172.782 162.911 172.874 162.446C172.966 161.982 173.194 161.556 173.529 161.221C173.863 160.886 174.29 160.658 174.754 160.566C175.218 160.474 175.699 160.521 176.137 160.702C176.574 160.883 176.948 161.19 177.211 161.584C177.474 161.977 177.614 162.44 177.614 162.913C177.612 163.547 177.359 164.154 176.911 164.601C176.462 165.049 175.854 165.3 175.221 165.3V165.306Z" fill="#008765"/>
<path d="M129.473 144.076V179.241H191.024V144.076" stroke="#303030" stroke-linecap="round" stroke-linejoin="round"/>
<path d="M174.367 139.188C180.081 140.206 185.666 141.845 191.024 144.076C181.285 148.188 170.82 150.306 160.248 150.306C149.677 150.306 139.212 148.188 129.473 144.076C136.023 141.366 142.896 139.517 149.922 138.576" stroke="#303030" stroke-linecap="round" stroke-linejoin="round"/>
<path fill-rule="evenodd" clip-rule="evenodd" d="M175.088 157.732C173.732 157.732 172.432 158.27 171.474 159.229C170.515 160.187 169.977 161.487 169.977 162.843C169.977 164.198 170.515 165.498 171.474 166.457C172.432 167.415 173.732 167.954 175.088 167.954H195V157.732H175.088ZM175.221 165.304C174.748 165.304 174.285 165.164 173.891 164.901C173.498 164.638 173.191 164.264 173.01 163.827C172.829 163.389 172.781 162.908 172.874 162.444C172.966 161.98 173.194 161.553 173.529 161.219C173.863 160.884 174.29 160.656 174.754 160.564C175.218 160.472 175.699 160.519 176.137 160.7C176.574 160.881 176.948 161.188 177.211 161.581C177.473 161.975 177.614 162.438 177.614 162.911C177.612 163.545 177.36 164.152 176.911 164.6C176.463 165.048 175.855 165.3 175.221 165.3V165.304Z" fill="#E5DFD5"/>
<path d="M195 157.732H175.088C173.732 157.732 172.432 158.27 171.474 159.229C170.515 160.187 169.977 161.487 169.977 162.843C169.977 164.198 170.515 165.498 171.474 166.457C172.432 167.415 173.732 167.954 175.088 167.954H195V157.732Z" stroke="#303030" stroke-linecap="round" stroke-linejoin="round"/>
<path d="M175.221 165.304C176.542 165.304 177.614 164.233 177.614 162.911C177.614 161.589 176.542 160.518 175.221 160.518C173.899 160.518 172.828 161.589 172.828 162.911C172.828 164.233 173.899 165.304 175.221 165.304Z" stroke="#303030" stroke-linecap="round" stroke-linejoin="round"/>
<path d="M117.767 45.1537C117.605 45.0407 116.923 44.4537 116.5 44.1177C118.715 45.9297 118.486 50.2417 115.922 53.9387C113.275 57.7557 109.142 59.4717 106.691 57.7717C106.891 57.9087 107.841 58.7397 108.182 58.9717C110.633 60.6717 114.765 58.9547 117.412 55.1377C120.059 51.3207 120.218 46.8527 117.767 45.1537Z" fill="#E5DFD5"/>
<path d="M117.767 45.1537C117.605 45.0407 116.923 44.4537 116.5 44.1177C118.715 45.9297 118.486 50.2417 115.922 53.9387C113.275 57.7557 109.142 59.4717 106.691 57.7717C106.891 57.9087 107.841 58.7397 108.182 58.9717C110.633 60.6717 114.765 58.9547 117.412 55.1377C120.059 51.3207 120.218 46.8527 117.767 45.1537Z" stroke="#303030" stroke-linecap="round" stroke-linejoin="round"/>
<path d="M115.923 53.9394C118.57 50.1227 118.729 45.6505 116.278 43.9507C113.827 42.2508 109.694 43.9669 107.047 47.7836C104.4 51.6004 104.241 56.0725 106.693 57.7724C109.144 59.4722 113.277 57.7562 115.923 53.9394Z" stroke="#303030" stroke-linecap="round" stroke-linejoin="round"/>
<path d="M114.317 49.135L112.65 47.925C112.197 47.596 111.421 47.891 110.914 48.59C110.407 49.289 110.364 50.122 110.814 50.451L111.714 51.119C112.167 51.448 112.143 52.301 111.636 52.999C111.129 53.697 110.35 53.999 109.897 53.668L108.234 52.454" stroke="#303030" stroke-linecap="round" stroke-linejoin="round"/>
<path d="M108.648 54.4206L113.825 47.2856" stroke="#303030" stroke-linecap="round" stroke-linejoin="round"/>
<path d="M177 69.2686C177.183 69.1946 178.051 68.9486 178.562 68.7786C175.831 69.6336 172.355 67.0706 170.677 62.8966C168.945 58.5866 169.784 54.1906 172.551 53.0786C172.33 53.1676 171.111 53.5066 170.727 53.6616C167.96 54.7736 167.12 59.1696 168.853 63.4796C170.586 67.7896 174.233 70.3806 177 69.2686Z" fill="#E5DFD5"/>
<path d="M177 69.2686C177.183 69.1946 178.051 68.9486 178.562 68.7786C175.831 69.6336 172.355 67.0706 170.677 62.8966C168.945 58.5866 169.784 54.1906 172.551 53.0786C172.33 53.1676 171.111 53.5066 170.727 53.6616C167.96 54.7736 167.12 59.1696 168.853 63.4796C170.586 67.7896 174.233 70.3806 177 69.2686Z" stroke="#303030" stroke-linecap="round" stroke-linejoin="round"/>
<path d="M178.853 68.6919C181.621 67.5793 182.461 63.1832 180.729 58.8729C178.996 54.5626 175.348 51.9704 172.579 53.083C169.811 54.1956 168.972 58.5917 170.704 62.902C172.437 67.2123 176.085 69.8046 178.853 68.6919Z" stroke="#303030" stroke-linecap="round" stroke-linejoin="round"/>
<path d="M175.572 64.1998L177.499 63.4718C178.023 63.2718 178.199 62.4648 177.899 61.6568C177.599 60.8488 176.922 60.3568 176.399 60.5568L175.345 60.9428C174.821 61.1428 174.122 60.6518 173.817 59.8428C173.512 59.0338 173.691 58.2188 174.217 58.0218L176.146 57.2998" stroke="#303030" stroke-linecap="round" stroke-linejoin="round"/>
<path d="M174.273 56.5557L177.385 64.8027" stroke="#303030" stroke-linecap="round" stroke-linejoin="round"/>
<path d="M176.148 108.867C176.327 108.952 177.095 109.424 177.566 109.685C175.088 108.254 174.619 103.961 176.554 99.8986C178.554 95.7056 182.354 93.3455 185.046 94.6285C184.831 94.5285 183.756 93.8587 183.382 93.6807C180.689 92.3987 176.882 94.7576 174.889 98.9516C172.896 103.146 173.456 107.585 176.148 108.867Z" fill="#E5DFD5"/>
<path d="M176.148 108.867C176.327 108.952 177.095 109.424 177.566 109.685C175.088 108.254 174.619 103.961 176.554 99.8986C178.554 95.7056 182.354 93.3455 185.046 94.6285C184.831 94.5285 183.756 93.8587 183.382 93.6807C180.689 92.3987 176.882 94.7576 174.889 98.9516C172.896 103.146 173.456 107.585 176.148 108.867Z" stroke="#303030" stroke-linecap="round" stroke-linejoin="round"/>
<path d="M186.306 104.544C188.304 100.351 187.74 95.9115 185.047 94.6287C182.354 93.346 178.552 95.7056 176.554 99.8989C174.557 104.092 175.121 108.532 177.814 109.814C180.507 111.097 184.309 108.737 186.306 104.544Z" stroke="#303030" stroke-linecap="round" stroke-linejoin="round"/>
<path d="M178.912 104.382L180.752 105.307C181.252 105.559 181.971 105.143 182.358 104.372C182.745 103.601 182.658 102.772 182.158 102.519L181.158 102.005C180.658 101.754 180.544 100.905 180.931 100.138C181.318 99.3706 182.04 98.9446 182.54 99.1966L184.377 100.127" stroke="#303030" stroke-linecap="round" stroke-linejoin="round"/>
<path d="M183.654 98.252L179.695 106.127" stroke="#303030" stroke-linecap="round" stroke-linejoin="round"/>
<path fill-rule="evenodd" clip-rule="evenodd" d="M88.7134 72.0369C88.7134 70.177 89.4522 68.3932 90.7674 67.078C92.0826 65.7628 93.8664 65.0239 95.7264 65.0239H93.7184C91.873 65.046 90.1108 65.7945 88.8136 67.1072C87.5165 68.4199 86.7891 70.191 86.7891 72.0364C86.7891 73.8819 87.5165 75.653 88.8136 76.9657C90.1108 78.2784 91.873 79.0269 93.7184 79.0489H95.7264C94.8054 79.0491 93.8935 78.8678 93.0427 78.5155C92.1918 78.1631 91.4187 77.6466 90.7675 76.9955C90.1162 76.3444 89.5997 75.5713 89.2472 74.7205C88.8948 73.8697 88.7134 72.9578 88.7134 72.0369Z" fill="#E5DFD5"/>
<path fill-rule="evenodd" clip-rule="evenodd" d="M88.7134 72.0369C88.7134 70.177 89.4522 68.3932 90.7674 67.078C92.0826 65.7628 93.8664 65.0239 95.7264 65.0239H93.7184C91.873 65.046 90.1108 65.7945 88.8136 67.1072C87.5165 68.4199 86.7891 70.191 86.7891 72.0364C86.7891 73.8819 87.5165 75.653 88.8136 76.9657C90.1108 78.2784 91.873 79.0269 93.7184 79.0489H95.7264C94.8054 79.0491 93.8935 78.8678 93.0427 78.5155C92.1918 78.1631 91.4187 77.6466 90.7675 76.9955C90.1162 76.3444 89.5997 75.5713 89.2472 74.7205C88.8948 73.8697 88.7134 72.9578 88.7134 72.0369Z" stroke="#303030" stroke-linecap="round" stroke-linejoin="round"/>
<path d="M96.1462 79.0361C100.012 78.8046 102.958 75.4832 102.726 71.6175C102.495 67.7518 99.1736 64.8057 95.3079 65.0372C91.4422 65.2687 88.4961 68.5901 88.7276 72.4558C88.9591 76.3215 92.2805 79.2676 96.1462 79.0361Z" stroke="#303030" stroke-linecap="round" stroke-linejoin="round"/>
<path d="M97.6325 69.3677H94.9875C94.8167 69.3677 94.6477 69.4013 94.49 69.4666C94.3322 69.532 94.1889 69.6277 94.0682 69.7484C93.9475 69.8692 93.8517 70.0125 93.7864 70.1702C93.7211 70.3279 93.6875 70.497 93.6875 70.6677C93.6875 70.8384 93.7211 71.0074 93.7864 71.1652C93.8517 71.3229 93.9475 71.4662 94.0682 71.5869C94.1889 71.7076 94.3322 71.8034 94.49 71.8687C94.6477 71.9341 94.8167 71.9677 94.9875 71.9677L96.4295 71.9777C96.7788 71.9773 97.1144 72.1138 97.3644 72.358C97.6143 72.6021 97.7586 72.9344 97.7665 73.2837C97.7665 73.6285 97.6295 73.9591 97.3857 74.2029C97.1419 74.4467 96.8112 74.5837 96.4665 74.5837H93.8215" stroke="#303030" stroke-linecap="round" stroke-linejoin="round"/>
<path d="M95.7266 75.7108V68.3618" stroke="#303030" stroke-linecap="round" stroke-linejoin="round"/>
<path fill-rule="evenodd" clip-rule="evenodd" d="M134.146 41.3728C134.146 38.4254 135.317 35.5988 137.401 33.5147C139.485 31.4306 142.312 30.2598 145.259 30.2598H142.078C139.131 30.2598 136.304 31.4306 134.22 33.5147C132.136 35.5988 130.965 38.4254 130.965 41.3728C130.965 44.3201 132.136 47.1468 134.22 49.2308C136.304 51.3149 139.131 52.4858 142.078 52.4858H145.259C142.312 52.4858 139.485 51.3149 137.401 49.2308C135.317 47.1468 134.146 44.3201 134.146 41.3728Z" fill="#E5DFD5"/>
<path fill-rule="evenodd" clip-rule="evenodd" d="M134.146 41.3728C134.146 38.4254 135.317 35.5988 137.401 33.5147C139.485 31.4306 142.312 30.2598 145.259 30.2598H142.078C139.131 30.2598 136.304 31.4306 134.22 33.5147C132.136 35.5988 130.965 38.4254 130.965 41.3728C130.965 44.3201 132.136 47.1468 134.22 49.2308C136.304 51.3149 139.131 52.4858 142.078 52.4858H145.259C142.312 52.4858 139.485 51.3149 137.401 49.2308C135.317 47.1468 134.146 44.3201 134.146 41.3728Z" stroke="#303030" stroke-linecap="round" stroke-linejoin="round"/>
<path d="M145.824 52.4722C151.954 52.1605 156.67 46.9388 156.358 40.8092C156.047 34.6796 150.825 29.9632 144.695 30.2749C138.566 30.5866 133.849 35.8083 134.161 41.9379C134.473 48.0675 139.694 52.7839 145.824 52.4722Z" stroke="#303030" stroke-linecap="round" stroke-linejoin="round"/>
<path d="M148.281 37.1441H144.089C143.815 37.138 143.542 37.1869 143.286 37.2877C143.031 37.3886 142.798 37.5395 142.602 37.7315C142.405 37.9236 142.249 38.1529 142.143 38.406C142.036 38.6591 141.982 38.9309 141.982 39.2056C141.982 39.4802 142.036 39.752 142.143 40.0051C142.249 40.2582 142.405 40.4875 142.602 40.6796C142.798 40.8716 143.031 41.0225 143.286 41.1234C143.542 41.2243 143.815 41.2731 144.089 41.2671L146.374 41.2811C146.928 41.2807 147.46 41.4972 147.856 41.8843C148.252 42.2715 148.481 42.7983 148.493 43.3521C148.493 43.8999 148.275 44.4253 147.888 44.8126C147.5 45.2 146.975 45.4178 146.427 45.4181L142.236 45.4101" stroke="#303030" stroke-linecap="round" stroke-linejoin="round"/>
<path d="M145.26 47.1998V35.5488" stroke="#303030" stroke-linecap="round" stroke-linejoin="round"/>
<path fill-rule="evenodd" clip-rule="evenodd" d="M152.714 135.654C152.714 134.195 153.001 132.749 153.56 131.401C154.118 130.053 154.937 128.828 155.969 127.796C157.001 126.764 158.226 125.945 159.574 125.387C160.922 124.828 162.368 124.541 163.827 124.541H160.646C157.699 124.541 154.872 125.712 152.788 127.796C150.704 129.88 149.533 132.707 149.533 135.654C149.533 138.601 150.704 141.428 152.788 143.512C154.872 145.596 157.699 146.767 160.646 146.767H163.827C162.368 146.767 160.922 146.48 159.574 145.921C158.226 145.363 157.001 144.544 155.969 143.512C154.937 142.48 154.118 141.255 153.56 139.907C153.001 138.559 152.714 137.113 152.714 135.654Z" fill="#E5DFD5"/>
<path fill-rule="evenodd" clip-rule="evenodd" d="M152.714 135.654C152.714 134.195 153.001 132.749 153.56 131.401C154.118 130.053 154.937 128.828 155.969 127.796C157.001 126.764 158.226 125.945 159.574 125.387C160.922 124.828 162.368 124.541 163.827 124.541H160.646C157.699 124.541 154.872 125.712 152.788 127.796C150.704 129.88 149.533 132.707 149.533 135.654C149.533 138.601 150.704 141.428 152.788 143.512C154.872 145.596 157.699 146.767 160.646 146.767H163.827C162.368 146.767 160.922 146.48 159.574 145.921C158.226 145.363 157.001 144.544 155.969 143.512C154.937 142.48 154.118 141.255 153.56 139.907C153.001 138.559 152.714 137.113 152.714 135.654Z" stroke="#303030" stroke-linecap="round" stroke-linejoin="round"/>
<path d="M164.391 146.754C170.521 146.442 175.237 141.22 174.925 135.091C174.614 128.961 169.392 124.245 163.262 124.556C157.133 124.868 152.416 130.09 152.728 136.219C153.04 142.349 158.262 147.065 164.391 146.754Z" stroke="#303030" stroke-linecap="round" stroke-linejoin="round"/>
<path d="M166.849 131.425H162.658C162.384 131.419 162.111 131.468 161.855 131.569C161.6 131.669 161.367 131.82 161.171 132.012C160.975 132.204 160.819 132.434 160.712 132.687C160.606 132.94 160.551 133.212 160.551 133.486C160.551 133.761 160.606 134.033 160.712 134.286C160.819 134.539 160.975 134.768 161.171 134.96C161.367 135.152 161.6 135.303 161.855 135.404C162.111 135.505 162.384 135.554 162.658 135.548L164.943 135.562C165.497 135.561 166.029 135.778 166.425 136.165C166.821 136.552 167.05 137.079 167.062 137.633C167.062 138.18 166.845 138.705 166.458 139.093C166.071 139.481 165.547 139.699 164.999 139.7L160.807 139.692" stroke="#303030" stroke-linecap="round" stroke-linejoin="round"/>
<path d="M163.828 141.477V129.83" stroke="#303030" stroke-linecap="round" stroke-linejoin="round"/>
<path d="M15 155.873H29.72" stroke="#303030" stroke-linecap="round" stroke-linejoin="round"/>
<path d="M22.3633 148.514V163.234" stroke="#303030" stroke-linecap="round" stroke-linejoin="round"/>
<path d="M177.75 21.5059H186.669" stroke="#303030" stroke-linecap="round" stroke-linejoin="round"/>
<path d="M182.209 17.0459V25.9659" stroke="#303030" stroke-linecap="round" stroke-linejoin="round"/>
<path d="M48.3008 179.241H55.7258" stroke="#303030" stroke-linecap="round" stroke-linejoin="round"/>
<path d="M52.0156 175.528V182.954" stroke="#303030" stroke-linecap="round" stroke-linejoin="round"/>
</svg>
