<svg width="256" height="256" viewBox="0 0 256 256" fill="none" xmlns="http://www.w3.org/2000/svg">
<path fill-rule="evenodd" clip-rule="evenodd" d="M124.951 91.3763C125.573 90.3063 126.464 89.4184 127.536 88.8012C128.609 88.184 129.824 87.8591 131.062 87.8591C132.299 87.8591 133.514 88.184 134.586 88.8012C135.658 89.4184 136.55 90.3063 137.171 91.3763L178.454 162.881C179.069 163.955 179.39 165.171 179.387 166.408C179.384 167.645 179.056 168.86 178.436 169.929C177.816 170.999 176.927 171.888 175.854 172.507C174.783 173.125 173.568 173.451 172.332 173.452H89.7667C88.532 173.446 87.3204 173.117 86.2526 172.497C85.1848 171.877 84.2983 170.988 83.6814 169.918C83.0644 168.849 82.7385 167.636 82.7363 166.402C82.734 165.166 83.0556 163.952 83.6687 162.881L124.951 91.3763ZM131.049 148.17C130.741 148.171 130.434 148.113 130.149 147.994C129.863 147.877 129.604 147.704 129.385 147.486C129.167 147.267 128.994 147.008 128.876 146.722C128.759 146.437 128.701 146.131 128.702 145.821V111.532C128.702 110.91 128.949 110.313 129.39 109.873C129.829 109.432 130.426 109.185 131.049 109.185C131.672 109.185 132.269 109.432 132.709 109.873C133.149 110.313 133.396 110.91 133.396 111.532V145.821C133.395 146.444 133.148 147.04 132.709 147.481C132.268 147.922 131.672 148.169 131.049 148.17ZM133.784 156.106C133.784 157.616 132.56 158.84 131.049 158.84C129.539 158.84 128.315 157.616 128.315 156.106C128.315 154.595 129.539 153.371 131.049 153.371C132.56 153.371 133.784 154.595 133.784 156.106Z" fill="#E5DFD5"/>
<path d="M197.449 84.5271L197.086 92.7316L165.628 106.451L165.967 98.2476L197.449 84.5271Z" fill="#D45050"/>
<path d="M196.263 112.671L195.924 120.873L164.442 134.595L164.805 126.415L196.263 112.671Z" fill="#D45050"/>
<path d="M72.7789 138.901L72.4401 147.081L42.6035 160.099V152.065L72.7789 138.901Z" fill="#D45050"/>
<path d="M71.6174 167.045L71.2786 175.248L45.1202 186.646C44.3228 185.883 43.6885 184.966 43.256 183.951C42.8234 182.936 42.6014 181.843 42.6035 180.74V179.699L71.6174 167.045Z" fill="#D45050"/>
<path d="M95.8163 129.125L89.1375 133.893L58.9863 117.485L65.6651 112.719L95.8163 129.125Z" fill="#D45050"/>
<path d="M58.8436 80.1713L52.1648 84.9384C42.8675 79.8975 44.7028 80.8972 42.6064 79.7357V71.3389L58.8436 80.1713Z" fill="#D45050"/>
<path d="M219.518 167.552V175.949L201.394 166.1L208.072 161.333L219.518 167.552Z" fill="#D45050"/>
<path d="M205.822 188.944H190.383L178.453 182.459L185.132 177.692L205.822 188.944Z" fill="#D45050"/>
<path d="M245.411 125.956C246.172 125.956 246.79 125.338 246.79 124.577C246.79 123.815 246.172 123.197 245.411 123.197C244.649 123.197 244.031 123.815 244.031 124.577C244.031 125.338 244.649 125.956 245.411 125.956Z" fill="#D45050"/>
<path d="M114.061 110.202L110.383 116.614L81.9258 101.127L88.6045 96.3613L114.061 110.202Z" fill="#D45050"/>
<path d="M177.921 144.926L171.242 149.693L170.637 149.356L163.571 137.135L177.921 144.926Z" fill="#D45050"/>
<path d="M219.518 65.3388C219.518 179.602 219.794 182.789 219.009 183.573C218.428 185.148 217.38 186.507 216.004 187.467C214.629 188.427 212.991 188.943 211.313 188.945H50.7826C48.6138 188.944 46.5342 188.082 45.0006 186.549C43.467 185.015 42.6049 182.935 42.6035 180.766V65.3388C42.6049 63.17 43.467 61.0903 45.0006 59.5568C46.5342 58.0232 48.6138 57.161 50.7826 57.1597H211.315C212.391 57.1558 213.457 57.3645 214.453 57.774C215.449 58.1833 216.353 58.7852 217.116 59.5452C217.878 60.3051 218.483 61.2081 218.894 62.2024C219.307 63.1966 219.519 64.2625 219.518 65.3388Z" stroke="#303030" stroke-linecap="round" stroke-linejoin="round"/>
<path d="M206.403 80.5825H59.5186" stroke="#303030" stroke-linecap="round" stroke-linejoin="round"/>
<path d="M95.1869 137.183L72.4404 147.104L72.7792 138.901L86.9595 132.706L95.1869 137.183Z" stroke="#303030" stroke-linecap="round" stroke-linejoin="round"/>
<path d="M197.449 84.5269L197.086 92.7314L165.628 106.451L165.967 98.2474L197.449 84.5269Z" stroke="#303030" stroke-linecap="round" stroke-linejoin="round"/>
<path d="M196.263 112.671L195.924 120.873L164.442 134.595L164.805 126.414L196.263 112.671Z" stroke="#303030" stroke-linecap="round" stroke-linejoin="round"/>
<path d="M72.7789 138.901L72.4401 147.081L42.6035 160.098V152.065L72.7789 138.901Z" stroke="#303030" stroke-linecap="round" stroke-linejoin="round"/>
<path d="M219.518 74.896V82.9311L197.086 92.7315L197.449 84.527L219.518 74.896Z" stroke="#303030" stroke-linecap="round" stroke-linejoin="round"/>
<path d="M219.518 102.532V110.589L195.925 120.873L196.264 112.671L219.518 102.532Z" stroke="#303030" stroke-linecap="round" stroke-linejoin="round"/>
<path d="M71.6174 167.045L71.2786 175.248L45.1202 186.645C44.3228 185.883 43.6885 184.966 43.256 183.95C42.8234 182.935 42.6014 181.843 42.6035 180.74V179.699L71.6174 167.045Z" stroke="#303030" stroke-linecap="round" stroke-linejoin="round"/>
<path d="M180.075 33.3599H162.386" stroke="#303030" stroke-linecap="round" stroke-linejoin="round"/>
<path d="M88.3627 222.651C90.0333 222.651 91.3875 221.298 91.3875 219.627C91.3875 217.956 90.0333 216.602 88.3627 216.602C86.6921 216.602 85.3379 217.956 85.3379 219.627C85.3379 221.298 86.6921 222.651 88.3627 222.651Z" stroke="#303030" stroke-linecap="round" stroke-linejoin="round"/>
<path d="M88.6049 96.3609L81.9261 101.127L52.1621 84.938L58.8409 80.1709L88.6049 96.3609Z" stroke="#303030" stroke-linecap="round" stroke-linejoin="round"/>
<path d="M208.072 161.333L201.393 166.1L171.242 149.693L177.921 144.926L208.072 161.333Z" stroke="#303030" stroke-linecap="round" stroke-linejoin="round"/>
<path d="M65.6646 112.719L58.9858 117.485L42.6035 108.581V100.183L65.6646 112.719Z" stroke="#303030" stroke-linecap="round" stroke-linejoin="round"/>
<path d="M95.8163 129.124L89.1375 133.893L58.9863 117.485L65.6651 112.719L95.8163 129.124Z" stroke="#303030" stroke-linecap="round" stroke-linejoin="round"/>
<path d="M58.8436 80.1713L52.1648 84.9384C42.8675 79.8975 44.7028 80.8972 42.6064 79.7357V71.3389L58.8436 80.1713Z" stroke="#303030" stroke-linecap="round" stroke-linejoin="round"/>
<path d="M219.518 167.552V175.948L201.394 166.1L208.072 161.333L219.518 167.552Z" stroke="#303030" stroke-linecap="round" stroke-linejoin="round"/>
<path d="M205.822 188.944H190.383L178.453 182.459L185.132 177.692L205.822 188.944Z" stroke="#303030" stroke-linecap="round" stroke-linejoin="round"/>
<path d="M124.951 91.3763C125.573 90.3063 126.464 89.4184 127.536 88.8012C128.609 88.184 129.824 87.8591 131.062 87.8591C132.299 87.8591 133.514 88.184 134.586 88.8012C135.658 89.4184 136.55 90.3063 137.171 91.3763L178.454 162.881C179.069 163.955 179.39 165.171 179.387 166.408C179.384 167.645 179.056 168.86 178.436 169.929C177.816 170.999 176.927 171.888 175.854 172.507C174.783 173.125 173.568 173.451 172.332 173.452H89.7667C88.532 173.446 87.3204 173.117 86.2526 172.497C85.1848 171.877 84.2983 170.988 83.6814 169.918C83.0644 168.849 82.7385 167.636 82.7363 166.402C82.734 165.166 83.0556 163.952 83.6687 162.881L124.951 91.3763Z" stroke="#303030" stroke-linecap="round" stroke-linejoin="round"/>
<path d="M131.048 148.17C130.74 148.171 130.433 148.111 130.148 147.994C129.863 147.877 129.603 147.704 129.384 147.486C129.166 147.267 128.993 147.007 128.876 146.722C128.759 146.437 128.7 146.13 128.701 145.821V111.532C128.701 110.91 128.948 110.312 129.389 109.872C129.828 109.432 130.426 109.185 131.048 109.185C131.671 109.185 132.269 109.432 132.708 109.872C133.149 110.312 133.396 110.91 133.396 111.532V145.821C133.394 146.444 133.147 147.04 132.708 147.481C132.267 147.92 131.671 148.169 131.048 148.17Z" fill="#D45050"/>
<path d="M131.049 158.84C132.559 158.84 133.783 157.616 133.783 156.106C133.783 154.595 132.559 153.371 131.049 153.371C129.538 153.371 128.314 154.595 128.314 156.106C128.314 157.616 129.538 158.84 131.049 158.84Z" fill="#D45050"/>
<path d="M245.41 100.546V117.485" stroke="#D45050" stroke-linecap="round" stroke-linejoin="round"/>
<path d="M14.9449 66.1614L7.00781 83.8135H21.4059L13.493 101.443" stroke="#303030" stroke-linecap="round" stroke-linejoin="round"/>
<path d="M236.07 175.827V183.572H219.004C219.354 182.681 219.527 181.728 219.513 180.77V175.834L236.07 175.827Z" stroke="#303030" stroke-linecap="round" stroke-linejoin="round"/>
<path d="M248.991 179.699C248.989 186.95 246.396 193.96 241.678 199.467C236.962 204.972 230.433 208.612 223.269 209.728C216.106 210.844 208.779 209.363 202.611 205.552C196.443 201.74 191.84 195.851 189.633 188.944H211.315C213.485 188.94 215.566 188.078 217.103 186.546C218.64 185.013 219.508 182.934 219.518 180.764V149.306C227.417 149.548 234.912 152.855 240.414 158.529C245.916 164.203 248.993 171.796 248.991 179.699Z" stroke="#303030" stroke-linecap="round" stroke-linejoin="round"/>
<path d="M165.967 98.2473L165.628 106.451L149.851 113.347L146.124 106.912L165.967 98.2473Z" stroke="#303030" stroke-linecap="round" stroke-linejoin="round"/>
<path d="M164.806 126.414L164.443 134.595L162.579 135.416L158.877 128.979L164.806 126.414Z" stroke="#303030" stroke-linecap="round" stroke-linejoin="round"/>
<path d="M114.061 110.201L110.383 116.614L81.9258 101.127L88.6045 96.3611L114.061 110.201Z" stroke="#303030" stroke-linecap="round" stroke-linejoin="round"/>
<path d="M177.921 144.926L171.242 149.693L170.637 149.356L163.571 137.135L177.921 144.926Z" stroke="#303030" stroke-linecap="round" stroke-linejoin="round"/>
<path d="M185.132 177.692L178.453 182.459L161.896 173.457H172.326C173.519 173.461 174.692 173.161 175.738 172.586L185.132 177.692Z" stroke="#303030" stroke-linecap="round" stroke-linejoin="round"/>
<path d="M83.6679 162.881C83.0477 163.941 82.7167 165.144 82.7081 166.372C82.6997 167.6 83.0139 168.807 83.6195 169.876L71.2783 175.272L71.6171 167.068L84.5148 161.454L83.6679 162.881Z" stroke="#303030" stroke-linecap="round" stroke-linejoin="round"/>
<path d="M101.405 132.149L97.7029 138.562L89.1367 133.893L95.8155 129.125L101.405 132.149Z" stroke="#303030" stroke-linecap="round" stroke-linejoin="round"/>
</svg>
