<svg width="200" height="200" viewBox="0 0 200 200" fill="none" xmlns="http://www.w3.org/2000/svg">
<path d="M72.5494 140.472L63.8561 145.927C61.1189 147.65 55.713 150.737 52.9648 153.501H88.4784L89.0754 153.056L84.8964 145.9C80.6965 144.249 76.5722 142.453 72.5494 140.472Z" fill="#E5DFD5"/>
<path d="M147.033 153.501C144.285 150.737 138.879 147.65 136.142 145.927C132.679 143.747 128.697 141.251 128.697 141.251L120.729 136.261L110.924 153.054L111.521 153.499L147.033 153.501Z" fill="#E5DFD5"/>
<path fill-rule="evenodd" clip-rule="evenodd" d="M153.31 91.8977C154.919 83.999 154.751 75.8413 152.817 68.0156C150.884 60.1898 147.235 52.892 142.134 46.6507C137.033 40.4092 130.607 35.3806 123.322 31.9289C116.038 28.4772 108.077 26.6888 100.016 26.6934C91.9549 26.6978 83.996 28.4951 76.7154 31.955C69.4347 35.4149 63.0147 40.4507 57.9204 46.6978C52.8261 52.945 49.185 60.2469 47.2608 68.0747C45.3366 75.9027 45.1775 84.0605 46.795 91.9574L72.1272 77.3984C78.0499 74.1646 84.0697 72.177 89.8442 71.8851C79.1813 67.905 78.9158 58.3553 89.7044 54.1554C89.7828 52.5331 90.2413 50.9521 91.0429 49.5395C91.8444 48.127 92.9668 46.9225 94.3193 46.0233C95.6718 45.1242 97.2166 44.5554 98.8293 44.3628C100.442 44.1702 102.077 44.3594 103.604 44.9148C105.515 45.6285 107.177 46.884 108.385 48.5276C109.593 50.1711 110.296 52.1314 110.407 54.1683C120.68 58.1622 121.403 67.6714 110.165 71.8863C110.138 71.8944 110.111 71.9025 110.084 71.9104C116.289 72.1976 122.493 74.3848 127.841 77.3984L153.31 91.8977Z" fill="#E5DFD5"/>
<path d="M110.407 54.1682C110.295 52.1313 109.593 50.171 108.384 48.5274C107.175 46.8839 105.514 45.6284 103.603 44.9147C102.076 44.3593 100.442 44.1701 98.8285 44.3626C97.2159 44.5553 95.671 45.124 94.3185 46.0232C92.966 46.9224 91.8437 48.1268 91.042 49.5393C90.2405 50.9519 89.782 52.533 89.7037 54.1552C78.9149 58.3551 79.1805 67.9051 89.844 71.8851C93.8319 69.0753 96.5572 64.8405 97.2358 57.4298C96.9943 57.1677 96.7812 56.8809 96.6 56.5741C95.8773 55.3166 95.53 53.8783 95.5991 52.4296C95.6682 50.9809 96.1509 49.5822 96.99 48.3992C97.4009 47.7622 97.9998 47.2687 98.7036 46.9873C99.4075 46.7057 100.181 46.6501 100.918 46.828C102.809 47.3425 104.149 49.2847 104.42 51.8976C104.555 52.9042 104.478 53.9281 104.195 54.9034C103.911 55.8786 103.427 56.7839 102.773 57.5611C102.964 60.6765 103.344 63.8386 105.008 66.5917C106.298 68.7282 108.062 70.5396 110.164 71.8861C121.402 67.6713 120.679 58.1621 110.407 54.1682Z" fill="#008765"/>
<path d="M82.3114 89.2797C81.8577 90.7513 80.5652 94.6855 80.0368 95.2238C80.0035 95.2581 79.9836 95.3032 79.9808 95.351C79.978 95.3987 79.9924 95.4459 80.0216 95.4838C80.0507 95.5217 80.0924 95.5479 80.1393 95.5575C80.1862 95.5672 80.2348 95.5596 80.2766 95.5362L82.5989 94.22C82.6293 94.2023 82.6545 94.1772 82.672 94.1467C82.6894 94.1163 82.6986 94.0818 82.6985 94.0467V89.3385C82.697 89.2919 82.6793 89.2473 82.6484 89.2125C82.6176 89.1777 82.5754 89.1548 82.5294 89.1477C82.4833 89.1408 82.4364 89.1502 82.3965 89.1743C82.3567 89.1984 82.3265 89.2357 82.3114 89.2797Z" fill="#008765"/>
<path d="M119.951 95.2081C119.422 94.6698 118.13 90.7306 117.676 89.264C117.662 89.2186 117.632 89.1797 117.592 89.1544C117.552 89.1292 117.503 89.1191 117.456 89.1263C117.409 89.1333 117.367 89.1571 117.336 89.1931C117.304 89.2292 117.287 89.2751 117.287 89.3227V94.03C117.287 94.0652 117.296 94.0996 117.314 94.13C117.331 94.1604 117.356 94.1857 117.387 94.2032L119.71 95.5195C119.752 95.5428 119.8 95.5505 119.847 95.5409C119.894 95.5314 119.936 95.5054 119.965 95.4676C119.994 95.4299 120.008 95.3829 120.005 95.3353C120.003 95.2877 119.984 95.2425 119.951 95.2081Z" fill="#008765"/>
<path d="M68.7752 142.84L72.7482 140.352C68.7253 138.563 64.9841 136.199 61.642 133.333C61.6049 133.299 61.5564 133.28 61.506 133.281C61.4558 133.281 61.4074 133.3 61.3709 133.335C61.3343 133.369 61.3122 133.416 61.309 133.467C61.3057 133.517 61.3217 133.566 61.3535 133.605L68.7752 142.84Z" fill="#008765"/>
<path d="M131.223 142.84L127.25 140.352C131.273 138.563 135.014 136.199 138.356 133.333C138.393 133.299 138.442 133.28 138.493 133.281C138.542 133.281 138.591 133.3 138.627 133.335C138.664 133.369 138.686 133.416 138.69 133.467C138.693 133.517 138.677 133.566 138.645 133.605L131.223 142.84Z" fill="#008765"/>
<path d="M49.9505 108.481C49.9805 108.447 49.9979 108.403 49.9999 108.359C50.0018 108.313 49.9883 108.268 49.9615 108.232C49.9347 108.196 49.8962 108.17 49.8524 108.158C49.8086 108.146 49.7622 108.15 49.7207 108.168C45.7645 109.906 42.9368 114.217 42.8751 116.999C42.8742 117.035 42.8827 117.07 42.8998 117.101C42.917 117.132 42.942 117.157 42.9725 117.175C43.0028 117.193 43.0374 117.203 43.0729 117.203C43.1082 117.203 43.1429 117.194 43.1736 117.176C44.0949 116.662 45.014 116.145 45.9307 115.624C45.975 115.599 46.0081 115.559 46.0232 115.51C46.8143 112.913 48.1535 110.516 49.9505 108.481Z" fill="#008765"/>
<path d="M157.113 116.827C156.941 114.041 154.149 109.871 150.274 108.171C150.232 108.153 150.186 108.149 150.143 108.161C150.099 108.172 150.06 108.198 150.033 108.235C150.006 108.271 149.992 108.316 149.994 108.362C149.996 108.406 150.014 108.45 150.044 108.484C151.703 110.361 152.972 112.547 153.781 114.917C154.939 115.579 156.055 116.218 157.113 116.827Z" fill="#008765"/>
<path d="M110.407 54.1682C110.295 52.1313 109.593 50.171 108.384 48.5274C107.176 46.8839 105.514 45.6284 103.603 44.9147C102.076 44.3593 100.442 44.1701 98.8286 44.3626C97.2159 44.5553 95.6711 45.124 94.3185 46.0232C92.966 46.9224 91.8437 48.1268 91.0421 49.5393C90.2406 50.9519 89.7821 52.533 89.7037 54.1552C78.9149 58.3551 79.1805 67.9051 89.844 71.8851C93.8319 69.0753 96.5572 64.8405 97.2358 57.4298C96.9944 57.1677 96.7813 56.8809 96.6 56.5741C95.8773 55.3166 95.53 53.8783 95.5991 52.4296C95.6683 50.9809 96.151 49.5822 96.99 48.3992C97.401 47.7622 97.9998 47.2687 98.7036 46.9873C99.4075 46.7057 100.181 46.6501 100.918 46.828C102.809 47.3425 104.149 49.2847 104.42 51.8976C104.555 52.9042 104.478 53.9281 104.195 54.9034C103.911 55.8786 103.427 56.7839 102.773 57.5611C102.964 60.6765 103.344 63.8386 105.008 66.5917C106.298 68.7282 108.062 70.5396 110.164 71.8861C121.402 67.6713 120.679 58.1621 110.407 54.1682Z" stroke="#303030" stroke-linecap="round" stroke-linejoin="round"/>
<path d="M104.421 51.9017C104.15 49.2888 102.809 47.3465 100.92 46.8321C100.182 46.6541 99.4088 46.7097 98.7049 46.9912C98.0011 47.2727 97.4023 47.7661 96.9913 48.4032C96.1523 49.5862 95.6696 50.9849 95.6004 52.4336C95.5313 53.8824 95.8786 55.3206 96.6013 56.5782C97.647 58.3403 99.6938 59.4139 101.587 58.4498C103.891 57.2737 104.671 54.3145 104.421 51.9017Z" stroke="#303030" stroke-miterlimit="10"/>
<path d="M66.3379 103.454C71.9019 100.156 77.2222 97.0212 82.5027 94.0472C82.5275 95.68 82.7076 106.431 83.1375 108.04C85.7678 109.335 88.4919 110.431 91.2865 111.317C98.1878 113.538 102.205 113.762 111.005 110.583C113.078 109.857 115.105 109.005 117.075 108.033C117.067 107.303 117.341 101.533 117.482 94.0312C120.2 95.5765 126.427 99.1625 133.823 103.424" stroke="#303030" stroke-linecap="round" stroke-linejoin="round"/>
<path d="M154.043 115.064C160.902 119.005 166.194 122.029 167.187 122.545L167.358 122.634L177.099 105.297C177.099 105.297 143.238 86.2848 135.807 81.9804C128.731 77.884 125.503 76.0104 122.722 74.8841C118.711 73.259 114.477 72.2496 110.165 71.8901C103.553 73.9748 96.459 73.9748 89.8468 71.8901C84.0039 72.3854 78.3238 74.0689 73.1546 76.8373C72.096 77.4084 69.9965 78.6283 66.8185 80.467C48.7861 90.9145 39.456 96.1303 22.9121 105.297L32.6532 122.634C37.1486 120.297 41.5087 117.903 45.8329 115.452" stroke="#303030" stroke-linecap="round" stroke-linejoin="round"/>
<path d="M153.31 91.8977C154.919 83.999 154.751 75.8413 152.817 68.0156C150.884 60.1898 147.235 52.892 142.134 46.6507C137.033 40.4092 130.607 35.3806 123.322 31.9289C116.038 28.4772 108.077 26.6888 100.016 26.6934C91.955 26.6978 83.996 28.4951 76.7153 31.955C69.4347 35.4149 63.0148 40.4507 57.9205 46.6978C52.8262 52.945 49.185 60.2469 47.2609 68.0747C45.3366 75.9027 45.1775 84.0605 46.795 91.9574" stroke="#303030" stroke-linecap="round" stroke-linejoin="round"/>
<path d="M48.4583 132.425C45.4433 131.979 42.3637 132.385 39.5679 133.599C36.7719 134.812 34.3714 136.784 32.6378 139.291C30.6081 142.216 29.5753 145.717 29.6926 149.276C29.8098 152.834 31.071 156.259 33.2888 159.044C35.5068 161.829 38.5633 163.825 42.005 164.736C45.4468 165.646 49.0905 165.423 52.3955 164.1C53.0978 167.319 54.609 170.306 56.7864 172.778C58.9639 175.25 61.7358 177.127 64.8401 178.23C67.9444 179.334 71.2787 179.627 74.5281 179.083C77.7775 178.539 80.8346 177.176 83.4106 175.123C83.4302 175.11 83.4521 175.101 83.4753 175.097C85.0209 178.503 87.513 181.392 90.6548 183.421C93.7966 185.449 97.4555 186.532 101.195 186.539C103.664 186.538 106.11 186.064 108.399 185.14C111.263 183.974 113.807 182.144 115.824 179.801C117.841 177.459 119.271 174.67 119.999 171.665C120.013 171.663 120.027 171.664 120.04 171.669C120.054 171.674 120.064 171.683 120.073 171.694C122.296 174.605 125.297 176.829 128.73 178.108C132.163 179.386 135.887 179.669 139.473 178.922C143.059 178.174 146.361 176.429 148.997 173.886C151.634 171.343 153.497 168.106 154.373 164.549C157.21 165.422 160.231 165.51 163.112 164.801C165.995 164.092 168.63 162.614 170.738 160.523C173.091 158.231 174.706 155.287 175.378 152.071C176.048 148.856 175.744 145.512 174.504 142.47C173.264 139.428 171.145 136.824 168.416 134.993C165.688 133.163 162.476 132.188 159.191 132.193C156.073 132.216 151.715 133.905 149.75 134.681" stroke="#303030" stroke-linecap="round" stroke-linejoin="round"/>
<path d="M159.709 102.804L174.193 110.467" stroke="#303030" stroke-linecap="round" stroke-linejoin="round"/>
<path d="M40.2351 102.751L25.8105 110.456" stroke="#303030" stroke-linecap="round" stroke-linejoin="round"/>
<path d="M105.008 66.596C103.344 63.8429 102.964 60.6807 102.773 57.5654C102.429 57.924 102.028 58.223 101.586 58.45C100.852 58.793 100.025 58.8796 99.2355 58.6955C98.4466 58.5115 97.7427 58.0675 97.2366 57.4351C96.557 64.8458 93.8317 69.0766 89.8438 71.8894C96.4563 73.9739 103.55 73.9739 110.163 71.8894C108.061 70.5434 106.297 68.7322 105.008 66.596Z" stroke="#303030" stroke-linecap="round" stroke-linejoin="round"/>
<path d="M86.7188 97.0967C88.7341 98.7423 91.1581 99.8103 93.7325 100.187" stroke="#303030" stroke-linecap="round" stroke-linejoin="round"/>
<path d="M113.279 97.0967C111.265 98.7423 108.84 99.8103 106.266 100.187" stroke="#303030" stroke-linecap="round" stroke-linejoin="round"/>
<path d="M99.5588 121.561C90.2714 115.234 82.2458 109.771 76.3753 106.875C71.4749 104.461 59.2245 99.6189 51.3232 106.804C43.7542 113.686 42.1144 125.983 51.2087 135.784C55.116 139.832 59.8097 143.038 65.0014 145.205L72.5455 140.472C84.4915 146.358 97.3807 150.597 110.174 154.335L121.033 135.735C113.707 131.195 106.709 126.431 99.5588 121.561Z" stroke="#303030" stroke-linecap="round" stroke-linejoin="round"/>
<path d="M72.55 140.472C63.785 136.225 59.7055 132.682 55.8867 126.629" stroke="#303030" stroke-linecap="round" stroke-linejoin="round"/>
<path d="M52.9648 153.501H88.4784" stroke="#303030" stroke-linecap="round" stroke-linejoin="round"/>
<path d="M72.5485 140.472L71.3007 141.253C71.3007 141.253 67.3207 143.747 63.8551 145.929C60.3896 148.111 52.6514 152.475 51.4355 155.606H85.6566L89.0734 153.058L84.8944 145.902C80.6955 144.249 76.5712 142.453 72.5485 140.472Z" stroke="#303030" stroke-linecap="round" stroke-linejoin="round"/>
<path d="M100 121.86L100.44 121.562C109.727 115.235 117.753 109.772 123.623 106.876C128.524 104.462 140.774 99.6199 148.675 106.805C156.244 113.687 157.884 125.984 148.79 135.785C144.882 139.833 140.189 143.039 134.997 145.206" stroke="#303030" stroke-linecap="round" stroke-linejoin="round"/>
<path d="M127.449 140.472C136.214 136.225 140.294 132.682 144.112 126.629" stroke="#303030" stroke-linecap="round" stroke-linejoin="round"/>
<path d="M136.142 145.927C132.679 143.747 128.697 141.251 128.697 141.251L120.729 136.261L110.924 153.054L114.341 155.602H148.562C147.346 152.473 139.606 148.107 136.142 145.927Z" stroke="#303030" stroke-linecap="round" stroke-linejoin="round"/>
<path d="M147.033 153.501H111.52" stroke="#303030" stroke-linecap="round" stroke-linejoin="round"/>
<path d="M99.9996 151.235C96.6126 152.317 93.2197 153.351 89.8207 154.335L84.8965 145.9" stroke="#303030" stroke-linecap="round" stroke-linejoin="round"/>
<path d="M110.188 114.976V110.873" stroke="#303030" stroke-linecap="round" stroke-linejoin="round"/>
<path d="M89.8105 110.823V114.976" stroke="#303030" stroke-linecap="round" stroke-linejoin="round"/>
<path d="M24.1544 107.509C19.5057 107.752 18.4431 107.41 13.8213 110.831C12.1064 111.949 10.6961 113.475 9.71694 115.273C8.84433 117.141 9.6264 117.639 10.7119 117.247C11.2065 117.042 11.673 116.775 12.1 116.451L16.4989 113.632L16.5456 113.659C16.47 115.649 14.3387 117.753 12.083 119.983C10.385 121.543 8.85867 123.279 7.52994 125.164C6.6767 126.441 6.07648 127.871 5.76182 129.374C5.734 129.497 5.73081 129.624 5.75242 129.749C5.77404 129.873 5.82004 129.991 5.88777 130.098C5.95549 130.203 6.0436 130.296 6.14699 130.367C6.2504 130.439 6.36703 130.49 6.49016 130.517C6.60813 130.549 6.73284 130.547 6.84934 130.509C6.96583 130.472 7.06914 130.402 7.14686 130.308C7.35581 130.122 7.58068 129.918 7.76276 129.741C7.5836 130.071 7.44177 130.42 7.33989 130.781C7.22669 131.016 7.18203 131.278 7.21108 131.537C7.24013 131.795 7.34169 132.04 7.50407 132.244C7.72315 132.453 8.00527 132.582 8.30616 132.613C8.60706 132.644 8.90974 132.574 9.16671 132.415C9.59971 132.164 9.99474 131.854 10.3398 131.492C10.1508 131.834 9.99645 132.194 9.87913 132.567C9.80977 132.712 9.77376 132.87 9.77376 133.031C9.77376 133.191 9.80977 133.349 9.87913 133.494C9.95885 133.635 10.0662 133.759 10.1947 133.858C10.3232 133.957 10.4703 134.03 10.6274 134.071C11.0781 134.15 11.5422 134.099 11.9644 133.922C12.3868 133.745 12.7498 133.452 13.0104 133.076C13.1447 132.962 13.2929 132.866 13.4512 132.789C13.2543 132.978 13.1111 133.216 13.0365 133.478C12.9618 133.74 12.9582 134.018 13.0263 134.282C13.1001 134.504 13.2484 134.694 13.446 134.819C13.6437 134.944 13.8785 134.997 14.1109 134.969C14.4341 134.957 14.7555 134.916 15.071 134.845C15.1845 134.823 15.2969 134.801 15.4083 134.782C20.2221 133.964 22.9415 130.695 25.822 127.233C27.5737 124.969 29.5736 122.908 31.784 121.089L24.1544 107.509Z" stroke="#303030" stroke-linecap="round" stroke-linejoin="round"/>
<path d="M22.839 124.565C21.184 127.558 18.6395 129.963 15.5575 131.447C14.8288 131.849 14.1259 132.297 13.4531 132.786" stroke="#303030" stroke-linecap="round" stroke-linejoin="round"/>
<path d="M20.3992 120.965C18.366 124.186 15.7554 127.003 12.6989 129.274C11.9123 129.845 11.1796 130.487 10.5099 131.191C10.2366 131.618 10.0218 132.08 9.87109 132.565" stroke="#303030" stroke-linecap="round" stroke-linejoin="round"/>
<path d="M17.6291 119.384C15.8471 122.078 13.6169 124.447 11.0353 126.389C9.25422 127.828 7.85127 128.966 7.33984 130.779" stroke="#303030" stroke-linecap="round" stroke-linejoin="round"/>
<path d="M175.844 107.509C180.493 107.752 181.556 107.41 186.178 110.831C187.892 111.949 189.303 113.475 190.282 115.273C191.155 117.141 190.373 117.639 189.287 117.247C188.792 117.042 188.326 116.775 187.899 116.451L183.5 113.632L183.453 113.659C183.529 115.649 185.66 117.753 187.916 119.983C189.614 121.543 191.141 123.279 192.469 125.164C193.323 126.441 193.923 127.871 194.237 129.374C194.265 129.497 194.268 129.624 194.246 129.749C194.225 129.873 194.178 129.991 194.111 130.098C194.043 130.203 193.956 130.296 193.852 130.367C193.749 130.439 193.632 130.49 193.509 130.517C193.39 130.549 193.266 130.547 193.15 130.509C193.033 130.472 192.93 130.402 192.852 130.308C192.643 130.122 192.418 129.918 192.236 129.741C192.415 130.071 192.558 130.42 192.659 130.781C192.772 131.016 192.817 131.278 192.787 131.537C192.759 131.795 192.657 132.04 192.495 132.244C192.276 132.453 191.993 132.582 191.693 132.613C191.391 132.644 191.089 132.574 190.832 132.415C190.399 132.164 190.004 131.854 189.659 131.492C189.848 131.834 190.002 132.194 190.12 132.567C190.189 132.712 190.225 132.87 190.225 133.031C190.225 133.191 190.189 133.349 190.12 133.494C190.04 133.635 189.933 133.759 189.804 133.858C189.676 133.957 189.529 134.03 189.372 134.071C188.921 134.15 188.457 134.099 188.034 133.922C187.612 133.745 187.249 133.452 186.989 133.076C186.854 132.962 186.706 132.866 186.548 132.789C186.745 132.978 186.888 133.216 186.963 133.478C187.037 133.74 187.04 134.018 186.973 134.282C186.899 134.504 186.751 134.694 186.553 134.819C186.356 134.944 186.12 134.997 185.888 134.969C185.565 134.957 185.243 134.916 184.928 134.845C184.814 134.823 184.702 134.801 184.591 134.782C179.777 133.964 177.057 130.695 174.177 127.233C172.425 124.969 170.426 122.908 168.215 121.089L175.844 107.509Z" stroke="#303030" stroke-linecap="round" stroke-linejoin="round"/>
<path d="M177.16 124.565C178.815 127.558 181.36 129.963 184.442 131.447C185.17 131.849 185.873 132.297 186.546 132.786" stroke="#303030" stroke-linecap="round" stroke-linejoin="round"/>
<path d="M179.6 120.965C181.632 124.186 184.243 127.003 187.3 129.274C188.086 129.845 188.819 130.487 189.489 131.191C189.763 131.618 189.977 132.08 190.128 132.565" stroke="#303030" stroke-linecap="round" stroke-linejoin="round"/>
<path d="M182.369 119.384C184.151 122.078 186.381 124.447 188.963 126.389C190.744 127.828 192.147 128.966 192.658 130.779" stroke="#303030" stroke-linecap="round" stroke-linejoin="round"/>
<path d="M16.1074 95.5347V107.007" stroke="#303030" stroke-linecap="round" stroke-linejoin="round"/>
<path d="M21.8434 101.271H10.3711" stroke="#303030" stroke-linecap="round" stroke-linejoin="round"/>
<path d="M26.1387 63.7534V70.3742" stroke="#303030" stroke-linecap="round" stroke-linejoin="round"/>
<path d="M29.4489 67.0635H22.8281" stroke="#303030" stroke-linecap="round" stroke-linejoin="round"/>
<path d="M45.666 32.0298V40.4525" stroke="#303030" stroke-linecap="round" stroke-linejoin="round"/>
<path d="M49.8778 36.2417H41.4551" stroke="#303030" stroke-linecap="round" stroke-linejoin="round"/>
<path d="M69.9727 44.5337V52.834" stroke="#303030" stroke-linecap="round" stroke-linejoin="round"/>
<path d="M74.1226 48.6841H65.8223" stroke="#303030" stroke-linecap="round" stroke-linejoin="round"/>
<path d="M154.441 13.4072V32.0834" stroke="#303030" stroke-linecap="round" stroke-linejoin="round"/>
<path d="M163.781 22.7456H145.104" stroke="#303030" stroke-linecap="round" stroke-linejoin="round"/>
<path d="M167.951 46.6724H179.389" stroke="#303030" stroke-linecap="round" stroke-linejoin="round"/>
<path d="M173.67 52.3906V40.9541" stroke="#303030" stroke-linecap="round" stroke-linejoin="round"/>
<path d="M163.227 79.9829V85.743" stroke="#303030" stroke-linecap="round" stroke-linejoin="round"/>
<path d="M166.107 82.8633H160.346" stroke="#303030" stroke-linecap="round" stroke-linejoin="round"/>
<path d="M178.137 95.9238L188.761 106.547" stroke="#303030" stroke-linecap="round" stroke-linejoin="round"/>
<path d="M178.137 106.547L188.761 95.9238" stroke="#303030" stroke-linecap="round" stroke-linejoin="round"/>
<path d="M184.879 152.167L189.265 156.554" stroke="#303030" stroke-linecap="round" stroke-linejoin="round"/>
<path d="M184.879 156.554L189.265 152.167" stroke="#303030" stroke-linecap="round" stroke-linejoin="round"/>
<path d="M42.8145 169.084L47.2551 173.525" stroke="#303030" stroke-linecap="round" stroke-linejoin="round"/>
<path d="M42.8145 173.525L47.2551 169.084" stroke="#303030" stroke-linecap="round" stroke-linejoin="round"/>
</svg>
