<svg width="128" height="128" viewBox="0 0 128 128" fill="none" xmlns="http://www.w3.org/2000/svg">
<path fill-rule="evenodd" clip-rule="evenodd" d="M98.9867 66.6125L109.483 61.7486L99.7489 55.5009L108.541 47.9854L97.4827 44.5934L103.921 34.9844L92.3582 34.7035L95.9652 23.714L84.7556 26.5627L85.2644 15.0075L75.2382 20.7752L72.6103 9.51115L64.5111 17.7716L58.9431 7.63403L53.3751 17.7716L45.2772 9.51563L42.6494 20.7796L32.6212 15.0088L33.1294 26.564L21.9198 23.7153L25.5268 34.7048L13.9639 34.9857L20.4023 44.5947L9.34314 47.9847L18.1361 55.5003L8.40234 61.748L18.8983 66.6118L11.2113 75.2518L22.6283 77.1078L17.5582 87.504L29.05 86.208L27.8212 92.9357L33.2286 91.6403C33.2286 91.6403 43.3406 71.207 48.6097 61.0081C51.7284 54.9723 49.843 57.1905 48.8708 45.4081C48.5124 41.0632 46.3748 29.8747 47.4142 29.6456C48.4535 29.4164 49.6075 32.3233 50.698 36.6721C51.301 39.1714 52.2281 41.5812 53.4558 43.8401C53.4558 43.8401 52.4958 37.2609 53.7425 36.7937C54.9892 36.3265 55.5345 39.8875 56.371 42.578C57.2075 45.2686 59.5543 50.1204 58.7915 53.9412C58.0286 57.762 57.9396 67.9808 56.8004 73.8624C55.9646 78.1811 53.2043 92.0633 48.9233 100.327L52.0439 108.48L58.9431 99.1917L65.8391 108.48L69.9761 97.6787L79.1236 104.758L80.1931 93.2377L90.9105 97.5897L88.8311 86.208L100.325 87.504L95.2548 77.1078L106.672 75.2518L98.9867 66.6125ZM76.0996 49.5163C75.1735 53.7646 74.5835 58.3848 74.5835 58.3848L64.3319 60.9972C60.8561 55.4491 63.9569 47.0753 64.5163 44.795C65.1614 42.1678 65.0967 36.6081 66.5387 36.2312C67.9806 35.8542 66.8676 42.3016 66.8676 42.3016C66.8676 42.3016 68.9035 33.5457 70.1956 33.4056C71.4878 33.2654 70.1956 39.947 70.1956 39.947C70.1956 39.947 72.8446 31.4286 74.4286 31.643C75.5934 31.8017 74.7019 34.459 74.147 35.86C74.595 34.8846 75.4103 33.4145 76.2347 33.4056C77.6881 33.3902 74.6852 42.2228 74.2974 47.0593C75.715 44.6004 76.9393 42.1153 78.2731 42.6248C78.7998 42.8212 76.5092 47.636 76.0996 49.5163Z" fill="#E5DFD5"/>
<path d="M27.8212 92.9363L29.05 86.2086L17.5562 87.5046L22.6263 77.1085L11.2094 75.2525L18.8964 66.6125L8.40039 61.7486L18.1342 55.5009L9.34311 47.9848L20.4017 44.5928L13.9639 34.9857L25.5268 34.7048L21.9198 23.7153L33.1294 26.564L32.6212 15.0088L42.6468 20.7764L45.2746 9.51243L53.3751 17.7716L58.9431 7.63403L64.5111 17.7716L72.6084 9.51563L75.2362 20.7796L85.2625 15.012L84.7537 26.5672L95.9633 23.7185L92.3562 34.708L103.919 34.9889L97.4807 44.5979L108.539 47.9899L99.747 55.5003L109.481 61.748L98.9847 66.6118L106.672 75.2518L95.2548 77.1078L100.325 87.504L88.8311 86.208L90.9086 97.5859L80.1911 93.2339L79.1217 104.754L69.9741 97.6749L65.8391 108.48L58.9431 99.1917L52.0439 108.48L48.9233 100.333" stroke="#303030" stroke-linecap="round" stroke-linejoin="round"/>
<path fill-rule="evenodd" clip-rule="evenodd" d="M33.2299 91.641L31.8641 96.8448L29.2324 92.5991L33.2299 91.641Z" fill="#008765"/>
<path d="M33.2299 91.641L31.8641 96.8448L29.2324 92.5991" stroke="#303030" stroke-linecap="round" stroke-linejoin="round"/>
<path d="M6.54297 98.0339L33.231 91.6409C33.231 91.6409 43.343 71.2077 48.6121 61.0086C51.7308 54.9721 49.8454 57.1917 48.8732 45.4086C48.5148 41.0637 46.3772 29.8752 47.4166 29.6461C48.4559 29.4169 49.6105 32.3238 50.7004 36.6726C51.3034 39.1719 52.2305 41.5817 53.4582 43.8406C53.4582 43.8406 52.4982 37.2614 53.7449 36.7942C54.9916 36.327 55.5369 39.888 56.3734 42.5785C57.2098 45.2691 59.5567 50.1209 58.7938 53.9417C58.031 57.7625 57.942 67.9814 56.8028 73.863C55.6636 79.7446 50.9558 103.37 43.6975 106.375C36.4393 109.38 10.8457 115.011 10.8457 115.011" stroke="#303030" stroke-linecap="round" stroke-linejoin="round"/>
<path d="M53.0215 49.5167L53.4554 43.8431" stroke="#303030" stroke-linecap="round" stroke-linejoin="round"/>
<path fill-rule="evenodd" clip-rule="evenodd" d="M114.457 96.8448L89.8243 91.641C89.8243 91.641 84.0003 71.1059 79.5804 60.5112L62.4182 64.9242C62.3702 68.713 69.7584 104.14 76.7478 107.723C83.7372 111.306 114.456 115.012 114.456 115.012L114.457 96.8448Z" fill="#008765"/>
<path fill-rule="evenodd" clip-rule="evenodd" d="M82.783 106.496C81.2125 104.231 79.8755 104.674 81.3629 102.645C82.8502 100.616 82.04 99.4848 79.0409 98.3226C76.0419 97.1603 75.4409 96.9466 74.2198 94.0947C72.9987 91.2429 68.9609 93.0957 68.9609 93.0957C71.32 100.273 74.0637 106.349 76.7485 107.726C78.2313 108.412 79.7769 108.955 81.3629 109.348C81.3629 109.348 84.351 108.758 82.783 106.496Z" fill="#E5DFD5"/>
<path fill-rule="evenodd" clip-rule="evenodd" d="M82.3858 83.4963C83.5928 85.9821 84.4037 88.0589 88.9227 88.5273C87.7067 84.3897 85.4226 76.7885 83.0347 69.8029C80.5266 70.6221 78.629 72.5171 79.1992 75.1507C80.0312 78.976 76.3909 77.9161 77.1365 80.8294C77.8821 83.7427 81.1781 81.0118 82.3858 83.4963Z" fill="#E5DFD5"/>
<path d="M114.457 96.8448L89.8243 91.641C89.8243 91.641 84.0003 71.1059 79.5804 60.5112L62.4182 64.9242C62.3702 68.713 69.7584 104.14 76.7478 107.723C83.7372 111.306 114.456 115.012 114.456 115.012" stroke="#303030" stroke-linecap="round" stroke-linejoin="round"/>
<path d="M74.3033 47.0118C74.695 42.2118 77.6889 33.3868 76.2374 33.4022C75.0041 33.415 73.7932 36.7014 73.7932 36.7014C73.7932 36.7014 76.0159 31.8553 74.4332 31.6396C72.8505 31.424 70.2003 39.9436 70.2003 39.9436C70.2003 39.9436 71.4963 33.2588 70.2003 33.4022C68.9043 33.5456 66.8722 42.3014 66.8722 42.3014C66.8722 42.3014 67.9852 35.854 66.5433 36.231C65.1014 36.608 65.166 42.1676 64.5209 44.7948C63.9615 47.0752 60.8607 55.4489 64.3366 60.9971" stroke="#303030" stroke-linecap="round" stroke-linejoin="round"/>
<path d="M74.5823 58.3845C74.5823 58.3845 75.1723 53.7643 76.0984 49.516C76.508 47.6357 78.7986 42.821 78.2744 42.6213C76.5669 41.9691 75.0373 46.2258 73.0533 49.0533C71.0795 51.8654 66.229 53.5858 66.8658 57.7272" stroke="#303030" stroke-linecap="round" stroke-linejoin="round"/>
<path d="M73.7911 36.7015C73.002 39.1239 72.4721 40.3431 71.5319 44.0615L70.4395 45.3006" stroke="#303030" stroke-linecap="round" stroke-linejoin="round"/>
<path d="M70.1981 39.9437C68.449 44.9031 69.5914 42.9402 67.9062 45.2986" stroke="#303030" stroke-linecap="round" stroke-linejoin="round"/>
<path d="M65.3828 45.8177L66.2545 44.4558L66.867 42.3015" stroke="#303030" stroke-linecap="round" stroke-linejoin="round"/>
<path d="M63.7055 64.592L62.9375 61.3518L77.1602 57.7281L77.9436 60.9326" stroke="#303030" stroke-linecap="round" stroke-linejoin="round"/>
<path d="M82.7372 69.8995C82.7372 69.8995 78.3686 71.3248 79.1974 75.1475C80.0262 78.9703 76.389 77.9123 77.1346 80.8263C77.8802 83.7402 81.1782 81.0067 82.3858 83.4931C83.5935 85.9795 84.462 88.0474 88.9228 88.5242" stroke="#303030" stroke-linecap="round" stroke-linejoin="round"/>
<path d="M68.9609 93.0925C68.9609 93.0925 72.9987 91.2403 74.2198 94.0915C75.4409 96.9427 76.0425 97.1565 79.0409 98.3194C82.0393 99.4823 82.8496 100.614 81.3629 102.642C79.8761 104.67 81.2125 104.228 82.783 106.493C84.3536 108.758 81.3629 109.345 81.3629 109.345" stroke="#303030" stroke-linecap="round" stroke-linejoin="round"/>
<path d="M119.615 34.0703L120.824 38.0524L124.799 39.2761L121.386 41.6562L121.45 45.8162L118.131 43.3055L114.194 44.6527L115.557 40.7206L113.061 37.3926L117.221 37.4732L119.615 34.0703Z" stroke="#303030" stroke-linecap="round" stroke-linejoin="round"/>
<path fill-rule="evenodd" clip-rule="evenodd" d="M24.6269 108.49L25.4071 112.576L29.2311 114.217L25.5831 116.22L25.2042 120.364L22.1719 117.514L18.1111 118.436L19.8851 114.671L17.7559 111.096L21.8845 111.619L24.6269 108.49Z" fill="#E5DFD5"/>
<path d="M24.6269 108.49L25.4071 112.576L29.2311 114.217L25.5831 116.22L25.2042 120.364L22.1719 117.514L18.1111 118.436L19.8851 114.671L17.7559 111.096L21.8845 111.619L24.6269 108.49Z" stroke="#303030" stroke-linecap="round" stroke-linejoin="round"/>
<path d="M102.482 12.0321H107.686" stroke="#303030" stroke-linecap="round" stroke-linejoin="round"/>
<path d="M105.088 8.55811V15.5027" stroke="#303030" stroke-linecap="round" stroke-linejoin="round"/>
<path d="M3.19922 83.4182H7.19666" stroke="#303030" stroke-linecap="round" stroke-linejoin="round"/>
<path d="M5.19727 80.8167V86.0199" stroke="#303030" stroke-linecap="round" stroke-linejoin="round"/>
<path d="M71.0566 117.764H75.0541" stroke="#303030" stroke-linecap="round" stroke-linejoin="round"/>
<path d="M73.0547 115.162V120.366" stroke="#303030" stroke-linecap="round" stroke-linejoin="round"/>
</svg>
