<svg width="128" height="128" viewBox="0 0 128 128" fill="none" xmlns="http://www.w3.org/2000/svg">
<path d="M121.664 61.3477V25.0693C121.664 24.1228 121.478 23.1856 121.116 22.3111C120.754 21.4366 120.223 20.642 119.554 19.9727C118.884 19.3034 118.09 18.7725 117.215 18.4102C116.341 18.048 115.404 17.8616 114.457 17.8616H28.9707V19.6766" stroke="#303030" stroke-linecap="round" stroke-linejoin="round"/>
<path d="M27.1562 22.0906V19.6765H112.64C114.552 19.677 116.385 20.4366 117.737 21.7883C119.089 23.14 119.849 24.9732 119.849 26.8848V60.4477" stroke="#303030" stroke-linecap="round" stroke-linejoin="round"/>
<path d="M24.6289 24.5041V22.0913H110.116C111.541 22.0909 112.935 22.5134 114.121 23.3054C115.306 24.0974 116.23 25.2233 116.775 26.5406C117.138 27.4151 117.324 28.3524 117.324 29.299V60.083" stroke="#303030" stroke-linecap="round" stroke-linejoin="round"/>
<path d="M22.1016 28.7058V24.5042H107.588C109.5 24.5042 111.334 25.2636 112.685 26.6154C114.037 27.9672 114.797 29.8007 114.797 31.7125V60.0856" stroke="#303030" stroke-linecap="round" stroke-linejoin="round"/>
<path d="M17.9004 32.5791V28.7058H103.387C105.299 28.7058 107.132 29.4653 108.484 30.8171C109.836 32.1689 110.595 34.0024 110.595 35.9141V55.5058" stroke="#303030" stroke-linecap="round" stroke-linejoin="round"/>
<path d="M14.0273 42.3039V32.5759H99.5141C101.426 32.5759 103.259 33.3354 104.611 34.6872C105.963 36.039 106.722 37.8725 106.722 39.7842V51.8034" stroke="#303030" stroke-linecap="round" stroke-linejoin="round"/>
<path d="M103.021 51.2842V49.5146C103.022 48.5677 102.836 47.6299 102.474 46.755C102.112 45.88 101.581 45.0851 100.911 44.4157C100.242 43.7461 99.4469 43.215 98.5721 42.8526C97.6973 42.4902 96.7597 42.3037 95.8129 42.3037H10.3262V102.967L16.9822 93.9223H18.5457" stroke="#303030" stroke-linecap="round" stroke-linejoin="round"/>
<path d="M111.242 60.0857V58.4959C111.242 56.5842 110.482 54.7508 109.13 53.3991C107.779 52.0473 105.945 51.2878 104.034 51.2876H18.5469V111.951L25.2029 102.906H32.1053" stroke="#303030" stroke-linecap="round" stroke-linejoin="round"/>
<path d="M124.8 111.704H38.7615L32.1055 120.75V60.0857H117.592C118.538 60.0857 119.476 60.2722 120.35 60.6345C121.225 60.9967 122.019 61.5278 122.689 62.1972C123.358 62.8666 123.889 63.6613 124.251 64.536C124.614 65.4106 124.8 66.348 124.8 67.2947V111.704Z" fill="#E5DFD5" stroke="#303030" stroke-linecap="round" stroke-linejoin="round"/>
<path d="M65.4718 47.3374L40.2871 87.091H90.657L65.4718 47.3374Z" fill="#F9F3EB"/>
<path d="M65.4717 47.3374L40.2871 87.091H90.657L65.4717 47.3374Z" stroke="#D45050" stroke-linecap="round" stroke-linejoin="round"/>
<path d="M65.4713 79.301C65.0115 79.2997 64.5676 79.4699 64.2264 79.7782C63.8852 80.0866 63.6712 80.511 63.6261 80.9687C63.581 81.4263 63.7081 81.8844 63.9825 82.2534C64.257 82.6224 64.6591 82.8759 65.1104 82.9644C65.4692 83.0356 65.8411 82.9989 66.179 82.8589C66.517 82.7189 66.8059 82.4819 67.0093 82.1778C67.1952 81.8993 67.3021 81.5756 67.3185 81.2411C67.3349 80.9066 67.2601 80.574 67.1023 80.2786C66.9444 79.9833 66.7093 79.7364 66.422 79.5642C66.1348 79.392 65.8062 79.3011 65.4713 79.301Z" fill="#D45050"/>
<path d="M65.4713 79.301C65.0115 79.2997 64.5676 79.4699 64.2264 79.7782C63.8852 80.0866 63.6712 80.511 63.6261 80.9687C63.581 81.4263 63.7081 81.8844 63.9825 82.2534C64.257 82.6224 64.6591 82.8759 65.1104 82.9644C65.4692 83.0356 65.8411 82.9989 66.179 82.8589C66.517 82.7189 66.8059 82.4819 67.0093 82.1778C67.1952 81.8993 67.3021 81.5756 67.3185 81.2411C67.3349 80.9066 67.2601 80.574 67.1023 80.2786C66.9444 79.9833 66.7093 79.7364 66.422 79.5642C66.1348 79.392 65.8062 79.3011 65.4713 79.301Z" stroke="#303030" stroke-linecap="round" stroke-linejoin="round"/>
<path d="M65.4721 61.2639C64.8725 61.2643 64.2975 61.5026 63.8736 61.9266C63.4496 62.3505 63.2113 62.9255 63.2109 63.525C63.2109 64.7737 65.4721 76.6873 65.4721 76.6873C65.4721 76.6873 67.7332 64.7737 67.7332 63.525C67.7333 63.2281 67.675 62.934 67.5614 62.6595C67.4478 62.3851 67.2813 62.1358 67.0713 61.9258C66.8613 61.7158 66.612 61.5493 66.3375 61.4357C66.0631 61.3221 65.769 61.2637 65.4721 61.2639Z" fill="#D45050"/>
<path d="M65.4721 61.2639C64.8725 61.2643 64.2975 61.5026 63.8736 61.9266C63.4496 62.3505 63.2113 62.9255 63.2109 63.525C63.2109 64.7737 65.4721 76.6873 65.4721 76.6873C65.4721 76.6873 67.7332 64.7737 67.7332 63.525C67.7333 63.2281 67.675 62.934 67.5614 62.6595C67.4478 62.3851 67.2813 62.1358 67.0713 61.9258C66.8613 61.7158 66.612 61.5493 66.3375 61.4357C66.0631 61.3221 65.769 61.2637 65.4721 61.2639Z" stroke="#303030" stroke-linecap="round" stroke-linejoin="round"/>
<path d="M3.19922 26.8H10.3256" stroke="#D45050" stroke-linecap="round" stroke-linejoin="round"/>
<path d="M6.76172 30.3635V23.2371" stroke="#D45050" stroke-linecap="round" stroke-linejoin="round"/>
<path d="M103.021 94.8389L108.06 99.8782" stroke="#303030" stroke-linecap="round" stroke-linejoin="round"/>
<path d="M103.021 99.8782L108.06 94.8389" stroke="#303030" stroke-linecap="round" stroke-linejoin="round"/>
<path d="M80.5918 116.683L83.162 119.254" stroke="#D45050" stroke-linecap="round" stroke-linejoin="round"/>
<path d="M80.5918 119.254L83.162 116.683" stroke="#D45050" stroke-linecap="round" stroke-linejoin="round"/>
<path d="M71.5586 8.48047H75.4453" stroke="#D45050" stroke-linecap="round" stroke-linejoin="round"/>
<path d="M73.502 10.4236V6.53687" stroke="#D45050" stroke-linecap="round" stroke-linejoin="round"/>
</svg>
