<svg width="256" height="256" viewBox="0 0 256 256" fill="none" xmlns="http://www.w3.org/2000/svg">
<path d="M118.158 111.732L104.844 94.9759L66.4964 85.7587L6.40039 120.525L89.6017 225.281L170.915 178.129L154.678 157.693" stroke="#303030" stroke-linecap="round" stroke-linejoin="round"/>
<path d="M83.4811 107.291L62.4814 88.0563L66.4968 85.7344L83.4811 107.291Z" fill="#008765"/>
<path d="M83.4811 107.291L62.4814 88.0563L66.4968 85.7344L83.4811 107.291Z" stroke="#303030" stroke-linecap="round" stroke-linejoin="round"/>
<path d="M120.327 161.29C110.413 155.578 104.625 145.91 104.742 136.902C97.7111 135.333 90.3496 136.383 84.0376 139.854C71.2146 147.278 69.0616 163.709 79.2466 176.508C89.4316 189.33 108.085 193.686 120.908 186.236C124.552 184.199 127.538 181.164 129.515 177.487C131.492 173.81 132.378 169.645 132.068 165.482C127.931 164.817 123.951 163.396 120.327 161.29Z" fill="#008765"/>
<path d="M104.819 94.9273L83.4804 107.291L66.4961 85.7344" stroke="#303030" stroke-linecap="round" stroke-linejoin="round"/>
<path d="M31.6582 128.653L67.392 107.968" stroke="#303030" stroke-linecap="round" stroke-linejoin="round"/>
<path d="M42.8115 142.734L98.4083 110.555" stroke="#303030" stroke-linecap="round" stroke-linejoin="round"/>
<path d="M85.8271 169.202L110.118 175.685L109.247 151.081" stroke="#F9F3EB" stroke-width="2" stroke-linecap="round" stroke-linejoin="round"/>
<path d="M112.73 118.226L107.239 127.662C100.996 138.451 106.855 153.518 120.327 161.29C132.394 168.277 148.487 167.843 156.06 155.726L161.452 146.374" stroke="#303030" stroke-linecap="round" stroke-linejoin="round"/>
<path d="M122.062 109.452C117.503 111.412 113.9 115.091 112.036 119.692C107.408 131.068 114.81 144.375 126.279 150.982C136.488 156.878 149.819 157.448 158.117 150.159C159.384 149.048 160.503 147.777 161.445 146.38" stroke="#303030" stroke-linecap="round" stroke-linejoin="round"/>
<path d="M195.254 71.7505L189.253 82.1056C187.028 85.9764 182.31 88.0077 177.035 88.0077C161.599 88.0077 148.966 72.1076 154.706 62.1697L160.681 51.8145C157.971 56.5325 159.544 62.3386 162.545 66.7188C171.273 79.465 189.878 81.0036 195.254 71.7505Z" stroke="#303030" stroke-linecap="round" stroke-linejoin="round"/>
<path d="M216.786 112.589C209.317 128.04 194.548 145.572 182.552 155.169C178.34 154.532 174.227 153.361 170.31 151.685C162.706 147.872 155.911 142.622 150.303 136.225L158.914 121.42C157.529 118.903 156.269 116.32 155.141 113.678C153.97 114.248 152.652 114.442 151.366 114.234C153.35 120.67 150.569 123.379 146.262 122.822C148.125 128.799 143.867 131.271 138.036 129.041C138.858 133.758 132.093 134.465 126.665 129.911C122.349 126.289 115.481 116.055 120.137 111.479C120.724 110.91 121.479 110.545 122.29 110.438C121.419 107.123 121.65 103.775 124.879 101.825C125.41 101.497 126.003 101.283 126.621 101.197C125.696 96.0142 128.423 92.4263 132.427 91.2526C132.466 89.938 132.845 88.6559 133.527 87.5317C134.209 86.4074 135.171 85.4794 136.32 84.8385C134.279 81.6978 132.691 78.2855 131.602 74.7022C130.361 69.5924 134.29 66.5626 139.513 70.5895C141.234 71.9169 143.504 73.8305 146.214 76.0321C146.964 75.5969 154.053 72.1127 154.053 72.1127C154.331 72.978 154.679 73.8203 155.094 74.6292C155.094 74.6292 153.814 76.8551 151.755 80.3636C158.36 85.2993 166.512 90.5729 175.199 93.4273L178.319 88.0513C181.995 87.9589 185.491 86.441 188.069 83.8183C196.21 90.9543 192.276 87.1412 216.786 112.589Z" stroke="#303030" stroke-linecap="round" stroke-linejoin="round"/>
<path d="M190.633 75.9847C178.752 82.0327 160.072 71.1629 159.327 57.9597C158.903 50.4615 164.959 45.9124 172.895 45.9124C182.258 45.9124 192.157 52.306 195.516 60.8884C197.915 67.008 196.5 72.9972 190.633 75.9847Z" fill="#008765"/>
<path d="M190.633 75.9847C178.752 82.0327 160.072 71.1629 159.327 57.9597C158.903 50.4615 164.959 45.9124 172.895 45.9124C182.258 45.9124 192.157 52.306 195.516 60.8884C197.915 67.008 196.5 72.9972 190.633 75.9847Z" stroke="#303030" stroke-linecap="round" stroke-linejoin="round"/>
<path d="M170.335 151.68C168.593 156.06 168.302 159.232 169.778 160.462C171.762 162.108 176.552 159.93 182.578 155.164C178.388 154.428 174.285 153.261 170.335 151.68Z" fill="#008765"/>
<path d="M170.335 151.68C168.593 156.06 168.302 159.232 169.778 160.462C171.762 162.108 176.552 159.93 182.578 155.164C178.388 154.428 174.285 153.261 170.335 151.68Z" stroke="#303030" stroke-linecap="round" stroke-linejoin="round"/>
<path d="M208.923 104.412L216.786 112.589C222.14 100.902 218.221 98.1606 208.923 104.412Z" fill="#008765"/>
<path d="M208.923 104.412L216.786 112.589C222.14 100.902 218.221 98.1606 208.923 104.412Z" stroke="#303030" stroke-linecap="round" stroke-linejoin="round"/>
<path d="M161.431 146.363C160.922 147.159 160.347 147.912 159.713 148.613L150.303 136.225C153.622 140.01 157.354 143.41 161.431 146.363Z" fill="#008765"/>
<path d="M161.431 146.363C160.922 147.159 160.347 147.912 159.713 148.613L150.303 136.225C153.622 140.01 157.354 143.41 161.431 146.363Z" stroke="#303030" stroke-linecap="round" stroke-linejoin="round"/>
<path d="M233.866 129.016C233.875 129.448 233.797 129.876 233.638 130.277C233.479 130.678 233.241 131.043 232.939 131.351C232.637 131.659 232.277 131.904 231.879 132.071C231.481 132.238 231.054 132.324 230.623 132.324C230.191 132.324 229.764 132.237 229.367 132.07C228.969 131.903 228.609 131.658 228.307 131.35C228.005 131.042 227.767 130.677 227.608 130.276C227.449 129.875 227.372 129.446 227.381 129.015C227.398 128.166 227.747 127.358 228.353 126.764C228.96 126.169 229.775 125.837 230.624 125.837C231.473 125.837 232.288 126.17 232.894 126.764C233.501 127.359 233.85 128.167 233.866 129.016Z" fill="#008765"/>
<path d="M233.866 129.016C233.875 129.448 233.797 129.876 233.638 130.277C233.479 130.678 233.241 131.043 232.939 131.351C232.637 131.659 232.277 131.904 231.879 132.071C231.481 132.238 231.054 132.324 230.623 132.324C230.191 132.324 229.764 132.237 229.367 132.07C228.969 131.903 228.609 131.658 228.307 131.35C228.005 131.042 227.767 130.677 227.608 130.276C227.449 129.875 227.372 129.446 227.381 129.015C227.398 128.166 227.747 127.358 228.353 126.764C228.96 126.169 229.775 125.837 230.624 125.837C231.473 125.837 232.288 126.17 232.894 126.764C233.501 127.359 233.85 128.167 233.866 129.016Z" stroke="#303030" stroke-linecap="round" stroke-linejoin="round"/>
<path d="M178.342 87.9847C173.605 88.1283 168.922 86.9478 164.819 84.5757C160.716 82.2037 157.356 78.7343 155.117 74.5575C155.117 74.5575 153.837 76.7821 151.778 80.2919C158.383 85.2263 166.535 90.4999 175.222 93.3556L178.342 87.9847Z" fill="#E5DFD5"/>
<path d="M178.342 87.9847C173.605 88.1283 168.922 86.9478 164.819 84.5757C160.716 82.2037 157.356 78.7343 155.117 74.5575C155.117 74.5575 153.837 76.7821 151.778 80.2919C158.383 85.2263 166.535 90.4999 175.222 93.3556L178.342 87.9847Z" stroke="#303030" stroke-linecap="round" stroke-linejoin="round"/>
<path d="M158.892 121.42C157.505 118.904 156.246 116.32 155.117 113.678C153.946 114.248 152.628 114.442 151.343 114.234C153.327 120.669 150.545 123.379 146.238 122.822C148.102 128.799 143.843 131.27 138.013 129.041C138.836 133.757 132.07 134.465 126.641 129.911C126.385 129.691 126.086 129.399 125.745 129.089C127.155 132.993 129.955 136.24 133.608 138.209C138.444 140.992 146.609 142.322 149.237 137.943L158.892 121.42Z" fill="#E5DFD5"/>
<path d="M158.892 121.42C157.505 118.904 156.246 116.32 155.117 113.678C153.946 114.248 152.628 114.442 151.343 114.234C153.327 120.669 150.545 123.379 146.238 122.822C148.102 128.799 143.843 131.27 138.013 129.041C138.836 133.757 132.07 134.465 126.641 129.911C126.385 129.691 126.086 129.399 125.745 129.089C127.155 132.993 129.955 136.24 133.608 138.209C138.444 140.992 146.609 142.322 149.237 137.943L158.892 121.42Z" stroke="#303030" stroke-linecap="round" stroke-linejoin="round"/>
<path d="M158.892 121.42C161.866 126.742 165.738 131.895 170.189 133.782" stroke="#303030" stroke-linecap="round" stroke-linejoin="round"/>
<path d="M151.778 80.2906C146.079 76.0333 143.392 73.4951 139.537 70.5409C134.321 66.5434 130.397 69.5476 131.625 74.6535C133.72 83.3639 146.786 100.088 152.529 106.831C152.529 106.831 153.448 109.734 155.141 113.678" stroke="#303030" stroke-linecap="round" stroke-linejoin="round"/>
<path d="M184.632 95.3601C181.42 95.0596 178.254 94.386 175.197 93.353" stroke="#303030" stroke-linecap="round" stroke-linejoin="round"/>
<path d="M126.569 100.782C127.609 107.799 134.693 115.642 136.706 117.573C139.278 120.256 142.615 122.081 146.262 122.798" stroke="#303030" stroke-linecap="round" stroke-linejoin="round"/>
<path d="M155.136 113.678C152.354 115.105 147.662 114.232 142.266 109.251C139.774 106.947 132.201 98.1146 132.443 91.2026" stroke="#303030" stroke-linecap="round" stroke-linejoin="round"/>
<path d="M122.311 110.412C123.689 115.589 127.921 121.132 129.641 122.991C131.953 125.609 134.822 127.676 138.037 129.041" stroke="#303030" stroke-linecap="round" stroke-linejoin="round"/>
<path d="M218.262 101.654L248.334 127.613" stroke="#303030" stroke-linecap="round" stroke-linejoin="round"/>
<path d="M169.803 160.492L198.084 185.217" stroke="#303030" stroke-linecap="round" stroke-linejoin="round"/>
<path d="M171.157 205.952C171.775 205.952 172.379 206.134 172.893 206.477C173.407 206.82 173.807 207.308 174.044 207.879C174.281 208.449 174.343 209.077 174.223 209.683C174.102 210.289 173.805 210.846 173.368 211.283C172.931 211.72 172.375 212.018 171.769 212.138C171.163 212.259 170.535 212.197 169.964 211.961C169.393 211.724 168.905 211.324 168.562 210.81C168.219 210.296 168.036 209.692 168.036 209.074C168.038 208.247 168.368 207.454 168.952 206.869C169.537 206.284 170.33 205.954 171.157 205.952Z" stroke="#303030" stroke-linecap="round" stroke-linejoin="round"/>
<path d="M102.497 30.7188L102.473 51.8144" stroke="#303030" stroke-linecap="round" stroke-linejoin="round"/>
<path d="M113.045 41.2902L91.9238 41.2672" stroke="#303030" stroke-linecap="round" stroke-linejoin="round"/>
<path d="M223.465 65.4849L225.618 69.8151L230.383 70.5165L226.923 73.8791L227.746 78.6458L223.465 76.3956L219.206 78.6458L220.005 73.8791L216.545 70.5165L221.335 69.8151L223.465 65.4849Z" fill="#E5DFD5" stroke="#303030" stroke-linecap="round" stroke-linejoin="round"/>
</svg>
