<svg width="200" height="200" viewBox="0 0 200 200" fill="none" xmlns="http://www.w3.org/2000/svg">
<path d="M104.614 80.4414C102.424 81.7629 99.9459 82.5334 97.3926 82.6871C97.9891 84.3768 98.432 86.1168 98.7159 87.886L103.102 89.8143L105.767 85.9388C105.528 84.0789 105.143 82.2408 104.614 80.4414Z" fill="#E5DFD5"/>
<path d="M132.764 47.1494C121.761 60.8744 112.706 66.0544 106.656 68.1151C108.282 72.4254 109.549 75.6392 110.139 79.5148C110.158 79.5526 131.233 71.3289 140.993 54.2418C138.974 51.1488 136.121 48.69 132.764 47.1494Z" fill="#E5DFD5"/>
<path d="M101.778 69.325C100.756 69.4917 99.708 69.3672 98.7534 68.9658C97.3734 70.5727 95.0103 71.121 92.2312 71.2155C91.815 71.7995 91.2803 72.289 90.6621 72.6523C92.0132 74.7931 93.2423 77.0085 94.3436 79.2879C98.7107 79.0233 102.019 78.2293 104.307 76.1875C103.709 73.8172 102.861 71.5169 101.778 69.325Z" fill="#E5DFD5"/>
<path d="M54.8947 93.0131C65.8974 92.5972 80.0194 90.8241 90.6819 87.0769C89.208 82.9498 87.3403 78.974 85.1049 75.2046C76.93 78.2841 70.4495 78.2742 53.7793 79.4204C57.7046 79.2045 58.5523 92.5037 54.8947 93.0131Z" fill="#E5DFD5"/>
<path d="M142.747 43.7825L145.677 46.4292C145.956 46.6772 146.321 46.8046 146.693 46.7833C147.065 46.762 147.413 46.5939 147.662 46.3158L156.661 36.32C156.784 36.182 156.879 36.021 156.94 35.8463C157.001 35.6715 157.027 35.4864 157.017 35.3016C157.006 35.1167 156.959 34.9358 156.879 34.769C156.798 34.6024 156.686 34.4532 156.547 34.33L149.817 28.2605C149.679 28.1371 149.518 28.0419 149.344 27.9809C149.168 27.9197 148.983 27.8936 148.798 27.9041C148.613 27.9147 148.433 27.9615 148.266 28.0422C148.099 28.1228 147.951 28.2356 147.827 28.374L138.827 38.3757C138.704 38.5137 138.609 38.6747 138.548 38.8495C138.486 39.0243 138.46 39.2094 138.471 39.3943C138.481 39.5792 138.528 39.7602 138.608 39.9268C138.689 40.0936 138.803 40.2427 138.941 40.3657L139.637 40.9896C140.687 39.4353 143.024 36.1689 143.78 35.9768C144.311 36.7207 143.738 38.7444 143.224 40.5554C142.793 42.0733 142.406 43.442 142.747 43.7825Z" fill="#E5DFD5"/>
<path d="M141.691 155.949C138.256 156.896 134.745 157.548 131.199 157.896C135.057 163.284 134.356 164.494 135.718 167.065C141.976 169.636 155.796 171.961 162.507 172.094C157.512 165.893 147.761 162.641 141.691 155.949Z" fill="#008765"/>
<path d="M48.8263 128.479C44.6296 128.63 40.4295 128.294 36.3102 127.477C32.3789 135.984 29.581 146.59 28.1621 153.454C37.9559 148.855 38.2017 138.805 48.1835 137.799C47.9156 134.678 48.1325 131.534 48.8263 128.479Z" fill="#008765"/>
<path d="M55.7451 80.8193C54.4407 80.9895 53.193 81.1029 52.002 81.1785C52.9094 79.0054 54.4974 78.8154 55.7451 80.8193Z" fill="#008765"/>
<path d="M56.5965 91.2361C55.5945 93.7127 53.8174 93.5803 52.5508 91.1416C54.1955 91.1446 55.6512 91.1794 56.5965 91.2361Z" fill="#008765"/>
<path d="M155.773 106.567C155.485 105.939 155.017 105.411 154.428 105.048C153.84 104.685 153.158 104.506 152.467 104.532C151.777 104.557 151.11 104.787 150.55 105.192C149.99 105.597 149.563 106.159 149.322 106.807C149.081 107.455 149.038 108.159 149.199 108.831C149.358 109.503 149.714 110.112 150.22 110.583C150.726 111.052 151.361 111.362 152.042 111.472C152.725 111.582 153.424 111.486 154.052 111.199C154.47 111.009 154.846 110.738 155.16 110.402C155.473 110.065 155.716 109.671 155.876 109.241C156.036 108.811 156.109 108.352 156.091 107.893C156.074 107.435 155.966 106.984 155.773 106.567Z" fill="#008765"/>
<path d="M103.557 107.041C102.574 109.649 101.567 112.145 100.473 114.565C101.205 116.887 102.255 119.653 102.662 120.634C101.969 114.716 103.576 107.064 103.557 107.041Z" fill="#008765"/>
<path d="M96.0136 39.0005C92.9961 39.0036 90.1032 40.2036 87.9696 42.3373C85.8359 44.4709 84.6358 47.3639 84.6327 50.3813C84.6105 52.0895 84.9089 53.7868 85.5123 55.3852C84.0307 52.7568 81.6818 50.7249 78.8675 49.637C76.0533 48.5493 72.9484 48.4732 70.0842 49.4218C67.2199 50.3705 64.7744 52.2848 63.1658 54.8375C61.5573 57.3902 60.8857 60.4224 61.2659 63.4156C61.6462 66.4088 63.0547 69.1768 65.2504 71.2462C67.4462 73.3155 70.2928 74.5575 73.3032 74.7598C76.3135 74.9621 79.3007 74.112 81.7537 72.3552C84.2066 70.5982 85.9727 68.0435 86.7501 65.1282C88.3948 66.0356 90.6067 66.1491 92.0236 67.151C91.7918 66.6874 90.8664 65.0068 90.3222 64.9391C86.6407 64.7123 86.768 61.3661 88.9043 61.9711C89.9252 62.2546 90.1709 62.0278 89.9988 61.5173C88.7321 58.7751 89.753 52.0479 95.1787 57.6975C96.3555 58.8276 97.3561 60.1279 98.1468 61.5552C100.93 61.025 103.415 59.4756 105.116 57.2101C106.817 54.9446 107.612 52.1259 107.345 49.3054C107.078 46.485 105.768 43.8656 103.672 41.9598C101.576 40.0539 98.8436 38.9987 96.0106 39.0005H96.0136Z" fill="#008765"/>
<path d="M96.4857 66.3569C95.8239 66.5462 95.1472 66.6793 94.4629 66.7549L97.6578 68.3051C97.0329 67.829 96.6135 67.1321 96.4857 66.3569Z" fill="#008765"/>
<path d="M189.517 76.3386C189.725 76.8117 190.068 77.2127 190.503 77.4908C190.938 77.7688 191.447 77.9116 191.963 77.9009C192.479 77.8902 192.982 77.7267 193.405 77.4307C193.829 77.1349 194.155 76.7201 194.342 76.2388C194.53 75.7575 194.571 75.2314 194.46 74.7269C194.348 74.2225 194.09 73.7623 193.717 73.4047C193.344 73.0471 192.873 72.8081 192.365 72.7178C191.857 72.6277 191.332 72.6904 190.86 72.8979C190.545 73.035 190.261 73.2329 190.023 73.4803C189.785 73.7276 189.598 74.0196 189.474 74.3393C189.348 74.6591 189.289 75.0003 189.295 75.3434C189.303 75.6865 189.379 76.0247 189.517 76.3386Z" fill="#008765"/>
<path d="M174.98 82.7478C175.187 83.2209 175.53 83.6219 175.966 83.8999C176.401 84.178 176.91 84.3208 177.426 84.3101C177.942 84.2994 178.445 84.1358 178.868 83.8399C179.292 83.5441 179.618 83.1293 179.805 82.648C179.993 82.1667 180.034 81.6406 179.922 81.1361C179.811 80.6317 179.553 80.1715 179.18 79.8139C178.807 79.4563 178.336 79.2173 177.828 79.127C177.319 79.0369 176.795 79.0995 176.322 79.3071C176.008 79.4442 175.724 79.6421 175.486 79.8895C175.248 80.1368 175.061 80.4288 174.936 80.7485C174.811 81.0683 174.751 81.4094 174.758 81.7525C174.766 82.0957 174.842 82.4339 174.98 82.7478Z" fill="#008765"/>
<path d="M55.4805 146.591L59.8853 156.195C60.7615 158.101 62.3586 159.583 64.3258 160.312C66.293 161.042 68.4695 160.963 70.3776 160.089L112.46 140.805" stroke="#303030" stroke-linecap="round" stroke-linejoin="round"/>
<path d="M131.648 132.014L167.853 115.435C169.759 114.558 171.24 112.961 171.97 110.994C172.7 109.027 172.621 106.851 171.747 104.942L146.282 49.3428" stroke="#303030" stroke-linecap="round" stroke-linejoin="round"/>
<path d="M138.494 39.3419C136.734 38.8862 134.871 39.0531 133.22 39.8145L107.361 51.6539" stroke="#303030" stroke-linecap="round" stroke-linejoin="round"/>
<path d="M45.7637 79.8551L65.0625 71.0186" stroke="#303030" stroke-linecap="round" stroke-linejoin="round"/>
<path d="M37.7477 83.5229L35.7249 84.4493C33.8181 85.3254 32.3369 86.9224 31.6066 88.8896C30.8762 90.8568 30.9564 93.0335 31.8295 94.9416L47.2191 128.517" stroke="#303030" stroke-linecap="round" stroke-linejoin="round"/>
<path d="M119.153 111.045L129.891 106.129C130.309 105.935 130.633 105.584 130.793 105.151C130.952 104.719 130.934 104.242 130.742 103.823L129.702 101.516C129.508 101.098 129.157 100.775 128.724 100.615C128.292 100.456 127.815 100.474 127.396 100.666L116.412 105.694" stroke="#303030" stroke-linecap="round" stroke-linejoin="round"/>
<path d="M101.987 118.913L97.2422 121.087" stroke="#303030" stroke-linecap="round" stroke-linejoin="round"/>
<path d="M96.4668 66.3759C96.5963 66.969 96.8766 67.5187 97.2807 67.9718C97.6847 68.4251 98.1987 68.7663 98.7732 68.9629C99.7272 69.366 100.776 69.4906 101.798 69.322C114.162 67.4057 124.933 56.9015 132.764 47.1465C136.12 48.6868 138.971 51.1445 140.989 54.2359C131.233 71.326 110.154 79.5497 110.135 79.5089" stroke="#303030" stroke-linecap="round" stroke-linejoin="round"/>
<path d="M94.4439 66.7541C94.4439 66.7541 103.554 66.3401 95.3514 57.8687C89.7197 52.0519 88.7177 58.598 89.9426 61.4099C90.2858 62.1969 89.65 62.1641 88.8859 61.9522C86.7466 61.3552 86.6173 64.6934 90.3038 64.9203C90.5997 65.0769 90.8578 65.2963 91.06 65.563C93.5713 69.2256 93.4997 71.3868 89.3585 73.3519C78.6782 78.4204 72.7221 78.0781 53.7793 79.4214" stroke="#303030" stroke-linecap="round" stroke-linejoin="round"/>
<path d="M94.4629 66.7539L97.6389 68.3041" stroke="#303030" stroke-linecap="round" stroke-linejoin="round"/>
<path d="M54.877 93.0133C65.8797 92.5974 80.0017 90.8243 90.6641 87.0771" stroke="#303030" stroke-linecap="round" stroke-linejoin="round"/>
<path d="M55.7462 80.8193C51.3188 81.3926 46.8399 81.4497 42.3993 80.9895C41.0375 80.7992 39.6915 80.5086 38.3726 80.1199C36.8545 79.7043 35.3643 79.1928 33.911 78.5886C29.9031 76.9408 28.9201 77.6811 32.6812 80.5547C36.8804 83.3382 41.4415 85.5328 46.237 87.0769" stroke="#303030" stroke-linecap="round" stroke-linejoin="round"/>
<path d="M56.5968 91.236C53.6705 91.0608 43.83 91.037 40.9246 91.3116C35.8193 91.8031 37.5417 90.6688 39.1337 89.7047C40.2859 89.0082 45.7126 87.644 43.7276 86.2222" stroke="#303030" stroke-linecap="round" stroke-linejoin="round"/>
<path d="M37.7142 79.9121C36.8446 79.2694 35.1441 77.7749 34.6516 77.3411C32.388 75.3511 33.1014 74.8625 33.5362 75.0526C35.2784 75.8197 37.96 77.3779 39.6057 78.0584C42.2524 79.1529 47.2811 81.3479 49.7766 81.2912" stroke="#303030" stroke-linecap="round" stroke-linejoin="round"/>
<path d="M39.4299 78.0025C39.1085 77.6045 38.8259 77.2831 38.6737 77.0951C36.7782 74.7578 37.5394 74.3917 37.9364 74.6563C39.5284 75.715 41.9283 77.6752 43.4377 78.6075C45.2541 79.6767 47.1653 80.576 49.147 81.294" stroke="#303030" stroke-linecap="round" stroke-linejoin="round"/>
<path d="M52.002 81.1787C53.4666 77.6683 56.4317 79.6752 57.1352 85.1806C57.961 91.6481 54.8626 95.5952 52.5502 91.1416" stroke="#303030" stroke-linecap="round" stroke-linejoin="round"/>
<path d="M142.748 43.7823C142.051 42.856 143.693 39.264 143.863 38.1675C144.146 36.3337 144.379 34.2771 141.481 38.5267C139.161 41.7634 136.654 44.8627 133.975 47.8091" stroke="#303030" stroke-linecap="round" stroke-linejoin="round"/>
<path d="M142.747 43.7825L145.677 46.4292C145.956 46.6772 146.321 46.8045 146.693 46.7833C147.065 46.762 147.413 46.5938 147.662 46.3158L156.661 36.32C156.784 36.182 156.879 36.021 156.94 35.8462C157.001 35.6715 157.027 35.4863 157.017 35.3016C157.006 35.1167 156.959 34.9357 156.879 34.769C156.798 34.6024 156.686 34.4531 156.547 34.33L149.817 28.2605C149.679 28.1371 149.518 28.0419 149.344 27.9808C149.168 27.9197 148.983 27.8936 148.798 27.9041C148.613 27.9146 148.433 27.9615 148.266 28.0422C148.1 28.1228 147.951 28.2356 147.827 28.374L138.827 38.3757C138.704 38.5137 138.609 38.6747 138.548 38.8494C138.486 39.0243 138.46 39.2094 138.471 39.3943C138.481 39.5792 138.528 39.7602 138.609 39.9268C138.69 40.0936 138.803 40.2427 138.941 40.3657L139.637 40.9896" stroke="#303030" stroke-linecap="round" stroke-linejoin="round"/>
<path d="M140.553 53.5964C143.503 50.4393 157.667 42.7778 155.791 42.4992C153.594 42.1718 149.64 44.3549 149.212 44.5947" stroke="#303030" stroke-linecap="round" stroke-linejoin="round"/>
<path d="M152.414 43.1128C152.86 42.8223 154.691 41.6392 156.207 40.8163C157.723 39.9935 154.43 39.9656 152.464 40.9865" stroke="#303030" stroke-linecap="round" stroke-linejoin="round"/>
<path d="M145.104 45.9137C144.839 45.7664 143.335 45.052 140.383 45.9396" stroke="#303030" stroke-linecap="round" stroke-linejoin="round"/>
<path d="M160.329 104.489C160.617 105.117 160.712 105.816 160.603 106.499C160.492 107.18 160.183 107.815 159.713 108.321C159.243 108.827 158.634 109.183 157.961 109.342C157.289 109.502 156.585 109.46 155.937 109.219C155.289 108.978 154.727 108.551 154.322 107.991C153.917 107.431 153.687 106.764 153.663 106.074C153.637 105.383 153.816 104.701 154.178 104.113C154.541 103.524 155.07 103.056 155.697 102.768C156.114 102.575 156.565 102.467 157.024 102.45C157.482 102.432 157.941 102.505 158.371 102.665C158.802 102.825 159.196 103.068 159.532 103.381C159.868 103.695 160.139 104.071 160.329 104.489Z" stroke="#303030" stroke-linecap="round" stroke-linejoin="round"/>
<path d="M155.772 106.567C156.06 107.195 156.156 107.894 156.046 108.577C155.936 109.258 155.626 109.893 155.157 110.4C154.686 110.906 154.077 111.261 153.404 111.42C152.733 111.581 152.028 111.538 151.381 111.297C150.733 111.056 150.171 110.629 149.766 110.069C149.361 109.509 149.131 108.842 149.106 108.152C149.08 107.461 149.259 106.779 149.621 106.191C149.984 105.602 150.513 105.134 151.141 104.846C151.985 104.468 152.943 104.437 153.808 104.759C154.675 105.08 155.38 105.73 155.772 106.567Z" stroke="#303030" stroke-linecap="round" stroke-linejoin="round"/>
<path d="M151.218 108.666C151.505 109.294 151.601 109.994 151.491 110.676C151.381 111.358 151.072 111.993 150.602 112.499C150.131 113.006 149.522 113.361 148.85 113.52C148.178 113.68 147.474 113.637 146.826 113.397C146.178 113.156 145.616 112.729 145.211 112.169C144.806 111.609 144.576 110.942 144.551 110.251C144.525 109.561 144.705 108.878 145.067 108.29C145.43 107.701 145.958 107.234 146.586 106.946C147.003 106.753 147.454 106.645 147.912 106.628C148.371 106.61 148.83 106.682 149.26 106.843C149.69 107.003 150.084 107.246 150.421 107.559C150.757 107.872 151.028 108.249 151.218 108.666Z" stroke="#303030" stroke-linecap="round" stroke-linejoin="round"/>
<path d="M61.9268 99.5026C63.1379 98.9511 64.5184 98.9019 65.7657 99.3662C67.0129 99.8304 68.0254 100.77 68.5813 101.979L71.5494 108.482C72.1009 109.693 72.15 111.074 71.6858 112.321C71.2217 113.569 70.2821 114.581 69.0729 115.137L59.7716 119.391C58.5604 119.942 57.1799 119.992 55.9327 119.527C54.6854 119.063 53.6729 118.123 53.117 116.914L50.132 110.411C49.5804 109.2 49.5314 107.819 49.9955 106.572C50.4597 105.324 51.3994 104.312 52.6086 103.756L61.9268 99.5026Z" stroke="#303030" stroke-linecap="round" stroke-linejoin="round"/>
<path d="M154.091 95.0547C154.509 94.8607 154.832 94.5092 154.993 94.077C155.152 93.6449 155.134 93.1672 154.942 92.7483L153.902 90.4419C153.708 90.0242 153.357 89.7002 152.924 89.5408C152.492 89.3814 152.015 89.3995 151.596 89.5912L134.013 97.6258C133.595 97.8199 133.272 98.1713 133.112 98.6036C132.952 99.0357 132.97 99.5134 133.162 99.9322L134.202 102.239C134.396 102.657 134.747 102.98 135.18 103.14C135.612 103.299 136.09 103.281 136.508 103.089L154.091 95.0547Z" stroke="#303030" stroke-linecap="round" stroke-linejoin="round"/>
<path d="M189.519 76.3391C189.727 76.8122 190.07 77.2132 190.505 77.4913C190.94 77.7693 191.449 77.9121 191.965 77.9014C192.481 77.8907 192.984 77.7271 193.407 77.4312C193.831 77.1354 194.157 76.7206 194.344 76.2393C194.532 75.758 194.573 75.2319 194.461 74.7274C194.35 74.2229 194.092 73.7628 193.719 73.4052C193.346 73.0476 192.875 72.8086 192.367 72.7183C191.859 72.6282 191.334 72.6909 190.862 72.8984C190.547 73.0355 190.263 73.2334 190.025 73.4808C189.787 73.7281 189.6 74.0201 189.476 74.3398C189.35 74.6596 189.29 75.0007 189.297 75.3439C189.305 75.687 189.381 76.0252 189.519 76.3391Z" stroke="#303030" stroke-linecap="round" stroke-linejoin="round"/>
<path d="M174.98 82.7478C175.187 83.2209 175.53 83.6219 175.966 83.8999C176.401 84.178 176.91 84.3208 177.426 84.3101C177.942 84.2994 178.445 84.1358 178.868 83.8399C179.292 83.5441 179.618 83.1293 179.805 82.648C179.993 82.1667 180.034 81.6406 179.922 81.1361C179.811 80.6317 179.553 80.1715 179.18 79.8139C178.807 79.4563 178.336 79.2173 177.828 79.127C177.319 79.0369 176.795 79.0995 176.322 79.3071C176.008 79.4442 175.724 79.6421 175.486 79.8895C175.248 80.1368 175.061 80.4288 174.936 80.7485C174.811 81.0683 174.751 81.4094 174.758 81.7525C174.766 82.0957 174.842 82.4339 174.98 82.7478Z" stroke="#303030" stroke-linecap="round" stroke-linejoin="round"/>
<path d="M189.519 76.3389L179.764 80.6303" stroke="#303030" stroke-linecap="round" stroke-linejoin="round"/>
<path d="M193.489 45.4858L188.195 47.8112L191.56 72.6901" stroke="#303030" stroke-linecap="round" stroke-linejoin="round"/>
<path d="M190.993 68.5123L171.597 74.7698L163.846 67.17L189.292 55.9404" stroke="#303030" stroke-linecap="round" stroke-linejoin="round"/>
<path d="M100.486 114.601C101.581 112.181 102.576 109.649 103.556 107.039C103.575 107.057 101.964 114.714 102.667 120.631" stroke="#303030" stroke-linecap="round" stroke-linejoin="round"/>
<path d="M85.0859 75.2046C89.9067 83.0124 92.3833 92.5594 93.2151 94.0718C98.017 96.7752 107.035 94.5066 109.965 91.3117C111.283 80.8811 110.064 77.1399 106.657 68.1152" stroke="#303030" stroke-linecap="round" stroke-linejoin="round"/>
<path d="M93.2163 94.0717C89.2274 98.193 84.7658 93.7314 79.0754 123.922C66.1633 123.846 61.4748 124.924 49.3756 126.342C47.2394 133.207 47.8443 140.577 50.3776 148.272L82.8942 137.59C85.178 136.837 87.203 135.455 88.7359 133.602C93.501 127.832 97.4549 121.438 100.488 114.598C104.557 127.487 115.54 147.018 122.689 158.309C133.634 158.309 142.73 156.437 149.952 152.637C130.649 137.703 113.734 101.159 109.967 91.3096" stroke="#303030" stroke-linecap="round" stroke-linejoin="round"/>
<path d="M90.6641 72.6525C92.019 74.7954 93.2559 77.0105 94.3694 79.2882C98.7365 79.0235 102.045 78.2295 104.332 76.1878C103.732 73.8163 102.884 71.5149 101.799 69.3223" stroke="#303030" stroke-linecap="round" stroke-linejoin="round"/>
<path d="M105.771 85.9428L103.105 89.8184L98.7159 87.8901C98.4323 86.1195 97.9893 84.3781 97.3926 82.6872C99.9463 82.5323 102.424 81.7603 104.614 80.4375C105.144 82.2393 105.531 84.0802 105.771 85.9428Z" stroke="#303030" stroke-linecap="round" stroke-linejoin="round"/>
<path d="M141.691 155.949C147.761 162.641 157.512 165.893 162.507 172.094C155.796 171.961 141.976 169.636 135.718 167.065C134.356 164.494 135.056 163.284 131.199 157.896C134.746 157.549 138.257 156.897 141.691 155.949Z" stroke="#303030" stroke-linecap="round" stroke-linejoin="round"/>
<path d="M48.8263 128.479C44.6295 128.63 40.4294 128.294 36.3102 127.477C32.3789 135.984 29.581 146.59 28.1621 153.454C37.9559 148.855 38.2017 138.805 48.1835 137.799C47.9155 134.678 48.1324 131.534 48.8263 128.479Z" stroke="#303030" stroke-linecap="round" stroke-linejoin="round"/>
<path d="M92.252 71.2346C95.031 71.14 97.3941 70.5918 98.7742 68.9849" stroke="#303030" stroke-linecap="round" stroke-linejoin="round"/>
<path d="M98.1307 61.5363C100.251 61.1307 102.213 60.1299 103.786 58.6511C105.36 57.1724 106.479 55.2765 107.015 53.185C107.552 51.0935 107.481 48.8927 106.813 46.8395C106.145 44.7864 104.907 42.9657 103.242 41.5901C101.579 40.2144 99.5572 39.3406 97.4149 39.0707C95.2728 38.8008 93.098 39.1459 91.1448 40.0657C89.1914 40.9856 87.5401 42.4422 86.3836 44.2655C85.2272 46.0888 84.6133 48.2034 84.6137 50.3625C84.5884 52.071 84.8893 53.7687 85.5002 55.3643C84.0143 52.7399 81.6629 50.7131 78.848 49.6305C76.0332 48.5478 72.9296 48.4765 70.068 49.4288C67.2063 50.381 64.7643 52.2977 63.1595 54.8511C61.5545 57.4046 60.8865 60.4362 61.2694 63.4277C61.6523 66.4192 63.0624 69.1848 65.2586 71.2518C67.4549 73.3187 70.3009 74.5586 73.3102 74.7594C76.3194 74.9602 79.305 74.1096 81.7563 72.3529C84.2078 70.5961 85.9729 68.0424 86.7499 65.1283C88.3947 66.0357 90.6066 66.1492 92.0234 67.1511" stroke="#303030" stroke-linecap="round" stroke-linejoin="round"/>
<path d="M36.3489 45.0323C36.5696 45.5184 36.6411 46.0591 36.5546 46.5859C36.4679 47.1127 36.227 47.602 35.8623 47.9919C35.4977 48.3819 35.0256 48.6549 34.5057 48.7765C33.9859 48.8981 33.4416 48.8627 32.9418 48.6751C32.442 48.4873 32.0091 48.1557 31.6978 47.722C31.3865 47.2882 31.2108 46.7719 31.1929 46.2383C31.1751 45.7047 31.3159 45.1778 31.5975 44.7242C31.8791 44.2706 32.2888 43.9107 32.775 43.69C33.0974 43.5417 33.4462 43.4588 33.8009 43.4461C34.1557 43.4333 34.5095 43.491 34.8419 43.6158C35.1742 43.7406 35.4785 43.93 35.7372 44.1732C35.9959 44.4163 36.2038 44.7083 36.3489 45.0323Z" stroke="#303030" stroke-linecap="round" stroke-linejoin="round"/>
<path d="M45.5192 48.4161C45.7396 48.9022 45.811 49.4426 45.7244 49.9691C45.6377 50.4958 45.3968 50.9848 45.0322 51.3745C44.6676 51.7642 44.1956 52.0371 43.676 52.1585C43.1564 52.28 42.6124 52.2447 42.1128 52.0571C41.6132 51.8693 41.1805 51.5378 40.8694 51.1041C40.5582 50.6706 40.3826 50.1545 40.3648 49.6212C40.347 49.0878 40.4877 48.5611 40.7692 48.1077C41.0506 47.6543 41.4602 47.2946 41.9461 47.0739C42.2686 46.9257 42.6173 46.843 42.9719 46.8303C43.3265 46.8177 43.6802 46.8754 44.0125 47.0002C44.3447 47.125 44.6489 47.3144 44.9075 47.5575C45.1661 47.8004 45.374 48.0924 45.5192 48.4161Z" stroke="#303030" stroke-linecap="round" stroke-linejoin="round"/>
<path d="M35.3672 55.9593L41.5491 39.6064" stroke="#303030" stroke-linecap="round" stroke-linejoin="round"/>
<path d="M99.4355 155.174L103.689 164.418" stroke="#303030" stroke-linecap="round" stroke-linejoin="round"/>
<path d="M106.184 157.669L96.9395 161.942" stroke="#303030" stroke-linecap="round" stroke-linejoin="round"/>
<path d="M137.869 72.9927C138.444 73.3875 138.903 73.9285 139.198 74.5599C139.494 75.1914 139.616 75.8903 139.552 76.5846" stroke="#303030" stroke-linecap="round" stroke-linejoin="round"/>
<path d="M139.893 69.9512C140.935 70.8055 141.773 71.8821 142.346 73.1021C142.918 74.3222 143.211 75.655 143.202 77.0027" stroke="#303030" stroke-linecap="round" stroke-linejoin="round"/>
<path d="M142.09 66.5464C145.075 69.4641 146.896 73.3683 147.213 77.5302" stroke="#303030" stroke-linecap="round" stroke-linejoin="round"/>
<path d="M120.553 28.0166L117.314 29.4852C117.112 29.5635 116.928 29.6822 116.774 29.8341C116.62 29.9859 116.497 30.1676 116.416 30.3682C116.333 30.5688 116.293 30.784 116.297 31.0006C116.302 31.2172 116.35 31.4306 116.439 31.6279C116.529 31.8252 116.658 32.0021 116.819 32.1477C116.979 32.2934 117.167 32.4049 117.372 32.4753C117.577 32.5456 117.794 32.5735 118.011 32.5571C118.226 32.5406 118.436 32.4803 118.628 32.3797L120.443 31.5548C120.822 31.3931 121.25 31.3861 121.634 31.5352C122.018 31.6843 122.33 31.9777 122.501 32.3529C122.672 32.728 122.689 33.1552 122.55 33.5431C122.41 33.9311 122.125 34.2491 121.754 34.4294L118.493 35.9219" stroke="#303030" stroke-linecap="round" stroke-linejoin="round"/>
<path d="M117.717 28.0166L121.328 35.9199" stroke="#303030" stroke-linecap="round" stroke-linejoin="round"/>
<path d="M16.3284 101.691C16.1084 101.271 15.7357 100.949 15.2865 100.794C14.8374 100.64 14.346 100.663 13.9131 100.858C13.4803 101.054 13.1388 101.408 12.9588 101.848C12.7789 102.288 12.7741 102.78 12.9454 103.223L13.7772 105.075" stroke="#303030" stroke-linecap="round" stroke-linejoin="round"/>
<path d="M26.8013 109.725C27.0928 109.614 27.3584 109.444 27.5816 109.225C27.8049 109.007 27.9812 108.745 28.0996 108.457C28.218 108.167 28.2761 107.858 28.2703 107.545C28.2644 107.233 28.1948 106.925 28.0655 106.642C27.9364 106.357 27.7504 106.103 27.5191 105.893C27.2877 105.683 27.0159 105.523 26.7204 105.422C26.4249 105.321 26.1119 105.283 25.8007 105.308C25.4895 105.331 25.1866 105.42 24.9108 105.566C17.311 107.381 14.7021 107.116 13.7757 105.075C14.7021 107.116 13.1708 109.254 6.81865 113.79C6.30352 114.063 5.91197 114.522 5.72392 115.073C5.53585 115.626 5.56546 116.229 5.80669 116.759C6.04792 117.289 6.48258 117.708 7.02197 117.929C7.56136 118.151 8.16481 118.158 8.70915 117.949L26.8013 109.725Z" stroke="#303030" stroke-linecap="round" stroke-linejoin="round"/>
</svg>
