<svg width="256" height="256" viewBox="0 0 256 256" fill="none" xmlns="http://www.w3.org/2000/svg">
<path d="M197.57 146.61C216.139 96.8037 179.376 43.0718 125.647 43.0718C116.027 43.0603 106.49 44.8624 97.5371 48.3838" stroke="#303030" stroke-linecap="round" stroke-linejoin="round"/>
<path d="M171.34 181.462C175.862 178.104 180.003 174.263 183.689 170.004" stroke="#303030" stroke-linecap="round" stroke-linejoin="round"/>
<path d="M50.4677 104.361C47.6425 118.155 48.6648 132.459 53.423 145.713C58.1811 158.964 66.4919 170.652 77.4461 179.499C88.4004 188.345 101.576 194.009 115.533 195.871C129.49 197.732 143.69 195.72 156.58 190.054" stroke="#303030" stroke-linecap="round" stroke-linejoin="round"/>
<path d="M178.615 107.676C214.542 88.9881 237.577 72.3968 234.777 65.8854C232.466 60.5094 213.633 63.1372 185.407 71.6672" stroke="#303030" stroke-linecap="round" stroke-linejoin="round"/>
<path d="M162.346 115.852C163.29 115.393 164.229 114.935 165.162 114.477" stroke="#303030" stroke-linecap="round" stroke-linejoin="round"/>
<path d="M49.5368 129.672C22.795 144.768 5.5048 157.952 7.86768 163.456C11.8229 172.653 65.8248 158.267 128.483 131.328C132.049 129.792 135.564 128.252 139.028 126.708" stroke="#303030" stroke-linecap="round" stroke-linejoin="round"/>
<path d="M24.2402 115.584V122.116" stroke="#303030" stroke-linecap="round" stroke-linejoin="round"/>
<path d="M27.5077 118.849H20.9746" stroke="#303030" stroke-linecap="round" stroke-linejoin="round"/>
<path d="M188.178 37.3223V43.8554" stroke="#303030" stroke-linecap="round" stroke-linejoin="round"/>
<path d="M191.445 40.5889H184.912" stroke="#303030" stroke-linecap="round" stroke-linejoin="round"/>
<path d="M52.3962 190.368C53.5226 192.649 53.4534 192.619 53.6762 192.651L56.0096 192.991C56.0663 193 56.1196 193.023 56.1635 193.06C56.2072 193.097 56.2399 193.146 56.2577 193.201C56.2755 193.254 56.2778 193.313 56.2642 193.368C56.2508 193.425 56.222 193.476 56.1811 193.515C54.3597 195.291 54.3661 195.215 54.4032 195.435L54.8013 197.76C54.8109 197.816 54.8046 197.874 54.783 197.928C54.7614 197.98 54.7254 198.026 54.6791 198.061C54.6327 198.094 54.5779 198.114 54.5208 198.118C54.4638 198.122 54.4065 198.111 54.3559 198.084C52.1043 196.9 52.1799 196.883 51.9815 196.987L49.8938 198.084C49.843 198.111 49.7859 198.122 49.7288 198.118C49.6716 198.114 49.6168 198.094 49.5704 198.061C49.5241 198.026 49.4881 197.98 49.4665 197.928C49.445 197.874 49.4386 197.816 49.4483 197.76C49.8695 195.302 49.9181 195.319 49.7581 195.163L48.0685 193.517C48.0277 193.477 47.9989 193.426 47.9853 193.37C47.9717 193.314 47.974 193.256 47.9918 193.202C48.0096 193.147 48.0424 193.098 48.0862 193.061C48.1299 193.024 48.1833 193.001 48.24 192.992C50.7565 192.626 50.7079 192.682 50.8 192.48L51.8432 190.364C51.8691 190.313 51.9087 190.269 51.9578 190.24C52.0069 190.209 52.0634 190.194 52.1208 190.194C52.1783 190.195 52.2346 190.212 52.2833 190.242C52.3319 190.272 52.371 190.317 52.3962 190.368Z" fill="#E5DFD5"/>
<path d="M218.369 113.934C220.15 117.541 220.012 117.425 220.347 117.473L223.964 117.998C224.053 118.011 224.134 118.048 224.202 118.106C224.27 118.163 224.321 118.239 224.348 118.323C224.376 118.408 224.379 118.498 224.358 118.585C224.337 118.671 224.292 118.75 224.228 118.812C221.348 121.619 221.412 121.451 221.473 121.785L222.092 125.389C222.107 125.477 222.097 125.567 222.063 125.649C222.03 125.732 221.974 125.803 221.902 125.856C221.829 125.908 221.745 125.939 221.655 125.945C221.567 125.951 221.477 125.932 221.399 125.89C217.839 124.019 218.02 124.032 217.72 124.189L214.485 125.89C214.406 125.932 214.317 125.95 214.229 125.944C214.14 125.938 214.054 125.907 213.983 125.854C213.911 125.802 213.855 125.731 213.821 125.649C213.788 125.566 213.778 125.476 213.793 125.389C214.473 121.421 214.517 121.6 214.273 121.363L211.656 118.812C211.592 118.75 211.547 118.671 211.525 118.585C211.505 118.498 211.507 118.407 211.535 118.323C211.562 118.238 211.613 118.163 211.681 118.105C211.749 118.048 211.832 118.011 211.921 117.998C215.9 117.419 215.747 117.515 215.896 117.212L217.514 113.934C217.554 113.854 217.614 113.787 217.69 113.74C217.765 113.692 217.852 113.667 217.942 113.667C218.031 113.667 218.118 113.692 218.194 113.74C218.269 113.787 218.33 113.854 218.369 113.934Z" fill="#E5DFD5"/>
<path d="M133.12 17.7278C134.556 20.636 134.494 20.6641 134.784 20.7051L137.829 21.148C137.904 21.1586 137.973 21.1899 138.03 21.2382C138.088 21.2866 138.13 21.3499 138.153 21.4214C138.176 21.4927 138.179 21.5691 138.161 21.6418C138.143 21.7145 138.105 21.7807 138.051 21.8328C135.728 24.0971 135.683 24.0459 135.733 24.3351L136.252 27.3675C136.265 27.4413 136.258 27.5172 136.229 27.5867C136.201 27.6561 136.154 27.7163 136.092 27.7603C136.032 27.8042 135.961 27.8303 135.886 27.8356C135.811 27.8408 135.737 27.8251 135.67 27.7899C132.799 26.2807 132.834 26.2219 132.574 26.3588L129.851 27.7899C129.785 27.8251 129.71 27.8408 129.636 27.8356C129.561 27.8303 129.489 27.8042 129.429 27.7603C129.367 27.7163 129.32 27.6561 129.292 27.5867C129.264 27.5172 129.256 27.4413 129.269 27.3675C129.817 24.1675 129.883 24.1854 129.673 23.9806L127.47 21.8328C127.417 21.7804 127.379 21.7141 127.361 21.6414C127.343 21.5688 127.346 21.4925 127.369 21.4214C127.392 21.3502 127.435 21.2868 127.492 21.2386C127.549 21.1902 127.619 21.1588 127.693 21.148C130.903 20.682 130.91 20.7499 131.039 20.4862L132.401 17.7278C132.434 17.6606 132.485 17.6039 132.548 17.5643C132.612 17.5247 132.685 17.5037 132.761 17.5037C132.836 17.5037 132.909 17.5247 132.973 17.5643C133.036 17.6039 133.087 17.6606 133.12 17.7278Z" fill="#E5DFD5"/>
<path d="M75.4062 219.571L106.359 101.02L129.598 219.571" stroke="#303030" stroke-linecap="round" stroke-linejoin="round"/>
<path d="M106.359 101.02L104.195 236.591" stroke="#303030" stroke-linecap="round" stroke-linejoin="round"/>
<path d="M75.1097 222.111C76.1616 222.111 77.0144 221.258 77.0144 220.206C77.0144 219.154 76.1616 218.301 75.1097 218.301C74.0578 218.301 73.2051 219.154 73.2051 220.206C73.2051 221.258 74.0578 222.111 75.1097 222.111Z" fill="#008765"/>
<path d="M104.196 238.496C105.248 238.496 106.1 237.643 106.1 236.591C106.1 235.539 105.248 234.687 104.196 234.687C103.144 234.687 102.291 235.539 102.291 236.591C102.291 237.643 103.144 238.496 104.196 238.496Z" fill="#008765"/>
<path d="M129.596 221.476C130.648 221.476 131.501 220.623 131.501 219.571C131.501 218.519 130.648 217.666 129.596 217.666C128.544 217.666 127.691 218.519 127.691 219.571C127.691 220.623 128.544 221.476 129.596 221.476Z" fill="#008765"/>
<path d="M162.211 91.1949L160.1 90.5728C159.817 89.5193 159.269 88.5563 158.507 87.7761C157.745 86.9961 156.795 86.4252 155.748 86.1184L152.343 85.1123C152.201 90.0772 151.184 94.9779 149.338 99.5891L152.523 100.045C153.577 100.229 154.663 100.142 155.675 99.7921C156.688 99.4424 157.595 98.8415 158.312 98.0454L160.553 98.3654C161.448 98.4511 162.344 98.2086 163.075 97.6834C163.804 97.1581 164.319 96.3858 164.523 95.5097C164.726 94.6337 164.604 93.7136 164.18 92.9204C163.756 92.1273 163.058 91.5151 162.217 91.1974L162.211 91.1949Z" fill="#008765"/>
<path d="M162.211 91.1949L160.1 90.5728C159.817 89.5193 159.269 88.5563 158.507 87.7761C157.745 86.9961 156.795 86.4252 155.748 86.1184L152.343 85.1123C152.201 90.0772 151.184 94.9779 149.338 99.5891L152.523 100.045C153.577 100.229 154.663 100.142 155.675 99.7921C156.688 99.4424 157.595 98.8415 158.312 98.0454L160.553 98.3654C161.448 98.4511 162.344 98.2086 163.075 97.6834C163.804 97.1581 164.319 96.3858 164.523 95.5097C164.726 94.6337 164.604 93.7136 164.18 92.9204C163.756 92.1273 163.058 91.5151 162.217 91.1974L162.211 91.1949Z" stroke="#303030" stroke-linecap="round" stroke-linejoin="round"/>
<path d="M146.196 103.485L147.063 103.539C147.198 103.545 147.331 103.511 147.446 103.443C147.563 103.375 147.656 103.275 147.716 103.155C151.108 96.5356 152.687 89.136 152.291 81.7087C152.285 81.5904 152.249 81.4757 152.186 81.375C152.125 81.2743 152.038 81.1906 151.935 81.1314L108.361 55.8757C112.908 73.0521 107.357 90.6533 94.7422 100.301L126.658 102.272" stroke="#303030" stroke-linecap="round" stroke-linejoin="round"/>
<path d="M108.36 55.8759L77.9642 34.8289C92.9658 56.7988 84.1696 89.4247 60.1914 101.11L94.7412 100.301C107.356 90.6535 112.907 73.0522 108.36 55.8759Z" fill="#008765"/>
<path d="M108.36 55.8759L77.9642 34.8289C92.9658 56.7988 84.1696 89.4247 60.1914 101.11L94.7412 100.301C107.356 90.6535 112.907 73.0522 108.36 55.8759Z" stroke="#303030" stroke-linecap="round" stroke-linejoin="round"/>
<path d="M58.0411 20.1676C37.3077 14.1183 15.0536 27.8898 8.33354 50.9234C1.61354 73.957 12.9749 97.5359 33.7083 103.583C54.4417 109.629 76.6971 95.8604 83.4158 72.8319C90.1345 49.8034 78.7745 26.2156 58.0411 20.1676Z" stroke="#303030" stroke-linecap="round" stroke-linejoin="round"/>
<path d="M54.8839 24.356C38.2644 19.5074 20.0256 31.9144 14.1466 52.068C8.26754 72.2216 16.9741 92.4878 33.5936 97.3365C50.2132 102.185 68.4519 89.7768 74.3309 69.6245C80.21 49.4722 71.5034 29.2034 54.8839 24.356ZM39.5687 78.0418C30.8109 76.0117 25.1047 66.8725 24.8743 55.9886C29.8727 46.317 39.017 40.6286 47.7748 42.6536C56.5325 44.6786 62.2388 53.8229 62.4692 64.7067C57.4733 74.3784 48.3264 80.0731 39.5687 78.0418Z" fill="#E5DFD5"/>
<path d="M74.3304 69.625C80.2093 49.4721 71.5021 29.2047 54.8823 24.3564C38.2624 19.5081 20.0235 31.9148 14.1445 52.0676C8.26558 72.2204 16.9728 92.4879 33.5926 97.3362C50.2125 102.185 68.4513 89.7778 74.3304 69.625Z" stroke="#303030" stroke-linecap="round" stroke-linejoin="round"/>
<path d="M14.1454 52.0679C9.02534 69.6269 14.9748 87.2743 27.5854 94.7315C18.6164 85.9981 14.9492 70.9863 19.3102 56.0346C25.9291 33.353 48.3444 20.48 66.0673 30.9363C49.3403 14.6304 21.8331 25.7139 14.1454 52.0679Z" fill="#008765"/>
<path d="M14.1454 52.0679C9.02534 69.6269 14.9748 87.2743 27.5854 94.7315C18.6164 85.9981 14.9492 70.9863 19.3102 56.0346C25.9291 33.353 48.3444 20.48 66.0673 30.9363C49.3403 14.6304 21.8331 25.7139 14.1454 52.0679Z" stroke="#303030" stroke-linecap="round" stroke-linejoin="round"/>
<path d="M62.4713 64.7054C64.7372 54.9334 58.1578 45.06 47.7756 42.6527C37.3935 40.2453 27.1402 46.2154 24.8743 55.9873C22.6083 65.7594 29.1878 75.6328 39.57 78.0401C49.9521 80.4475 60.2054 74.4773 62.4713 64.7054Z" stroke="#303030" stroke-linecap="round" stroke-linejoin="round"/>
<path d="M52.7392 62.4506C54.2541 55.918 51.4218 49.6808 46.4133 48.5193C41.4048 47.3578 36.1165 51.712 34.6016 58.2445C33.0867 64.777 35.9189 71.0143 40.9275 72.1758C45.936 73.3372 51.2243 68.9831 52.7392 62.4506Z" fill="#008765"/>
<path d="M52.7392 62.4506C54.2541 55.918 51.4218 49.6808 46.4133 48.5193C41.4048 47.3578 36.1165 51.712 34.6016 58.2445C33.0867 64.777 35.9189 71.0143 40.9275 72.1758C45.936 73.3372 51.2243 68.9831 52.7392 62.4506Z" stroke="#303030" stroke-linecap="round" stroke-linejoin="round"/>
<path d="M116.748 101.663C117.553 102.195 123.844 109.572 125.101 110.646C126.766 108.418 128.637 106.351 130.689 104.473" stroke="#303030" stroke-linecap="round" stroke-linejoin="round"/>
<path d="M155.843 139.017C142.243 133.91 125.102 110.646 125.102 110.646" stroke="#303030" stroke-linecap="round" stroke-linejoin="round"/>
<path d="M162.451 150.868V145.934C161.803 142.653 161.376 139.333 161.171 135.995C159.635 134.715 158.13 133.345 156.668 131.942C156.432 133.643 156.211 135.498 156.009 137.518C154.601 151.649 151.469 153.037 149.719 168.805L155.682 168.274C158.306 160.589 161.431 153.226 162.451 150.868Z" stroke="#303030" stroke-linecap="round" stroke-linejoin="round"/>
<path d="M170.786 121.561C170.844 119.703 171.17 113.193 172.982 110.478C172.354 110.507 169.378 110.167 169.106 109.564C166.807 111.588 165.026 114.134 163.914 116.988C166.528 118.845 168.991 120.518 170.786 121.561Z" fill="#E5DFD5"/>
<path d="M161.166 135.995C161.371 139.333 161.798 142.653 162.446 145.934L169.788 145.355C169.517 144.059 169.276 142.766 169.057 141.515C166.251 139.94 163.608 138.091 161.166 135.995Z" fill="#E5DFD5"/>
<path d="M170.786 121.561C170.844 119.703 171.17 113.193 172.982 110.478C172.354 110.507 169.378 110.167 169.106 109.564C166.807 111.588 165.026 114.134 163.914 116.988" stroke="#303030" stroke-linecap="round" stroke-linejoin="round"/>
<path d="M161.166 135.995C161.371 139.333 161.798 142.653 162.446 145.934L169.788 145.355C169.517 144.059 169.276 142.766 169.057 141.515" stroke="#303030" stroke-linecap="round" stroke-linejoin="round"/>
<path d="M162.45 145.934V150.868C158.88 159.033 155.823 167.412 153.292 175.956C152.798 177.785 152.672 179.694 152.921 181.572C153.17 183.449 153.789 185.259 154.742 186.896L170.358 213.776L184.004 206.538L171.102 180.992L177.013 166.693" stroke="#303030" stroke-linecap="round" stroke-linejoin="round"/>
<path d="M182.486 168.411C182.957 169.048 183.427 169.669 183.894 170.274C185.058 171.769 186.507 173.019 188.157 173.949C189.808 174.88 191.626 175.474 193.507 175.696L224.369 179.393L226.801 164.138L198.632 159.074L197.14 156.548" stroke="#303030" stroke-linecap="round" stroke-linejoin="round"/>
<path d="M191.375 220.499C183.242 226.888 174.484 232.439 165.236 237.069C172.857 220.993 172.601 221.752 172.788 220.609L187.585 213.33L191.375 220.499Z" fill="#008765"/>
<path d="M191.375 220.499C183.242 226.888 174.484 232.439 165.236 237.069C172.857 220.993 172.601 221.752 172.788 220.609L187.585 213.33L191.375 220.499Z" stroke="#303030" stroke-linecap="round" stroke-linejoin="round"/>
<path d="M191.376 220.499L191.849 221.395C192.097 221.866 192.168 222.41 192.045 222.928C191.922 223.447 191.615 223.903 191.181 224.211C187.12 227.097 175.899 234.777 166.492 238.419C166.306 238.491 166.105 238.505 165.912 238.46C165.719 238.415 165.544 238.314 165.408 238.169C165.273 238.024 165.185 237.842 165.154 237.646C165.124 237.45 165.153 237.249 165.238 237.07C174.486 232.44 183.243 226.888 191.376 220.499Z" stroke="#303030" stroke-linecap="round" stroke-linejoin="round"/>
<path d="M187.587 213.33L172.791 220.609C173.011 219.287 172.764 217.929 172.09 216.769L170.354 213.779L184 206.541L187.587 213.33Z" stroke="#303030" stroke-linecap="round" stroke-linejoin="round"/>
<path d="M171.101 180.99L170.016 183.614L174.682 188.084L171.101 180.99Z" fill="#008765"/>
<path d="M171.101 180.99L170.016 183.614L174.682 188.084L171.101 180.99Z" stroke="#303030" stroke-linecap="round" stroke-linejoin="round"/>
<path d="M234.38 165.356L231.545 180.244C230.056 180.244 224.377 179.393 224.377 179.393L226.809 164.138L234.38 165.356Z" stroke="#303030" stroke-linecap="round" stroke-linejoin="round"/>
<path d="M198.629 159.074L200.165 161.675L206.45 160.48L198.629 159.074Z" fill="#008765"/>
<path d="M198.629 159.074L200.165 161.675L206.45 160.48L198.629 159.074Z" stroke="#303030" stroke-linecap="round" stroke-linejoin="round"/>
<path d="M187.422 133.29C186.674 135.489 185.656 137.587 184.391 139.535C180.759 145.209 175.099 144.763 169.062 141.509C170.409 149.345 173.239 160.641 179.121 170.546C179.121 170.546 193.441 162.079 200.045 153.103C200.045 153.103 196.497 139.968 187.422 133.29Z" stroke="#303030" stroke-linecap="round" stroke-linejoin="round"/>
<path d="M184.04 91.7361C184.443 91.3729 184.754 90.9186 184.946 90.4111C185.139 89.9034 185.207 89.3572 185.147 88.8179C185.085 88.2785 184.896 87.7615 184.595 87.3098C184.293 86.8582 183.889 86.4851 183.415 86.2214C182.94 85.9577 182.409 85.811 181.866 85.7937C181.325 85.7764 180.786 85.889 180.294 86.1218C179.804 86.3547 179.377 86.7014 179.048 87.1329C178.719 87.5643 178.497 88.0683 178.401 88.6027C176.971 88.5 175.543 88.8239 174.296 89.5332C173.745 89.1948 173.131 88.9691 172.491 88.8696C171.853 88.77 171.2 88.7983 170.571 88.9529C169.943 89.1074 169.352 89.3853 168.831 89.7702C168.311 90.1551 167.872 90.6394 167.54 91.1951C167.209 91.7508 166.991 92.3669 166.899 93.0074C166.807 93.6481 166.844 94.3005 167.005 94.927C167.168 95.5535 167.453 96.1415 167.844 96.6571C168.235 97.1725 168.726 97.6052 169.285 97.93C169.748 96.6731 170.35 95.4712 171.077 94.346C172.736 94.5297 174.414 94.4077 176.028 93.9864C176.552 93.7764 176.668 93.6702 177.18 94.3268C178.006 95.6061 178.56 97.0411 178.81 98.5432C180.218 97.5563 181.188 99.1486 180.395 100.994C179.895 102.162 178.904 102.857 178.184 102.547C178.075 102.486 177.972 102.414 177.88 102.331C177.37 102.997 177.074 103.803 177.03 104.641C182.006 105.4 188.463 97.5691 184.04 91.7361Z" fill="#008765"/>
<path d="M184.04 91.7361C184.443 91.3729 184.754 90.9186 184.946 90.4111C185.139 89.9034 185.207 89.3572 185.147 88.8179C185.085 88.2785 184.896 87.7615 184.595 87.3098C184.293 86.8582 183.889 86.4851 183.415 86.2214C182.94 85.9577 182.409 85.811 181.866 85.7937C181.325 85.7764 180.786 85.889 180.294 86.1218C179.804 86.3547 179.377 86.7014 179.048 87.1329C178.719 87.5643 178.497 88.0683 178.401 88.6027C176.971 88.5 175.543 88.8239 174.296 89.5332C173.745 89.1948 173.131 88.9691 172.491 88.8696C171.853 88.77 171.2 88.7983 170.571 88.9529C169.943 89.1074 169.352 89.3853 168.831 89.7702C168.311 90.1551 167.872 90.6394 167.54 91.1951C167.209 91.7508 166.991 92.3669 166.899 93.0074C166.807 93.6481 166.844 94.3005 167.005 94.927C167.168 95.5535 167.453 96.1415 167.844 96.6571C168.235 97.1725 168.726 97.6052 169.285 97.93C169.748 96.6731 170.35 95.4712 171.077 94.346C172.736 94.5297 174.414 94.4077 176.028 93.9864C176.552 93.7764 176.668 93.6702 177.18 94.3268C178.006 95.6061 178.56 97.0411 178.81 98.5432C180.218 97.5563 181.188 99.1486 180.395 100.994C179.895 102.162 178.904 102.857 178.184 102.547C178.075 102.486 177.972 102.414 177.88 102.331C177.37 102.997 177.074 103.803 177.03 104.641C182.006 105.4 188.463 97.5691 184.04 91.7361Z" stroke="#303030" stroke-linecap="round" stroke-linejoin="round"/>
<path d="M169.248 154.548L174.322 160.677" stroke="#303030" stroke-linecap="round" stroke-linejoin="round"/>
<path d="M186.318 144.384L179.757 147.936C179.525 148.061 179.339 148.258 179.228 148.498C179.118 148.736 179.087 149.004 179.141 149.263C179.618 151.494 181.189 157.685 184.84 157.36C191.444 156.772 193.032 151.6 187.876 144.716C187.699 144.484 187.444 144.322 187.159 144.261C186.872 144.199 186.574 144.243 186.318 144.384Z" stroke="#303030" stroke-linecap="round" stroke-linejoin="round"/>
<path d="M240.513 166.313L234.386 165.357L231.551 180.244L247.439 191.636C247.19 190.066 246.821 188.516 246.336 187.001C240.182 166.414 242.971 175.155 240.513 166.313Z" fill="#008765"/>
<path d="M240.513 166.313L234.386 165.357L231.551 180.244L247.439 191.636C247.19 190.066 246.821 188.516 246.336 187.001C240.182 166.414 242.971 175.155 240.513 166.313Z" stroke="#303030" stroke-linecap="round" stroke-linejoin="round"/>
<path d="M247.434 191.63C247.641 191.776 247.886 191.855 248.138 191.858C248.391 191.86 248.638 191.785 248.846 191.644C249.055 191.502 249.215 191.3 249.306 191.064C249.397 190.83 249.413 190.571 249.354 190.327C247.899 184.421 244.81 172.091 243.21 167.23C243.159 167.072 243.065 166.931 242.937 166.825C242.81 166.717 242.656 166.647 242.491 166.622L240.502 166.313C242.962 175.145 240.176 166.41 246.325 186.995C246.812 188.509 247.184 190.059 247.434 191.63Z" stroke="#303030" stroke-linecap="round" stroke-linejoin="round"/>
<path d="M172.981 110.478C172.981 110.478 176.923 108.942 177.22 107.126C176.947 105.425 176.761 103.777 177.877 102.327C177.97 102.411 178.071 102.484 178.181 102.543C178.901 102.853 179.892 102.159 180.393 100.991C181.195 99.1192 180.196 97.5679 178.807 98.5394C178.557 97.0375 178.003 95.6024 177.177 94.3231C176.665 93.6664 176.554 93.774 176.025 93.9826C174.411 94.404 172.733 94.526 171.074 94.3423C171.074 94.3423 167.886 99.0488 168.759 102.635C168.933 103.385 169.354 104.055 169.954 104.536C170.555 105.018 171.301 105.283 172.07 105.29C171.995 107.91 169.021 108.979 169.081 109.497C169.162 110.143 172.333 110.509 172.981 110.478Z" stroke="#303030" stroke-linecap="round" stroke-linejoin="round"/>
<path d="M172.076 105.29C172.907 105.352 173.743 105.246 174.532 104.979" stroke="#303030" stroke-linecap="round" stroke-linejoin="round"/>
<path d="M141.363 114.541C141.363 114.541 145.548 108.799 149.71 106.291C148.429 105.378 147.208 104.383 146.055 103.313C145.799 102.847 146.709 98.981 147.317 97.0124C147.925 95.0437 147.351 94.5228 146.632 94.8287C146.033 95.0847 143.658 98.8197 142.878 100.077C142.85 100.122 142.81 100.16 142.764 100.187C142.718 100.213 142.666 100.229 142.613 100.231C142.559 100.234 142.506 100.223 142.458 100.2C142.409 100.178 142.367 100.144 142.335 100.101L139.917 96.942C139.917 96.942 135.74 91.4828 134.59 91.5148C132.158 91.5801 137.681 99.4239 137.681 99.4239C136.657 98.2719 135.364 97.3209 134.298 96.2073C133.536 95.4124 132.762 94.6213 131.955 93.8777C131.591 93.5423 130.976 92.814 130.428 92.8383C130.074 92.8537 129.732 92.9983 129.7 93.3977C129.64 94.1657 130.34 94.9989 130.77 95.5737C132.316 97.5577 133.962 99.4613 135.703 101.277C134.679 100.393 129.978 96.3417 128.648 96.0882C128.113 95.9858 127.69 96.3519 127.9 96.9113C128.327 98.0505 132.38 101.696 133.488 102.706C133.637 102.842 134.167 103.179 134.212 103.366C134.212 103.366 127.666 100.888 126.944 101.446C124.913 102.999 132.128 104.585 133.324 105.814C135.511 108.058 140.258 113.596 141.363 114.541Z" stroke="#303030" stroke-linecap="round" stroke-linejoin="round"/>
<path d="M179.606 110.111C172.961 113.709 172.426 122.414 172.426 122.414C167.552 120.32 149.71 106.291 149.71 106.291C145.548 108.799 141.363 114.541 141.363 114.541C141.363 114.541 172.951 157.41 184.389 139.535C193.948 124.594 184.672 113.035 179.606 110.111Z" stroke="#303030" stroke-linecap="round" stroke-linejoin="round"/>
<path d="M155.777 110.962C155.777 110.962 149.031 117.383 146.23 120.655" stroke="#303030" stroke-linecap="round" stroke-linejoin="round"/>
<path d="M145.373 116.372C145.843 116.372 146.223 115.992 146.223 115.522C146.223 115.053 145.843 114.672 145.373 114.672C144.904 114.672 144.523 115.053 144.523 115.522C144.523 115.992 144.904 116.372 145.373 116.372Z" fill="#008765"/>
<path d="M177.22 107.125C176.923 108.946 172.982 110.478 172.982 110.478C171.172 113.191 170.845 119.703 170.787 121.561C171.317 121.877 171.864 122.162 172.427 122.414C172.427 122.414 172.982 113.391 179.979 109.92C182.251 108.788 177.22 107.125 177.22 107.125Z" stroke="#303030" stroke-linecap="round" stroke-linejoin="round"/>
</svg>
