<svg width="50" height="64" viewBox="0 0 50 64" fill="none" xmlns="http://www.w3.org/2000/svg">
<path d="M40.4875 15.2132C41.2268 14.2892 48.4471 2.41171 48.4471 2.41171V17.7284L40.4875 15.2132Z" fill="#CC0000"/>
<path d="M49.0829 14.9563L43.6884 10.2974L36.0874 11.1659C36.0874 11.1659 35.3592 18.3216 34.8418 23.0342C24.8438 24.2021 13.4043 25.529 12.4193 25.6048C12.4193 25.6048 9.74518 26.3995 8.12629 26.8338C9.83389 21.3783 13.9735 9.30865 13.9735 9.30865L0.0114746 0L6.89732 27.4122C6.97679 29.1346 8.85811 37.7059 8.85811 38.1975C8.85811 38.7519 31.8535 44.2203 32.2637 44.2203C32.674 44.2203 49.373 38.1975 49.373 38.1975L49.9884 21.2582L49.0829 14.9563Z" fill="#328640"/>
<path d="M28.4401 64C28.0705 63.4105 33.3097 43.165 33.1212 44.2609C32.9327 45.3568 33.1212 63.6341 33.1212 63.6341L28.4401 64Z" fill="#99825F"/>
</svg>
