<svg width="192" height="200" viewBox="0 0 192 200" fill="none" xmlns="http://www.w3.org/2000/svg">
<path d="M57.5322 142.166C59.1466 141.756 90.2496 115.84 90.2496 115.84L87.3922 40.8991L99.0552 38.3037L97.4264 90.2134L138.154 0L145.088 12.2535L123.5 77.0216L156.084 34.2556L163.414 45.2519L135.721 88.4227L178.891 90.7658L191.112 131.493L170.338 135.265L168.305 107.977L130.834 115.711L117.609 171.631L155.67 154.01L172.091 137.994L176.763 163.697L157.608 185.603C157.608 185.603 104.965 200 103.932 200C102.303 200 0.888672 195.928 0.888672 195.928L15.1615 121.393L57.5322 142.166Z" fill="#008765"/>
</svg>
