<svg width="400" height="292" viewBox="0 0 400 292" fill="none" xmlns="http://www.w3.org/2000/svg">
<path d="M396.984 252.417C396.617 250.83 396.626 249.18 397.01 247.597C397.568 245.819 398.474 244.17 399.676 242.746C399.121 242.982 398.513 243.061 397.916 242.974C397.32 242.888 396.759 242.639 396.294 242.255C395.889 241.98 395.469 241.727 395.037 241.497L394.128 241.997C392.913 241.932 392.56 241.079 391.341 240.705H387.192L384.552 239.184C383.488 239.046 382.07 239.542 381.812 238.348C381.765 238.124 381.416 237.918 381.286 237.711C380.782 236.819 378.598 237.241 378.435 236.199C378.271 235.156 376.712 235.458 375.91 234.997C374.506 234.178 373.123 234.717 371.93 235.428C369.246 235.428 366.576 235.428 363.905 235.428C362.816 235.476 361.73 235.298 360.713 234.906C359.851 234.562 358.533 234.73 357.422 234.67C355.72 236.276 354.014 234.954 352.584 234.514C351.292 234.122 349.797 233.83 348.837 232.994C348.435 232.687 347.957 232.494 347.454 232.438C346.536 232.33 345.39 232.576 344.671 232.3C342.957 231.674 341.311 230.873 339.76 229.91C338.752 229.255 337.645 229.535 336.616 229.324C334.944 228.561 333.872 227.364 331.77 226.855C330.594 226.571 329.827 226.201 328.858 226.916C328.727 226.99 328.576 227.02 328.427 227.002C326.893 226.015 325.506 226.252 323.908 227.032C323.262 227.346 322.185 227.2 321.254 226.873C319.182 226.136 316.71 226.011 314.763 225.012C314.121 224.68 312.928 224.848 312.152 224.581C311.416 224.255 310.717 223.851 310.067 223.375C307.483 223.375 305.019 223.306 302.546 223.375C300.78 223.444 299.638 222.169 297.782 222.539C297.635 222.569 297.187 222.238 297.093 222.035C295.968 219.657 292.242 219.106 289.89 217.59C289.554 217.374 288.869 217.37 288.335 217.322C285.922 216.983 283.548 216.406 281.249 215.599C279.87 215.026 278.552 214.406 276.821 214.23C275.622 214.057 274.451 213.732 273.336 213.26C272.97 213.122 272.905 212.623 272.608 212.08C271.104 211.727 268.869 212.489 267.563 211.244H262.442L258.629 212.662L256.045 211.244C254.192 211.705 253.094 210.18 251.259 210.478C250.816 210.571 250.359 210.575 249.915 210.487C249.47 210.4 249.049 210.224 248.674 209.969C248.453 209.817 248.196 209.727 247.928 209.708C247.66 209.69 247.393 209.745 247.154 209.866C246.389 210.317 245.512 210.544 244.625 210.521C243.152 210.478 241.717 210.37 240.317 211.085C239.585 211.455 238.129 211.27 237.009 211.249C235.381 211.21 234.424 212.11 233.037 212.412C232.74 212.481 232.718 213.066 232.572 213.424C231.53 213.17 230.849 212.364 229.526 213.071C227.911 213.932 225.753 213.794 224.189 213.278C222.531 212.735 220.502 212.933 219.162 211.985C217.87 212.114 217.439 212.929 216.474 213.303C216.315 213.364 216.138 213.489 215.996 213.471C212.981 213.161 210.331 214.889 206.976 214.087L204.675 212.748H201.565L197.912 210.555C196.323 210.322 194.427 210.835 193.174 209.728H188.905C188.448 210.021 188.28 210.262 188.28 210.478C187.83 210.634 187.397 210.836 186.988 211.081C184.304 211.081 181.634 211.081 178.963 211.081C177.874 211.131 176.787 210.953 175.771 210.559C174.909 210.215 173.591 210.387 172.475 210.327C170.778 211.934 169.072 210.611 167.642 210.172C166.35 209.775 164.855 209.482 163.894 208.651C163.492 208.343 163.015 208.15 162.512 208.091C161.59 207.988 160.448 208.233 159.729 207.958C158.014 207.331 156.369 206.53 154.818 205.567C153.81 204.912 152.703 205.188 151.674 204.981C150.002 204.218 148.93 203.021 146.827 202.513C145.651 202.228 144.885 201.858 143.915 202.573C143.785 202.647 143.634 202.677 143.485 202.659C141.951 201.673 140.564 201.91 138.966 202.685C138.32 202.999 137.243 202.857 136.312 202.53C134.24 201.793 131.768 201.668 129.821 200.669C129.179 200.333 127.986 200.505 127.21 200.238C126.473 199.916 125.773 199.513 125.125 199.036C122.562 199.036 120.077 198.967 117.604 199.036C115.838 199.105 114.696 197.83 112.84 198.201C112.693 198.226 112.245 197.899 112.15 197.692C111.022 195.314 107.296 194.763 104.948 193.251C104.612 193.036 103.927 193.031 103.393 192.984C100.983 192.668 98.6095 192.117 96.3068 191.338C94.9283 190.766 93.6101 190.145 91.8784 189.969C90.6805 189.794 89.5094 189.469 88.3935 188.999C88.0274 188.862 87.9628 188.362 87.6655 187.819C86.1621 187.466 83.9264 188.224 82.6169 186.983H77.5037L73.6914 188.396L71.1068 186.983C69.2544 187.444 68.156 185.919 66.3166 186.217C65.8737 186.31 65.4166 186.313 64.9725 186.226C64.5285 186.138 64.1066 185.962 63.732 185.708C63.5113 185.556 63.2535 185.466 62.9859 185.448C62.7183 185.429 62.4507 185.484 62.2114 185.605C61.4453 186.053 60.57 186.28 59.6828 186.26C58.2095 186.217 56.7751 186.109 55.3751 186.82C54.6428 187.194 53.1867 187.009 52.0667 186.983C50.4384 186.949 49.4821 187.845 48.0908 188.151C47.7978 188.22 47.7763 188.806 47.6298 189.159C46.5874 188.909 45.9068 188.103 44.58 188.81C42.9689 189.671 40.8108 189.529 39.2471 189.017C37.5886 188.47 35.5597 188.668 34.22 187.724C32.9277 187.854 32.4969 188.672 31.532 189.047C31.3726 189.107 31.196 189.232 31.0538 189.215C28.0384 188.905 25.3892 190.632 22.0335 189.826L19.7332 188.487H16.6144L12.9615 186.298C11.3677 186.066 9.4766 186.578 8.22306 185.471H3.95414C2.66183 186.294 3.65691 186.712 4.2126 187.194C4.2126 187.754 3.41137 187.918 2.85999 188.362C1.95436 188.481 1.03812 188.497 0.128906 188.409C1.36091 202.194 3.24337 215.978 4.78122 229.763C6.11229 241.674 8.87352 276.829 9.03291 288.778L325.67 291.277C325.67 291.225 325.67 291.156 325.7 291.074L397.027 291.63C397.212 289.226 397.354 286.818 397.406 284.415C397.488 280.404 397.048 276.402 396.652 272.418C396.002 265.862 395.157 258.831 396.984 252.417Z" fill="#CEA01F"/>
<path d="M181.979 84.4129C182.086 83.8745 182.612 31.984 182.612 31.984H185.317L186.945 82.8148L181.979 84.4129Z" fill="#BBB0A4"/>
<path d="M202.094 25.8412C202.094 25.8412 207.354 15.7612 207.793 15.3261L194.59 20.0646C195.198 14.8265 196.107 7.41723 196.107 7.41723L189.387 0.843689L188.676 11.096L175.537 6.24984L167.784 10.0492L177.192 17.1483C172.569 20.0302 167.125 23.3902 166.465 23.64C165.298 24.0708 163.105 33.8621 163.105 33.8621C163.105 33.8621 168.628 31.5791 174.534 29.1495L174.685 39.1649L180.638 43.9637L181.275 33.5865L194.224 40.5822L202.84 36.3434L189.055 28.9298L202.094 25.8412ZM181.598 27.9132L181.65 28.0511L181.585 28.1803L181.598 27.9132Z" fill="#00277B"/>
<path d="M162.331 68.9914L163.683 82.5434L158.893 92.7914L150.98 93.5366L146.521 72.3772L162.331 68.9914Z" fill="#CEA01F"/>
<path d="M168.013 90.728L152.794 89.2462L146.238 91.1932C146.613 93.4462 147.358 130.23 146.238 131.354C145.118 132.478 146.238 195.168 146.238 195.168L193.532 200.04L168.013 90.728Z" fill="#008765"/>
<path d="M227.691 245.387C228.066 243.957 231.443 195.159 231.443 195.159H244.957L250.212 221.634L271.875 235.096L274.236 249.652L241.954 246.959L236.699 238.124L235.949 245.387H227.691Z" fill="black"/>
<path d="M276.942 247.338C277.316 245.908 274.236 195.168 274.236 195.168H290.752L295.366 218.43L318.007 240.356L320.031 249.669L287.75 246.977L282.494 238.142L281.745 245.404L276.942 247.338Z" fill="black"/>
<path d="M163.244 78.1452L164.295 78.8603L167.013 80.2689L166.328 81.2899C165.402 81.1439 164.469 81.049 163.533 81.0055L163.244 78.1452Z" fill="#00873A"/>
<path d="M167.625 190.02C169.128 190.02 184.149 187.651 184.149 187.651C184.149 187.651 181.521 110.703 184.149 109.199C186.777 107.696 219.041 86.304 219.041 86.304C219.041 86.304 244.564 91.9341 245.689 93.0628C246.813 94.1914 254.304 106.572 254.304 107.709C254.304 108.846 257.681 204.175 257.681 204.175H223.185L212.675 136.975L212.3 232.007L182.646 245.383L143.609 221.63L146.233 195.155L167.625 190.02Z" fill="#00277B"/>
<path d="M267.102 201.164C267.102 201.164 262.583 124.94 262.583 123.828C262.583 122.717 251.697 89.3065 251.697 89.3065L263.935 84.5895L283.975 86.3126C283.975 88.9403 295.239 117.845 295.239 117.845L296.738 157.256L295.239 204.925L267.102 201.164Z" fill="#00277B"/>
<path d="M290.386 133.249L201.678 171.295L129.856 175.189L100.111 165.846L132.083 103.556L147.117 93.5366L143.61 120.632L136.537 137.466L284.524 127.559" fill="#008765"/>
<path d="M291.256 86.5926C291.256 79.9631 290.988 73.3206 290.825 66.6781L288.968 66.3034L193.531 80.8332L197.774 87.816L291.604 105.585C291.273 99.2658 291.264 92.9206 291.256 86.5926Z" fill="#008765"/>
<path d="M200.122 74.0917L195.22 68.4917L193.798 69.7366L196.517 72.6659L194.664 75.0308L189.353 72.6012L183.701 77.5551L186.126 81.04L190.645 79.6055L191.386 81.6172C191.386 81.6172 191.683 83.224 191.907 84.4775C191.563 84.4345 191.222 84.3871 190.878 84.3268C190.649 84.2837 189.504 84.1501 189.504 84.1501L186.953 81.9575C186.023 82.9182 185.407 83.4609 185.407 83.4609L190.688 90.9348L195.254 85.3348C195.504 85.3046 195.763 85.2788 196.021 85.2615C197.15 82.3151 200.122 74.0917 200.122 74.0917Z" fill="#CEA01F"/>
<path d="M282.438 127.559L297.209 126.568L296.907 139.284L288.3 133.249" fill="#CEA01F"/>
</svg>
