<svg width="144" height="200" viewBox="0 0 144 200" fill="none" xmlns="http://www.w3.org/2000/svg">
<path d="M143.09 0L56.2129 50.7856L51.5918 72.5175L139.601 41.6234L143.09 0Z" fill="#004137"/>
<path d="M70.5749 58.6436C70.5749 58.6436 66.4313 67.1979 66.671 73.2766C66.7047 74.118 67.1254 78.2637 67.1254 78.2637L59.6963 96.5629L65.6782 98.3276L82.0844 78.4635L70.5749 58.6436Z" fill="#FF3414"/>
<path d="M38.8051 92.7708L44.8228 98.8831L43.0686 102.143L36.0392 105.153C36.0392 105.153 32.5371 101.643 32.5371 100.642V95.1223L38.8051 92.7708Z" fill="#BBB0A4"/>
<path d="M63.9553 93.8416C63.1013 93.9762 43.8535 97.7138 43.8535 97.7138V100.919C43.8535 100.919 66.0629 104.525 65.9388 103.99C65.8147 103.456 63.9553 93.8416 63.9553 93.8416Z" fill="#BBB0A4"/>
<path d="M37.5619 98.942C36.9435 98.9147 10.2939 92.7708 10.2939 92.7708L12.1449 104.045L37.5619 102.522V98.942Z" fill="#BBB0A4"/>
<path d="M36.5862 115.041C36.5862 113.924 36.2686 102.385 36.2686 102.385H41.2787L42.9614 116.94L36.5862 115.041Z" fill="#BBB0A4"/>
<path d="M32.7881 121.743C33.2361 120.626 34.2415 113.701 34.6811 113.59C35.1207 113.478 47.4148 113.701 47.5284 114.147C47.642 114.593 49.4215 125.541 49.4215 125.541L32.7881 121.743Z" fill="#BBB0A4"/>
<path d="M28.2067 121.408C28.2067 121.408 27.6472 125.764 28.2067 125.541C28.7662 125.318 54.2631 128.223 54.2631 128.223L52.2081 121.967L28.2067 121.408Z" fill="#BBB0A4"/>
<path d="M32.7118 123.457C32.7118 123.457 31.0522 129.784 30.5327 129.992C30.0132 130.2 1.80294 132.377 1.80294 132.377C1.80294 132.377 0.660812 148.661 0.961593 148.558C1.26237 148.455 38.7968 151.669 40.1577 151.463C41.5186 151.257 61.7445 154.366 61.7445 154.366L68.0714 167.436L69.6257 172.726L84.9803 169.613L80.3213 144.825L69.7414 135.074L49.6186 129.369L47.2334 124.91L32.7118 123.457Z" fill="#BBB0A4"/>
<path d="M40.4946 59.2242L45.8077 47.8471C38.8813 44.9024 31.1809 41.6233 31.1809 41.6233L10.0674 58.1788L14.2741 63.5382L25.3714 54.3255L40.4946 59.2242Z" fill="#FF3414"/>
<path d="M56.5634 74.6169C56.5823 74.5096 72.2797 72.7238 72.307 72.6145C72.307 72.6145 70.7169 65.8501 70.5739 58.644C65.1556 56.1746 54.6199 51.6335 45.8068 47.8474C41.8336 52.5127 37.8456 57.1337 33.4895 61.4372L30.8877 79.4903L49.4309 100.04L60.7344 98.4016L57.329 79.3389L56.5634 74.6169Z" fill="#FF3414"/>
<path d="M80.3399 175.938L76.5518 197.789L82.9922 200L86.7825 197.663L87.6954 193.017L82.9291 181.118L80.3399 175.938Z" fill="#00B384"/>
</svg>
