<svg width="256" height="256" viewBox="0 0 256 256" fill="none" xmlns="http://www.w3.org/2000/svg">
<path d="M128.775 120.826L112.828 128.036C112.683 127.747 106.46 113.953 103.512 108.58C103.012 107.683 102.31 106.913 101.462 106.334C100.613 105.754 99.6417 105.38 98.6238 105.241C97.9944 105.176 97.3761 105.03 96.7847 104.805C96.4027 104.661 96.4218 103.353 96.4218 102.869C96.4218 102.169 88.0007 102.169 88.0007 102.869C88.0007 102.869 88.3713 104.511 87.5893 104.805C87.1139 104.971 86.6291 105.108 86.1374 105.217C83.8866 105.673 81.7933 106.708 80.0636 108.218C71.6248 115.761 65.3026 121.505 57.3655 127.873C57.1068 128.083 56.9278 128.376 56.8583 128.702C56.7887 129.028 56.8329 129.367 56.9835 129.665C58.3083 132.402 60.2862 134.769 62.7427 136.561C62.9949 136.731 63.2936 136.817 63.5973 136.808C63.9009 136.799 64.1943 136.696 64.4366 136.513C70.22 132.157 77.4273 126.276 82.4886 121.655C83.4359 123.988 84.1413 126.412 84.5938 128.889C85.6586 130.534 100.081 131.528 100.662 129.06C100.589 129.616 100.541 130.173 100.492 130.705L103.59 136.489C104.58 138.356 106.25 139.771 108.254 140.441C110.258 141.112 112.443 140.988 114.358 140.094L133.378 131.478C135.091 130.747 130.493 120.051 128.775 120.826Z" fill="#E5DFD5"/>
<path d="M154.793 108.167L166.088 91.0654C161.16 94.8391 153.447 103.049 147.281 110.962C145.723 112.585 142.568 115.446 140.704 114.146C140.576 113.659 140.291 113.229 139.892 112.922C139.494 112.616 139.005 112.45 138.502 112.452C138.586 112.883 138.634 113.32 138.647 113.758C140.002 114.363 139.397 116.275 137.755 116.664C137.565 116.732 137.362 116.759 137.16 116.744C136.959 116.729 136.762 116.672 136.585 116.575C136.407 116.479 136.25 116.347 136.126 116.186C136.004 116.026 135.915 115.841 135.868 115.645C135.841 115.375 135.882 115.103 135.988 114.853C136.093 114.604 136.26 114.385 136.473 114.217C136.618 113.707 136.691 113.198 136.836 112.715C134.997 113.418 133.859 115.426 134.876 116.877C135.23 117.311 135.701 117.631 136.235 117.799C136.768 117.967 137.339 117.975 137.876 117.823C139.554 117.453 141.361 116.981 143.244 116.43C142.799 117.075 142.375 117.708 141.971 118.331C141.39 119.222 140.834 120.12 140.325 120.943C140.002 121.445 139.802 122.017 139.745 122.613C140.18 122.059 140.77 121.647 141.439 121.428C141.552 121.229 141.703 121.056 141.886 120.917C142.066 120.778 142.274 120.678 142.496 120.621C142.717 120.565 142.948 120.554 143.173 120.588C143.4 120.623 143.616 120.703 143.81 120.823C144.971 121.842 143.471 124.162 141.922 123.726C141.46 124.08 140.934 124.343 140.374 124.501C141.439 125.589 143.35 125.251 144.584 123.872C145.152 123.342 145.492 122.611 145.533 121.835C145.574 121.059 145.312 120.297 144.802 119.71C144.833 117.173 147.349 115.447 149.205 114.52C158.884 111.162 169.214 106.447 174.445 102.891L154.793 108.167ZM151.399 111.751C151.314 111.828 151.213 111.886 151.105 111.924C150.997 111.961 150.882 111.977 150.768 111.971C150.653 111.964 150.541 111.935 150.438 111.884C150.335 111.834 150.242 111.764 150.165 111.679C150.089 111.593 150.03 111.493 149.993 111.384C149.955 111.276 149.94 111.161 149.946 111.047C149.953 110.932 149.982 110.82 150.033 110.717C150.082 110.613 150.152 110.521 150.238 110.445C150.324 110.368 150.424 110.31 150.532 110.272C150.64 110.234 150.755 110.218 150.87 110.225C150.984 110.232 151.096 110.261 151.201 110.311C151.304 110.361 151.396 110.431 151.472 110.517C151.548 110.603 151.607 110.703 151.645 110.811C151.682 110.92 151.699 111.035 151.691 111.149C151.685 111.264 151.655 111.376 151.606 111.479C151.555 111.583 151.486 111.675 151.399 111.751Z" fill="#E5DFD5"/>
<path d="M150.367 29.9595C143.361 40.6404 137.832 52.2196 133.93 64.3823H166.846C162.904 52.2279 157.363 40.652 150.367 29.9595Z" fill="#E5DFD5"/>
<path d="M41.419 152.549L37.7893 150.903C33.361 152.431 20.197 157.049 16.6641 160.268C21.5813 161.212 26.5922 161.577 31.5945 161.357C35.3452 161.068 35.5146 161.261 38.6604 162.518C38.1446 160.441 39.7684 154.314 41.419 152.549Z" fill="#008765"/>
<path d="M106.682 155.065C108.061 160.148 109.392 165.35 110.65 170.626H219.011V155.065H106.682Z" fill="#008765"/>
<path d="M117.669 213.772L116.242 208.331C112.946 209.793 109.392 210.589 105.787 210.673L107.094 216.941C106.935 219.08 107.016 221.233 107.336 223.354C120.653 221.335 131.05 217.31 131.05 217.063C126.798 215.245 122.278 214.134 117.669 213.772Z" fill="#008765"/>
<path d="M82.7987 81.9619C82.1253 81.1496 81.2938 80.4827 80.3546 80.0018C78.2105 79.0055 75.7679 78.8612 73.5214 79.5983C71.275 80.3354 69.3925 81.8987 68.2554 83.9716C65.4318 89.1743 68.2923 95.6493 71.2076 96.6516C71.2076 96.6516 69.1266 98.5149 69.5863 102.821C70.0703 107.42 77.8864 111 83.4762 103.353C87.1544 98.3455 90.0824 97.8844 90.3727 98.9262C90.0647 97.8193 89.7012 96.7286 89.2838 95.6582C87.1302 95.3678 87.5899 92.804 89.1386 93.4803C89.7487 93.7529 90.1091 93.8 90.0824 93.288C89.9856 89.755 92.3748 88.321 94.6317 91.0859L95.3818 92.1494C98.1404 84.2136 91.6311 77.6316 82.7987 81.9619Z" fill="#008765"/>
<path d="M94.3652 101.612C94.3583 101.288 94.3745 100.965 94.4136 100.643C93.9182 100.609 93.4253 100.544 92.9375 100.451L94.3652 101.612Z" fill="#008765"/>
<path d="M81.1539 118.382L76.9434 126.487C78.7137 124.983 76.1958 127.199 82.509 121.624C81.8798 120.003 81.3233 118.816 81.1539 118.382Z" fill="#008765"/>
<path d="M89.3809 157.946C90.1068 160.748 91.0989 164.382 92.2363 168.471C91.5829 162.374 94.0753 146.96 94.1467 146.547C92.5954 150.517 91.0264 154.315 89.3809 157.946Z" fill="#008765"/>
<path d="M150.82 110.687C150.743 110.682 150.666 110.702 150.6 110.742C150.534 110.782 150.482 110.842 150.451 110.913C150.419 110.983 150.41 111.062 150.424 111.138C150.438 111.214 150.475 111.284 150.53 111.339C150.6 111.416 150.699 111.461 150.804 111.466C150.908 111.471 151.01 111.433 151.087 111.363C151.163 111.292 151.209 111.194 151.214 111.09C151.219 110.985 151.181 110.883 151.111 110.806C151.032 110.732 150.929 110.69 150.82 110.687Z" fill="#008765"/>
<path d="M133.912 64.3823H166.809" stroke="#303030" stroke-linecap="round" stroke-linejoin="round"/>
<path d="M174.104 170.626C173.764 173.385 173.401 176.144 173.016 178.904C172.869 179.921 172.36 180.849 171.581 181.519C170.802 182.189 169.807 182.553 168.781 182.546H132.259C131.23 182.548 130.234 182.178 129.456 181.504C128.678 180.83 128.17 179.898 128.024 178.879C127.642 176.12 127.274 173.387 126.936 170.629" stroke="#303030" stroke-linecap="round" stroke-linejoin="round"/>
<path d="M124.418 135.561C124.539 142.046 124.853 148.556 125.362 155.089" stroke="#303030" stroke-linecap="round" stroke-linejoin="round"/>
<path d="M124.467 122.762C124.805 107.233 126.79 91.7834 130.39 76.6738C134.319 60.0736 141.076 44.2736 150.365 29.9658C159.533 44.0949 166.233 59.6794 170.179 76.0536C176.493 100.965 177.693 128.037 175.622 155.073" stroke="#303030" stroke-linecap="round" stroke-linejoin="round"/>
<path d="M141.976 114.469C140.671 112.978 139.779 111.168 139.393 109.217C138.958 107.022 139.185 104.747 140.044 102.681C140.902 100.614 142.354 98.8487 144.216 97.6076C146.078 96.3665 148.266 95.7052 150.504 95.7078C151.99 95.7093 153.46 96.0034 154.831 96.5733C155.992 97.0549 157.061 97.7254 157.998 98.5563M161.779 106.254C161.696 105.035 161.416 103.835 160.947 102.702C160.642 101.96 160.258 101.255 159.805 100.598" stroke="#303030" stroke-linecap="round" stroke-linejoin="round"/>
<path d="M133.965 182.532V189.409C133.962 190 134.077 190.586 134.301 191.134C134.525 191.681 134.855 192.178 135.272 192.597C135.689 193.016 136.185 193.35 136.731 193.576C137.276 193.804 137.862 193.922 138.453 193.922H162.361C162.952 193.924 163.538 193.809 164.084 193.585C164.631 193.361 165.126 193.03 165.545 192.614C165.963 192.196 166.295 191.7 166.521 191.155C166.747 190.609 166.863 190.024 166.862 189.433V182.556" stroke="#303030" stroke-linecap="round" stroke-linejoin="round"/>
<path d="M106.053 152.815C111.456 147.962 117.641 144.06 124.347 141.272" stroke="#303030" stroke-linecap="round" stroke-linejoin="round"/>
<path d="M145.689 117.265C146.51 117.649 147.376 117.936 148.272 118.115C150.467 118.554 152.743 118.332 154.811 117.477C156.878 116.623 158.647 115.175 159.891 113.315C160.643 112.193 161.183 110.952 161.495 109.652" stroke="#303030" stroke-linecap="round" stroke-linejoin="round"/>
<path d="M90.6841 162.81C90.0066 166.198 89.45 169.658 88.9902 173.191C90.0792 171.594 91.1681 170.045 92.257 168.521" stroke="#303030" stroke-linecap="round" stroke-linejoin="round"/>
<path d="M126.16 100.014C119.46 105.457 113.562 111.82 108.641 118.913" stroke="#303030" stroke-linecap="round" stroke-linejoin="round"/>
<path d="M197.156 155.067C191.228 149.2 184.229 144.526 176.539 141.296" stroke="#303030" stroke-linecap="round" stroke-linejoin="round"/>
<path d="M211.509 170.626L211.872 173.288C211.267 172.396 210.662 171.496 210.033 170.626" stroke="#303030" stroke-linecap="round" stroke-linejoin="round"/>
<path d="M174.824 100.063C192.053 114.123 202.749 132.827 208.436 155.067" stroke="#303030" stroke-linecap="round" stroke-linejoin="round"/>
<path d="M103.052 207.408C103.569 209.21 117.764 206.101 117.189 204.286C113.728 180.112 106.928 154.34 100.274 133.36C98.7978 134.74 84.2061 133.94 84.2545 132.342C72.7259 138.659 71.4523 159.034 71.4523 159.034L46.0924 151.774C43.6967 151.072 39.3601 165.58 41.7367 166.366C51.2797 169.517 61.2622 172.692 71.8153 175.271C73.9865 175.808 76.2741 175.615 78.3253 174.723C80.3763 173.83 82.0768 172.289 83.1643 170.334C85.3651 166.365 87.4232 162.276 89.3833 157.945C92.2833 169.101 98.985 193.217 103.052 207.408Z" stroke="#303030" stroke-linecap="round" stroke-linejoin="round"/>
<path d="M94.41 100.672C94.3367 101.236 94.3622 101.808 94.4852 102.362" stroke="#303030" stroke-linecap="round" stroke-linejoin="round"/>
<path d="M56.4942 137.595C53.7208 137.819 50.9317 137.762 48.1699 137.425" stroke="#303030" stroke-linecap="round" stroke-linejoin="round"/>
<path d="M46.4277 140.909C47.0569 140.74 47.7102 140.527 48.291 140.328" stroke="#303030" stroke-linecap="round" stroke-linejoin="round"/>
<path d="M55.6472 131.206C53.6094 132.851 50.3235 135.084 47.5165 135.026C42.8946 134.938 42.943 135.931 47.2987 137.204C47.5636 137.282 47.8553 137.349 48.1698 137.422C46.7157 138.24 45.2124 138.967 43.6689 139.6C40.3741 140.97 40.327 141.957 44.3465 141.366C45.049 141.257 45.7441 141.103 46.4276 140.907C45.6532 141.391 44.7324 141.897 43.7173 142.407C40.206 144.17 41.151 144.827 44.4433 143.907C46.7457 143.26 48.9632 142.342 51.0495 141.173" stroke="#303030" stroke-linecap="round" stroke-linejoin="round"/>
<path d="M51.5335 143.064C50.614 143.645 49.2412 146.238 52.6468 143.984C55.2386 142.268 58.7931 139.58 61.1403 137.765" stroke="#303030" stroke-linecap="round" stroke-linejoin="round"/>
<path d="M54.2677 141.393C51.8843 141.593 49.5017 140.998 47.4922 139.7" stroke="#303030" stroke-linecap="round" stroke-linejoin="round"/>
<path d="M45.9422 143.474C43.3045 144.976 44.2712 145.722 47.5151 144.757C49.9274 143.996 52.2051 142.86 54.2651 141.393" stroke="#303030" stroke-linecap="round" stroke-linejoin="round"/>
<path d="M95.3803 92.1494C97.2194 95.2468 98.4497 100.428 94.7028 100.669C94.1013 100.656 93.5022 100.592 92.9121 100.475L94.364 101.636" stroke="#303030" stroke-linecap="round" stroke-linejoin="round"/>
<path d="M90.3965 98.9006C90.8093 100.004 90.8468 101.212 90.5035 102.339" stroke="#303030" stroke-linecap="round" stroke-linejoin="round"/>
<path d="M62.9787 136.674L61.6719 137.739C60.5346 138.684 54.6544 131.738 55.7917 130.77L57.0016 129.634" stroke="#303030" stroke-linecap="round" stroke-linejoin="round"/>
<path d="M56.0586 132.343L57.7041 130.891" stroke="#303030" stroke-linecap="round" stroke-linejoin="round"/>
<path d="M56.8809 133.651L58.6231 132.343" stroke="#303030" stroke-linecap="round" stroke-linejoin="round"/>
<path d="M57.8477 134.956L59.6383 133.651" stroke="#303030" stroke-linecap="round" stroke-linejoin="round"/>
<path d="M58.9375 136.143L60.704 134.812" stroke="#303030" stroke-linecap="round" stroke-linejoin="round"/>
<path d="M60.0273 137.111L61.7938 135.78" stroke="#303030" stroke-linecap="round" stroke-linejoin="round"/>
<path d="M100.27 133.361C100.305 133.331 100.335 133.294 100.355 133.252C100.376 133.21 100.388 133.166 100.391 133.119C100.393 131.695 100.49 130.271 100.681 128.86" stroke="#303030" stroke-linecap="round" stroke-linejoin="round"/>
<path d="M84.248 132.343C84.5342 131.148 84.6482 129.918 84.5868 128.69" stroke="#303030" stroke-linecap="round" stroke-linejoin="round"/>
<path d="M41.0312 153.01L43.8867 154" stroke="#303030" stroke-linecap="round" stroke-linejoin="round"/>
<path d="M40.1602 155.066L42.9672 156.057" stroke="#303030" stroke-linecap="round" stroke-linejoin="round"/>
<path d="M39.5781 157.146L42.2641 158.043" stroke="#303030" stroke-linecap="round" stroke-linejoin="round"/>
<path d="M39.0703 159.253L41.7079 160.074" stroke="#303030" stroke-linecap="round" stroke-linejoin="round"/>
<path d="M38.5625 161.479L41.2485 162.179" stroke="#303030" stroke-linecap="round" stroke-linejoin="round"/>
<path d="M105.906 207.915L106.487 210.697" stroke="#303030" stroke-linecap="round" stroke-linejoin="round"/>
<path d="M108.061 207.673L108.666 210.481" stroke="#303030" stroke-linecap="round" stroke-linejoin="round"/>
<path d="M110.262 207.261L110.842 210.02" stroke="#303030" stroke-linecap="round" stroke-linejoin="round"/>
<path d="M112.439 206.753L113.093 209.464" stroke="#303030" stroke-linecap="round" stroke-linejoin="round"/>
<path d="M114.545 206.077L115.247 208.81" stroke="#303030" stroke-linecap="round" stroke-linejoin="round"/>
<path d="M44.563 152.835L42.4132 152.071C42.0986 151.975 41.7573 152.165 41.4211 152.532C39.4228 154.706 38.5109 160.44 38.5733 161.822C38.5988 162.397 38.7198 163.223 39.2674 163.396L41.0339 163.831" stroke="#303030" stroke-linecap="round" stroke-linejoin="round"/>
<path d="M38.6585 162.515L36.8678 161.813C35.1774 161.212 33.3613 161.054 31.5926 161.353C25.6553 161.618 19.7101 161.056 13.9277 159.683C16.857 156.152 27.8902 151.554 35.1739 149.691C38.4356 151.183 37.0308 150.547 41.4146 152.522" stroke="#303030" stroke-linecap="round" stroke-linejoin="round"/>
<path d="M16.6953 160.239C20.2767 157.021 33.3795 152.424 37.7874 150.903" stroke="#303030" stroke-linecap="round" stroke-linejoin="round"/>
<path d="M116.385 205.278L116.821 207.6C116.858 207.846 116.674 208.083 116.216 208.35C112.925 209.799 109.381 210.589 105.786 210.673C105.23 210.627 104.867 210.504 104.794 210.291L104.262 207.92" stroke="#303030" stroke-linecap="round" stroke-linejoin="round"/>
<path d="M116.241 208.331L117.642 213.795C123.102 213.932 130.935 216.678 135.065 219.017C126.299 222.288 117.216 224.641 107.963 226.034C107.136 224.172 106.903 219.15 107.092 216.934L105.785 210.667" stroke="#303030" stroke-linecap="round" stroke-linejoin="round"/>
<path d="M107.334 223.379C115.455 222.231 123.414 220.137 131.049 217.138" stroke="#303030" stroke-linecap="round" stroke-linejoin="round"/>
<path d="M95.4048 92.1493C98.1392 84.2365 91.6299 77.6558 82.8216 81.9605C82.8216 81.9605 82.2651 81.3543 82.2167 81.3072C81.6743 80.78 81.054 80.3392 80.3776 80.0005C78.2326 79.0109 75.7925 78.87 73.5479 79.6062C71.3032 80.3424 69.4206 81.9012 68.2784 83.969C67.0705 86.2679 66.7766 88.9385 67.4557 91.445C67.8377 92.8982 69.6819 96.1153 71.2306 96.6477C71.2306 96.6477 69.1521 98.511 69.6093 102.818C70.0971 107.416 77.9017 110.992 83.4992 103.352C87.1723 98.3378 90.1054 97.8831 90.3957 98.9236C90.0878 97.8171 89.7243 96.7268 89.3068 95.6568C87.1532 95.3665 87.6155 92.7963 89.1616 93.479C89.68 93.707 90.1028 93.8381 90.0812 93.2854C89.9398 89.7537 92.3736 88.3184 94.6305 91.0833L95.3806 92.1468L95.4048 92.1493Z" stroke="#303030" stroke-linecap="round" stroke-linejoin="round"/>
<path d="M82.4821 121.6C77.4246 126.246 70.2097 131.986 64.4543 136.482C64.2139 136.669 63.92 136.775 63.6152 136.784C63.3106 136.793 63.011 136.704 62.7604 136.53C60.31 134.732 58.3335 132.366 57.0012 129.634C56.8505 129.337 56.8063 128.997 56.8758 128.671C56.9453 128.345 57.1245 128.053 57.3833 127.843C65.2885 121.44 71.631 115.744 80.0814 108.194C81.8192 106.71 83.8976 105.679 86.1309 105.193C87.5701 104.848 87.8389 104.763 88.0057 104.302C88.1238 103.816 88.1282 103.309 88.0184 102.821C88.0184 102.12 96.4395 102.12 96.4395 102.821C96.3962 103.409 96.4578 103.999 96.6216 104.566C96.8317 104.988 98.2289 105.173 98.6173 105.216C99.6404 105.339 100.619 105.707 101.47 106.288C102.321 106.87 103.019 107.647 103.505 108.556C106.461 113.988 112.822 128.011 112.822 128.011L128.769 120.801C130.487 120.051 135.084 130.722 133.366 131.472L114.346 140.063C112.435 140.956 110.253 141.08 108.253 140.409C106.253 139.737 104.588 138.322 103.602 136.457L100.529 130.77" stroke="#303030" stroke-linecap="round" stroke-linejoin="round"/>
<path d="M141.213 121.163C140.125 121.454 138.797 123.193 139.447 124.236C140.153 125.371 142.938 123.08 143.488 122.229C143.675 121.918 143.758 121.554 143.724 121.192C143.708 121.033 143.67 120.878 143.613 120.731" stroke="#303030" stroke-linecap="round" stroke-linejoin="round"/>
<path d="M138.527 116.397C139.129 110.615 137.48 110.781 136.954 112.258C136.579 113.309 136.563 114.525 135.871 115.623" stroke="#303030" stroke-linecap="round" stroke-linejoin="round"/>
<path d="M137.34 123.609C138.756 122.36 138.774 119.352 138.655 117.641" stroke="#303030" stroke-linecap="round" stroke-linejoin="round"/>
<path d="M140.704 121.382L139.857 120.148" stroke="#303030" stroke-linecap="round" stroke-linejoin="round"/>
<path d="M139.47 124.286C139.446 124.286 139.421 124.309 139.397 124.309C137.703 125.035 138.506 127.133 140.196 126.535C141.452 126.095 142.325 125.762 143.317 125.375C143.599 125.272 143.834 125.074 143.983 124.815C144.076 124.652 144.132 124.471 144.149 124.286" stroke="#303030" stroke-linecap="round" stroke-linejoin="round"/>
<path d="M138.979 126.472C138.46 127.317 139.208 128.443 140.486 128.01C141.696 127.599 142.524 127.257 143.462 126.897C143.658 126.836 143.837 126.726 143.978 126.578C144.119 126.429 144.221 126.246 144.272 126.047C144.323 125.848 144.322 125.639 144.27 125.441C144.217 125.242 144.114 125.06 143.972 124.913" stroke="#303030" stroke-linecap="round" stroke-linejoin="round"/>
<path d="M138.865 127.382C138.429 128.108 138.937 129.147 140.171 129.005C141.43 128.857 142.324 128.684 143.317 128.521C143.544 128.498 143.76 128.411 143.941 128.271C144.121 128.13 144.258 127.942 144.337 127.727C144.415 127.513 144.431 127.28 144.383 127.057C144.336 126.833 144.226 126.628 144.067 126.464" stroke="#303030" stroke-linecap="round" stroke-linejoin="round"/>
<path d="M138.72 127.745C137.846 128.402 136.788 128.767 135.695 128.786" stroke="#303030" stroke-linecap="round" stroke-linejoin="round"/>
<path d="M129.67 121.122L131.364 120.371C132.453 119.887 136.542 129.228 135.453 129.712L133.759 130.558" stroke="#303030" stroke-linecap="round" stroke-linejoin="round"/>
<path d="M130.541 122.18L132.428 121.284" stroke="#303030" stroke-linecap="round" stroke-linejoin="round"/>
<path d="M131.484 123.752L133.372 122.906" stroke="#303030" stroke-linecap="round" stroke-linejoin="round"/>
<path d="M132.162 125.133L134.074 124.334" stroke="#303030" stroke-linecap="round" stroke-linejoin="round"/>
<path d="M132.889 126.898L134.825 126.149" stroke="#303030" stroke-linecap="round" stroke-linejoin="round"/>
<path d="M133.492 128.786L135.452 128.108" stroke="#303030" stroke-linecap="round" stroke-linejoin="round"/>
<path d="M7.00781 226.015H248.992" stroke="#303030" stroke-linecap="round" stroke-linejoin="round"/>
<path d="M219.01 226.015V148.193" stroke="#303030" stroke-linecap="round" stroke-linejoin="round"/>
<path d="M219.01 155.065H106.826" stroke="#303030" stroke-linecap="round" stroke-linejoin="round"/>
<path d="M219.011 170.626H110.65" stroke="#303030" stroke-linecap="round" stroke-linejoin="round"/>
<path d="M104.625 209.585C102.017 211.465 99.892 213.937 98.424 216.798C96.9559 219.658 96.1868 222.826 96.1797 226.04" stroke="#303030" stroke-linecap="round" stroke-linejoin="round"/>
<path d="M204.781 226.04C204.781 214.183 193.65 201.527 177.558 208.617C177.486 204.715 175.893 200.994 173.118 198.25C170.342 195.506 166.604 193.954 162.7 193.928H138.284C134.38 193.954 130.641 195.506 127.866 198.25C125.09 200.995 123.497 204.715 123.426 208.619C121.284 207.647 119.009 207.003 116.676 206.708" stroke="#303030" stroke-linecap="round" stroke-linejoin="round"/>
<path d="M221.672 145.531C221.672 146.053 221.517 146.563 221.227 146.997C220.937 147.43 220.525 147.769 220.044 147.967C219.561 148.167 219.031 148.22 218.519 148.118C218.007 148.016 217.537 147.765 217.169 147.395C216.8 147.027 216.549 146.557 216.447 146.045C216.345 145.533 216.398 145.004 216.598 144.521C216.796 144.04 217.135 143.628 217.568 143.338C218.002 143.047 218.512 142.893 219.034 142.893C219.733 142.896 220.403 143.174 220.897 143.668C221.391 144.162 221.669 144.832 221.672 145.531Z" stroke="#303030" stroke-linecap="round" stroke-linejoin="round"/>
<path d="M200.207 58.7556V62.6032" stroke="#303030" stroke-linecap="round" stroke-linejoin="round"/>
<path d="M196.578 66.2329H192.73" stroke="#303030" stroke-linecap="round" stroke-linejoin="round"/>
<path d="M207.685 66.2329H203.838" stroke="#303030" stroke-linecap="round" stroke-linejoin="round"/>
<path d="M200.207 73.7344V69.8628" stroke="#303030" stroke-linecap="round" stroke-linejoin="round"/>
<path d="M203.838 66.2303C203.361 66.231 202.889 66.1376 202.448 65.9555C202.007 65.7733 201.606 65.5059 201.27 65.1688C200.933 64.8315 200.665 64.4311 200.483 63.9905C200.301 63.5498 200.207 63.0774 200.208 62.6006C200.208 63.0774 200.115 63.5498 199.933 63.9905C199.751 64.4311 199.483 64.8315 199.146 65.1688C198.809 65.5059 198.408 65.7733 197.968 65.9555C197.527 66.1376 197.054 66.231 196.578 66.2303C197.054 66.2297 197.527 66.3232 197.968 66.5053C198.408 66.6874 198.809 66.9548 199.146 67.292C199.483 67.6291 199.751 68.0296 199.933 68.4704C200.115 68.911 200.208 69.3833 200.208 69.8601C200.207 69.3833 200.301 68.911 200.483 68.4704C200.665 68.0296 200.933 67.6291 201.27 67.292C201.606 66.9548 202.007 66.6874 202.448 66.5053C202.889 66.3232 203.361 66.2297 203.838 66.2303Z" stroke="#303030" stroke-linecap="round" stroke-linejoin="round"/>
<path d="M32.5371 88.2305V90.4313" stroke="#303030" stroke-linecap="round" stroke-linejoin="round"/>
<path d="M30.4567 92.5122H28.2305" stroke="#303030" stroke-linecap="round" stroke-linejoin="round"/>
<path d="M36.8212 92.5122H34.6191" stroke="#303030" stroke-linecap="round" stroke-linejoin="round"/>
<path d="M32.5371 96.8208V94.5933" stroke="#303030" stroke-linecap="round" stroke-linejoin="round"/>
<path d="M34.6172 92.5123C34.3436 92.5123 34.0729 92.4585 33.8202 92.3536C33.5675 92.2489 33.338 92.0955 33.1448 91.9019C32.9515 91.7084 32.7982 91.4787 32.6938 91.2259C32.5894 90.973 32.5358 90.7022 32.5361 90.4287C32.5361 90.9807 32.3168 91.51 31.9266 91.9002C31.5364 92.2905 31.0071 92.5098 30.4551 92.5098C31.0071 92.5098 31.5364 92.7291 31.9266 93.1193C32.3168 93.5095 32.5361 94.0389 32.5361 94.5908C32.5372 94.0395 32.7569 93.511 33.147 93.1214C33.5371 92.7316 34.0659 92.5127 34.6172 92.5123Z" stroke="#303030" stroke-linecap="round" stroke-linejoin="round"/>
<path d="M241.986 157.123V166.561" stroke="#303030" stroke-linecap="round" stroke-linejoin="round"/>
<path d="M246.693 161.829H237.256" stroke="#303030" stroke-linecap="round" stroke-linejoin="round"/>
<path d="M93.3242 102.337C93.3242 108.896 96.9896 111.098 96.3248 119.736C96.0153 123.754 95.0908 127.674 95.0908 130.48" stroke="#303030" stroke-linecap="round" stroke-linejoin="round"/>
<path d="M76.9414 126.487L81.1519 118.382C82.7076 121.659 83.8623 125.111 84.5906 128.665C84.8861 130.504 100.683 131.544 100.683 128.86C101.142 126.822 101.6 124.911 101.892 123.341C103.259 116.008 102.159 113.566 100.32 110.732" stroke="#303030" stroke-linecap="round" stroke-linejoin="round"/>
<path d="M154.793 108.167L166.088 91.0654C161.16 94.8391 153.447 103.049 147.281 110.962C145.723 112.585 142.568 115.446 140.704 114.146C140.576 113.659 140.291 113.229 139.892 112.922C139.494 112.616 139.005 112.45 138.502 112.452C138.586 112.883 138.634 113.32 138.647 113.758C140.002 114.363 139.397 116.275 137.755 116.664C137.565 116.732 137.362 116.759 137.16 116.744C136.959 116.729 136.762 116.672 136.585 116.575C136.407 116.479 136.25 116.347 136.126 116.186C136.004 116.026 135.915 115.841 135.868 115.645C135.841 115.375 135.882 115.103 135.988 114.853C136.093 114.604 136.26 114.385 136.473 114.217C136.618 113.707 136.691 113.198 136.836 112.715C134.997 113.418 133.859 115.426 134.876 116.877C135.23 117.311 135.701 117.631 136.235 117.799C136.768 117.967 137.339 117.975 137.876 117.822C139.554 117.453 141.361 116.981 143.244 116.43C142.799 117.075 142.375 117.708 141.971 118.331C141.39 119.222 140.834 120.12 140.325 120.943C140.002 121.445 139.802 122.017 139.745 122.613C140.18 122.059 140.77 121.647 141.439 121.428C141.552 121.229 141.703 121.056 141.886 120.917C142.066 120.778 142.274 120.678 142.496 120.621C142.717 120.565 142.948 120.554 143.173 120.588C143.4 120.623 143.616 120.703 143.81 120.823C144.971 121.842 143.471 124.162 141.922 123.726C141.46 124.08 140.934 124.343 140.374 124.501C141.439 125.589 143.35 125.251 144.584 123.872C145.152 123.342 145.492 122.611 145.533 121.835C145.574 121.059 145.312 120.297 144.802 119.71C144.833 117.173 147.349 115.447 149.205 114.52C158.884 111.162 169.214 106.447 174.445 102.891L154.793 108.167ZM151.399 111.751C151.314 111.828 151.213 111.886 151.105 111.924C150.997 111.961 150.882 111.977 150.768 111.971C150.653 111.964 150.541 111.935 150.438 111.884C150.335 111.834 150.242 111.764 150.165 111.679C150.089 111.593 150.03 111.493 149.993 111.384C149.955 111.276 149.94 111.161 149.946 111.047C149.953 110.932 149.982 110.82 150.033 110.717C150.082 110.613 150.152 110.521 150.238 110.445C150.324 110.368 150.424 110.31 150.532 110.272C150.64 110.234 150.755 110.218 150.87 110.225C150.984 110.232 151.096 110.261 151.201 110.311C151.304 110.361 151.396 110.431 151.472 110.517C151.548 110.603 151.607 110.703 151.645 110.811C151.682 110.92 151.699 111.035 151.691 111.149C151.685 111.264 151.655 111.376 151.606 111.479C151.555 111.583 151.486 111.675 151.399 111.751Z" stroke="#303030" stroke-linejoin="round"/>
<path d="M92.2343 168.471C91.097 164.382 90.1049 160.753 89.3789 157.946C91.0244 154.316 92.5973 150.516 94.146 146.547C94.0734 146.959 91.581 162.373 92.2343 168.471Z" stroke="#303030" stroke-linecap="round" stroke-linejoin="round"/>
<path d="M132.307 121.019C133.36 120.611 133.961 118.128 134.874 116.827" stroke="#303030" stroke-linecap="round" stroke-linejoin="round"/>
</svg>
