<svg width="256" height="256" viewBox="0 0 256 256" fill="none" xmlns="http://www.w3.org/2000/svg">
<path d="M166.269 72.6583L160.971 95.3806C139.215 98.2118 132.075 95.5742 127.363 98.5799C124.412 100.467 122.959 102.04 121.242 102.936C120.71 103.305 120.142 103.621 119.548 103.879C100.431 111.405 89.518 120.673 89.518 120.673C83.0328 126.214 77.3946 134.515 70.2803 145.96C74.5848 150.013 79.8979 152.836 85.6654 154.134C91.0145 143.995 96.5776 136.058 103.209 130.613C105.334 129.008 107.574 127.56 109.911 126.283L108.12 130.01C111.256 125.621 136.94 126.223 136.94 130.615L138.054 116.987L135.804 113.962L165.591 111.083C168.253 110.827 170.764 109.733 172.765 107.959C174.765 106.185 176.151 103.822 176.723 101.21L182.361 75.4628C178.321 71.9617 172.513 71.521 166.269 72.6583Z" fill="#E5DFD5"/>
<path d="M127.043 91.3204C127.408 92.1915 127.769 93.0627 128.181 93.9096C130.771 93.4499 131.907 92.6755 132.102 91.2478C131.786 92.38 129.584 92.0846 127.043 91.3204Z" fill="#008765"/>
<path d="M133.674 128.315L132.102 133.324C132.289 133.324 136.942 132.279 136.942 130.614C136.94 129.742 135.732 128.944 133.674 128.315Z" fill="#008765"/>
<path d="M108.144 130.009C107.057 131.654 110.759 132.767 110.759 132.767C111.317 132.493 111.89 132.251 112.476 132.041L113.855 127.686C110.88 128.242 108.772 129.065 108.144 130.009Z" fill="#008765"/>
<path d="M154.776 156.796L153.492 163.427L163.123 153.142C162.978 153.217 159.64 154.812 154.776 156.796Z" fill="#008765"/>
<path d="M44.6731 210.541L39.9289 215.163C37.1232 210.057 39.4946 208.073 44.6731 210.541Z" fill="#008765"/>
<path d="M56.7968 221.793C55.8047 222.882 54.1592 224.745 52.5137 226.754C54.2254 227.532 56.9713 228.356 57.8119 226.663C58.334 225.622 57.9023 223.853 56.7968 221.793Z" fill="#008765"/>
<path d="M145.968 202.168C145.773 203.33 147.104 204.491 149.017 205.266C149.33 203.306 149.67 201.152 150.036 199.047C147.71 199.797 146.161 200.813 145.968 202.168Z" fill="#008765"/>
<path d="M167.892 199.458C167.674 201.055 167.262 203.16 167.021 205.58C169.391 204.782 170.892 203.62 170.892 202.362C170.892 201.249 169.774 200.232 167.892 199.458Z" fill="#008765"/>
<path d="M176.869 238.684C172.019 244.854 142.706 216.155 148.484 211.823C150.945 209.978 159.692 216.281 166.864 223.36C172.99 229.416 177.962 236.052 176.869 238.684Z" fill="#008765"/>
<path d="M36.4279 234.473C35.7975 229.124 34.6131 223.393 31.8048 222.713C30.4509 225.132 30.9349 228.302 31.829 230.771C33.2809 234.788 34.5876 241.563 36.1134 244.927C36.6913 246.102 37.5765 247.1 38.6752 247.813C39.7738 248.527 41.045 248.93 42.354 248.979C39.1025 246.851 37.0495 239.918 36.4279 234.473Z" fill="#008765"/>
<path d="M128.713 80.9827C128.713 80.9827 127.503 76.9173 121.769 75.5864C114.96 73.8346 107.964 72.9168 100.933 72.8533C95.3192 72.9985 92.5135 74.3536 93.0458 76.3378C93.3515 77.4484 94.676 78.8265 97.1939 80.2656C94.3857 79.5015 91.501 79.0595 88.5921 78.9513C83.8976 78.7819 79.8577 79.7014 82.6405 83.3312C83.4811 84.3717 84.4388 85.3129 85.4959 86.1331C83.4198 86.0311 81.3388 86.1121 79.2769 86.3751C70.9731 87.4538 70.0484 91.7064 72.1626 94.6751C75.9325 99.9746 91.9327 99.2728 95.1498 99.1034C105.033 98.6243 114.815 96.8924 124.262 93.9492C124.991 91.6067 125.541 89.2122 125.907 86.7865C122.711 84.5844 124.506 81.8984 126.124 83.6891C127.066 84.7296 126.971 82.6702 126.464 81.1724C127.19 80.9446 127.958 80.8798 128.713 80.9827Z" fill="#008765"/>
<path d="M135.78 113.965L138.054 116.99L138.32 113.723L135.78 113.965Z" fill="#008765"/>
<path d="M71.7987 166.935L63.5713 163.16" stroke="#303030" stroke-linecap="round" stroke-linejoin="round"/>
<path d="M80.1253 170.735L73.5166 167.71" stroke="#303030" stroke-linecap="round" stroke-linejoin="round"/>
<path d="M146.186 200.958L104.879 182.059" stroke="#303030" stroke-linecap="round" stroke-linejoin="round"/>
<path d="M137.595 122.701L217.061 106.73" stroke="#303030" stroke-linecap="round" stroke-linejoin="round"/>
<path d="M105.217 129.21L108.872 128.484" stroke="#303030" stroke-linecap="round" stroke-linejoin="round"/>
<path d="M30.4688 144.237L77.5346 134.776" stroke="#303030" stroke-linecap="round" stroke-linejoin="round"/>
<path d="M168.642 204.903L170.601 208.387" stroke="#303030" stroke-linecap="round" stroke-linejoin="round"/>
<path d="M143.717 160.789L151.363 174.316" stroke="#303030" stroke-linecap="round" stroke-linejoin="round"/>
<path d="M76.9785 42.604L94.6943 73.9689" stroke="#303030" stroke-linecap="round" stroke-linejoin="round"/>
<path d="M113.131 106.609L108.138 97.7686" stroke="#303030" stroke-linecap="round" stroke-linejoin="round"/>
<path d="M209.876 93.9529L217.062 106.731C217.881 108.519 218.305 110.463 218.305 112.43C218.305 114.396 217.881 116.34 217.062 118.128L179.217 200.887C178.129 203.26 176.391 205.276 174.205 206.702C172.019 208.129 169.473 208.906 166.863 208.945" stroke="#303030" stroke-linecap="round" stroke-linejoin="round"/>
<path d="M151.34 27.601L170.359 23.7534L179.87 40.6439" stroke="#303030" stroke-linecap="round" stroke-linejoin="round"/>
<path d="M91.4234 39.7002L76.9783 42.604C75.0918 43.1631 73.3469 44.1197 71.8609 45.4094C70.375 46.6992 69.1825 48.2922 68.3636 50.0813L30.5186 132.84C29.7602 134.487 29.3346 136.268 29.2662 138.08C29.1977 139.892 29.4879 141.7 30.1199 143.4C30.7519 145.099 31.7134 146.658 32.9491 147.985C34.1849 149.312 35.6705 150.382 37.3209 151.134L54.8405 159.168" stroke="#303030" stroke-linecap="round" stroke-linejoin="round"/>
<path d="M84.2139 55.4049L106.38 7.00806L224.854 61.2367L202.689 109.633" stroke="#303030" stroke-linecap="round" stroke-linejoin="round"/>
<path d="M144.492 96.784L132.125 91.1216" stroke="#303030" stroke-linecap="round" stroke-linejoin="round"/>
<path d="M124.261 93.9045C123.512 96.9938 122.5 100.013 121.237 102.931" stroke="#303030" stroke-linecap="round" stroke-linejoin="round"/>
<path d="M128.181 93.9044C134.303 92.7913 132.392 89.9843 128.714 80.9583" stroke="#303030" stroke-linecap="round" stroke-linejoin="round"/>
<path d="M130.045 97.5342C128.888 95.5331 127.884 93.4469 127.043 91.2935C129.591 92.0679 131.786 92.3583 132.102 91.2209" stroke="#303030" stroke-linecap="round" stroke-linejoin="round"/>
<path d="M112.476 132.041L113.855 127.686" stroke="#303030" stroke-linecap="round" stroke-linejoin="round"/>
<path d="M133.674 128.315L132.125 133.324" stroke="#303030" stroke-linecap="round" stroke-linejoin="round"/>
<path d="M123.414 164.443L57.5952 226.996" stroke="#303030" stroke-linecap="round" stroke-linejoin="round"/>
<path d="M110.692 132.747C110.198 132.586 107.141 131.52 108.145 130.009C110.028 127.172 121.06 126.892 124.733 127.035C127.823 127.154 138.097 128.164 136.854 131.008C136.457 131.915 134.708 132.731 132.124 133.324" stroke="#303030" stroke-linecap="round" stroke-linejoin="round"/>
<path d="M154.776 156.796C159.664 154.812 162.978 153.215 163.124 153.142L153.472 163.426" stroke="#303030" stroke-linecap="round" stroke-linejoin="round"/>
<path d="M145.992 201.878L154.745 156.796C143.591 161.297 124.325 167.787 116.294 162.527C106.877 156.363 111.019 143.822 111.019 143.822" stroke="#303030" stroke-linecap="round" stroke-linejoin="round"/>
<path d="M73.2034 148.378C71.7658 151.141 70.064 153.759 68.1218 156.194C66.4621 158.14 64.5868 159.892 62.5319 161.416C59.5071 163.643 59.4855 164.282 63.4235 163.206C64.944 162.81 66.4198 162.259 67.8276 161.561C72.6715 159.202 77.2336 156.304 81.4271 152.922" stroke="#303030" stroke-linecap="round" stroke-linejoin="round"/>
<path d="M71.3643 159.724C73.9293 158.611 72.0724 163.935 71.8482 166.451C71.6597 168.557 72.2061 170.782 74.7266 165.483C77.0203 161.245 79.5657 157.149 82.3491 153.215" stroke="#303030" stroke-linecap="round" stroke-linejoin="round"/>
<path d="M63.5242 160.644C61.7343 161.482 59.8713 162.154 57.9586 162.652C54.2791 163.544 54.2804 162.459 54.8128 162.143C56.8938 160.91 60.4268 159.289 62.3143 158.102C65.5563 156.034 68.6525 153.746 71.581 151.253" stroke="#303030" stroke-linecap="round" stroke-linejoin="round"/>
<path d="M59.2156 159.797C58.5623 159.894 58.4897 159.924 58.1764 159.942C54.3772 160.498 54.4727 159.408 55.0306 159.143C57.2301 158.098 60.6446 156.917 62.7486 156.07C65.267 155.288 67.6562 154.138 69.8387 152.658" stroke="#303030" stroke-linecap="round" stroke-linejoin="round"/>
<path d="M176.166 54.1708C178.713 48.2664 177.166 48.8752 175.682 51.1702C173.755 54.1517 169.632 60.293 169.463 60.898C168.933 62.5537 169.555 69.6654 169.68 72.2126" stroke="#303030" stroke-linecap="round" stroke-linejoin="round"/>
<path d="M172.853 58.5749C174.667 56.4939 178.366 50.9512 180.451 47.976C181.418 46.5954 182.338 49.9119 176.63 58.4539" stroke="#303030" stroke-linecap="round" stroke-linejoin="round"/>
<path d="M175.151 59.8091C177.281 57.9942 179.991 55.2101 182.508 52.7431C183.692 51.5816 185.097 53.5417 179.023 60.7286" stroke="#303030" stroke-linecap="round" stroke-linejoin="round"/>
<path d="M177.788 61.1641C179.825 60.3898 181.736 59.725 184.805 58.2845C186.237 57.6133 186.294 59.7033 179.239 65.0843C177.935 66.0789 178.707 67.0685 179.58 69.198C180.276 70.6874 180.503 72.354 180.228 73.9753" stroke="#303030" stroke-linecap="round" stroke-linejoin="round"/>
<path d="M169.56 70.3595C168.892 67.8534 167.917 65.4395 166.656 63.1726C164.136 58.1419 166.147 58.7507 167.359 60.051C168.112 60.8655 168.74 61.787 169.223 62.7854" stroke="#303030" stroke-linecap="round" stroke-linejoin="round"/>
<path d="M52.4642 226.778C57.6146 229.092 59.5123 226.714 56.7486 221.817C53.8073 217.044 49.6367 213.149 44.6736 210.541C39.5206 208.061 37.1479 210.031 39.8874 215.085" stroke="#303030" stroke-linecap="round" stroke-linejoin="round"/>
<path d="M167.06 205.562C168.816 204.966 171.263 203.742 170.843 201.926C170.206 199.196 163.56 198.128 160.435 197.953C156.623 197.737 147.756 198.317 146.122 201.571C145.295 203.216 147.304 204.555 149.017 205.264" stroke="#303030" stroke-linecap="round" stroke-linejoin="round"/>
<path d="M150.034 199.047L147.733 213.275C148.456 219.771 157.213 228.403 162.889 232.952C165.552 235.088 171.881 239.627 175.253 239.627C179.891 239.627 177.096 230.305 171.622 223.487C164.847 215.009 167.037 205.708 167.897 199.434" stroke="#303030" stroke-linecap="round" stroke-linejoin="round"/>
<path d="M44.6735 210.541C40.8972 214.215 35.3876 219.201 33.1308 221.067C30.3289 223.38 30.5836 227.36 31.8228 230.771C33.2773 234.786 34.5725 241.567 36.1072 244.927C36.6833 246.104 37.5681 247.102 38.6671 247.816C39.7661 248.53 41.0383 248.932 42.3479 248.979H51.7368C52.9238 248.979 53.4269 247.856 53.1378 246.717C52.5481 244.373 50.113 242.579 46.6042 240.886C46.617 238.42 47.008 235.972 47.7658 233.626C49.0992 230.457 54.3477 224.456 56.7434 221.817" stroke="#303030" stroke-linecap="round" stroke-linejoin="round"/>
<path d="M31.7988 222.713C34.6007 223.39 35.7979 229.124 36.422 234.473C37.0588 239.916 39.1067 246.85 42.3493 248.979" stroke="#303030" stroke-linecap="round" stroke-linejoin="round"/>
<path d="M97.4018 80.3306C94.7629 78.8545 93.3556 77.4764 93.0461 76.3378C92.5061 74.3561 95.3195 72.9959 100.934 72.8533C107.964 72.9202 114.96 73.8379 121.77 75.5864C127.503 76.9237 128.713 80.9827 128.713 80.9827C127.958 80.881 127.19 80.9471 126.464 81.1762C126.972 82.674 127.068 84.7334 126.124 83.6929C124.507 81.9035 122.713 84.5882 125.908 86.7903C125.541 89.216 124.991 91.6105 124.262 93.953C124.286 94.5822 109.597 98.3635 95.1514 99.1073C91.9317 99.2728 75.9353 99.9809 72.1629 94.6751C71.8419 94.2306 71.6025 93.7301 71.4599 93.199C70.2347 88.586 74.9941 86.9406 79.2772 86.3751C81.3395 86.1165 83.4201 86.0356 85.4962 86.1331C84.4407 85.3111 83.4826 84.371 82.6408 83.3312C79.8682 79.6938 83.8991 78.7806 88.5923 78.9513C91.5729 79.0576 94.5314 79.5207 97.4018 80.3306ZM97.4018 80.3306C98.1278 80.5726 98.5863 80.7903 98.6589 80.9839C98.2246 80.7661 97.789 80.5484 97.4018 80.3306Z" stroke="#303030" stroke-linecap="round" stroke-linejoin="round"/>
<path d="M138.054 116.99L135.78 113.965L138.32 113.723" stroke="#303030" stroke-linecap="round" stroke-linejoin="round"/>
<path d="M117.003 111.715L108.146 130.009" stroke="#303030" stroke-linecap="round" stroke-linejoin="round"/>
<path d="M136.94 130.614L138.316 113.723L165.588 111.085C168.249 110.83 170.761 109.736 172.761 107.962C174.762 106.188 176.147 103.825 176.719 101.212L182.357 75.4654C178.316 71.9566 172.51 71.5172 166.289 72.6825L160.967 95.3806C139.213 98.2119 132.094 95.5921 127.378 98.599C124.425 100.483 122.974 102.059 121.256 102.955C120.724 103.325 120.157 103.641 119.562 103.898C100.452 111.427 89.537 120.692 89.537 120.692C83.0519 126.234 77.4136 134.534 70.2993 145.98C74.6053 150.034 79.9201 152.858 85.6895 154.159C91.0386 144.019 96.6043 136.082 103.233 130.638C105.358 129.032 107.599 127.584 109.936 126.307" stroke="#303030" stroke-linecap="round" stroke-linejoin="round"/>
<path d="M170.892 202.362L180.328 149.464C181.015 145.6 180.32 141.617 178.364 138.214C176.409 134.811 173.318 132.204 169.634 130.852C167.192 129.955 164.573 129.641 161.988 129.936L132.126 133.324C126.295 130.492 119.446 131.122 112.477 132.041C105.955 134.137 98.595 141.819 97.3533 154.134L39.2529 210.081" stroke="#303030" stroke-linecap="round" stroke-linejoin="round"/>
<path d="M18.4424 248.992H235.599" stroke="#303030" stroke-linecap="round" stroke-linejoin="round"/>
<path d="M196.349 216.978L201.31 215.09" stroke="#303030" stroke-linecap="round" stroke-linejoin="round"/>
<path d="M210.092 211.751L215.053 209.863" stroke="#303030" stroke-linecap="round" stroke-linejoin="round"/>
<path d="M202.132 204.08L204.02 209.016" stroke="#303030" stroke-linecap="round" stroke-linejoin="round"/>
<path d="M207.382 217.824L209.271 222.761" stroke="#303030" stroke-linecap="round" stroke-linejoin="round"/>
<path d="M196.591 209.331L201.406 211.509" stroke="#303030" stroke-linecap="round" stroke-linejoin="round"/>
<path d="M209.997 215.332L214.837 217.51" stroke="#303030" stroke-linecap="round" stroke-linejoin="round"/>
<path d="M209.802 204.298L207.624 209.137" stroke="#303030" stroke-linecap="round" stroke-linejoin="round"/>
<path d="M203.778 217.704L201.623 222.543" stroke="#303030" stroke-linecap="round" stroke-linejoin="round"/>
<path d="M29.5967 171.412L32.3094 184.987" stroke="#303030" stroke-linecap="round" stroke-linejoin="round"/>
<path d="M37.7525 176.857L24.1772 179.567" stroke="#303030" stroke-linecap="round" stroke-linejoin="round"/>
<path d="M237.558 89.6939C237.558 90.0091 237.489 90.3204 237.354 90.6053C237.22 90.8903 237.023 91.1418 236.78 91.3417C236.536 91.5416 236.251 91.6849 235.945 91.7611C235.64 91.8374 235.321 91.8447 235.012 91.7826C234.599 91.7 234.22 91.4969 233.922 91.1991C233.625 90.9013 233.422 90.522 233.339 90.1091C233.278 89.8002 233.286 89.4816 233.363 89.1762C233.44 88.8708 233.583 88.5862 233.783 88.3428C233.983 88.0995 234.234 87.9035 234.519 87.7689C234.804 87.6343 235.115 87.5645 235.429 87.5645C235.994 87.5655 236.535 87.7902 236.934 88.1894C237.333 88.5885 237.557 89.1296 237.558 89.6939Z" stroke="#303030" stroke-linecap="round" stroke-linejoin="round"/>
<path d="M128.181 131.948C128.181 131.948 119.832 143.37 125.379 149.758C130.774 155.977 155.242 148.049 167.484 143.563C168.191 143.304 168.953 143.236 169.694 143.366C170.436 143.495 171.13 143.818 171.707 144.302C172.283 144.785 172.722 145.412 172.979 146.12C173.236 146.827 173.302 147.59 173.171 148.331" stroke="#303030" stroke-linecap="round" stroke-linejoin="round" stroke-dasharray="3.57 5.95"/>
<path d="M173.167 148.327L164.262 197.909" stroke="#303030" stroke-linecap="round" stroke-linejoin="round" stroke-dasharray="3.57 5.95"/>
<path d="M113.299 159.845L52.4897 216.348" stroke="#303030" stroke-linecap="round" stroke-linejoin="round" stroke-dasharray="3.57 5.95"/>
<path d="M163.004 95.1628L160.971 95.3806" stroke="#303030" stroke-linecap="round" stroke-linejoin="round"/>
</svg>
