<svg width="256" height="256" viewBox="0 0 256 256" fill="none" xmlns="http://www.w3.org/2000/svg">
<path d="M166.268 72.6583L160.97 95.3806C139.214 98.2118 132.074 95.5742 127.362 98.5799C124.411 100.467 122.958 102.04 121.241 102.936C120.709 103.305 120.141 103.621 119.547 103.879C100.431 111.405 89.517 120.673 89.517 120.673C83.0318 126.214 77.3936 134.515 70.2793 145.96C74.5838 150.013 79.897 152.836 85.6644 154.134C91.0135 143.995 96.5766 136.058 103.208 130.613C105.333 129.008 107.573 127.56 109.91 126.283L108.119 130.01C111.255 125.621 136.94 126.223 136.94 130.615L138.053 116.987L135.803 113.962L165.59 111.083C168.252 110.827 170.763 109.733 172.764 107.959C174.764 106.185 176.15 103.822 176.722 101.21L182.36 75.4628C178.32 71.9617 172.512 71.521 166.268 72.6583Z" fill="#E5DFD5"/>
<path d="M127.043 91.3204C127.407 92.1915 127.769 93.0627 128.18 93.9096C130.771 93.4499 131.907 92.6755 132.102 91.2478C131.786 92.38 129.584 92.0846 127.043 91.3204Z" fill="#008765"/>
<path d="M133.673 128.315L132.102 133.324C132.289 133.324 136.941 132.279 136.941 130.614C136.94 129.742 135.731 128.944 133.673 128.315Z" fill="#008765"/>
<path d="M108.143 130.009C107.056 131.654 110.758 132.767 110.758 132.767C111.316 132.493 111.889 132.251 112.475 132.041L113.854 127.686C110.879 128.242 108.771 129.065 108.143 130.009Z" fill="#008765"/>
<path d="M154.776 156.796L153.492 163.427L163.123 153.142C162.978 153.217 159.64 154.812 154.776 156.796Z" fill="#008765"/>
<path d="M44.6731 210.541L39.9289 215.163C37.1232 210.057 39.4946 208.073 44.6731 210.541Z" fill="#008765"/>
<path d="M56.7968 221.793C55.8047 222.882 54.1592 224.745 52.5137 226.754C54.2254 227.532 56.9713 228.356 57.8119 226.663C58.334 225.622 57.9023 223.853 56.7968 221.793Z" fill="#008765"/>
<path d="M145.968 202.168C145.773 203.33 147.104 204.491 149.017 205.266C149.33 203.306 149.67 201.152 150.036 199.047C147.71 199.797 146.162 200.813 145.968 202.168Z" fill="#008765"/>
<path d="M167.891 199.458C167.673 201.055 167.262 203.16 167.02 205.58C169.39 204.782 170.891 203.62 170.891 202.362C170.891 201.249 169.773 200.232 167.891 199.458Z" fill="#008765"/>
<path d="M176.868 238.684C172.018 244.854 142.705 216.155 148.483 211.823C150.944 209.978 159.691 216.281 166.863 223.36C172.989 229.416 177.961 236.052 176.868 238.684Z" fill="#008765"/>
<path d="M36.4274 234.473C35.797 229.124 34.6126 223.393 31.8043 222.713C30.4504 225.132 30.9344 228.302 31.8285 230.771C33.2804 234.788 34.5871 241.563 36.1129 244.927C36.6909 246.102 37.5761 247.1 38.6747 247.813C39.7733 248.527 41.0445 248.93 42.3535 248.979C39.102 246.851 37.049 239.918 36.4274 234.473Z" fill="#008765"/>
<path d="M128.713 80.9827C128.713 80.9827 127.503 76.9173 121.769 75.5864C114.96 73.8346 107.963 72.9168 100.933 72.8533C95.3187 72.9985 92.513 74.3536 93.0453 76.3378C93.351 77.4484 94.6756 78.8265 97.1935 80.2656C94.3852 79.5015 91.5005 79.0595 88.5916 78.9513C83.8971 78.7819 79.8572 79.7014 82.64 83.3312C83.4806 84.3717 84.4384 85.3129 85.4954 86.1331C83.4194 86.0311 81.3383 86.1121 79.2765 86.3751C70.9726 87.4538 70.048 91.7064 72.1621 94.6751C75.932 99.9746 91.9322 99.2728 95.1493 99.1034C105.032 98.6243 114.815 96.8924 124.261 93.9492C124.99 91.6067 125.54 89.2122 125.907 86.7865C122.71 84.5844 124.506 81.8984 126.123 83.6891C127.066 84.7296 126.97 82.6702 126.463 81.1724C127.19 80.9446 127.958 80.8798 128.713 80.9827Z" fill="#008765"/>
<path d="M135.779 113.965L138.053 116.99L138.319 113.723L135.779 113.965Z" fill="#008765"/>
<path d="M71.7978 166.935L63.5703 163.16" stroke="#303030" stroke-linecap="round" stroke-linejoin="round"/>
<path d="M80.1243 170.735L73.5156 167.71" stroke="#303030" stroke-linecap="round" stroke-linejoin="round"/>
<path d="M146.186 200.958L104.879 182.059" stroke="#303030" stroke-linecap="round" stroke-linejoin="round"/>
<path d="M137.594 122.701L217.06 106.73" stroke="#303030" stroke-linecap="round" stroke-linejoin="round"/>
<path d="M105.215 129.21L108.87 128.484" stroke="#303030" stroke-linecap="round" stroke-linejoin="round"/>
<path d="M30.4688 144.237L77.5346 134.776" stroke="#303030" stroke-linecap="round" stroke-linejoin="round"/>
<path d="M168.641 204.903L170.599 208.387" stroke="#303030" stroke-linecap="round" stroke-linejoin="round"/>
<path d="M143.717 160.789L151.362 174.316" stroke="#303030" stroke-linecap="round" stroke-linejoin="round"/>
<path d="M76.9766 42.604L94.6923 73.9689" stroke="#303030" stroke-linecap="round" stroke-linejoin="round"/>
<path d="M113.129 106.609L108.137 97.7686" stroke="#303030" stroke-linecap="round" stroke-linejoin="round"/>
<path d="M209.875 93.9529L217.06 106.731C217.879 108.519 218.303 110.463 218.303 112.43C218.303 114.396 217.879 116.34 217.06 118.128L179.215 200.887C178.128 203.26 176.39 205.276 174.204 206.702C172.017 208.129 169.471 208.906 166.861 208.945" stroke="#303030" stroke-linecap="round" stroke-linejoin="round"/>
<path d="M151.34 27.601L170.359 23.7534L179.87 40.6439" stroke="#303030" stroke-linecap="round" stroke-linejoin="round"/>
<path d="M91.4229 39.7002L76.9778 42.604C75.0913 43.1631 73.3464 44.1197 71.8604 45.4094C70.3745 46.6992 69.182 48.2922 68.3631 50.0813L30.5181 132.84C29.7597 134.487 29.3341 136.268 29.2657 138.08C29.1972 139.892 29.4874 141.7 30.1194 143.4C30.7514 145.099 31.7129 146.658 32.9486 147.985C34.1844 149.312 35.6701 150.382 37.3204 151.134L54.8401 159.168" stroke="#303030" stroke-linecap="round" stroke-linejoin="round"/>
<path d="M84.2129 55.4049L106.379 7.00806L224.853 61.2367L202.688 109.633" stroke="#303030" stroke-linecap="round" stroke-linejoin="round"/>
<path d="M144.492 96.784L132.125 91.1216" stroke="#303030" stroke-linecap="round" stroke-linejoin="round"/>
<path d="M124.26 93.9045C123.511 96.9938 122.499 100.013 121.236 102.931" stroke="#303030" stroke-linecap="round" stroke-linejoin="round"/>
<path d="M128.18 93.9044C134.302 92.7913 132.391 89.9843 128.713 80.9583" stroke="#303030" stroke-linecap="round" stroke-linejoin="round"/>
<path d="M130.045 97.5342C128.887 95.5331 127.884 93.4469 127.043 91.2935C129.59 92.0679 131.786 92.3583 132.102 91.2209" stroke="#303030" stroke-linecap="round" stroke-linejoin="round"/>
<path d="M112.475 132.041L113.854 127.686" stroke="#303030" stroke-linecap="round" stroke-linejoin="round"/>
<path d="M133.674 128.315L132.125 133.324" stroke="#303030" stroke-linecap="round" stroke-linejoin="round"/>
<path d="M123.412 164.443L57.5938 226.996" stroke="#303030" stroke-linecap="round" stroke-linejoin="round"/>
<path d="M110.692 132.747C110.197 132.586 107.141 131.52 108.144 130.009C110.028 127.172 121.06 126.892 124.733 127.035C127.823 127.154 138.097 128.164 136.854 131.008C136.456 131.915 134.708 132.731 132.124 133.324" stroke="#303030" stroke-linecap="round" stroke-linejoin="round"/>
<path d="M154.775 156.796C159.663 154.812 162.977 153.215 163.122 153.142L153.471 163.426" stroke="#303030" stroke-linecap="round" stroke-linejoin="round"/>
<path d="M145.991 201.878L154.745 156.796C143.591 161.297 124.325 167.787 116.294 162.527C106.877 156.363 111.018 143.822 111.018 143.822" stroke="#303030" stroke-linecap="round" stroke-linejoin="round"/>
<path d="M73.2025 148.378C71.7649 151.141 70.063 153.759 68.1208 156.194C66.4611 158.14 64.5858 159.892 62.531 161.416C59.5062 163.643 59.4845 164.282 63.4225 163.206C64.943 162.81 66.4188 162.259 67.8266 161.561C72.6705 159.202 77.2326 156.304 81.4261 152.922" stroke="#303030" stroke-linecap="round" stroke-linejoin="round"/>
<path d="M71.3633 159.724C73.9283 158.611 72.0714 163.935 71.8473 166.451C71.6588 168.557 72.2051 170.782 74.7256 165.483C77.0193 161.245 79.5647 157.149 82.3481 153.215" stroke="#303030" stroke-linecap="round" stroke-linejoin="round"/>
<path d="M63.5232 160.644C61.7333 161.482 59.8703 162.154 57.9576 162.652C54.2782 163.544 54.2794 162.459 54.8118 162.143C56.8929 160.91 60.4258 159.289 62.3133 158.102C65.5553 156.034 68.6515 153.746 71.58 151.253" stroke="#303030" stroke-linecap="round" stroke-linejoin="round"/>
<path d="M59.2142 159.797C58.5608 159.894 58.4882 159.924 58.1749 159.942C54.3757 160.498 54.4713 159.408 55.0291 159.143C57.2286 158.098 60.6431 156.917 62.7471 156.07C65.2656 155.288 67.6547 154.138 69.8373 152.658" stroke="#303030" stroke-linecap="round" stroke-linejoin="round"/>
<path d="M176.166 54.1708C178.713 48.2664 177.165 48.8752 175.682 51.1702C173.755 54.1517 169.632 60.293 169.463 60.898C168.933 62.5537 169.554 69.6654 169.679 72.2126" stroke="#303030" stroke-linecap="round" stroke-linejoin="round"/>
<path d="M172.852 58.5749C174.666 56.4939 178.365 50.9512 180.45 47.976C181.417 46.5954 182.337 49.9119 176.629 58.4539" stroke="#303030" stroke-linecap="round" stroke-linejoin="round"/>
<path d="M175.15 59.8091C177.28 57.9942 179.99 55.2101 182.507 52.7431C183.691 51.5816 185.096 53.5417 179.022 60.7286" stroke="#303030" stroke-linecap="round" stroke-linejoin="round"/>
<path d="M177.787 61.1641C179.825 60.3898 181.735 59.725 184.805 58.2845C186.236 57.6133 186.293 59.7033 179.239 65.0843C177.935 66.0789 178.707 67.0685 179.579 69.198C180.276 70.6874 180.502 72.354 180.227 73.9753" stroke="#303030" stroke-linecap="round" stroke-linejoin="round"/>
<path d="M169.559 70.3595C168.891 67.8534 167.915 65.4395 166.655 63.1726C164.135 58.1419 166.146 58.7507 167.358 60.051C168.111 60.8655 168.739 61.787 169.221 62.7854" stroke="#303030" stroke-linecap="round" stroke-linejoin="round"/>
<path d="M52.4637 226.778C57.6141 229.092 59.5118 226.714 56.7481 221.817C53.8068 217.044 49.6362 213.149 44.6731 210.541C39.5201 208.061 37.1474 210.031 39.8869 215.085" stroke="#303030" stroke-linecap="round" stroke-linejoin="round"/>
<path d="M167.06 205.562C168.816 204.966 171.262 203.742 170.842 201.926C170.205 199.196 163.56 198.128 160.434 197.953C156.622 197.737 147.756 198.317 146.122 201.571C145.295 203.216 147.303 204.555 149.016 205.264" stroke="#303030" stroke-linecap="round" stroke-linejoin="round"/>
<path d="M150.033 199.047L147.732 213.275C148.455 219.771 157.212 228.403 162.888 232.952C165.551 235.088 171.88 239.627 175.252 239.627C179.89 239.627 177.095 230.305 171.621 223.487C164.846 215.009 167.036 205.708 167.896 199.434" stroke="#303030" stroke-linecap="round" stroke-linejoin="round"/>
<path d="M44.672 210.541C40.8958 214.215 35.3862 219.201 33.1294 221.067C30.3274 223.38 30.5822 227.36 31.8214 230.771C33.2758 234.786 34.5711 241.567 36.1058 244.927C36.6819 246.104 37.5666 247.102 38.6656 247.816C39.7647 248.53 41.0368 248.932 42.3464 248.979H51.7354C52.9224 248.979 53.4254 247.856 53.1363 246.717C52.5467 244.373 50.1115 242.579 46.6028 240.886C46.6155 238.42 47.0065 235.972 47.7643 233.626C49.0977 230.457 54.3463 224.456 56.7419 221.817" stroke="#303030" stroke-linecap="round" stroke-linejoin="round"/>
<path d="M31.7969 222.713C34.5988 223.39 35.796 229.124 36.42 234.473C37.0568 239.916 39.1048 246.85 42.3474 248.979" stroke="#303030" stroke-linecap="round" stroke-linejoin="round"/>
<path d="M97.4013 80.3306C94.7624 78.8545 93.3551 77.4764 93.0456 76.3378C92.5056 74.3561 95.319 72.9959 100.933 72.8533C107.963 72.9202 114.959 73.8379 121.769 75.5864C127.503 76.9237 128.713 80.9827 128.713 80.9827C127.958 80.881 127.19 80.9471 126.464 81.1762C126.972 82.674 127.067 84.7334 126.124 83.6929C124.506 81.9035 122.713 84.5882 125.907 86.7903C125.541 89.216 124.99 91.6105 124.262 93.953C124.286 94.5822 109.596 98.3635 95.1509 99.1073C91.9312 99.2728 75.9348 99.9809 72.1624 94.6751C71.8415 94.2306 71.602 93.7301 71.4594 93.199C70.2342 88.586 74.9936 86.9406 79.2767 86.3751C81.339 86.1165 83.4196 86.0356 85.4957 86.1331C84.4402 85.3111 83.4821 84.371 82.6403 83.3312C79.8677 79.6938 83.8986 78.7806 88.5918 78.9513C91.5725 79.0576 94.5309 79.5207 97.4013 80.3306ZM97.4013 80.3306C98.1273 80.5726 98.5858 80.7903 98.6584 80.9839C98.2241 80.7661 97.7885 80.5484 97.4013 80.3306Z" stroke="#303030" stroke-linecap="round" stroke-linejoin="round"/>
<path d="M138.053 116.99L135.779 113.965L138.319 113.723" stroke="#303030" stroke-linecap="round" stroke-linejoin="round"/>
<path d="M117.001 111.715L108.145 130.009" stroke="#303030" stroke-linecap="round" stroke-linejoin="round"/>
<path d="M136.94 130.614L138.315 113.723L165.587 111.085C168.249 110.83 170.761 109.736 172.761 107.962C174.761 106.188 176.147 103.825 176.718 101.212L182.357 75.4654C178.315 71.9566 172.509 71.5172 166.289 72.6825L160.966 95.3806C139.212 98.2119 132.094 95.5921 127.378 98.599C124.424 100.483 122.974 102.059 121.256 102.955C120.724 103.325 120.156 103.641 119.562 103.898C100.451 111.427 89.5366 120.692 89.5366 120.692C83.0514 126.234 77.4132 134.534 70.2988 145.98C74.6048 150.034 79.9196 152.858 85.689 154.159C91.0381 144.019 96.6038 136.082 103.233 130.638C105.358 129.032 107.598 127.584 109.936 126.307" stroke="#303030" stroke-linecap="round" stroke-linejoin="round"/>
<path d="M170.891 202.362L180.327 149.464C181.014 145.6 180.319 141.617 178.363 138.214C176.408 134.811 173.317 132.204 169.633 130.852C167.191 129.955 164.573 129.641 161.988 129.936L132.125 133.324C126.294 130.492 119.445 131.122 112.476 132.041C105.954 134.137 98.5941 141.819 97.3523 154.134L39.252 210.081" stroke="#303030" stroke-linecap="round" stroke-linejoin="round"/>
<path d="M18.4414 248.992H235.598" stroke="#303030" stroke-linecap="round" stroke-linejoin="round"/>
<path d="M196.348 216.978L201.308 215.09" stroke="#303030" stroke-linecap="round" stroke-linejoin="round"/>
<path d="M210.092 211.751L215.052 209.863" stroke="#303030" stroke-linecap="round" stroke-linejoin="round"/>
<path d="M202.131 204.08L204.018 209.016" stroke="#303030" stroke-linecap="round" stroke-linejoin="round"/>
<path d="M207.381 217.824L209.27 222.761" stroke="#303030" stroke-linecap="round" stroke-linejoin="round"/>
<path d="M196.59 209.331L201.405 211.509" stroke="#303030" stroke-linecap="round" stroke-linejoin="round"/>
<path d="M209.996 215.332L214.836 217.51" stroke="#303030" stroke-linecap="round" stroke-linejoin="round"/>
<path d="M209.801 204.298L207.623 209.137" stroke="#303030" stroke-linecap="round" stroke-linejoin="round"/>
<path d="M203.776 217.704L201.621 222.543" stroke="#303030" stroke-linecap="round" stroke-linejoin="round"/>
<path d="M29.5957 171.412L32.3085 184.987" stroke="#303030" stroke-linecap="round" stroke-linejoin="round"/>
<path d="M37.7511 176.857L24.1758 179.567" stroke="#303030" stroke-linecap="round" stroke-linejoin="round"/>
<path d="M237.558 89.6939C237.558 90.0091 237.489 90.3204 237.354 90.6053C237.22 90.8903 237.023 91.1418 236.78 91.3417C236.536 91.5416 236.251 91.6849 235.945 91.7611C235.64 91.8374 235.321 91.8447 235.012 91.7826C234.599 91.7 234.22 91.4969 233.922 91.1991C233.625 90.9013 233.422 90.522 233.339 90.1091C233.278 89.8002 233.286 89.4816 233.363 89.1762C233.44 88.8708 233.583 88.5862 233.783 88.3428C233.983 88.0995 234.234 87.9035 234.519 87.7689C234.804 87.6343 235.115 87.5645 235.429 87.5645C235.994 87.5655 236.535 87.7902 236.934 88.1894C237.333 88.5885 237.557 89.1296 237.558 89.6939Z" stroke="#303030" stroke-linecap="round" stroke-linejoin="round"/>
<path d="M128.181 131.948C128.181 131.948 119.832 143.37 125.379 149.758C130.774 155.977 155.242 148.049 167.484 143.563C168.191 143.304 168.953 143.236 169.694 143.366C170.436 143.495 171.13 143.818 171.707 144.302C172.283 144.785 172.722 145.412 172.979 146.12C173.236 146.827 173.302 147.59 173.171 148.331" stroke="#303030" stroke-linecap="round" stroke-linejoin="round" stroke-dasharray="3.57 5.95"/>
<path d="M173.167 148.327L164.262 197.909" stroke="#303030" stroke-linecap="round" stroke-linejoin="round" stroke-dasharray="3.57 5.95"/>
<path d="M113.298 159.845L52.4883 216.348" stroke="#303030" stroke-linecap="round" stroke-linejoin="round" stroke-dasharray="3.57 5.95"/>
<path d="M163.003 95.1628L160.971 95.3806" stroke="#303030" stroke-linecap="round" stroke-linejoin="round"/>
</svg>
