<svg width="264" height="264" viewBox="0 0 264 264" fill="none" xmlns="http://www.w3.org/2000/svg">
<path fill-rule="evenodd" clip-rule="evenodd" d="M204.162 137.388L225.81 127.357L205.734 114.471L223.868 98.9699L201.06 91.9739L214.339 72.1554L190.491 71.576L197.93 48.9102L174.811 54.7856L175.86 30.953L155.181 42.8488L149.761 19.6168L133.056 36.654L121.572 15.7452L110.088 36.654L93.3865 19.626L87.9666 42.858L67.2835 30.9556L68.3316 54.7882L45.2118 48.9129L52.6513 71.5786L28.8028 72.1581L42.082 91.9766L19.2724 98.9686L37.4079 114.469L17.332 127.355L38.98 137.387L23.1255 155.207L46.673 159.035L36.216 180.477L59.9179 177.804L57.3835 191.68L68.5362 189.008C68.5362 189.008 89.3922 146.865 100.26 125.829C106.692 113.38 102.803 117.955 100.798 93.6543C100.059 84.6928 95.6503 61.6166 97.794 61.144C99.9376 60.6714 102.318 66.6669 104.567 75.6363C105.811 80.7911 107.723 85.7612 110.255 90.4203C110.255 90.4203 108.275 76.8507 110.846 75.8871C113.417 74.9235 114.542 82.268 116.267 87.8172C117.993 93.3665 122.833 103.373 121.26 111.254C119.686 119.134 119.503 140.21 117.153 152.341C115.429 161.249 109.736 189.881 100.907 206.925L107.343 223.74L121.572 204.583L135.795 223.74L144.328 201.462L163.195 216.063L165.4 192.303L187.505 201.279L183.216 177.804L206.922 180.477L196.465 159.035L220.013 155.207L204.162 137.388ZM156.958 102.127C155.048 110.89 153.831 120.419 153.831 120.419L132.687 125.807C125.518 114.364 131.913 97.0929 133.067 92.3897C134.398 86.9711 134.264 75.5043 137.238 74.7268C140.212 73.9493 137.917 87.247 137.917 87.247C137.917 87.247 142.116 69.1881 144.781 68.899C147.446 68.6099 144.781 82.3907 144.781 82.3907C144.781 82.3907 150.244 64.8215 153.511 65.2637C155.914 65.5911 154.075 71.0717 152.93 73.9612C153.854 71.9495 155.536 68.9175 157.236 68.899C160.234 68.8673 154.04 87.0846 153.241 97.0599C156.164 91.9884 158.69 86.8629 161.44 87.9136C162.527 88.3188 157.802 98.2492 156.958 102.127Z" fill="#E5DFD5"/>
<path d="M57.3835 191.681L59.9179 177.805L36.212 180.478L46.6691 159.036L23.1216 155.208L38.9761 137.388L17.3281 127.357L37.404 114.471L19.2725 98.9686L42.0808 91.9726L28.8029 72.1581L52.6513 71.5786L45.2118 48.9129L68.3316 54.7882L67.2835 30.9556L87.9613 42.8514L93.3812 19.6194L110.088 36.654L121.572 15.7452L133.056 36.654L149.757 19.626L155.177 42.858L175.856 30.9622L174.807 54.7948L197.927 48.9195L190.487 71.5852L214.335 72.1647L201.056 91.9832L223.865 98.9792L205.73 114.469L225.806 127.355L204.158 137.387L220.013 155.207L196.465 159.035L206.922 180.477L183.216 177.804L187.501 201.271L165.396 192.295L163.191 216.055L144.324 201.454L135.795 223.74L121.572 204.583L107.343 223.74L100.907 206.938" stroke="#303030" stroke-linecap="round" stroke-linejoin="round"/>
<path fill-rule="evenodd" clip-rule="evenodd" d="M68.5359 189.009L65.7189 199.742L60.291 190.986L68.5359 189.009Z" fill="#008765"/>
<path d="M68.5359 189.009L65.7189 199.742L60.291 190.986" stroke="#303030" stroke-linecap="round" stroke-linejoin="round"/>
<path d="M13.4961 202.195L68.5401 189.009C68.5401 189.009 89.3961 146.866 100.264 125.83C106.696 113.38 102.807 117.958 100.802 93.6553C100.063 84.6939 95.6542 61.6176 97.7979 61.1451C99.9416 60.6725 102.323 66.6679 104.571 75.6373C105.815 80.7921 107.727 85.7623 110.259 90.4213C110.259 90.4213 108.279 76.8517 110.85 75.8881C113.421 74.9245 114.546 82.269 116.271 87.8183C117.997 93.3676 122.837 103.374 121.264 111.255C119.69 119.135 119.507 140.212 117.157 152.343C114.807 164.473 105.097 213.201 90.1274 219.399C75.1573 225.596 22.3705 237.211 22.3705 237.211" stroke="#303030" stroke-linecap="round" stroke-linejoin="round"/>
<path d="M109.359 102.128L110.254 90.4265" stroke="#303030" stroke-linecap="round" stroke-linejoin="round"/>
<path fill-rule="evenodd" clip-rule="evenodd" d="M236.07 199.742L185.266 189.009C185.266 189.009 173.254 146.656 164.138 124.804L128.741 133.906C128.642 141.72 143.88 214.788 158.296 222.178C172.711 229.569 236.069 237.212 236.069 237.212L236.07 199.742Z" fill="#008765"/>
<path fill-rule="evenodd" clip-rule="evenodd" d="M170.742 219.648C167.503 214.977 164.746 215.89 167.813 211.706C170.881 207.521 169.21 205.187 163.024 202.79C156.839 200.393 155.599 199.952 153.081 194.07C150.562 188.188 142.234 192.01 142.234 192.01C147.1 206.812 152.759 219.346 158.296 222.185C161.355 223.6 164.542 224.719 167.813 225.53C167.813 225.53 173.976 224.314 170.742 219.648Z" fill="#E5DFD5"/>
<path fill-rule="evenodd" clip-rule="evenodd" d="M169.922 172.211C172.412 177.338 174.084 181.621 183.405 182.588C180.897 174.054 176.186 158.376 171.261 143.968C166.088 145.658 162.174 149.567 163.35 154.998C165.066 162.888 157.558 160.702 159.096 166.711C160.634 172.719 167.432 167.087 169.922 172.211Z" fill="#E5DFD5"/>
<path d="M236.07 199.742L185.266 189.009C185.266 189.009 173.254 146.656 164.138 124.804L128.741 133.906C128.642 141.72 143.88 214.788 158.296 222.178C172.711 229.569 236.069 237.212 236.069 237.212" stroke="#303030" stroke-linecap="round" stroke-linejoin="round"/>
<path d="M153.251 96.9619C154.059 87.0619 160.234 68.8604 157.24 68.8921C154.696 68.9185 152.199 75.6967 152.199 75.6967C152.199 75.6967 156.783 65.7017 153.519 65.2568C150.255 64.812 144.788 82.3838 144.788 82.3838C144.788 82.3838 147.461 68.5964 144.788 68.8921C142.115 69.1878 137.924 87.2467 137.924 87.2467C137.924 87.2467 140.22 73.949 137.246 74.7265C134.272 75.504 134.405 86.9708 133.075 92.3894C131.921 97.0926 125.526 114.363 132.695 125.807" stroke="#303030" stroke-linecap="round" stroke-linejoin="round"/>
<path d="M153.83 120.418C153.83 120.418 155.047 110.889 156.957 102.127C157.802 98.2488 162.526 88.3184 161.445 87.9066C157.923 86.5615 154.769 95.3408 150.677 101.173C146.606 106.973 136.601 110.521 137.915 119.063" stroke="#303030" stroke-linecap="round" stroke-linejoin="round"/>
<path d="M152.196 75.697C150.568 80.6932 149.476 83.2078 147.536 90.877L145.283 93.4325" stroke="#303030" stroke-linecap="round" stroke-linejoin="round"/>
<path d="M144.787 82.384C141.18 92.6127 143.536 88.5642 140.061 93.4284" stroke="#303030" stroke-linecap="round" stroke-linejoin="round"/>
<path d="M134.855 94.4991L136.653 91.6901L137.917 87.247" stroke="#303030" stroke-linecap="round" stroke-linejoin="round"/>
<path d="M131.396 133.221L129.812 126.538L159.147 119.064L160.763 125.674" stroke="#303030" stroke-linecap="round" stroke-linejoin="round"/>
<path d="M170.647 144.168C170.647 144.168 161.637 147.107 163.346 154.992C165.056 162.876 157.554 160.694 159.092 166.704C160.63 172.714 167.432 167.076 169.923 172.205C172.413 177.333 174.205 181.598 183.405 182.581" stroke="#303030" stroke-linecap="round" stroke-linejoin="round"/>
<path d="M142.234 192.003C142.234 192.003 150.562 188.183 153.081 194.064C155.599 199.944 156.84 200.385 163.024 202.784C169.209 205.182 170.88 207.516 167.813 211.699C164.747 215.882 167.503 214.97 170.742 219.641C173.982 224.313 167.813 225.523 167.813 225.523" stroke="#303030" stroke-linecap="round" stroke-linejoin="round"/>
<path d="M246.707 70.2701L249.199 78.4831L257.399 81.007L250.358 85.916L250.49 94.496L243.646 89.3177L235.525 92.0963L238.335 83.9862L233.188 77.1222L241.767 77.2885L246.707 70.2701Z" stroke="#303030" stroke-linecap="round" stroke-linejoin="round"/>
<path fill-rule="evenodd" clip-rule="evenodd" d="M50.7946 223.76L52.4036 232.188L60.2906 235.572L52.7666 239.704L51.9852 248.251L45.731 242.372L37.3556 244.274L41.0147 236.51L36.623 229.135L45.1384 230.215L50.7946 223.76Z" fill="#E5DFD5"/>
<path d="M50.7946 223.76L52.4036 232.188L60.2906 235.572L52.7666 239.704L51.9852 248.251L45.731 242.372L37.3556 244.274L41.0147 236.51L36.623 229.135L45.1384 230.215L50.7946 223.76Z" stroke="#303030" stroke-linecap="round" stroke-linejoin="round"/>
<path d="M211.371 24.8164H222.104" stroke="#008765" stroke-linecap="round" stroke-linejoin="round"/>
<path d="M216.744 17.6512V31.9745" stroke="#008765" stroke-linecap="round" stroke-linejoin="round"/>
<path d="M6.59961 172.05H14.8443" stroke="#008765" stroke-linecap="round" stroke-linejoin="round"/>
<path d="M10.7227 166.684V177.416" stroke="#008765" stroke-linecap="round" stroke-linejoin="round"/>
<path d="M146.557 242.888H154.801" stroke="#008765" stroke-linecap="round" stroke-linejoin="round"/>
<path d="M150.68 237.522V248.255" stroke="#008765" stroke-linecap="round" stroke-linejoin="round"/>
</svg>
